<svg xmlns="http://www.w3.org/2000/svg" width="119.112" height="78.818" viewBox="0 0 119.112 78.818">
  <g id="aisa-logo-blk" style="mix-blend-mode: luminosity;isolation: isolate">
    <path id="Path_9942" data-name="Path 9942" d="M250.812,88.3c-.171.171-.341.3-.512.469,0,.171.043.384.043.554a4.653,4.653,0,0,0,.469.256c.213-.341.9-.6.64-.981C251.238,88.513,251.025,88.385,250.812,88.3Z" transform="translate(-144.707 -52.392)" fill="#6eb444"/>
    <path id="Path_9943" data-name="Path 9943" d="M175.9,74.576a.422.422,0,0,1,.341.043C176.113,74.619,176.028,74.576,175.9,74.576Z" transform="translate(-102.036 -44.51)" fill="#ffc313" stroke="#ffc313" stroke-width="2"/>
    <path id="Path_9944" data-name="Path 9944" d="M207.7,49.228c.256-.043.512-.085.682-.128a.892.892,0,0,1,.256.171A6.6,6.6,0,0,0,207.7,49.228Z" transform="translate(-120.275 -29.909)" fill="#ffc313" stroke="#ffc313" stroke-width="2"/>
    <path id="Path_9945" data-name="Path 9945" d="M270.832,131.966l-1.365-1.066c.469.682-.3.938-.6,1.322a1.277,1.277,0,0,1-.341-.171c0,.128-.043.256-.043.384l-.128.384-.128.256a3.555,3.555,0,0,0-.171.64c-.043,0-.043,0-.085-.043,0-.128.043-.256.043-.469a5.494,5.494,0,0,1-3.326,1.791,5.016,5.016,0,0,1-.3.853,1.236,1.236,0,0,0-.256,1.066,10.315,10.315,0,0,1,.426,1.535,1.3,1.3,0,0,1-.043.9c-.341.554-.725,1.109-1.066,1.706a1.287,1.287,0,0,0,.128,1.493.689.689,0,0,1,.171.725,2.05,2.05,0,0,0,.6,1.578c.3.171.6.256.9.426a.789.789,0,0,0,.81,0,7.958,7.958,0,0,1,.938-.3c.256-.085.512-.128.64-.426.171-.469.384-.938.554-1.45.128-.384.171-.768.3-1.151.512-1.45,1.023-2.9,1.493-4.307a2.932,2.932,0,0,0,.213-1.023,1.119,1.119,0,0,1,.213-.81.7.7,0,0,0,.085-.81.587.587,0,0,1,.043-.768c.171.256.3.426.426.64a.256.256,0,0,0,.171-.043,6.472,6.472,0,0,0,.128-.9,7.062,7.062,0,0,0-.256-.9C270.918,132.563,270.875,132.265,270.832,131.966Z" transform="translate(-152.147 -76.824)" fill="#ec135f"/>
    <path id="Path_9946" data-name="Path 9946" d="M213.6,141.328a4.662,4.662,0,0,1,2.474-1.749,3.164,3.164,0,0,0,1.535-1.024,1.131,1.131,0,0,0,.213-.256,5.2,5.2,0,0,0,.3-.725c-.171-.256-.256-.426-.469-.384a6.555,6.555,0,0,0-.81.341,1.31,1.31,0,0,1-.9-.085l-.768.426-.9.171c-.213.043-.384.085-.6.128-.213,0-.426.043-.682.043l-.9.171c-.213,0-.469-.043-.725-.043a6.507,6.507,0,0,1-.469.682l-.81.384c-.512.3-1.237.085-1.578.64l-.512.384a3.29,3.29,0,0,0-.64.085c-.341.213-.682.426-1.024.6-.3.171-.682-.213-1.023.554-.043,0-.043.043-.085.043h-.213c-.213-.128-.341-.426-.512-.171-.64.384-1.279.768-1.919,1.194-.213-.085-.426.128-.682.6h-.81a1.262,1.262,0,0,1-.128-.171.345.345,0,0,0-.554.341,2.4,2.4,0,0,1,.171.512,1.119,1.119,0,0,0-1.194,1.109,4.461,4.461,0,0,1-.725.171l-1.023.384a1.73,1.73,0,0,0-1.621,1.024l-.043.043a7.41,7.41,0,0,0-.81.426c-.043-.085-.256-.171-.213-.128.043.171-.426.341-.384.554a5.041,5.041,0,0,1-1.194.512,3.9,3.9,0,0,1,.3.554,1.3,1.3,0,0,0-.3.213l-.512.256c-.341-.256-.043-.725-.256-.3l-.768.426c-.256.171-.6.341-.81.469-.171.6-.725.128-.938.682a2.838,2.838,0,0,0,.9,1.535,3.978,3.978,0,0,1,1.237,1.749c.3.682.768,1.322,1.109,2a2.784,2.784,0,0,1,.256,1.024c0,.085-.128.171-.256.213v.171c0,.043-.085.128-.128.171a.042.042,0,0,0,.043.043c.085.384.682.554.384,1.066-.043.043.043.213.043.256.128-.085.213-.171.3-.171.043,0,.128.128.171.171a.589.589,0,0,0,.171.128,1.054,1.054,0,0,1,.384.171c.426.384.64.384,1.151.128a1.448,1.448,0,0,1,.81-.213,1.45,1.45,0,0,0,1.109-.256,1.46,1.46,0,0,1,.768-.171,12.052,12.052,0,0,1,1.237.085c-.085-.085-.171-.171-.3-.043-.3-.256-.171-.469-.213-.725.256-.085.426-.512.725-.256.128-.213.853-.043.384-.469-1.066-.725.512-.682-.043-1.365a2.54,2.54,0,0,0,.6-.9v-.6c.213-.043.384-.085.3-.6-.171.085-.384.171-.554.256-.9-.384.512-.64-.384-1.151a2.265,2.265,0,0,1,.981-.768,9.746,9.746,0,0,0,1.322-.682l.3.426c-.256.469-.725,0-.981.341.512.554-.171.64-.085,1.407.512,1.024,1.279.256,1.706,1.109-.043.341-.81.3-.426.81-.469.085-.64.682-.341,1.237.341-.171.853-.085,1.024-.512a2.076,2.076,0,0,1,.512.043c.043-.085.085-.128.128-.213.128-.213.213-.426.341-.682.043-.043.085-.043.128-.085.043,0,.043-.043.085-.043.3-.3.64-.6.9-.9-.085-.3.256-.256.128-.682-.256-.3-.682.341-.9-.682.043-.341.384-.512.64-.64-.384-.725.725-.554.725-1.194.341-.341.682-.64.981-.981a.606.606,0,0,0,.256.085c.341.426.128,1.024.768,1.109l.512-.256c.043-.384-.085-.512-.043-.9l.512-.768a.749.749,0,0,0,.213.171c0-.043,0-.043.043-.085a2.529,2.529,0,0,1,.725-.64l-.043-.085a3.2,3.2,0,0,0,1.024-.384c0,.043,0,.043.043.085.213-.085.469-.171.682-.256a.928.928,0,0,0,.341-.213c.043-.085.043-.128.085-.213,0-.043-.085-.128-.171-.256.043-.171.128-.469.171-.725a2.582,2.582,0,0,0,0-.81.32.32,0,0,0-.043-.213c-.384-.256-.341-.725-.426-1.066a.746.746,0,0,0-.3-.6c-.213-.128-.128-.725.043-.853.043-.043.085-.085.128-.085.043-.128.085-.3.171-.341.3-.213.554-.469.81-.682l.512-.384C213.342,141.5,213.513,141.456,213.6,141.328Zm-11.216,2.431a1.854,1.854,0,0,1,.171.3A2.445,2.445,0,0,0,202.382,143.759Zm4.265-1.919a.845.845,0,0,1,.682-.043A3.447,3.447,0,0,0,206.647,141.84Zm2.09-.426a2.575,2.575,0,0,0,.768-.384A1.2,1.2,0,0,1,208.737,141.413Z" transform="translate(-110.18 -80.429)" fill="#bababa"/>
    <path id="Path_9947" data-name="Path 9947" d="M212.694,94.29a4.511,4.511,0,0,0-1.024.64c-.341.171-.725.3-1.023.469a3.326,3.326,0,0,0-.938-.128,4.134,4.134,0,0,0-2.857,1.365l-.043.043a3.979,3.979,0,0,0-2.09.981c-.085.043-.128.128-.171.128,0,0-.469.213-.64.3l-1.194.341-.3.171a3.847,3.847,0,0,0-.81.171h-.512l-1.706,1.151-.9.171-.384.426-.171.043-.469-.128-1.109,1.194a4.348,4.348,0,0,0-1.876.81l-1.066.768-.682.341a4.088,4.088,0,0,0-1.962,2.047l-.128.085a3.438,3.438,0,0,0-2.175,1.279,3.325,3.325,0,0,0-1.834.853,3.012,3.012,0,0,0-1.066,1.535c-.171.171-.384.341-.6.554-.043,0-.128.043-.171.043l-.384-.64-.256.256-.853.426-1.45.256c-.128.469-.213.9-.341,1.365a11.008,11.008,0,0,0-.341,1.109c-.085.469-.043.938-.085,1.407a2.131,2.131,0,0,0,.426,1.322,13.4,13.4,0,0,1,1.194,1.962,10.342,10.342,0,0,0,1.109,1.876,1.235,1.235,0,0,1,.3,1.024,4.78,4.78,0,0,0,.128,1.535,6.769,6.769,0,0,0,.3.853c.043.213.043.426.085.64a11.329,11.329,0,0,0,2.388-1.279c.426-.256.853-.085,1.194-.682.213-.171.384.128.512-.085a3.488,3.488,0,0,0,.384-.341l.682-.6.171-.6c.043-.085.128-.128.213-.213a6.136,6.136,0,0,0,1.151-1.45c.043-.043.128-.085.171-.171.128-.128.3-.256.384-.341l1.407-.341.469-1.279.256-.128a6.4,6.4,0,0,0,2.857-2.132,4.437,4.437,0,0,0,1.322-1.024,7.46,7.46,0,0,0,2.218-1.322c.256-.171.6-.426.768-.554h1.066l.64-.682a2.484,2.484,0,0,0,.64-.469c.128-.043.213-.085.341-.128l.768-.128a3.292,3.292,0,0,1,.64-.085l.682-.085.768-.469a3.316,3.316,0,0,0,1.706-.9,3.769,3.769,0,0,0,1.749-1.237h.043a3.262,3.262,0,0,0,1.706-.469l.426-.128a1.375,1.375,0,0,1-.341-.6,5.923,5.923,0,0,1-.256-.81c-.043-.256-.043-.512-.085-.768,0-.128.085-.3,0-.384-.213-.256-.128-.426.043-.64s.171-.3-.085-.469c-.682-.469-.682-.682-.426-1.45a16.365,16.365,0,0,1,.768-1.493c.213-.469.384-.981.6-1.493.043-.085.128-.213.213-.213a3.276,3.276,0,0,0,1.407-1.109c.682-.768,1.237-1.578,1.919-2.3a9,9,0,0,1,.981-.81,6.843,6.843,0,0,1,.256-1.279Z" transform="translate(-105.011 -54.628)" fill="#2395d2"/>
    <path id="Path_9948" data-name="Path 9948" d="M214.713,66.868a.784.784,0,0,0-.682.085c-1.194.6-1.535.256-2.047-.426-.256-.341-.512-.64-.981-.6a2.514,2.514,0,0,1,.341-.171,3.1,3.1,0,0,0,.384-.341,1.019,1.019,0,0,0-.384-.085,2.515,2.515,0,0,1,.341-.171,1.623,1.623,0,0,0-.384-.554c-.213-.213-.469-.341-.682-.554a2.3,2.3,0,0,1-.384-.512l-.341-.341a11.822,11.822,0,0,0-1.109.426c-.6.128-1.151.3-1.749.426-.384.128-.81.213-1.194.341l-1.279.256-1.706.512c-.426.043-.853.128-1.279.213-.341.3-.768.64-1.151.981l-1.621.768c-1.066.554-2.218.554-3.071,1.365-.341.213-.725.469-1.066.682-.384.128-.768.256-1.194.384-.682.384-1.365.768-2,1.194-.6.341-1.109.043-2,1.109-.043.043-.085.043-.171.085a1.583,1.583,0,0,0-.384.085c-.3-.085-.426-.384-.81-.043-1.279.768-2.516,1.578-3.753,2.346-.341-.043-.725.341-1.407,1.109-.469.128-.9.256-1.365.384a1.259,1.259,0,0,1-.128-.171c-.3-.171-1.066.3-1.066.682a2.118,2.118,0,0,1,.128.554,3.516,3.516,0,0,0-2.431,2c-.426.213-.384-.725-.81-.554-.64.341-.81-.213-1.407.128-.171.085-1.791.81-1.962.853a15.633,15.633,0,0,0,2,2.943,11.31,11.31,0,0,1,1.407,1.791,2.072,2.072,0,0,1,.128.3,7.178,7.178,0,0,0,.256,1.024,4.323,4.323,0,0,0,.384.554c.128.3.256.554.384.853.682-.426,1.407-.853,2.09-1.365l.256.426c-.6.725-1.194.384-1.791.981.384.3.085.6-.256.981,0,.085-.085.171-.171.256a.042.042,0,0,1-.043.043c.043.171.043.341-.128.426l.256.64c.64.171,1.663-.512,1.962.213-.213.512-1.493.81-1.109,1.322l-.256.128v.256a1.655,1.655,0,0,1-.256.81l-.128.384a3.654,3.654,0,0,0,1.45-.981c.3-.085.554-.128.853-.213a3.1,3.1,0,0,0,.341-.384c.3-.384.6-.725.853-1.109a1.806,1.806,0,0,0,.3-.213c.043-.043.085-.043.128-.085.64-.554,1.407-1.151,1.919-1.621-.043-.384.554-.512.554-.981-.3-.3-1.279.81-1.237-.426a4.356,4.356,0,0,1,1.407-1.194c-.3-.768,1.535-1.109,1.791-1.876.682-.6,1.407-1.194,2.09-1.791h.384c.384.384-.213,1.279.81,1.109.341-.213.64-.384.981-.6.213-.512.043-.6.341-1.151.426-.384.81-.81,1.237-1.194.256.171.6.085.6.384a8.733,8.733,0,0,0,1.024-.213l1.706-.938c.043-.64-.768.043-1.109,0a2.755,2.755,0,0,1-.341-.384,8.048,8.048,0,0,0,1.919-.938c0,1.066,1.535-.384,2.3-.6a3.812,3.812,0,0,0,.384-.682c.512.171,1.365-.512,1.749-.6.256-.085.512-.171.81-.256.3-.128.6-.3.9-.426.384-.213.768-.469,1.151-.682a1.781,1.781,0,0,0,.981-.682c.3-.043.554-.085.853-.128a2.2,2.2,0,0,1,.469-.085,2.589,2.589,0,0,1,.426-.3c.256-.043.554-.085.853-.128a.616.616,0,0,1,.085.3c.512.384,1.066-.6,1.749-.469,0-.256.043-.554.043-.81.512-.256,1.279-.3,1.407-.981.128-.043.213-.085.341-.128a1.526,1.526,0,0,0,1.322-.768,7.424,7.424,0,0,0,.512-.6c.3-.3.682-.554.64-.768a2.433,2.433,0,0,0,.043-.554l.3-.3a2.882,2.882,0,0,0,1.621-1.151C215.4,66.825,215.1,67.038,214.713,66.868ZM183.5,75.525a.892.892,0,0,0,.171.256A2.531,2.531,0,0,1,183.5,75.525Z" transform="translate(-100.889 -37.996)" fill="#6fb544"/>
    <path id="Path_9949" data-name="Path 9949" d="M190.06,30.6a.606.606,0,0,1-.085-.256l-.128-1.407a2.432,2.432,0,0,0-.043-.554.617.617,0,0,1-.085-.3,1.257,1.257,0,0,1-.213-.554,1.368,1.368,0,0,0-.682-.6c-.043,0-.128-.085-.171-.128l-.085-.043c-.043-.043-.085-.043-.128-.085s-.085-.085-.085-.043a.791.791,0,0,1-.085-.3h0c-.043-.043-.085-.085-.085-.128a6.588,6.588,0,0,1-.256-.981h.128c-.128-.128-.256-.213-.3-.341-.213-.384-.426-.81-.6-1.194s-.384-.768-.554-1.151v-.043c-.171-.3-.341-.64-.512-.938a5.923,5.923,0,0,0-.768-1.322,5.5,5.5,0,0,1-.81-1.365,1.326,1.326,0,0,1,.171-.256c.213.3.469.64.682.981a.132.132,0,0,0,.043.085c.085.725.682.981,1.237,1.407a6.889,6.889,0,0,0,.64-2.09,3.067,3.067,0,0,0-.171-.81c0-.043,0-.043-.043-.085a2.609,2.609,0,0,1-.213-.512h0c-.043-.128-.128-.256-.171-.384l-.384.043c-.128,0-.256.043-.341.043a1.469,1.469,0,0,1-.384.043,1.513,1.513,0,0,0-.64.043c-.256.043-.3.043-.3,0l-.3-.213h-.128l-.043.043v-.043c-.043,0-.043-.043-.085-.043l-.426-.085c-.128-.043-.256-.043-.426-.085a.721.721,0,0,0-.64.085h-.341c0,.043-.043.043-.043.085-.085.128-.384.171-.6.213l-.085.085a.157.157,0,0,0-.128.043l-.213.043-.085.043a7.422,7.422,0,0,1-.768.469,7.214,7.214,0,0,0-2.3,1.876,2.416,2.416,0,0,1-.981.512,2.088,2.088,0,0,0-1.407.938c-.768.469-1.535.981-2.26,1.45-.384.256-.768.469-1.151.682-.3.171-.554.341-.853.512a1.811,1.811,0,0,1-.768.341,2.576,2.576,0,0,0-1.151.469l-.128.085-.043.171c0,.043-.043.043-.085.085a1.2,1.2,0,0,0-.341.81c-.043,0-.043.043-.085.043a1.4,1.4,0,0,0-.981.981c-1.407,1.066-2.729,2.09-4.009,3.071a3.144,3.144,0,0,0-2.132,1.322c-.213.256-.469.512-.682.725l-.768.6c-.554.426-1.109.9-1.621,1.322l-1.279.81a5.767,5.767,0,0,0-2.516,2.985l-.64.64-1.962,1.706c-.512.554-1.066,1.109-1.621,1.621l-.085.128a3.9,3.9,0,0,1-.426.554,2.865,2.865,0,0,0-.81,1.322c-.341.426-.682.81-.981,1.194-.384.384-.725.725-1.066,1.109.043-.043.128-.043.171-.085.3-.128.6-.171.853-.3a2.254,2.254,0,0,1,1.365-.426.457.457,0,0,0,.256-.085c.171-.426.6-.426.938-.469.64-.085,1.322-.128,1.962-.171a1.523,1.523,0,0,1,1.706.9c.128.256.213.469.341.725a.9.9,0,0,0,1.109.682c.64-.085,1.322-.171,1.962-.256.085,0,.171-.128.213-.128.171.085.341.128.554.213.128.469.3.64.768.6a.459.459,0,0,0,.085.341c.469.384.213.853.213,1.279a2,2,0,0,1-.384,1.194c-.085.085-.171.213.043.341.085.043.085.213.085.341l.128.085c.426-.426.81-.768,1.151-1.066l.3-.256-.171-.384-.128-.256h0L162,47.27a3.528,3.528,0,0,0,2-1.749,1.932,1.932,0,0,1,.9-.512l.3.341.384-.341a7.616,7.616,0,0,0,1.322-1.535,6.644,6.644,0,0,1,.682-.853,1.916,1.916,0,0,0,.256.384c.554.384,1.407-.128,2-.768l.128-.171V41.3c.512-.426.725-.384.981-.341a1.493,1.493,0,0,0,.853-.043,4.961,4.961,0,0,0,2.175-1.834,5.415,5.415,0,0,1,.426-.512,1.7,1.7,0,0,0,.81-.085c.128-.043.256-.043.426-.085a5.115,5.115,0,0,0,2.26-1.024,10.048,10.048,0,0,1,1.706-.938l.213-.085.085-.213a1.4,1.4,0,0,1,1.151-.9,3.522,3.522,0,0,0,2-1.194c.043-.043.085-.043.128-.085a1.57,1.57,0,0,1-.725.64l-.725.426.426.3c-.085.043-.128.085-.213.128a2.447,2.447,0,0,0-.853.9c-.085.213-.171.469-.256.725-.256.3-.469.554-.725.853l-.085.085-.043.128a4.923,4.923,0,0,1-.341.64c-.341.554-.725,1.109-.469,1.621a1.1,1.1,0,0,0,.938.512h.171l.171-.128c.341-.213.682-.469,1.024-.682l.512-.341.043-.213c.043-.128.043-.256.085-.384.043-.213.085-.384.128-.6V37.8c.256-.085.554-.213.981-.341l.682-.426-.3-.512c.384-.341.81-.682,1.194-1.024a9.866,9.866,0,0,0,2.857-3.028A6.6,6.6,0,0,0,190.06,30.6Z" transform="translate(-85.576 -11.447)" fill="#ffc116"/>
    <path id="Path_9950" data-name="Path 9950" d="M157.778,11.285a4.847,4.847,0,0,0-2.6-.853c-.6,0-.9-.341-.981-.938a.392.392,0,0,0-.426-.384,1.362,1.362,0,0,1-.6-.128,2.614,2.614,0,0,0-1.876-.3,1.153,1.153,0,0,1-.64-.128,3.232,3.232,0,0,0-.682-.256c-.469,0-.512-.341-.64-.64-.085-.213-.171-.256-.3-.128-.3.256-.469.213-.682-.085s.043-.426.256-.512a2,2,0,0,0,.384-.256h0L148.054,5.4,146.9,7.49l-.768.554-.085.085c-.426.426-.81.853-1.194,1.279-.341.341-.682.682-1.024,1.066l-.682.768c-.128.128-.213.256-.341.384-.256.256-.512.554-.768.853l-1.834,2.132-.64.682a3.832,3.832,0,0,0-1.151,1.791l-1.109,1.493.213.6c0,.043-.043.085-.043.128l-.384.768.512.682a.222.222,0,0,1,.085.171,2.418,2.418,0,0,0,.341.554l.6.9a2.065,2.065,0,0,0-.3.768l-.128.171-1.066,1.621-.341.554c-1.194.085-1.621,1.237-1.919,2-.043.171-.128.3-.171.469l-.213.554A3.042,3.042,0,0,0,133.3,30.05c-.085.213-.213.469-.3.64l-.554.853c-.171.171-.3.384-.469.554a4.532,4.532,0,0,1-.384.469l-.085.085-.085.128c-.128.213-.256.384-.384.6a3.9,3.9,0,0,0-.725.768c0,.043-.043.043-.043.085l-.213.128-.171.3c-.3.554-.554,1.066-.81,1.578l-.512.554-.085.341-.043.085a1.442,1.442,0,0,1-.341.426l-.085.128-.085.128a2.286,2.286,0,0,0-.213.469l-.171.085L127.2,39.56h0a3.9,3.9,0,0,0,.725.384,1.443,1.443,0,0,0,1.493,0,5.988,5.988,0,0,1,1.749-.554,3.047,3.047,0,0,1,.853-.085,5.763,5.763,0,0,1,2.559.384c.213-.3.426-.6.6-.9h-.341l1.493-1.535.512-.938c.426-.3,1.066-.725,1.151-1.237v-.213a3.145,3.145,0,0,0,1.066-1.919l.085-.3h0a2.658,2.658,0,0,0,.469-.725h.043a2.411,2.411,0,0,0,1.151-1.109.149.149,0,0,1,.043-.085l1.706-2.26h-.3a2.385,2.385,0,0,0,.725-1.578v-.085a.042.042,0,0,1,.043-.043.589.589,0,0,0,.128-.171.929.929,0,0,1,.171-.213l.341-.043.384-.426a2.018,2.018,0,0,0,.64-1.365,1.886,1.886,0,0,0,.554-1.024l.043-.128v-.213c.085,0,.171.043.3.043a2.249,2.249,0,0,0,1.834-1.322c.043-.043.085-.128.128-.171l.213-.128.213-.384a3.453,3.453,0,0,1,.682-.725,4.657,4.657,0,0,0,1.578-2.26l.3-.171.085-.085a3.735,3.735,0,0,0,.81-.9l.384-.512a2.759,2.759,0,0,0,1.066-1.151l.085-.171h.256a2.69,2.69,0,0,0,1.919-1.365l.128.043.64-.469a2.475,2.475,0,0,0,.768-.981.514.514,0,0,0,.213-.213l1.024-.938A.211.211,0,0,1,157.778,11.285Z" transform="translate(-74.105 -4.846)" fill="#f26f21"/>
    <path id="Path_9951" data-name="Path 9951" d="M129.47,4.1a2.14,2.14,0,0,0-.512.085c-.426.085-.9-.043-1.279.256h-.128c-.938.085-1.962,0-2.644.81,0,.043-.085.085-.128.085-.3-.213-.554.128-.853.085a.48.48,0,0,0-.341.213,1.536,1.536,0,0,1-1.876.3c-.768-.085-1.45.256-2.132-.043a3.206,3.206,0,0,1-.682-.64c-.554-.085-.64.384-.768.768a2.546,2.546,0,0,1-1.919,1.834,1.5,1.5,0,0,0-.725.384,4.479,4.479,0,0,0-.085.554c-.128.171-.213.341-.341.512-.043.128-.213.6-.256.725a6.268,6.268,0,0,1-.426.554.523.523,0,0,1-.085.554l-.043.043c.171.213.085.426-.043.64a3.6,3.6,0,0,1-.64.768c-.3.256-.64.426-.9.682a2.307,2.307,0,0,1-1.493.682.384.384,0,0,0-.213.043c-.171.213-.384.469-.554.725-.085.128-.213.256-.3.384a.975.975,0,0,1-.3.426c-.384.512-.725.981-1.109,1.45-.043.043-.043.085-.085.128a1.848,1.848,0,0,1-.043.213,1.6,1.6,0,0,1-.3.512c-.213.3-.512.554-.725.81-.469.512-.426,1.365-1.109,1.791-.085.043-.128.213-.171.3-.043.171-.043.341-.085.512h.043a.72.72,0,0,0,.085-.213c.213.171.384.341.6.512.213.213.3.768.128.9l-.043.043c.085.256.085.512-.043.6l-.043.043a2.05,2.05,0,0,1,.3,1.706A4.156,4.156,0,0,1,107,26.02a2.422,2.422,0,0,0-.3.938,1.685,1.685,0,0,1-.6,1.322,4.6,4.6,0,0,1,.512,1.109.681.681,0,0,0-.128.341c.043.085.043.171.085.256-.043.085-.085.213-.128.3a.629.629,0,0,0,.469.682v.085c.043.3.3.3.512.3.128,0,.213-.043.341-.043a1.8,1.8,0,0,0,.128.512,2.245,2.245,0,0,0,.512.6c.085.043.256-.043.341.128a3.985,3.985,0,0,0,.682.768,1.841,1.841,0,0,1,.9,1.322c0,.6.469.853.554,1.322a.528.528,0,0,1-.128.085c.341.128.682.256.938.384a7.539,7.539,0,0,1,.725.512c.3.213.64.426.981.64a4.467,4.467,0,0,1,.469.341c.256.256.512.469.81.725.085-.213-.3-.64-.213-1.194a12.61,12.61,0,0,0,.853-3.241,7.415,7.415,0,0,0,.768-2.729c.213-1.45-.554-2.985.043-4.478.341-.853,1.237-1.663,1.621-2.474.213-.384-.128-.768.085-1.151s.981-.725,1.237-1.109c.341-.512,2.218-2.815,2.857-2.431.512.3,2.3-3.369,2-3.838.171-1.024.043-2.218.768-3.113.341-.426.341-1.066.554-1.578.213-.554.469-1.066.725-1.621.469-.725,1.151-1.237,1.706-2,.128-.256.3-.469.426-.725.128-.213.256-.469.384-.682.256-.469.426-.9.64-1.322A8.862,8.862,0,0,1,129.47,4.1Z" transform="translate(-62.003 -4.1)" fill="#ec135f"/>
    <path id="Path_9952" data-name="Path 9952" d="M21.181,126.553c.043-.043.043-.128.043-.3s0-.256-.043-.3a.33.33,0,0,0-.043-.128c-.043-.043-.043-.085-.085-.128a2.543,2.543,0,0,1-.3-.768,4.146,4.146,0,0,1-.043-.768.322.322,0,0,0-.171.043c-.085,0-.128,0-.128-.085v-.341a.425.425,0,0,0-.043-.171c-.043-.085-.043-.128-.085-.171v-.171c0-.085-.043-.171-.043-.256s-.043-.171-.043-.256v-.171a.765.765,0,0,0-.213-.3.765.765,0,0,1-.213-.3,4.377,4.377,0,0,0-.171-.6c-.085-.213-.128-.426-.213-.682-.085-.213-.128-.426-.213-.64s-.171-.384-.256-.554c0-.043-.043-.085-.128-.085h-.171a8.783,8.783,0,0,1-2.175.128,12.367,12.367,0,0,0-2.218.085,1.372,1.372,0,0,0-.341.043c-.171.043-.341.043-.554.085s-.384.043-.554.085a1.372,1.372,0,0,1-.341.043c-.085,0-.213.043-.384.043-.213,0-.426.043-.682.043a3.448,3.448,0,0,0-.682.043,2.356,2.356,0,0,0-.384.043c-.171.043-.341.085-.554.128a1.231,1.231,0,0,0-.426.256,5.578,5.578,0,0,0-.3.554c-.128.256-.213.512-.341.768a5.7,5.7,0,0,0-.3.768,2.471,2.471,0,0,0-.171.554c-.085.341-.213.725-.341,1.109a3.92,3.92,0,0,0-.3,1.109v.341c-.043.043-.043.085-.085.171a.322.322,0,0,0-.043.171v.256a1.676,1.676,0,0,1-.9.554,4.04,4.04,0,0,1-1.109.171,2.1,2.1,0,0,1-.64-.128,3.689,3.689,0,0,1-.725-.3,4.213,4.213,0,0,1-.64-.384,2.078,2.078,0,0,1-.426-.341v-.085l-.213-.81v-.171c.085-.3.171-.64.3-1.024s.256-.81.384-1.194c.128-.426.256-.81.384-1.194a5.957,5.957,0,0,0,.256-1.023.75.75,0,0,1,.043-.256.425.425,0,0,0,.043-.171c0-.043.085-.043.128-.085a.187.187,0,0,0,.128-.043c-.085,0-.085-.043-.128-.085v-.128c0-.128.043-.213.085-.213.085,0,.128,0,.171-.043a.514.514,0,0,0,.171-.512.734.734,0,0,1,.085-.512l.128-.128c.085-.085.128-.085.128-.128s.043-.085.085-.213a.571.571,0,0,0,.043-.213c-.085,0-.128-.043-.128-.085,0-.085.085-.171.213-.256a.614.614,0,0,0,.3-.256,9.022,9.022,0,0,0,.469-1.237,7.589,7.589,0,0,1,.512-1.237l.213-.213.213-.213v-.256q-.064-.192,0-.256a1.314,1.314,0,0,1,.3-.6,4.827,4.827,0,0,0,.426-.554,2.205,2.205,0,0,0,.3-.682,1.144,1.144,0,0,1,.341-.682.528.528,0,0,1,.128-.085.528.528,0,0,0,.128-.085,7.543,7.543,0,0,0,.682-.938c.171-.341.384-.64.554-.938a1.637,1.637,0,0,1,.469-.469.557.557,0,0,0,.3-.512l-.085-.085-.085-.085a.939.939,0,0,1,.256-.512,4.384,4.384,0,0,1,.64-.6,8.648,8.648,0,0,1,.768-.554,6.21,6.21,0,0,1,.682-.384,2.111,2.111,0,0,1,.554-.171c.213-.043.384-.043.554-.085a4.813,4.813,0,0,1,.6-.085,2.985,2.985,0,0,0,.554-.085H15.3a3.314,3.314,0,0,1,.682.085,6.59,6.59,0,0,0,.64.171,2.161,2.161,0,0,0,.554.085c.213.043.384.085.554.128a4.346,4.346,0,0,1,.64.341,4.517,4.517,0,0,1,.512.426c.213.171.426.384.64.554a3.952,3.952,0,0,1,.6.6,4.226,4.226,0,0,1,.469.725c.171.3.3.554.384.725.043.043.043.128.128.3a2.609,2.609,0,0,0,.213.512,5,5,0,0,0,.213.469.657.657,0,0,0,.128.3c0,.043.085.128.128.256a.659.659,0,0,1,.128.256c.043.128.085.256.171.469s.128.384.213.6a3.961,3.961,0,0,1,.171.554c.043.171.085.256.085.3s.043.171.085.384.128.426.171.64a3.553,3.553,0,0,1,.171.64c.043.213.085.3.085.341a.75.75,0,0,0,.043.256c.043.128.043.213.085.256a.464.464,0,0,0,.043.213,2.08,2.08,0,0,1,.128.3l.128.256a.33.33,0,0,1,.043.128V117a.659.659,0,0,0,.128.256,4.426,4.426,0,0,1,.171.426,1.782,1.782,0,0,1,.171.426.694.694,0,0,0,.128.256v.085c0,.043-.043.085-.085.128a.092.092,0,0,0-.085.085.218.218,0,0,0,.171.213,1.245,1.245,0,0,0,.384.085l-.171.469a.825.825,0,0,1,.213.384l.128.512c.043.171.043.341.085.512s.043.3.085.426a.9.9,0,0,0,.213.554,1.322,1.322,0,0,1,.256.554c.128.384.213.81.3,1.151.085.384.213.768.3,1.151,0,.043,0,.085.085.213.043.128.085.213.128.341s.085.213.128.341.085.171.085.213v.256c0,.043-.043.085-.085.128l-.171.171a1.13,1.13,0,0,0-.213.256l-.085.043-.085.043a.249.249,0,0,1-.171.043c-.128,0-.213.043-.341.043a.831.831,0,0,0-.341.043.249.249,0,0,0-.171.043l-.128.085a1.874,1.874,0,0,0-.384.043,1.875,1.875,0,0,1-.384.043c-.043,0-.043.043-.128.085-.043.043-.085.085-.128.085h-.213c-.128,0-.213,0-.256-.043a.385.385,0,0,0-.213-.043h-.085a.868.868,0,0,1-.213.043.571.571,0,0,1-.213.043c-.043,0-.043-.043-.043-.085.043-.043,0-.085-.043-.128a.39.39,0,0,1-.213-.128.39.39,0,0,0-.213-.128h-.256a1.847,1.847,0,0,0-.213-.043C21.266,126.553,21.223,126.553,21.181,126.553Zm-6.056-17.144a5,5,0,0,0-.64.682c-.213.3-.384.6-.6.938s-.384.64-.554.938-.3.554-.426.768c-.3.512-.6.981-.938,1.493a10.105,10.105,0,0,0-.81,1.493l-.256.512a1.136,1.136,0,0,0-.128.512h.256c.128,0,.213,0,.256-.043a4.883,4.883,0,0,0,.64-.043c.341-.043.682-.043,1.066-.085s.768-.043,1.109-.085a4.883,4.883,0,0,1,.64-.043,3.61,3.61,0,0,0,.554-.043c.3-.043.6-.085.938-.128a7.813,7.813,0,0,1,.9-.085,3.752,3.752,0,0,1,.6-.043.72.72,0,0,1,.426-.128.462.462,0,0,1-.213-.171c-.043-.085-.043-.128-.085-.213,0-.085-.043-.128-.043-.213a.892.892,0,0,0-.171-.256H17.6a.042.042,0,0,1-.043.043v-.171l.085-.043.085-.043v-.171c-.043,0-.043-.043-.085-.085a.132.132,0,0,1-.043-.085c-.043-.043-.043-.128-.085-.256a1.677,1.677,0,0,1-.085-.256v.341c-.043-.043-.043-.085-.085-.171s-.085-.128-.085-.171v-.085l.128-.085.043-.043a.042.042,0,0,0-.043-.043c0-.043-.043-.085-.128-.171s-.128-.128-.128-.171c-.043-.043-.043-.085,0-.213v-.213c-.043,0-.043-.043-.085-.085l-.085-.085-.128-.085v-.512l-.213-.426c-.085-.128-.128-.213-.213-.341s-.128-.171-.128-.213a1.444,1.444,0,0,1-.128-.341,121148.151,121148.151,0,0,1-.171-.938c-.043-.128-.043-.213-.085-.256-.043-.085-.128-.171-.213-.3a.448.448,0,0,0-.384-.213H15.21C15.168,109.409,15.125,109.409,15.125,109.409Z" transform="translate(-2.757 -62.199)" fill="#737373"/>
    <path id="Path_9953" data-name="Path 9953" d="M58.085,121.435v-.384c0-.171.043-.341.043-.554V119.3c0-.085-.043-.128-.043-.171a.157.157,0,0,1-.043-.128,1.848,1.848,0,0,1,.043-.213.229.229,0,0,0-.128-.171,5.2,5.2,0,0,0,0-1.151,4.818,4.818,0,0,1,0-1.109.326.326,0,0,1,.085-.213c.043-.085.085-.128.085-.213l.043-.043-.085-.043a.042.042,0,0,1-.043-.043v-.043a.256.256,0,0,1,.043-.171.256.256,0,0,0,.043-.171.157.157,0,0,1,.043-.128c-.043-.725-.085-1.45-.085-2.218,0-.725,0-1.493.043-2.218v-.3c0-.128.043-.256.043-.341,0-.128.043-.256.043-.426a.421.421,0,0,1,.085-.256,1.677,1.677,0,0,0,.085-.256,5.724,5.724,0,0,0,.043-.9,1.76,1.76,0,0,1,.171-.938.258.258,0,0,1-.256-.128c-.043-.085-.085-.128-.085-.213a.228.228,0,0,1,.128-.171.892.892,0,0,1,.256-.171.93.93,0,0,0,.213-.171c.085-.043.085-.085.085-.128a.528.528,0,0,0-.128-.085c-.085-.043-.128-.043-.128-.085v-.085c.043-.043.085-.128.171-.213a1.262,1.262,0,0,1,.128-.171.687.687,0,0,1,.3-.171,1.245,1.245,0,0,1,.384-.085,1.451,1.451,0,0,1,.426-.043.688.688,0,0,0,.384-.128l1.407.085a.326.326,0,0,1,.213.085,2.71,2.71,0,0,1,1.322,1.066,2.537,2.537,0,0,1,.256,1.45v.384a.33.33,0,0,1-.043.128c-.043.085-.085.128-.085.213-.043.085-.085.128-.085.213-.043.085-.043.085-.043.128v.469c0,.128-.043.213-.043.341a.939.939,0,0,0-.043.341v.213a2.447,2.447,0,0,0-.043.512c0,.128-.043.256-.043.384v2.346c0,.341-.043.768-.043,1.194s-.043.81-.043,1.194v1.279a2.869,2.869,0,0,1,.043.768v3.326a.75.75,0,0,1-.043.256q-.064.192,0,.256a1.363,1.363,0,0,0,.043.3,3.292,3.292,0,0,1,.085.64,4.252,4.252,0,0,1,.085.682,2.4,2.4,0,0,0,.085.426q.064.064,0,.256c0,.128-.043.213-.043.341s-.043.256-.043.341a.75.75,0,0,0-.043.256c-.043.256-.043.469-.085.6a1.614,1.614,0,0,1-.384.554c0,.043-.043.085-.128.085a.322.322,0,0,0-.171.043c-.085.043-.213.043-.3.085a2.722,2.722,0,0,0-.3.085.425.425,0,0,1-.171.043c-.213.043-.384.128-.554.171a2.581,2.581,0,0,1-.64.085h-.512c-.043,0-.085-.043-.171-.128s-.128-.128-.171-.128c-.043-.043-.128-.043-.256-.085s-.213-.043-.213-.085c-.043,0-.043-.043-.085-.128s-.043-.171-.085-.256a2.718,2.718,0,0,1-.085-.384h-.256c-.171-.043-.256-.085-.3-.213s-.085-.213-.128-.341a3.848,3.848,0,0,1-.171-.81,6.909,6.909,0,0,1-.043-.938v-1.749Z" transform="translate(-34.373 -62.199)" fill="#737373"/>
    <path id="Path_9954" data-name="Path 9954" d="M78.428,126.637c-.043,0-.085-.043-.171-.085a2.934,2.934,0,0,0-.341-.128,2.939,2.939,0,0,1-.341-.128c-.128-.043-.171-.043-.213-.085a.39.39,0,0,1-.213-.128.736.736,0,0,0-.171-.128c-.043-.043-.085-.043-.256-.085-.128-.043-.213-.043-.256-.085-.043,0-.043-.043,0-.085v-.085l-.128-.085a.157.157,0,0,1-.128-.043.33.33,0,0,0-.128-.043.456.456,0,0,1-.128-.213c-.085-.128-.085-.171-.085-.213a.589.589,0,0,1-.128-.171.588.588,0,0,0-.128-.171c-.043,0-.085-.043-.128-.085a.528.528,0,0,1-.128-.085v-.426c0-.043-.043-.085-.171-.171a1.167,1.167,0,0,1-.213-.171c-.043-.043-.043-.085,0-.171V123.4c-.043,0-.085-.043-.128-.043a.187.187,0,0,1-.128-.043v-.085h.128a.567.567,0,0,0-.128-.341.567.567,0,0,1-.128-.341.953.953,0,0,1,.426.128v-.085c-.043,0-.043-.085-.085-.171a.322.322,0,0,1-.043-.171.751.751,0,0,0-.043-.256c-.043-.171-.043-.256-.085-.3v0a.149.149,0,0,0,.085.043.042.042,0,0,1,.043.043c0,.043.085.128.256.3a2.553,2.553,0,0,0,.256.3.319.319,0,0,1,.128.128c.085.043.128.128.213.171s.128.128.213.171.085.085.085.128c.043,0,.043.043.085.085s.043.043.043.085v-.512a.149.149,0,0,0,.085.043.042.042,0,0,1,.043.043.7.7,0,0,1,.128.256.694.694,0,0,0,.128.256c.043,0,.043.043.085.043h.085a.346.346,0,0,0,.341-.171.442.442,0,0,0,.341.256v-.341h0v.171c0,.043.043.085.171.128a2.936,2.936,0,0,0,.341.128c.171.085.256.085.256.128h.384c.043,0,.128.085.256.171a2.527,2.527,0,0,1,.256.171.571.571,0,0,0,.213-.043.832.832,0,0,1,.3-.043c.043,0,.171-.043.341-.085.213-.043.341-.085.384-.085a.132.132,0,0,0,.085-.043l.128-.043h.6a.157.157,0,0,0,.128-.043.157.157,0,0,1,.128-.043,2.523,2.523,0,0,1,.256-.171c.128-.085.213-.128.213-.171a13.762,13.762,0,0,1,1.45-.64,5.3,5.3,0,0,0,1.322-.768,1.372,1.372,0,0,0,.171-.3l.256-.512a4.5,4.5,0,0,1,.3-.469c.085-.128.171-.213.256-.213h.085c.043,0,.043-.085.085-.213s.043-.213.085-.213c.085,0,.085-.043.128-.128v-.213l-.512-.256c-.171-.043-.341-.085-.554-.128s-.384-.043-.6-.085-.384-.085-.6-.128c-1.151-.043-2.26-.128-3.284-.256s-2.132-.256-3.241-.426a.642.642,0,0,0-.341-.171,2.721,2.721,0,0,1-.384-.085c-.3-.085-.554-.213-.853-.3-.3-.128-.554-.213-.81-.341s-.512-.256-.725-.384a3.279,3.279,0,0,1-.554-.512.33.33,0,0,0-.043-.128c-.043-.085-.043-.128-.085-.128-.043-.043-.043-.128-.128-.213a.932.932,0,0,0-.128-.213c-.043-.043-.043-.171-.043-.341q.064-.256,0-.256h-.128c-.043-.043-.085-.085-.085-.128-.043-.043-.085-.085-.085-.128s-.043-.085-.043-.128a1.819,1.819,0,0,1-.256-.768V113.2a1,1,0,0,1,.085-.469,2.962,2.962,0,0,1,.213-.554c.085-.213.171-.384.256-.554a1.67,1.67,0,0,1,.341-.426,2.215,2.215,0,0,0,.213-.128,1.262,1.262,0,0,0,.171-.128q.064,0,0-.128v-.128l.256-.256a3.845,3.845,0,0,1,.426-.384,3.845,3.845,0,0,0,.426-.384c.128-.128.256-.213.3-.256.085-.085.256-.213.469-.384s.426-.384.682-.6l.768-.64c.256-.213.512-.384.682-.512a.132.132,0,0,1,.043-.085v-.043a.932.932,0,0,1,.213-.128.932.932,0,0,0,.213-.128l.341.171a.384.384,0,0,0,.213-.043.93.93,0,0,0,.213-.171l.171-.171c.043-.043.085-.085.128-.085l.426-.256c0-.043.043-.085.085-.128.085-.043.128-.085.171-.085l.213-.085c.043,0,.043,0,.085-.043,0-.043.043-.043.085-.043a2.163,2.163,0,0,0,.384-.085c.213-.043.3-.043.341-.085H81.5a.149.149,0,0,1,.085-.043l.128-.043a.211.211,0,0,1,.128.043.33.33,0,0,0,.128.043h.256v-.043c0-.043,0-.043.043-.085l.085-.085c.043-.043.128-.043.256-.085s.213-.043.256-.085l.213.085H83.5c.043,0,.043,0,.085-.043.043,0,.043-.043.085-.085l.085-.085h.469a.528.528,0,0,1,.128-.085c.043-.043.085-.085.128-.085h.3a1.6,1.6,0,0,1,.469.043,1.749,1.749,0,0,0,.469.043c.085,0,.128,0,.171-.043a.157.157,0,0,1,.128-.043H86.1l.085.043.085.043h.469a1.958,1.958,0,0,1,.426.043,1.6,1.6,0,0,0,.341.043.947.947,0,0,1,.469.213,4.132,4.132,0,0,1,.384.3,1.677,1.677,0,0,1,.256.085c.128.043.213.043.256.085a.775.775,0,0,1,.426.64,4.75,4.75,0,0,1,.085.725v.426c-.085.085-.128.171-.213.256l-.213.213c-.085.043-.128.128-.171.171l-.085.043c-.043,0-.043.043-.085.043h-.384c-.043,0-.171.043-.384.085s-.341.085-.384.085a.322.322,0,0,1-.171-.043.425.425,0,0,0-.171-.043h-.384c-.213-.043-.341-.085-.512-.128l-.384-.128c-.128-.043-.256-.085-.426-.128a2.44,2.44,0,0,0-.6-.043,5.725,5.725,0,0,0-.9.043,3.808,3.808,0,0,0-.853.256c-.043,0-.085.043-.213.128a1.729,1.729,0,0,0-.384.213,3.75,3.75,0,0,0-.426.256,3.935,3.935,0,0,1-.341.213c-.043,0-.085.043-.128.085-.085.043-.085.085-.085.085a9.368,9.368,0,0,0-.768.6c-.3.213-.554.469-.853.682-.3.256-.554.469-.853.682a5.146,5.146,0,0,0-.682.682c-.043.043-.043.085-.128.171a.589.589,0,0,1-.128.171c-.128.171-.213.3-.3.426s-.171.213-.256.341a1.515,1.515,0,0,0-.171.384,1.533,1.533,0,0,0-.085.469v.213a.256.256,0,0,0,.043.171,2.61,2.61,0,0,1,.213.256,2.785,2.785,0,0,0,.3.341c0,.043.043.085.128.085a4.248,4.248,0,0,0,.469.171,2.277,2.277,0,0,1,.469.171,2.141,2.141,0,0,0,.512.085c.171.043.341.043.512.085a3.2,3.2,0,0,1,.682.171,1.768,1.768,0,0,0,.682.128.462.462,0,0,0,.256-.043.32.32,0,0,1,.213-.043c.043,0,.128.043.341.085s.3.085.341.085h.938a.157.157,0,0,1,.128.043.157.157,0,0,0,.128.043h1.45c.043,0,.128.043.3.085s.256.085.3.085h.6a.211.211,0,0,1,.128.043.33.33,0,0,0,.128.043,1.875,1.875,0,0,1,.384.043,1.875,1.875,0,0,0,.384.043c.043,0,.085.043.128.043a.33.33,0,0,0,.128.043,2.76,2.76,0,0,1,.426.128,1.925,1.925,0,0,0,.554.128,6.075,6.075,0,0,1,.682.213c.256.128.554.213.81.341a4.05,4.05,0,0,1,.725.426,1.34,1.34,0,0,1,.426.426.75.75,0,0,0,.043.256c.043.128.043.213.085.256a.33.33,0,0,0,.043.128c.043.085.043.085.043.128.043.043.043.085.085.171a.322.322,0,0,1,.043.171v.043a1.758,1.758,0,0,1-.171.64l-.384.9c-.171.3-.3.6-.469.9s-.256.469-.341.6a3.556,3.556,0,0,1-.81.981c-.341.3-.682.554-1.066.853-.043,0-.085.085-.171.171s-.171.128-.213.171a.933.933,0,0,1-.213.128c-.128.085-.213.128-.341.213s-.213.128-.341.213-.171.085-.213.128a1.677,1.677,0,0,0-.256.085c-.128.043-.213.043-.256.085-.043,0-.085.043-.213.128a.66.66,0,0,1-.256.128H85.55a2.606,2.606,0,0,0-.6.3,3.9,3.9,0,0,1-.6.3.322.322,0,0,0-.171.043.425.425,0,0,1-.171.043,2.71,2.71,0,0,1-.3.085l-.384.128a1.318,1.318,0,0,1-.341.085.571.571,0,0,1-.213.043l-.085.085c-.469.085-.938.128-1.45.171s-.981.085-1.45.085a2.439,2.439,0,0,1-.6-.043A1.255,1.255,0,0,0,78.428,126.637Z" transform="translate(-42.733 -62.027)" fill="#737373"/>
    <path id="Path_9955" data-name="Path 9955" d="M133.823,126.553a1.514,1.514,0,0,0,.043-.3c0-.171,0-.256-.043-.3a.33.33,0,0,0-.043-.128c-.043-.043-.043-.085-.085-.128a2.544,2.544,0,0,1-.3-.768,4.149,4.149,0,0,1-.043-.768.322.322,0,0,0-.171.043c-.085,0-.128,0-.128-.085v-.341a.425.425,0,0,0-.043-.171c-.043-.085-.043-.128-.085-.171v-.171c0-.085-.043-.171-.043-.256s-.043-.171-.043-.256v-.171a.765.765,0,0,0-.213-.3.765.765,0,0,1-.213-.3,4.377,4.377,0,0,0-.171-.6c-.085-.213-.128-.426-.213-.682-.085-.213-.128-.426-.213-.64s-.171-.384-.256-.554c0-.043-.043-.085-.128-.085h-.085a8.783,8.783,0,0,1-2.175.128,12.367,12.367,0,0,0-2.218.085,1.372,1.372,0,0,0-.341.043c-.171.043-.341.043-.554.085s-.384.043-.554.085a1.372,1.372,0,0,1-.341.043c-.085,0-.213.043-.384.043-.213,0-.426.043-.682.043a3.448,3.448,0,0,0-.682.043,2.356,2.356,0,0,0-.384.043c-.171.043-.341.085-.554.128a1.231,1.231,0,0,0-.426.256,5.578,5.578,0,0,0-.3.554c-.128.256-.213.512-.341.768a5.7,5.7,0,0,0-.3.768,2.471,2.471,0,0,0-.171.554c-.085.341-.213.725-.341,1.109a3.92,3.92,0,0,0-.3,1.109v.341c-.043.043-.043.085-.085.171a.322.322,0,0,0-.043.171v.256a1.676,1.676,0,0,1-.9.554,5.445,5.445,0,0,1-1.237.085,2.105,2.105,0,0,1-.64-.128,3.69,3.69,0,0,1-.725-.3,4.211,4.211,0,0,1-.64-.384,2.077,2.077,0,0,1-.426-.341v-.085l-.213-.81h0v-.085c.085-.3.171-.64.3-1.024s.256-.81.384-1.194c.128-.426.256-.81.384-1.194a5.957,5.957,0,0,0,.256-1.023.75.75,0,0,1,.043-.256.425.425,0,0,0,.043-.171c0-.043.085-.043.128-.085a.187.187,0,0,0,.128-.043c-.085,0-.085-.043-.128-.085v-.128c0-.128.043-.213.085-.213.085,0,.128,0,.171-.043a.514.514,0,0,0,.171-.512.734.734,0,0,1,.085-.512l.128-.128c.085-.085.128-.085.128-.128s.043-.085.085-.213a.571.571,0,0,0,.043-.213c-.085,0-.128-.043-.128-.085,0-.085.085-.171.213-.256a.614.614,0,0,0,.3-.256,9.022,9.022,0,0,0,.469-1.237,7.589,7.589,0,0,1,.512-1.237l.213-.213.213-.213v-.256q-.064-.192,0-.256a1.314,1.314,0,0,1,.3-.6,4.827,4.827,0,0,0,.426-.554,2.206,2.206,0,0,0,.3-.682,1.144,1.144,0,0,1,.341-.682.528.528,0,0,1,.128-.085.528.528,0,0,0,.128-.085,7.542,7.542,0,0,0,.682-.938c.171-.341.384-.64.554-.938a1.637,1.637,0,0,1,.469-.469.557.557,0,0,0,.3-.512l-.085-.085-.085-.085a.939.939,0,0,1,.256-.512,4.383,4.383,0,0,1,.64-.6,8.647,8.647,0,0,1,.768-.554,6.211,6.211,0,0,1,.682-.384,2.111,2.111,0,0,1,.554-.171c.213-.043.384-.043.554-.085a4.813,4.813,0,0,1,.6-.085,2.984,2.984,0,0,0,.554-.085h.213a3.315,3.315,0,0,1,.682.085,6.585,6.585,0,0,0,.64.171,2.16,2.16,0,0,0,.554.085c.213.043.384.085.554.128a4.344,4.344,0,0,1,.64.341,4.516,4.516,0,0,1,.512.426c.213.171.426.384.64.554a3.952,3.952,0,0,1,.6.6,4.226,4.226,0,0,1,.469.725c.171.3.3.554.384.725a1.11,1.11,0,0,0,.128.3,2.609,2.609,0,0,0,.213.512,5.011,5.011,0,0,0,.213.469.657.657,0,0,0,.128.3.694.694,0,0,1,.128.256.66.66,0,0,1,.128.256c.043.128.085.256.171.469s.128.384.213.6a3.961,3.961,0,0,1,.171.554c.043.171.085.256.085.3s.043.171.085.384.128.426.171.64a3.553,3.553,0,0,1,.171.64c.043.213.085.3.085.341a.75.75,0,0,0,.043.256c.043.128.043.213.085.256a.464.464,0,0,0,.043.213,2.08,2.08,0,0,1,.128.3l.128.256a.33.33,0,0,1,.043.128V117a.66.66,0,0,0,.128.256,4.43,4.43,0,0,1,.171.426,1.783,1.783,0,0,1,.171.426.7.7,0,0,0,.128.256v.085c0,.043-.043.085-.085.128a.092.092,0,0,0-.085.085.218.218,0,0,0,.171.213,1.245,1.245,0,0,0,.384.085l-.171.469a.825.825,0,0,1,.213.384l.128.512c.043.171.043.341.085.512s.043.3.085.426a.9.9,0,0,0,.213.554,1.322,1.322,0,0,1,.256.554c.128.384.213.81.3,1.151.085.384.213.768.3,1.151,0,.043,0,.085.085.213.043.128.085.213.128.341s.085.213.128.341.085.171.085.213v.256c0,.043-.043.085-.085.128l-.171.171a1.13,1.13,0,0,0-.213.256l-.085.043-.085.043a.249.249,0,0,1-.171.043c-.128,0-.213.043-.341.043a.831.831,0,0,0-.341.043.249.249,0,0,0-.171.043l-.128.085a1.874,1.874,0,0,0-.384.043,1.876,1.876,0,0,1-.384.043c-.043,0-.043.043-.128.085-.043.043-.085.085-.128.085h-.213c-.128,0-.213,0-.256-.043a.32.32,0,0,0-.213-.043h-.171a.868.868,0,0,1-.213.043.57.57,0,0,1-.213.043c-.043,0-.043-.043-.043-.085a.157.157,0,0,0-.043-.128.39.39,0,0,1-.213-.128.39.39,0,0,0-.213-.128h-.213a1.847,1.847,0,0,0-.213-.043C133.909,126.553,133.866,126.553,133.823,126.553Zm-6.056-17.144a5,5,0,0,0-.64.682c-.213.3-.384.6-.6.938s-.384.64-.554.938-.3.554-.426.768c-.3.512-.6.981-.938,1.493a10.1,10.1,0,0,0-.81,1.493l-.256.512a1.136,1.136,0,0,0-.128.512h.256c.128,0,.213,0,.256-.043a4.883,4.883,0,0,0,.64-.043c.341-.043.682-.043,1.066-.085s.768-.043,1.109-.085a4.883,4.883,0,0,1,.64-.043,3.61,3.61,0,0,0,.554-.043c.3-.043.6-.085.938-.128a7.813,7.813,0,0,1,.9-.085,3.752,3.752,0,0,1,.6-.043.72.72,0,0,1,.426-.128.461.461,0,0,1-.213-.171c-.043-.085-.043-.128-.085-.213,0-.085-.043-.128-.043-.213a.893.893,0,0,0-.171-.256h-.043a.042.042,0,0,1-.043.043v-.171l.085-.043.085-.043v-.171c-.043,0-.043-.043-.085-.085a.132.132,0,0,1-.043-.085c-.043-.043-.043-.128-.085-.256a1.675,1.675,0,0,1-.085-.256v.341c-.043-.043-.043-.085-.085-.171s-.085-.128-.085-.171v-.085l.128-.085.043-.043a.042.042,0,0,0-.043-.043c0-.043-.043-.085-.128-.171s-.128-.128-.128-.171c-.043-.043-.043-.085,0-.213v-.213c-.043,0-.043-.043-.085-.085l-.085-.085-.128-.085v-.512l-.213-.426c-.085-.128-.128-.213-.213-.341s-.128-.171-.128-.213a1.443,1.443,0,0,1-.128-.341,8665399110377.438,8665399110377.438,0,0,1-.171-.938c-.043-.128-.043-.213-.085-.256-.043-.085-.128-.171-.213-.3a.448.448,0,0,0-.384-.213h-.085C127.81,109.409,127.768,109.409,127.768,109.409Z" transform="translate(-67.337 -62.199)" fill="#737373"/>
    <path id="Path_9956" data-name="Path 9956" d="M3.425,167.5l-.469,1.322a.322.322,0,0,1-.043.171H2.7c.043-.085.043-.128.085-.171l1.45-4.094a.157.157,0,0,1,.043-.128h.384a.157.157,0,0,0,.043.128L6.2,168.822c0,.043.043.085.085.171H5.771a.256.256,0,0,0-.043-.171L5.259,167.5Zm.085-.171H5.174l-.853-2.3Z" transform="translate(-2.7 -96.152)" fill="#737373"/>
    <path id="Path_9957" data-name="Path 9957" d="M11.6,170.1l.085-.341a1.2,1.2,0,0,0,.469.3,1.534,1.534,0,0,0,.469.085.844.844,0,0,0,.6-.213.685.685,0,0,0,.213-.469.416.416,0,0,0-.171-.384,3.99,3.99,0,0,0-.64-.341,1.249,1.249,0,0,1-.682-.426.745.745,0,0,1-.171-.512.791.791,0,0,1,.426-.725,1.028,1.028,0,0,1,.64-.171,2.689,2.689,0,0,1,.938.213l-.085.3a1.363,1.363,0,0,0-.81-.3.68.68,0,0,0-.512.171.592.592,0,0,0-.213.426.484.484,0,0,0,.128.341,2.933,2.933,0,0,0,.554.3,4.417,4.417,0,0,1,.81.426.706.706,0,0,1,.213.512.969.969,0,0,1-.384.768,1.216,1.216,0,0,1-.81.213A1.47,1.47,0,0,1,11.6,170.1Z" transform="translate(-7.804 -97.471)" fill="#737373"/>
    <path id="Path_9958" data-name="Path 9958" d="M17.5,170.1l.085-.341a1.2,1.2,0,0,0,.469.3,1.534,1.534,0,0,0,.469.085.844.844,0,0,0,.6-.213.685.685,0,0,0,.213-.469.416.416,0,0,0-.171-.384,3.99,3.99,0,0,0-.64-.341,1.249,1.249,0,0,1-.682-.426.745.745,0,0,1-.171-.512.791.791,0,0,1,.426-.725,1.028,1.028,0,0,1,.64-.171,2.69,2.69,0,0,1,.938.213l-.085.3a1.363,1.363,0,0,0-.81-.3.68.68,0,0,0-.512.171.592.592,0,0,0-.213.426.484.484,0,0,0,.128.341,2.933,2.933,0,0,0,.554.3,4.417,4.417,0,0,1,.81.426.706.706,0,0,1,.213.512.969.969,0,0,1-.384.768,1.216,1.216,0,0,1-.81.213A1.547,1.547,0,0,1,17.5,170.1Z" transform="translate(-11.188 -97.471)" fill="#737373"/>
    <path id="Path_9959" data-name="Path 9959" d="M25.25,167a1.375,1.375,0,0,1,1.151.554,1.985,1.985,0,0,1,.341,1.194,1.866,1.866,0,0,1-.384,1.237,1.386,1.386,0,0,1-1.066.469,1.633,1.633,0,0,1-.81-.213,1.581,1.581,0,0,1-.554-.725,2.483,2.483,0,0,1-.128-.81,1.707,1.707,0,0,1,.384-1.151A1.135,1.135,0,0,1,25.25,167Zm0,.128a.969.969,0,0,0-.768.384,1.941,1.941,0,0,0-.341,1.151,1.985,1.985,0,0,0,.341,1.194.96.96,0,0,0,1.535,0,2.26,2.26,0,0,0,0-2.388A1.068,1.068,0,0,0,25.25,167.128Z" transform="translate(-14.802 -97.529)" fill="#737373"/>
    <path id="Path_9960" data-name="Path 9960" d="M34.4,170.156a2.286,2.286,0,0,1-.469.213,1.6,1.6,0,0,1-.469.043,1.159,1.159,0,0,1-1.024-.426,1.734,1.734,0,0,1-.341-1.194,1.775,1.775,0,0,1,.512-1.407A1.419,1.419,0,0,1,33.678,167a2.415,2.415,0,0,1,.768.128v.341a1.6,1.6,0,0,0-.426-.256,1.245,1.245,0,0,0-.384-.085.924.924,0,0,0-.81.426,1.93,1.93,0,0,0-.3,1.151,2.224,2.224,0,0,0,.213.981.877.877,0,0,0,.81.512,1.262,1.262,0,0,0,.426-.085,1.969,1.969,0,0,0,.426-.3Z" transform="translate(-19.562 -97.529)" fill="#737373"/>
    <path id="Path_9961" data-name="Path 9961" d="M39.2,165a.3.3,0,0,1,.3.256.221.221,0,0,1-.085.171.3.3,0,0,1-.512-.171.222.222,0,0,1,.085-.171A.326.326,0,0,1,39.2,165Zm-.213.9h.384v3.326h-.384V165.9Z" transform="translate(-23.462 -96.382)" fill="#737373"/>
    <path id="Path_9962" data-name="Path 9962" d="M43.69,169.757a1.977,1.977,0,0,1-.426.426,1.438,1.438,0,0,1-.725.213,1.047,1.047,0,0,1-.64-.213.878.878,0,0,1-.3-.725.983.983,0,0,1,.469-.853,2.508,2.508,0,0,1,.341-.171c.085-.043.384-.128.81-.256a.817.817,0,0,0,.341-.171.36.36,0,0,0,.085-.3.416.416,0,0,0-.171-.384.914.914,0,0,0-.512-.171,1.262,1.262,0,0,0-.426.085,2.085,2.085,0,0,0-.469.3l-.085-.3a2.933,2.933,0,0,1,.554-.256,1.833,1.833,0,0,1,.512-.085,1.22,1.22,0,0,1,.725.171.608.608,0,0,1,.256.512v2.132c0,.213.085.341.213.341a.659.659,0,0,0,.256-.128v.256a.688.688,0,0,1-.384.128.346.346,0,0,1-.341-.171A.614.614,0,0,1,43.69,169.757Zm0-1.578a3.262,3.262,0,0,1-.9.341,1.482,1.482,0,0,0-.64.341.745.745,0,0,0-.171.512.68.68,0,0,0,.171.512.706.706,0,0,0,.512.213.878.878,0,0,0,.81-.426.938.938,0,0,0,.171-.554v-.938Z" transform="translate(-25.01 -97.471)" fill="#737373"/>
    <path id="Path_9963" data-name="Path 9963" d="M49.154,166.181H48.6v-.171h.554v-.768l.341-.043v.81h.6v.171h-.6v2.6c0,.213.085.341.256.341a1.319,1.319,0,0,0,.341-.085v.213a.86.86,0,0,1-.469.128.416.416,0,0,1-.384-.171.323.323,0,0,1-.085-.171v-2.857Z" transform="translate(-29.025 -96.496)" fill="#737373"/>
    <path id="Path_9964" data-name="Path 9964" d="M54,165a.3.3,0,0,1,.3.256.222.222,0,0,1-.085.171.3.3,0,0,1-.512-.171.222.222,0,0,1,.085-.171A.326.326,0,0,1,54,165Zm-.213.9h.384v3.326h-.384V165.9Z" transform="translate(-31.95 -96.382)" fill="#737373"/>
    <path id="Path_9965" data-name="Path 9965" d="M58.25,167a1.375,1.375,0,0,1,1.151.554,1.985,1.985,0,0,1,.341,1.194,1.866,1.866,0,0,1-.384,1.237,1.386,1.386,0,0,1-1.066.469,1.633,1.633,0,0,1-.81-.213,1.581,1.581,0,0,1-.554-.725,2.483,2.483,0,0,1-.128-.81,1.707,1.707,0,0,1,.384-1.151A1.135,1.135,0,0,1,58.25,167Zm0,.128a.969.969,0,0,0-.768.384,1.941,1.941,0,0,0-.341,1.151,1.985,1.985,0,0,0,.341,1.194.96.96,0,0,0,1.535,0,2.26,2.26,0,0,0,0-2.388A1.068,1.068,0,0,0,58.25,167.128Z" transform="translate(-33.728 -97.529)" fill="#737373"/>
    <path id="Path_9966" data-name="Path 9966" d="M65.4,167.043h.384v.554a.929.929,0,0,1,.3-.384A1.164,1.164,0,0,1,66.85,167a1.191,1.191,0,0,1,.938.384.96.96,0,0,1,.213.64v2.388h-.384v-2.388a.706.706,0,0,0-.213-.512.834.834,0,0,0-.6-.171.938.938,0,0,0-.725.256,1,1,0,0,0-.256.725v2.132h-.384v-3.113A.961.961,0,0,1,65.4,167.043Z" transform="translate(-38.661 -97.529)" fill="#737373"/>
    <path id="Path_9967" data-name="Path 9967" d="M78.55,167a1.375,1.375,0,0,1,1.151.554,1.985,1.985,0,0,1,.341,1.194,1.866,1.866,0,0,1-.384,1.237,1.386,1.386,0,0,1-1.066.469,1.633,1.633,0,0,1-.81-.213,1.581,1.581,0,0,1-.554-.725,2.483,2.483,0,0,1-.128-.81,1.707,1.707,0,0,1,.384-1.151A1.094,1.094,0,0,1,78.55,167Zm0,.128a.969.969,0,0,0-.768.384,1.941,1.941,0,0,0-.341,1.151,1.985,1.985,0,0,0,.341,1.194.96.96,0,0,0,1.535,0,2.26,2.26,0,0,0,0-2.388A1.068,1.068,0,0,0,78.55,167.128Z" transform="translate(-45.371 -97.529)" fill="#737373"/>
    <path id="Path_9968" data-name="Path 9968" d="M85.426,165.263H85v-.171h.426v-.725a.737.737,0,0,1,.213-.554,1.085,1.085,0,0,1,.682-.213,2.616,2.616,0,0,1,.682.128l-.085.3a1.432,1.432,0,0,0-.64-.171.452.452,0,0,0-.512.512v.725h1.109v.171H85.768v3.156h-.384v-3.156Z" transform="translate(-49.902 -95.579)" fill="#737373"/>
    <path id="Path_9969" data-name="Path 9969" d="M94.5,164.6h.469a1.846,1.846,0,0,0-.043.213v3.966a.32.32,0,0,0,.043.213H94.5c0-.085.043-.128.043-.213v-3.966C94.543,164.728,94.5,164.685,94.5,164.6Z" transform="translate(-55.35 -96.152)" fill="#737373"/>
    <path id="Path_9970" data-name="Path 9970" d="M98,167.043h.384v.554a.929.929,0,0,1,.3-.384A1.164,1.164,0,0,1,99.45,167a1.191,1.191,0,0,1,.938.384.96.96,0,0,1,.213.64v2.388h-.384v-2.388a.706.706,0,0,0-.213-.512.834.834,0,0,0-.6-.171.938.938,0,0,0-.725.256,1,1,0,0,0-.256.725v2.132H98v-3.412Z" transform="translate(-57.358 -97.529)" fill="#737373"/>
    <path id="Path_9971" data-name="Path 9971" d="M105.854,166.181H105.3v-.171h.554v-.768l.341-.043v.81h.6v.171h-.6v2.6c0,.213.085.341.256.341a1.319,1.319,0,0,0,.341-.085v.213a.86.86,0,0,1-.469.128.416.416,0,0,1-.384-.171.323.323,0,0,1-.085-.171v-2.857Z" transform="translate(-61.545 -96.496)" fill="#737373"/>
    <path id="Path_9972" data-name="Path 9972" d="M112.444,170.1a2.445,2.445,0,0,1-1.066.256,1.463,1.463,0,0,1-1.237-.512,1.734,1.734,0,0,1-.341-1.194,1.9,1.9,0,0,1,.426-1.322,1.264,1.264,0,0,1,1.024-.426,1.191,1.191,0,0,1,.768.256,1.54,1.54,0,0,1,.6,1.279h-2.474a2.84,2.84,0,0,0,.043.682,1.46,1.46,0,0,0,.384.725,1.23,1.23,0,0,0,.81.256,1.709,1.709,0,0,0,.981-.341Zm-2.3-1.834h2.09c-.043-.171-.043-.341-.085-.469a1.164,1.164,0,0,0-.384-.512.915.915,0,0,0-.512-.171,1.046,1.046,0,0,0-.682.256A1.48,1.48,0,0,0,110.141,168.265Z" transform="translate(-64.126 -97.471)" fill="#737373"/>
    <path id="Path_9973" data-name="Path 9973" d="M118,167.043h.384v.512a.844.844,0,0,1,.3-.426.968.968,0,0,1,.554-.128v.341a.883.883,0,0,0-.64.213,1,1,0,0,0-.213.682v2.175H118V167.3A.268.268,0,0,0,118,167.043Z" transform="translate(-68.829 -97.529)" fill="#737373"/>
    <path id="Path_9974" data-name="Path 9974" d="M122.4,167.043h.384v.554a.929.929,0,0,1,.3-.384,1.164,1.164,0,0,1,.768-.213,1.191,1.191,0,0,1,.938.384.96.96,0,0,1,.213.64v2.388h-.384v-2.388a.706.706,0,0,0-.213-.512.834.834,0,0,0-.6-.171.938.938,0,0,0-.725.256,1,1,0,0,0-.256.725v2.132h-.384v-3.113A.96.96,0,0,1,122.4,167.043Z" transform="translate(-71.352 -97.529)" fill="#737373"/>
    <path id="Path_9975" data-name="Path 9975" d="M131.99,169.757a1.977,1.977,0,0,1-.426.426,1.438,1.438,0,0,1-.725.213,1.047,1.047,0,0,1-.64-.213.878.878,0,0,1-.3-.725.983.983,0,0,1,.469-.853,2.51,2.51,0,0,1,.341-.171c.085-.043.384-.128.81-.256a.817.817,0,0,0,.341-.171.36.36,0,0,0,.085-.3.416.416,0,0,0-.171-.384.914.914,0,0,0-.512-.171,1.262,1.262,0,0,0-.426.085,2.085,2.085,0,0,0-.469.3l-.085-.3a2.932,2.932,0,0,1,.554-.256,1.833,1.833,0,0,1,.512-.085,1.22,1.22,0,0,1,.725.171.608.608,0,0,1,.256.512v2.132c0,.213.085.341.213.341a.659.659,0,0,0,.256-.128v.256a.688.688,0,0,1-.384.128.346.346,0,0,1-.341-.171A.614.614,0,0,1,131.99,169.757Zm0-1.578a3.261,3.261,0,0,1-.9.341,1.482,1.482,0,0,0-.64.341.745.745,0,0,0-.171.512.68.68,0,0,0,.171.512.706.706,0,0,0,.512.213.878.878,0,0,0,.81-.426.938.938,0,0,0,.171-.554v-.938Z" transform="translate(-75.654 -97.471)" fill="#737373"/>
    <path id="Path_9976" data-name="Path 9976" d="M137.554,166.181H137v-.171h.554v-.768l.341-.043v.81h.6v.171h-.6v2.6c0,.213.085.341.256.341a1.319,1.319,0,0,0,.341-.085v.213a.86.86,0,0,1-.469.128.416.416,0,0,1-.384-.171.323.323,0,0,1-.085-.171v-2.857Z" transform="translate(-79.726 -96.496)" fill="#737373"/>
    <path id="Path_9977" data-name="Path 9977" d="M142.3,165a.3.3,0,0,1,.3.256.222.222,0,0,1-.085.171.3.3,0,0,1-.512-.171.222.222,0,0,1,.085-.171A.326.326,0,0,1,142.3,165Zm-.213.9h.384v3.326h-.384v-3.113C142.128,166.023,142.085,165.981,142.085,165.9Z" transform="translate(-82.593 -96.382)" fill="#737373"/>
    <path id="Path_9978" data-name="Path 9978" d="M146.55,167a1.375,1.375,0,0,1,1.151.554,1.985,1.985,0,0,1,.341,1.194,1.866,1.866,0,0,1-.384,1.237,1.386,1.386,0,0,1-1.066.469,1.633,1.633,0,0,1-.81-.213,1.581,1.581,0,0,1-.554-.725,2.483,2.483,0,0,1-.128-.81,1.707,1.707,0,0,1,.384-1.151A1.135,1.135,0,0,1,146.55,167Zm0,.128a.969.969,0,0,0-.768.384,1.941,1.941,0,0,0-.341,1.151,1.985,1.985,0,0,0,.341,1.194.96.96,0,0,0,1.535,0,2.26,2.26,0,0,0,0-2.388A1.068,1.068,0,0,0,146.55,167.128Z" transform="translate(-84.371 -97.529)" fill="#737373"/>
    <path id="Path_9979" data-name="Path 9979" d="M153.7,167.043h.384v.554a.929.929,0,0,1,.3-.384,1.164,1.164,0,0,1,.768-.213,1.191,1.191,0,0,1,.938.384.96.96,0,0,1,.213.64v2.388h-.384v-2.388a.706.706,0,0,0-.213-.512.834.834,0,0,0-.6-.171.938.938,0,0,0-.725.256,1,1,0,0,0-.256.725v2.132h-.384v-3.113A.548.548,0,0,0,153.7,167.043Z" transform="translate(-89.304 -97.529)" fill="#737373"/>
    <path id="Path_9980" data-name="Path 9980" d="M163.39,169.757a1.976,1.976,0,0,1-.426.426,1.438,1.438,0,0,1-.725.213,1.048,1.048,0,0,1-.64-.213.879.879,0,0,1-.3-.725.983.983,0,0,1,.469-.853,2.509,2.509,0,0,1,.341-.171c.085-.043.384-.128.81-.256a.817.817,0,0,0,.341-.171.36.36,0,0,0,.085-.3.416.416,0,0,0-.171-.384.915.915,0,0,0-.512-.171,1.262,1.262,0,0,0-.426.085,2.085,2.085,0,0,0-.469.3l-.085-.3a2.932,2.932,0,0,1,.554-.256,1.833,1.833,0,0,1,.512-.085,1.22,1.22,0,0,1,.725.171.608.608,0,0,1,.256.512v2.132c0,.213.085.341.213.341a.659.659,0,0,0,.256-.128v.256a.688.688,0,0,1-.384.128.346.346,0,0,1-.341-.171A.614.614,0,0,1,163.39,169.757Zm0-1.578a3.261,3.261,0,0,1-.9.341,1.482,1.482,0,0,0-.64.341.745.745,0,0,0-.171.512.68.68,0,0,0,.171.512.706.706,0,0,0,.512.213.878.878,0,0,0,.81-.426.938.938,0,0,0,.171-.554v-.938Z" transform="translate(-93.663 -97.471)" fill="#737373"/>
    <path id="Path_9981" data-name="Path 9981" d="M169.684,163.8v4.734H169.3V163.8Z" transform="translate(-98.251 -95.693)" fill="#737373"/>
    <path id="Path_9982" data-name="Path 9982" d="M70.043,182.279l.128-.341a1.131,1.131,0,0,0,.256.213,1.116,1.116,0,0,0,.725.213.879.879,0,0,0,.725-.3.8.8,0,0,0,.213-.6.829.829,0,0,0-.341-.682,2.616,2.616,0,0,0-.682-.384,2.976,2.976,0,0,1-.768-.512,1.1,1.1,0,0,1-.3-.682.979.979,0,0,1,.171-.6,1.267,1.267,0,0,1,1.109-.512,2.69,2.69,0,0,1,.938.213l-.128.3a1.478,1.478,0,0,0-.853-.3.748.748,0,0,0-.64.256.721.721,0,0,0,0,1.024,3.025,3.025,0,0,0,.725.469,2.284,2.284,0,0,1,.512.3c.085.085.213.128.3.213a1.028,1.028,0,0,1,.3.768,1.2,1.2,0,0,1-.171.64,1.332,1.332,0,0,1-1.194.6A1.655,1.655,0,0,1,70.043,182.279Z" transform="translate(-41.299 -103.895)" fill="#737373"/>
    <path id="Path_9983" data-name="Path 9983" d="M79.4,183.756a2.285,2.285,0,0,1-.469.213,1.6,1.6,0,0,1-.469.043,1.159,1.159,0,0,1-1.024-.426,1.734,1.734,0,0,1-.341-1.194,1.775,1.775,0,0,1,.512-1.407,1.419,1.419,0,0,1,1.066-.384,2.415,2.415,0,0,1,.768.128v.341a1.6,1.6,0,0,0-.426-.256,1.246,1.246,0,0,0-.384-.085.924.924,0,0,0-.81.426,1.93,1.93,0,0,0-.3,1.151,2.224,2.224,0,0,0,.213.981.877.877,0,0,0,.81.512,1.262,1.262,0,0,0,.426-.085,1.97,1.97,0,0,0,.426-.3Z" transform="translate(-45.371 -105.329)" fill="#737373"/>
    <path id="Path_9984" data-name="Path 9984" d="M84,182.134V177.4h.384v1.919a2.334,2.334,0,0,1,.426-.469,1.424,1.424,0,0,1,.64-.128,1.154,1.154,0,0,1,.81.256.878.878,0,0,1,.3.725v2.388h-.384v-2.218a.947.947,0,0,0-.043-.384.892.892,0,0,0-.171-.256.883.883,0,0,0-.64-.213,1.043,1.043,0,0,0-.768.256A1.076,1.076,0,0,0,84.3,180v2.132Z" transform="translate(-49.328 -103.493)" fill="#737373"/>
    <path id="Path_9985" data-name="Path 9985" d="M93.35,180.6a1.375,1.375,0,0,1,1.151.554,1.985,1.985,0,0,1,.341,1.194,1.865,1.865,0,0,1-.384,1.237,1.386,1.386,0,0,1-1.066.469,1.633,1.633,0,0,1-.81-.213,1.581,1.581,0,0,1-.554-.725,2.483,2.483,0,0,1-.128-.81,1.707,1.707,0,0,1,.384-1.151A1.094,1.094,0,0,1,93.35,180.6Zm0,.171a.969.969,0,0,0-.768.384,1.941,1.941,0,0,0-.341,1.151,1.985,1.985,0,0,0,.341,1.194.96.96,0,0,0,1.535,0,2.26,2.26,0,0,0,0-2.388A1.068,1.068,0,0,0,93.35,180.771Z" transform="translate(-53.859 -105.329)" fill="#737373"/>
    <path id="Path_9986" data-name="Path 9986" d="M101.65,180.6a1.375,1.375,0,0,1,1.151.554,1.985,1.985,0,0,1,.341,1.194,1.866,1.866,0,0,1-.384,1.237,1.386,1.386,0,0,1-1.066.469,1.633,1.633,0,0,1-.81-.213,1.581,1.581,0,0,1-.554-.725,2.483,2.483,0,0,1-.128-.81,1.707,1.707,0,0,1,.384-1.151A1.135,1.135,0,0,1,101.65,180.6Zm0,.171a.969.969,0,0,0-.768.384,1.941,1.941,0,0,0-.341,1.151,1.985,1.985,0,0,0,.341,1.194.96.96,0,0,0,1.535,0,2.26,2.26,0,0,0,0-2.388A1.068,1.068,0,0,0,101.65,180.771Z" transform="translate(-58.62 -105.329)" fill="#737373"/>
    <path id="Path_9987" data-name="Path 9987" d="M109.184,177.5v4.734H108.8V177.5Z" transform="translate(-63.552 -103.551)" fill="#737373"/>
    <path id="Path_9988" data-name="Path 9988" d="M111.2,183.7l.085-.341a1.2,1.2,0,0,0,.469.3,1.533,1.533,0,0,0,.469.085.844.844,0,0,0,.6-.213.685.685,0,0,0,.213-.469.416.416,0,0,0-.171-.384,3.988,3.988,0,0,0-.64-.341,1.25,1.25,0,0,1-.682-.426.745.745,0,0,1-.171-.512.792.792,0,0,1,.426-.725,1.028,1.028,0,0,1,.64-.171,2.69,2.69,0,0,1,.938.213l-.085.3a1.363,1.363,0,0,0-.81-.3.68.68,0,0,0-.512.171.592.592,0,0,0-.213.426.484.484,0,0,0,.128.341,2.933,2.933,0,0,0,.554.3,4.418,4.418,0,0,1,.81.426.706.706,0,0,1,.213.512.969.969,0,0,1-.384.768,1.216,1.216,0,0,1-.81.213A1.2,1.2,0,0,1,111.2,183.7Z" transform="translate(-64.928 -105.271)" fill="#737373"/>
    <path id="Path_9989" data-name="Path 9989" d="M121.8,178.7a.3.3,0,0,1,.3.256.222.222,0,0,1-.085.171.3.3,0,0,1-.512-.171.222.222,0,0,1,.085-.171C121.628,178.7,121.713,178.7,121.8,178.7Zm-.213.9h.384v3.326h-.384V179.6Z" transform="translate(-70.836 -104.239)" fill="#737373"/>
    <path id="Path_9990" data-name="Path 9990" d="M124.9,180.743h.384v.554a.929.929,0,0,1,.3-.384,1.164,1.164,0,0,1,.768-.213,1.191,1.191,0,0,1,.938.384.96.96,0,0,1,.213.64v2.388h-.426v-2.388a.706.706,0,0,0-.213-.512.834.834,0,0,0-.6-.171.938.938,0,0,0-.725.256,1,1,0,0,0-.256.725v2.132H124.9v-3.412Z" transform="translate(-72.786 -105.386)" fill="#737373"/>
    <path id="Path_9991" data-name="Path 9991" d="M136.568,181.1l-.469,1.322a.322.322,0,0,1-.043.171H135.8c.043-.085.043-.128.085-.171l1.45-4.094a.157.157,0,0,1,.043-.128h.384a.157.157,0,0,0,.043.128l1.493,4.094c0,.043.043.085.085.171h-.512a.256.256,0,0,0-.043-.171l-.469-1.322Zm.085-.171h1.663l-.853-2.3Z" transform="translate(-79.037 -103.952)" fill="#737373"/>
    <path id="Path_9992" data-name="Path 9992" d="M145.026,178.963H144.6v-.171h.426v-.725a.737.737,0,0,1,.213-.554,1.085,1.085,0,0,1,.682-.213,2.616,2.616,0,0,1,.682.128l-.085.3a1.433,1.433,0,0,0-.64-.171.452.452,0,0,0-.512.512v.725h1.109v.171h-1.109v3.156h-.384v-3.156Z" transform="translate(-84.085 -103.436)" fill="#737373"/>
    <path id="Path_9993" data-name="Path 9993" d="M149.9,180.743h.384v.512a.844.844,0,0,1,.3-.426.968.968,0,0,1,.554-.128v.341a.883.883,0,0,0-.64.213,1,1,0,0,0-.213.682v2.175H149.9V181A.489.489,0,0,0,149.9,180.743Z" transform="translate(-87.124 -105.386)" fill="#737373"/>
    <path id="Path_9994" data-name="Path 9994" d="M154.4,178.7a.3.3,0,0,1,.3.256.222.222,0,0,1-.085.171.3.3,0,0,1-.512-.171.222.222,0,0,1,.085-.171C154.228,178.7,154.313,178.7,154.4,178.7Zm-.213.9h.384v3.326h-.384v-3.113C154.228,179.724,154.185,179.638,154.185,179.6Z" transform="translate(-89.533 -104.239)" fill="#737373"/>
    <path id="Path_9995" data-name="Path 9995" d="M159.5,183.756a2.285,2.285,0,0,1-.469.213,1.6,1.6,0,0,1-.469.043,1.159,1.159,0,0,1-1.024-.426,1.734,1.734,0,0,1-.341-1.194,1.775,1.775,0,0,1,.512-1.407,1.419,1.419,0,0,1,1.066-.384,2.415,2.415,0,0,1,.768.128v.341a1.6,1.6,0,0,0-.426-.256,1.246,1.246,0,0,0-.384-.085.924.924,0,0,0-.81.426,1.93,1.93,0,0,0-.3,1.151,2.224,2.224,0,0,0,.213.981.877.877,0,0,0,.81.512,1.814,1.814,0,0,0,.469-.085,1.97,1.97,0,0,0,.426-.3v.341Z" transform="translate(-91.311 -105.329)" fill="#737373"/>
    <path id="Path_9996" data-name="Path 9996" d="M165.49,183.357a1.976,1.976,0,0,1-.426.426,1.438,1.438,0,0,1-.725.213,1.048,1.048,0,0,1-.64-.213.879.879,0,0,1-.3-.725.983.983,0,0,1,.469-.853,2.514,2.514,0,0,1,.341-.171c.085-.043.384-.128.81-.256a.817.817,0,0,0,.341-.171.36.36,0,0,0,.085-.3.416.416,0,0,0-.171-.384.915.915,0,0,0-.512-.171,1.262,1.262,0,0,0-.426.085,2.085,2.085,0,0,0-.469.3l-.085-.3a2.93,2.93,0,0,1,.554-.256,1.833,1.833,0,0,1,.512-.085,1.22,1.22,0,0,1,.725.171.608.608,0,0,1,.256.512v2.132c0,.213.085.341.213.341a.659.659,0,0,0,.256-.128v.256a.688.688,0,0,1-.384.128.346.346,0,0,1-.341-.171C165.532,183.741,165.49,183.571,165.49,183.357Zm0-1.535a3.261,3.261,0,0,1-.9.341,1.482,1.482,0,0,0-.64.341.745.745,0,0,0-.171.512.68.68,0,0,0,.171.512.706.706,0,0,0,.512.213.878.878,0,0,0,.81-.426.938.938,0,0,0,.171-.554v-.938Z" transform="translate(-94.867 -105.271)" fill="#737373"/>
  </g>
</svg>
