<svg xmlns="http://www.w3.org/2000/svg" width="16" height="16" viewBox="0 0 16 16">
  <g id="vuesax_bold_chart" data-name="vuesax/bold/chart" transform="translate(-556 -252)">
    <g id="chart" transform="translate(556 252)">
      <path id="Vector" d="M13.833,1H.5A.5.5,0,0,1,0,.5.5.5,0,0,1,.5,0H13.833a.5.5,0,0,1,.5.5A.5.5,0,0,1,13.833,1Z" transform="translate(0.833 13.667)" fill="#fff"/>
      <path id="Vector-2" data-name="Vector" d="M0,1.333v12H3v-12C3,.6,2.7,0,1.8,0H1.2C.3,0,0,.6,0,1.333Z" transform="translate(6.5 1.333)" fill="#fff"/>
      <path id="Vector-3" data-name="Vector" d="M0,1.333v8H2.667v-8C2.667.6,2.4,0,1.6,0H1.067C.267,0,0,.6,0,1.333Z" transform="translate(2 5.333)" fill="#fff"/>
      <path id="Vector-4" data-name="Vector" d="M0,1.333V6H2.667V1.333C2.667.6,2.4,0,1.6,0H1.067C.267,0,0,.6,0,1.333Z" transform="translate(11.333 8.667)" fill="#fff"/>
      <path id="Vector-5" data-name="Vector" d="M0,0H16V16H0Z" transform="translate(16 16) rotate(180)" fill="none" opacity="0"/>
    </g>
  </g>
</svg>
