<svg xmlns="http://www.w3.org/2000/svg" width="41.415" height="43.923" viewBox="0 0 41.415 43.923">
  <g id="checklist" transform="translate(-1.254 -0.077)">
    <path id="Path_16128" data-name="Path 16128" d="M41.86,44.6H14.919a.3.3,0,0,0-.073-.044,4.552,4.552,0,0,1-3.906-4.945q0-16.981,0-33.961a6.765,6.765,0,0,1,.076-1.239A4.505,4.505,0,0,1,15.506.68q12.867-.014,25.733,0c.071,0,.143,0,.214.006a4.467,4.467,0,0,1,4.26,3.871c.124,1.1.062,2.225.084,3.339,0,.138,0,.276,0,.414a.793.793,0,0,0,.241-.311,3.318,3.318,0,0,1,6.247.744,3.714,3.714,0,0,1-.33,2.332q-3.006,6.863-5.985,13.737a2.027,2.027,0,0,0-.166.779c-.013,2.344-.007,4.689-.007,7.032,0,2.473.015,4.945-.006,7.418a4.532,4.532,0,0,1-3.161,4.338c-.254.081-.514.148-.771.222Zm-7-10.974h-7.08a2.153,2.153,0,0,1-.385-.011c-.32-.057-.558-.272-.518-.579a1.186,1.186,0,0,1,.4-.627c.1-.093.325-.068.5-.068,2.417,0,4.832-.008,7.249,0a.519.519,0,0,0,.571-.368c.823-1.93,1.666-3.851,2.5-5.774l.588-1.35H27.822a1.992,1.992,0,0,1-.469-.03.631.631,0,0,1,.076-1.244,4.3,4.3,0,0,1,.471-.011q5.469,0,10.937-.006c.154,0,.4-.034.445-.129.274-.542.5-1.107.769-1.721H27.84c-.684,0-1-.215-.99-.659s.321-.627.987-.627q6.175,0,12.352.007a.544.544,0,0,0,.6-.386c1.183-2.753,2.388-5.5,3.577-8.249a1.726,1.726,0,0,0,.14-.657q.015-2.851.006-5.7a3.271,3.271,0,0,0-3.464-3.472q-12.674,0-25.348,0a3.249,3.249,0,0,0-3.47,3.456q-.007,17.218,0,34.436A3.249,3.249,0,0,0,15.7,43.311q8.449,0,16.9,0h.441c.162-2.214-.337-4.4.419-6.542h-.527q-2.616,0-5.233,0c-.542,0-.841-.231-.85-.636s.293-.642.827-.649c.128,0,.258,0,.386,0,1.873,0,3.746,0,5.619-.007.147,0,.376-.06.427-.162.266-.532.486-1.085.748-1.69ZM47.022,15.685c-.077.167-.137.294-.194.424Q44.3,21.916,41.766,27.725a9.7,9.7,0,0,1-.411.894.632.632,0,0,1-1.148-.5,2.9,2.9,0,0,1,.139-.359l3.8-8.711c.558-1.279,1.111-2.559,1.683-3.875l-1.276-.56L34.714,37.188l1.28.552c.419-.958.825-1.885,1.229-2.812.588-1.348,1.16-2.7,1.776-4.036a.9.9,0,0,1,.6-.441.681.681,0,0,1,.561.331,1.018,1.018,0,0,1-.05.724c-.9,2.113-1.826,4.217-2.743,6.323-.06.138-.111.278-.173.437l1.266.548,9.836-22.573-1.271-.556ZM36.043,43.311h4.914a3.288,3.288,0,0,0,3.554-3.55q0-5.507,0-11.013v-.4a.95.95,0,0,0-.25.366Q42,33.91,39.735,39.108A6.739,6.739,0,0,1,38,41.52c-.63.559-1.243,1.136-1.958,1.791ZM46.215,10.78l3.756,1.635c.36-.862.765-1.667,1.034-2.516a1.966,1.966,0,0,0-1.217-2.365,1.989,1.989,0,0,0-2.509.883c-.391.755-.7,1.551-1.062,2.362ZM34.371,38.443V43.1L37.8,39.936Zm10.7-25.014,3.74,1.626.63-1.466-3.733-1.624C45.487,12.47,45.289,12.925,45.069,13.429Z" transform="translate(-9.686 -0.597)" fill="#c32bd6"/>
    <path id="Path_16136" data-name="Path 16136" d="M51.073,255.121c.914,0,1.83-.007,2.744,0a1.869,1.869,0,0,1,1.95,1.94q.012,2.786,0,5.573a1.874,1.874,0,0,1-1.922,1.93q-2.808.014-5.617,0a1.862,1.862,0,0,1-1.9-1.9q-.015-2.829,0-5.659a1.845,1.845,0,0,1,1.873-1.879c.958-.015,1.915,0,2.873,0h0Zm3.41,4.728c0-.886,0-1.771,0-2.657,0-.578-.2-.784-.761-.785q-2.68-.005-5.358,0c-.549,0-.752.2-.753.746q-.005,2.678,0,5.357c0,.566.206.768.778.769q2.657,0,5.314,0c.568,0,.776-.209.778-.772,0-.886,0-1.771,0-2.657Z" transform="translate(-41.011 -225.886)" fill="#c32bd6"/>
    <path id="Path_16137" data-name="Path 16137" d="M51.056,160.557c-.929,0-1.859,0-2.787,0a1.867,1.867,0,0,1-1.946-1.942q-.012-2.786,0-5.573a1.858,1.858,0,0,1,1.918-1.924q2.808-.01,5.617,0a1.86,1.86,0,0,1,1.9,1.9q.017,2.808,0,5.616a1.87,1.87,0,0,1-1.923,1.925c-.929.008-1.859,0-2.787,0ZM51,159.271c.914,0,1.829,0,2.743,0,.514,0,.73-.214.732-.728q.007-2.7,0-5.4c0-.52-.212-.738-.72-.738q-2.723-.005-5.444,0c-.49,0-.7.213-.706.7q-.007,2.721,0,5.443c0,.512.215.716.737.718.886,0,1.771,0,2.657,0Z" transform="translate(-41.01 -133.796)" fill="#c32bd6"/>
    <path id="Path_16138" data-name="Path 16138" d="M51.036,56.516c-.914,0-1.83.007-2.744,0a1.871,1.871,0,0,1-1.964-1.967c0-.4-.008-.8,0-1.2a.647.647,0,0,1,.613-.69.655.655,0,0,1,.667.688c.015.4,0,.8.007,1.2.01.464.22.681.686.683q2.745.009,5.489,0a.6.6,0,0,0,.693-.678q.009-2.743,0-5.487c0-.482-.227-.7-.716-.7q-2.723-.007-5.446,0c-.489,0-.7.219-.707.709-.007.371.009.744-.006,1.115a.632.632,0,0,1-.668.676.617.617,0,0,1-.611-.682c-.009-.429-.011-.858,0-1.286a1.851,1.851,0,0,1,1.813-1.813q2.894-.029,5.789,0a1.845,1.845,0,0,1,1.833,1.837q.026,2.872,0,5.745a1.849,1.849,0,0,1-1.86,1.853c-.958.016-1.915,0-2.873,0v0Z" transform="translate(-41.016 -41.672)" fill="#c32bd6"/>
    <path id="Path_16139" data-name="Path 16139" d="M157.248,70.291h-6.43a3.335,3.335,0,0,1-.429-.013.592.592,0,0,1-.558-.6.579.579,0,0,1,.469-.63,1.861,1.861,0,0,1,.466-.041q6.5,0,12.99,0a1.715,1.715,0,0,1,.548.065.627.627,0,0,1-.112,1.2,2.673,2.673,0,0,1-.47.019h-6.474Z" transform="translate(-132.662 -61.098)" fill="#c32bd6"/>
    <path id="Path_16140" data-name="Path 16140" d="M157.251,96.442q3.322,0,6.646,0c.39,0,.675.125.752.539a.627.627,0,0,1-.548.737,2.657,2.657,0,0,1-.427.013H150.767c-.086,0-.172,0-.258,0-.453-.022-.74-.29-.724-.674a.652.652,0,0,1,.734-.61q3.365-.005,6.732,0Z" transform="translate(-132.622 -85.389)" fill="#c32bd6"/>
    <path id="Path_16141" data-name="Path 16141" d="M72.659,76.24c.363-.426.708-.839,1.06-1.246a.67.67,0,0,1,.969-.186c.317.253.328.63.009,1.014-.463.56-.929,1.116-1.4,1.666a.668.668,0,0,1-1.074.087c-.261-.22-.521-.442-.77-.677a.627.627,0,0,1-.091-.942.64.64,0,0,1,.92-.034c.123.094.238.2.38.315Z" transform="translate(-63.028 -66.115)" fill="#c32bd6"/>
    <path id="Path_16144" data-name="Path 16144" d="M72.671,284.257c.374-.441.712-.846,1.054-1.246a.675.675,0,0,1,.971-.19c.321.253.335.627.017,1.013q-.693.84-1.4,1.667a.666.666,0,0,1-1.073.1c-.273-.228-.544-.459-.8-.707a.62.62,0,0,1-.07-.913.633.633,0,0,1,.918-.041c.123.094.239.2.388.322Z" transform="translate(-63.039 -250.295)" fill="#c32bd6"/>
    <path id="Path_16145" data-name="Path 16145" d="M72.648,180.266c.375-.442.721-.858,1.076-1.266a.66.66,0,0,1,.972-.151.645.645,0,0,1,0,.983q-.706.858-1.433,1.7a.658.658,0,0,1-1.042.083c-.262-.219-.522-.442-.772-.675a.644.644,0,1,1,.833-.975c.111.087.217.181.362.3Z" transform="translate(-63.019 -158.22)" fill="#c32bd6"/>
  </g>
</svg>
