<svg id="attach-circle" xmlns="http://www.w3.org/2000/svg" width="47.313" height="47.313" viewBox="0 0 47.313 47.313">
  <path id="Vector" d="M12.2,21.976a5.418,5.418,0,0,1-5.421-5.4,5.353,5.353,0,0,1,1.6-3.825l2.78-2.78a1.478,1.478,0,1,1,2.09,2.09l-2.78,2.78a2.433,2.433,0,0,0-.729,1.735,2.4,2.4,0,0,0,.729,1.735,2.463,2.463,0,0,0,3.489,0l4.376-4.376A6.412,6.412,0,1,0,9.266,4.864L4.495,9.635a5.236,5.236,0,0,0,0,7.452,1.478,1.478,0,0,1-2.09,2.09,8.282,8.282,0,0,1,0-11.671L7.176,2.735A9.368,9.368,0,0,1,20.424,15.983L16.047,20.36A5.343,5.343,0,0,1,12.2,21.976Z" transform="translate(11.848 12.287)" fill="#161617"/>
  <path id="Vector-2" data-name="Vector" d="M21.192,42.385A21.192,21.192,0,1,1,42.385,21.192,21.21,21.21,0,0,1,21.192,42.385Zm0-39.428A18.235,18.235,0,1,0,39.428,21.192,18.257,18.257,0,0,0,21.192,2.957Z" transform="translate(2.464 2.464)" fill="#161617"/>
  <path id="Vector-3" data-name="Vector" d="M0,0H47.313V47.313H0Z" fill="none" opacity="0"/>
</svg>
