<svg xmlns="http://www.w3.org/2000/svg" width="19" height="19" viewBox="0 0 19 19">
  <g id="vuesax_linear_document-text" data-name="vuesax/linear/document-text" transform="translate(-492 -252)">
    <g id="document-text" transform="translate(492 252)">
      <path id="Vector" d="M14.25,3.958v7.917c0,2.375-1.187,3.958-3.958,3.958H3.958C1.188,15.833,0,14.25,0,11.875V3.958C0,1.583,1.188,0,3.958,0h6.333C13.063,0,14.25,1.583,14.25,3.958Z" transform="translate(2.375 1.583)" fill="none" stroke="#161617" stroke-linecap="round" stroke-linejoin="round" stroke-width="1.5"/>
      <path id="Vector-2" data-name="Vector" d="M0,0V1.583A1.588,1.588,0,0,0,1.583,3.167H3.167" transform="translate(11.479 3.563)" fill="none" stroke="#161617" stroke-linecap="round" stroke-linejoin="round" stroke-width="1.5"/>
      <path id="Vector-3" data-name="Vector" d="M0,0H3.167" transform="translate(6.333 10.292)" fill="none" stroke="#161617" stroke-linecap="round" stroke-linejoin="round" stroke-width="1.5"/>
      <path id="Vector-4" data-name="Vector" d="M0,0H6.333" transform="translate(6.333 13.458)" fill="none" stroke="#161617" stroke-linecap="round" stroke-linejoin="round" stroke-width="1.5"/>
      <path id="Vector-5" data-name="Vector" d="M0,0H19V19H0Z" fill="none" opacity="0"/>
    </g>
  </g>
</svg>
