<svg xmlns="http://www.w3.org/2000/svg" width="36.67" height="36.665" viewBox="0 0 36.67 36.665">
  <g id="book-review" transform="translate(0.008 0.002)">
    <path id="Path_14596" data-name="Path 14596" d="M21.158,37.442a.775.775,0,0,1-.771-.77c0-.236,0-.364,2.11-4.185H21.188a3.531,3.531,0,0,1-3.5-3.553V18.245a3.531,3.531,0,0,1,3.5-3.553H37.342a3.531,3.531,0,0,1,3.5,3.553V28.933a3.531,3.531,0,0,1-3.5,3.553H27.955c-6.316,4.956-6.448,4.956-6.8,4.956Zm.031-21.222a2,2,0,0,0-1.972,2.026V28.933a2,2,0,0,0,1.971,2.026h2.6a.764.764,0,0,1,.668,1.134q-.57,1.028-1.134,2.058,1.955-1.505,3.894-3.031a.765.765,0,0,1,.471-.163h9.652a2,2,0,0,0,1.971-2.026V18.245a2,2,0,0,0-1.971-2.026H21.189Z" transform="translate(-4.18 -3.47)" fill="#0098da"/>
    <path id="Path_14597" data-name="Path 14597" d="M31.665,17.926H18.511a.764.764,0,0,1,0-1.528H31.665a.764.764,0,0,1,0,1.528Zm0,4.232H18.511a.764.764,0,1,1,0-1.528H31.665a.764.764,0,0,1,0,1.528Zm0,4.231H18.511a.764.764,0,1,1,0-1.528H31.665a.764.764,0,0,1,0,1.528ZM.764,35.633A.764.764,0,0,1,0,34.869V6.392a.764.764,0,1,1,1.528,0V34.869a.764.764,0,0,1-.764.764Z" transform="translate(-0.002 -1.33)" fill="#0098da"/>
    <path id="Path_14598" data-name="Path 14598" d="M29.461,36.664H4.809c-.277,0-2.631-.078-3.83-1.215A3.928,3.928,0,0,1,.052,33.99a.764.764,0,1,1,1.421-.558,2.438,2.438,0,0,0,.561.91,5.174,5.174,0,0,0,2.789.794H28.7v-6.48a.764.764,0,0,1,1.528,0V35.9a.764.764,0,0,1-.764.764Zm0-23.914a.764.764,0,0,1-.764-.764V8.111H3.81A3.75,3.75,0,0,1,0,4.436v-.76A3.75,3.75,0,0,1,3.81,0H28.131a.764.764,0,0,1,0,1.528H3.81A2.222,2.222,0,0,0,1.526,3.676v.76A2.222,2.222,0,0,0,3.81,6.583H29.462a.764.764,0,0,1,.764.764v4.639A.764.764,0,0,1,29.462,12.75Z" transform="translate(0 0)" fill="#0098da"/>
    <path id="Path_14599" data-name="Path 14599" d="M35.842,8.111a.763.763,0,0,1-.433-.135,5.724,5.724,0,0,1-2.732-3.925A5.244,5.244,0,0,1,33.839.262a.764.764,0,0,1,1.156,1,3.731,3.731,0,0,0-.8,2.612,4.308,4.308,0,0,0,2.084,2.845.764.764,0,0,1-.435,1.392Z" transform="translate(-7.711)" fill="#0098da"/>
  </g>
</svg>
