<svg xmlns="http://www.w3.org/2000/svg" width="43.408" height="43.515" viewBox="0 0 43.408 43.515">
  <g id="budget" transform="translate(-0.054 -0.083)">
    <path id="Path_16074" data-name="Path 16074" d="M25.751,44.249a6.311,6.311,0,0,1-2.347-.924,5.265,5.265,0,0,1-2.333-4.353c0-.127,0-.254-.009-.381a.355.355,0,0,0-.039-.1h-.718c-.234.521-.456,1.015-.7,1.55A2.313,2.313,0,0,1,17.939,43.9c-3.981.012-7.961.045-11.941-.006a5.811,5.811,0,0,1-.636-11.54c.1-.014.191-.035.309-.058a2.441,2.441,0,0,1,.621-2.055,2.3,2.3,0,0,1-.276-2.875,2.6,2.6,0,0,1,2.775-1.038v-.648q0-10.326,0-20.651a4.067,4.067,0,0,1,1.957-3.719A3.6,3.6,0,0,1,12.676.742q7.521-.01,15.043,0A3.858,3.858,0,0,1,30.57,2.056q1.853,1.962,3.707,3.922A4.1,4.1,0,0,1,35.433,8.9v6.047c.221,0,.413-.006.6,0a27.523,27.523,0,0,1,3.681.168,5.177,5.177,0,0,1,4.151,4.807q.017.276.017.552,0,9.135,0,18.272a5.335,5.335,0,0,1-3.855,5.292c-.254.074-.512.137-.768.207H25.75ZM34,14.95V8.136H29.267c-.7,0-.9-.206-.906-.914q0-2.314,0-4.63V2.1h-15.3a2.651,2.651,0,0,0-2.9,2.9q0,10.407,0,20.816c0,.15.014.3.024.488h.5c2.407,0,4.814-.006,7.222,0a2.252,2.252,0,0,1,2.25,1.919,2.329,2.329,0,0,1-.594,1.99,2.415,2.415,0,0,1,0,3.271c.855,1.156.855,1.91,0,3.254.381.646.972.25,1.5.36v-.572q0-8.028.006-16.058a6.182,6.182,0,0,1,.135-1.389A5.327,5.327,0,0,1,26.5,14.954c2.337-.016,4.673,0,7.01,0H34Zm8.6,14.685q0-4.523,0-9.048a5.451,5.451,0,0,0-.072-1.056,4.028,4.028,0,0,0-4.149-3.288q-5.882-.009-11.766,0a4.043,4.043,0,0,0-4.264,4.264q0,9.111,0,18.223a4.607,4.607,0,0,0,.043.762,4.031,4.031,0,0,0,4.118,3.479c3.922.008,7.844-.036,11.766.017a4.183,4.183,0,0,0,4.342-4.346c-.066-3-.016-6-.016-9Zm-34,12.993A4.541,4.541,0,1,0,4.09,38.067a4.534,4.534,0,0,0,4.517,4.561ZM12.915,27.67q-2.4,0-4.8,0c-.673,0-1.084.349-1.1.913-.012.582.413.961,1.094.962q4.8,0,9.593,0c.689,0,1.125-.369,1.125-.939s-.429-.934-1.124-.936q-2.4,0-4.8,0Zm.03,3.239c-1.628,0-3.256,0-4.884,0a.948.948,0,0,0-1.039.937c0,.276.061.446.406.435a7.569,7.569,0,0,1,3.54.481.408.408,0,0,0,.167.02c2.265,0,4.53,0,6.8-.007a.9.9,0,0,0,.9-.85.953.953,0,0,0-1.043-1.016c-1.613-.007-3.228,0-4.842,0Zm-.42,11.622c1.806,0,3.625.015,5.444-.009a.908.908,0,0,0,.865-.972.917.917,0,0,0-.955-.883c-1.258-.014-2.516-.01-3.774,0a.489.489,0,0,0-.341.169c-.417.547-.814,1.108-1.24,1.7Zm.5-8.379c0,.055-.015.1,0,.131.322.528.641,1.058.982,1.574a.456.456,0,0,0,.33.169q1.737.019,3.474,0a.938.938,0,0,0,1.02-.906.953.953,0,0,0-1.013-.967c-1.6-.012-3.19,0-4.795,0Zm1.347,5.132c1.213,0,2.385.018,3.556-.008a.928.928,0,0,0-.015-1.856c-1.088-.027-2.178-.014-3.266-.012a.879.879,0,0,0-.188.04c-.028.611-.057,1.2-.087,1.838ZM33.147,6.773,29.753,3.19V6.773ZM3.053,39.886c-.185-1.151-.245-1.2-1.171-.989C1.876,39.836,2.058,39.993,3.053,39.886ZM1.8,37.507c1.015.153,1.216-.019,1.129-.942C1.9,36.5,2,36.371,1.8,37.507Zm2.649-3.491L4.372,33.9c-.528.405-1.057.81-1.657,1.27.594.161.92.065,1.144-.387a4.751,4.751,0,0,1,.593-.77Zm-.078,8.237.079-.086a4.833,4.833,0,0,1-.522-.656c-.211-.379-.5-.352-.97-.243l1.411.986Z" transform="translate(-0.425 -0.651)" fill="#4a13b2"/>
    <path id="Path_16088" data-name="Path 16088" d="M125.148,127.041a12.236,12.236,0,0,1,1.2.4.561.561,0,0,1,.339.825c-.169.343-.42.41-.852.2a2.4,2.4,0,0,0-1.65-.2.855.855,0,0,0-.735.722.9.9,0,0,0,.472,1.042c.428.215.882.377,1.326.561a2.514,2.514,0,0,1,.085,4.739c-.094.027-.162.208-.208.33-.067.181-.045.442-.166.545a.75.75,0,0,1-.622.187.849.849,0,0,1-.418-.6c-.025-.333-.154-.423-.438-.536a4.992,4.992,0,0,1-1.123-.647.7.7,0,0,1-.262-.542.951.951,0,0,1,.364-.595c.1-.069.42.035.535.16a1.874,1.874,0,0,0,1.716.63,1.062,1.062,0,0,0,1.012-.766,1.317,1.317,0,0,0-.437-1.492,7.069,7.069,0,0,0-.982-.489c-.308-.142-.629-.257-.93-.409a1.957,1.957,0,0,1-1.112-2.063,1.885,1.885,0,0,1,1.349-1.773.358.358,0,0,0,.288-.43c-.009-.125-.026-.293.042-.37a1.251,1.251,0,0,1,.551-.438.5.5,0,0,1,.589.43,4.388,4.388,0,0,1,.065.573Z" transform="translate(-108.235 -111.715)" fill="#4a13b2"/>
    <path id="Path_16089" data-name="Path 16089" d="M163.556,105.858h5.1a2.343,2.343,0,0,1,.464.028.624.624,0,0,1,.008,1.226,2.092,2.092,0,0,1-.422.028q-5.181,0-10.363,0h-.127c-.5-.014-.79-.252-.794-.637s.293-.643.785-.645c1.642-.007,3.285,0,4.926,0h.425Z" transform="translate(-139.547 -93.837)" fill="#4a13b2"/>
    <path id="Path_16090" data-name="Path 16090" d="M123.221,77.834h5.43a1.63,1.63,0,0,1,.38.017.6.6,0,0,1,.511.637.6.6,0,0,1-.54.61,2.388,2.388,0,0,1-.424.012H117.887c-.127,0-.255.007-.381-.006a.615.615,0,0,1-.6-.605.636.636,0,0,1,.585-.662,2.815,2.815,0,0,1,.339-.006h5.388Z" transform="translate(-103.633 -68.993)" fill="#4a13b2"/>
    <path id="Path_16091" data-name="Path 16091" d="M118.574,107.115c-.326,0-.652.01-.976,0a.657.657,0,0,1-.7-.643.641.641,0,0,1,.666-.629q1-.027,1.994,0a.607.607,0,0,1,.646.638.63.63,0,0,1-.656.634c-.028,0-.057,0-.085,0h-.891Z" transform="translate(-103.627 -93.811)" fill="#4a13b2"/>
    <path id="Path_16092" data-name="Path 16092" d="M241,79.094c-.269,0-.538.014-.806,0a.632.632,0,0,1-.617-.631.624.624,0,0,1,.615-.632c.552-.019,1.1-.019,1.655,0a.632.632,0,0,1,0,1.264c-.282.017-.565,0-.849,0Z" transform="translate(-212.379 -68.978)" fill="#4a13b2"/>
    <path id="Path_16093" data-name="Path 16093" d="M218.424,150.084c1.927,0,3.852,0,5.779,0a2.175,2.175,0,0,1,2.4,2.395c0,.652.008,1.3,0,1.954a2.168,2.168,0,0,1-2.328,2.3q-3.294.005-6.586,0a1.371,1.371,0,0,1-.458-.059.522.522,0,0,1-.385-.661,1.269,1.269,0,0,1,.511-.533c.109-.074.3-.026.459-.026h6.374c.829,0,1.124-.3,1.129-1.126,0-.637.007-1.275,0-1.912-.008-.736-.305-1.045-1.029-1.046q-5.886-.007-11.77,0c-.708,0-1.012.311-1.015,1.009q-.007,1.02,0,2.039c0,.714.32,1.028,1.046,1.033.665.006,1.332,0,2,0,.5,0,.787.248.785.637s-.3.637-.789.64c-.722.006-1.445.015-2.167,0a2.132,2.132,0,0,1-2.148-2.166c-.011-.737-.007-1.473,0-2.209a2.121,2.121,0,0,1,2.256-2.267c1.982-.014,3.966,0,5.948,0Z" transform="translate(-186.351 -133.038)" fill="#4a13b2"/>
    <path id="Path_16094" data-name="Path 16094" d="M317,274.049c0,1.076.006,2.152,0,3.228a1.843,1.843,0,0,1-2,1.973c-.354,0-.708.011-1.062,0a1.827,1.827,0,0,1-1.8-1.832q-.02-3.4,0-6.8a1.618,1.618,0,0,1,1.5-1.663,11.1,11.1,0,0,1,1.822-.008,1.608,1.608,0,0,1,1.538,1.661c.018,1.147,0,2.293,0,3.44h0Zm-1.283-.012c0-1.089-.008-2.178,0-3.266,0-.4-.165-.569-.559-.557-.41.011-.82.007-1.23,0-.35,0-.522.154-.522.511,0,2.191,0,4.384,0,6.575,0,.462.212.656.687.669.283.008.565,0,.848,0,.589-.006.765-.175.768-.752,0-1.06,0-2.121,0-3.181Z" transform="translate(-276.689 -238.383)" fill="#4a13b2"/>
    <path id="Path_16095" data-name="Path 16095" d="M260.862,271.377c0-.383-.018-.765,0-1.147a1.278,1.278,0,0,1,1.23-1.28,21,21,0,0,1,2.376,0,1.288,1.288,0,0,1,1.256,1.345q.027,1.083,0,2.166A1.332,1.332,0,0,1,264.4,273.8c-.749.024-1.5.026-2.251,0a1.311,1.311,0,0,1-1.286-1.277C260.843,272.143,260.862,271.76,260.862,271.377Zm3.562,1.127v-2.249H262.17V272.5Z" transform="translate(-231.238 -238.386)" fill="#4a13b2"/>
    <path id="Path_16096" data-name="Path 16096" d="M265.657,319.305c0,.368.011.736,0,1.1a1.347,1.347,0,0,1-1.353,1.348c-.72.018-1.442.016-2.162,0a1.312,1.312,0,0,1-1.347-1.3c-.03-.748-.031-1.5,0-2.246a1.287,1.287,0,0,1,1.322-1.319c.733-.03,1.47-.028,2.2,0a1.33,1.33,0,0,1,1.341,1.4c.008.339,0,.678,0,1.017Zm-3.589-1.108c0,.7-.009,1.374.013,2.048,0,.081.167.221.26.225.594.02,1.189.018,1.783,0,.085,0,.238-.128.24-.2.018-.687.011-1.375.011-2.072Z" transform="translate(-231.162 -280.892)" fill="#4a13b2"/>
    <path id="Path_16097" data-name="Path 16097" d="M215.042,271.337c0,.353.006.706,0,1.059a1.331,1.331,0,0,1-1.32,1.373c-.733.025-1.47.022-2.2,0a1.321,1.321,0,0,1-1.333-1.357q-.017-1.081,0-2.162a1.286,1.286,0,0,1,1.252-1.34,22.137,22.137,0,0,1,2.33,0,1.3,1.3,0,0,1,1.275,1.367c.007.353,0,.706,0,1.059Zm-1.307,1.131v-2.247h-2.253v2.247Z" transform="translate(-186.312 -238.352)" fill="#4a13b2"/>
    <path id="Path_16098" data-name="Path 16098" d="M215.033,319.35c0,.353.007.706,0,1.059a1.326,1.326,0,0,1-1.289,1.36c-.762.028-1.527.028-2.289,0a1.309,1.309,0,0,1-1.278-1.322q-.02-1.1,0-2.2a1.276,1.276,0,0,1,1.263-1.327c.775-.036,1.554-.036,2.33,0a1.289,1.289,0,0,1,1.263,1.331c.01.367,0,.735,0,1.1Zm-3.558,1.148c.706,0,1.368.006,2.031-.008.081,0,.227-.11.228-.173.016-.7.01-1.4.01-2.1h-2.268v2.28Z" transform="translate(-186.304 -280.911)" fill="#4a13b2"/>
    <path id="Path_16099" data-name="Path 16099" d="M263.255,223.393c-.383,0-.765.015-1.147,0a1.259,1.259,0,0,1-1.261-1.194c-.04-.819-.04-1.643,0-2.461a1.276,1.276,0,0,1,1.267-1.2c.764-.022,1.529-.024,2.293,0a1.315,1.315,0,0,1,1.282,1.285c.028.749.026,1.5,0,2.251a1.314,1.314,0,0,1-1.332,1.318c-.368.016-.736,0-1.1,0h0Zm-1.117-3.558v2.248h2.243v-2.248Z" transform="translate(-231.205 -193.71)" fill="#4a13b2"/>
    <path id="Path_16100" data-name="Path 16100" d="M316.96,220.949c0,.383.012.765,0,1.147a1.284,1.284,0,0,1-1.26,1.29q-1.167.039-2.337,0a1.3,1.3,0,0,1-1.259-1.3q-.027-1.126,0-2.251a1.325,1.325,0,0,1,1.309-1.3q1.126-.029,2.251,0a1.316,1.316,0,0,1,1.3,1.309c.015.368,0,.737,0,1.1Zm-1.3-1.1H313.4v2.24h2.262Z" transform="translate(-276.653 -193.709)" fill="#4a13b2"/>
    <path id="Path_16101" data-name="Path 16101" d="M215.023,220.982c0,.368.009.737,0,1.1a1.294,1.294,0,0,1-1.26,1.294c-.778.026-1.559.026-2.337,0a1.278,1.278,0,0,1-1.257-1.292q-.024-1.126,0-2.251a1.314,1.314,0,0,1,1.3-1.307q1.126-.031,2.251,0a1.329,1.329,0,0,1,1.306,1.347c.009.368,0,.737,0,1.1Zm-1.3-1.147h-2.246v2.253h2.246Z" transform="translate(-186.295 -193.705)" fill="#4a13b2"/>
    <path id="Path_16102" data-name="Path 16102" d="M58.5,306.713c-.267-.234-.531-.36-.605-.557-.093-.251-.253-.324-.446-.441a2.082,2.082,0,0,1-.624-.546.6.6,0,0,1,.162-.865c.278-.219.532-.131.8.082a1.374,1.374,0,0,0,.668.292.533.533,0,0,0,.442-.274.722.722,0,0,0-.187-.584,2.692,2.692,0,0,0-.762-.353,1.583,1.583,0,0,1-.293-2.908.4.4,0,0,0,.167-.253.63.63,0,0,1,.593-.57.657.657,0,0,1,.685.462.778.778,0,0,0,.3.276c.128.084.29.121.412.211a.581.581,0,0,1,.215.814.6.6,0,0,1-.795.285,3.092,3.092,0,0,0-.777-.149c-.107-.006-.311.129-.312.2a.5.5,0,0,0,.2.366,4.45,4.45,0,0,0,.7.308,1.806,1.806,0,0,1,.257,3.276c-.09.045-.123.194-.2.28-.171.2-.353.386-.593.645Z" transform="translate(-50.269 -265.702)" fill="#4a13b2"/>
  </g>
</svg>
