<svg xmlns="http://www.w3.org/2000/svg" width="43.276" height="43.276" viewBox="0 0 43.276 43.276">
  <path id="_13-Budget" data-name="13-Budget" d="M22.2,38.063a.721.721,0,0,1-.721.721H5.606A3.611,3.611,0,0,1,2,35.178V13.54A3.621,3.621,0,0,1,5.079,9.984a.721.721,0,1,1,.211,1.427A2.143,2.143,0,0,0,3.443,13.54,2.166,2.166,0,0,0,5.606,15.7H33.736V13.54a2.143,2.143,0,0,0-1.846-2.129A.721.721,0,1,1,32.1,9.984a3.621,3.621,0,0,1,3.078,3.556v2.237a3.612,3.612,0,0,1,2.885,3.533v.721a.721.721,0,0,1-1.443,0V19.31a2.166,2.166,0,0,0-2.164-2.164H5.606a3.571,3.571,0,0,1-2.164-.74V35.178a2.166,2.166,0,0,0,2.164,2.164H21.474A.721.721,0,0,1,22.2,38.063ZM18.228,10.655h2.524a.721.721,0,1,0,0-1.443H19.31V8.491a.721.721,0,0,0-1.443,0v.757a2.519,2.519,0,0,0,.361,5.013h.721a.721.721,0,0,0,0-1.443h-.721a1.082,1.082,0,1,1,0-2.164ZM25.8,13.54a.721.721,0,0,0,1.443,0,8.655,8.655,0,1,0-17.31,0,.721.721,0,0,0,1.443,0,7.213,7.213,0,1,1,14.425,0ZM7.77,14.262a.721.721,0,0,0,.721-.721,10.1,10.1,0,1,1,20.2,0,.721.721,0,0,0,1.443,0,11.54,11.54,0,1,0-23.081,0,.721.721,0,0,0,.721.721ZM45.276,25.8V41.67a3.611,3.611,0,0,1-3.606,3.606H27.244a3.611,3.611,0,0,1-3.606-3.606V25.8A3.611,3.611,0,0,1,27.244,22.2H41.67A3.611,3.611,0,0,1,45.276,25.8Zm-1.443,0a2.166,2.166,0,0,0-2.164-2.164H27.244A2.166,2.166,0,0,0,25.081,25.8V41.67a2.166,2.166,0,0,0,2.164,2.164H41.67a2.166,2.166,0,0,0,2.164-2.164Zm-1.443,0v4.328a.721.721,0,0,1-.721.721H27.244a.721.721,0,0,1-.721-.721V25.8a.721.721,0,0,1,.721-.721H41.67A.721.721,0,0,1,42.391,25.8Zm-1.443.721H27.966v2.885H40.948Zm-4.328,6.491V35.9a.721.721,0,0,1-.721.721H33.014a.721.721,0,0,1-.721-.721V33.014a.721.721,0,0,1,.721-.721H35.9A.721.721,0,0,1,36.621,33.014Zm-1.443.721H33.736v1.443h1.443Zm-4.328-.721V35.9a.721.721,0,0,1-.721.721H27.244a.721.721,0,0,1-.721-.721V33.014a.721.721,0,0,1,.721-.721h2.885A.721.721,0,0,1,30.851,33.014Zm-1.443.721H27.966v1.443h1.443Zm7.213,5.049V41.67a.721.721,0,0,1-.721.721H33.014a.721.721,0,0,1-.721-.721V38.785a.721.721,0,0,1,.721-.721H35.9A.721.721,0,0,1,36.621,38.785Zm-1.443.721H33.736v1.443h1.443Zm-4.328-.721V41.67a.721.721,0,0,1-.721.721H27.244a.721.721,0,0,1-.721-.721V38.785a.721.721,0,0,1,.721-.721h2.885A.721.721,0,0,1,30.851,38.785Zm-1.443.721H27.966v1.443h1.443Zm12.983-.721V41.67a.721.721,0,0,1-.721.721H38.785a.721.721,0,0,1-.721-.721V38.785a.721.721,0,0,1,.721-.721H41.67A.721.721,0,0,1,42.391,38.785Zm-1.443.721H39.506v1.443h1.443Zm1.443-6.491V35.9a.721.721,0,0,1-.721.721H38.785a.721.721,0,0,1-.721-.721V33.014a.721.721,0,0,1,.721-.721H41.67A.721.721,0,0,1,42.391,33.014Zm-1.443.721H39.506v1.443h1.443Z" transform="translate(-2 -2)" fill="#c32bd6"/>
</svg>
