<svg xmlns="http://www.w3.org/2000/svg" width="55.52" height="55.52" viewBox="0 0 55.52 55.52">
  <g id="vuesax_outline_calendar" data-name="vuesax/outline/calendar" transform="translate(-492 -188)">
    <g id="calendar" transform="translate(492 188)">
      <g id="Vector" transform="translate(16.772 2.892)" fill="#0098da">
        <path d="M 1.735000014305115 10.15999984741211 C 0.9300500154495239 10.15999984741211 0.25 9.479949951171875 0.25 8.675000190734863 L 0.25 1.734999895095825 C 0.25 0.9300498962402344 0.9300500154495239 0.249999925494194 1.735000014305115 0.249999925494194 C 2.539950132369995 0.249999925494194 3.220000028610229 0.9300498962402344 3.220000028610229 1.734999895095825 L 3.220000028610229 8.675000190734863 C 3.220000028610229 9.479949951171875 2.539950132369995 10.15999984741211 1.735000014305115 10.15999984741211 Z" stroke="none"/>
        <path d="M 1.735000014305115 9.909999847412109 C 2.404439926147461 9.909999847412109 2.970000028610229 9.344439506530762 2.970000028610229 8.675000190734863 L 2.970000028610229 1.734999895095825 C 2.970000028610229 1.065559983253479 2.404439926147461 0.4999999105930328 1.735000014305115 0.4999999105930328 C 1.065559983253479 0.4999999105930328 0.5 1.065559983253479 0.5 1.734999895095825 L 0.5 8.675000190734863 C 0.5 9.344439506530762 1.065559983253479 9.909999847412109 1.735000014305115 9.909999847412109 M 1.735000014305115 10.40999984741211 C 0.7865300178527832 10.40999984741211 1.430511442634952e-08 9.623470306396484 1.430511442634952e-08 8.675000190734863 L 1.430511442634952e-08 1.734999895095825 C 1.430511442634952e-08 0.7865298986434937 0.7865300178527832 -7.629394360719743e-08 1.735000014305115 -7.629394360719743e-08 C 2.683470010757446 -7.629394360719743e-08 3.470000028610229 0.7865298986434937 3.470000028610229 1.734999895095825 L 3.470000028610229 8.675000190734863 C 3.470000028610229 9.623470306396484 2.683470010757446 10.40999984741211 1.735000014305115 10.40999984741211 Z" stroke="none" fill="#fff"/>
      </g>
      <g id="Vector-2" data-name="Vector" transform="translate(35.278 2.892)" fill="#0098da">
        <path d="M 1.735000014305115 10.15999984741211 C 0.9300500154495239 10.15999984741211 0.25 9.479949951171875 0.25 8.675000190734863 L 0.25 1.734999895095825 C 0.25 0.9300498962402344 0.9300500154495239 0.249999925494194 1.735000014305115 0.249999925494194 C 2.539950132369995 0.249999925494194 3.220000028610229 0.9300498962402344 3.220000028610229 1.734999895095825 L 3.220000028610229 8.675000190734863 C 3.220000028610229 9.479949951171875 2.539950132369995 10.15999984741211 1.735000014305115 10.15999984741211 Z" stroke="none"/>
        <path d="M 1.735000014305115 9.909999847412109 C 2.404439926147461 9.909999847412109 2.970000028610229 9.344439506530762 2.970000028610229 8.675000190734863 L 2.970000028610229 1.734999895095825 C 2.970000028610229 1.065559983253479 2.404439926147461 0.4999999105930328 1.735000014305115 0.4999999105930328 C 1.065559983253479 0.4999999105930328 0.5 1.065559983253479 0.5 1.734999895095825 L 0.5 8.675000190734863 C 0.5 9.344439506530762 1.065559983253479 9.909999847412109 1.735000014305115 9.909999847412109 M 1.735000014305115 10.40999984741211 C 0.7865300178527832 10.40999984741211 1.430511442634952e-08 9.623470306396484 1.430511442634952e-08 8.675000190734863 L 1.430511442634952e-08 1.734999895095825 C 1.430511442634952e-08 0.7865298986434937 0.7865300178527832 -7.629394360719743e-08 1.735000014305115 -7.629394360719743e-08 C 2.683470010757446 -7.629394360719743e-08 3.470000028610229 0.7865298986434937 3.470000028610229 1.734999895095825 L 3.470000028610229 8.675000190734863 C 3.470000028610229 9.623470306396484 2.683470010757446 10.40999984741211 1.735000014305115 10.40999984741211 Z" stroke="none" fill="#fff"/>
      </g>
      <path id="Vector-3" data-name="Vector" d="M2.313,4.614a2.3,2.3,0,0,1-.879-.185,2.388,2.388,0,0,1-.763-.486A2.389,2.389,0,0,1,0,2.3a2.3,2.3,0,0,1,.185-.879A2.671,2.671,0,0,1,.671.658,2.388,2.388,0,0,1,1.434.172,2.362,2.362,0,0,1,3.956.658,2.433,2.433,0,0,1,4.627,2.3a3.477,3.477,0,0,1-.046.463,1.47,1.47,0,0,1-.139.416,1.752,1.752,0,0,1-.208.416,3.645,3.645,0,0,1-.278.347A2.433,2.433,0,0,1,2.313,4.614Z" transform="translate(17.35 28.93)" fill="#0098da"/>
      <path id="Vector-4" data-name="Vector" d="M2.313,4.624a2.3,2.3,0,0,1-.879-.185,2.388,2.388,0,0,1-.763-.486A2.389,2.389,0,0,1,0,2.311a2.3,2.3,0,0,1,.185-.879A2.671,2.671,0,0,1,.671.668,2.388,2.388,0,0,1,1.434.182,2.319,2.319,0,0,1,3.956.668a2.433,2.433,0,0,1,.671,1.642,3.477,3.477,0,0,1-.046.463,1.47,1.47,0,0,1-.139.416,1.752,1.752,0,0,1-.208.416,3.645,3.645,0,0,1-.278.347A2.433,2.433,0,0,1,2.313,4.624Z" transform="translate(25.447 28.919)" fill="#0098da"/>
      <path id="Vector-5" data-name="Vector" d="M2.313,4.624a2.3,2.3,0,0,1-.879-.185,2.388,2.388,0,0,1-.763-.486L.393,3.606A1.752,1.752,0,0,1,.185,3.19a1.47,1.47,0,0,1-.139-.416A3.477,3.477,0,0,1,0,2.311,2.433,2.433,0,0,1,.671.668,2.388,2.388,0,0,1,1.434.182,2.311,2.311,0,0,1,3.956.668a2.433,2.433,0,0,1,.671,1.642,3.477,3.477,0,0,1-.046.463,1.47,1.47,0,0,1-.139.416,1.752,1.752,0,0,1-.208.416,3.645,3.645,0,0,1-.278.347A2.433,2.433,0,0,1,2.313,4.624Z" transform="translate(33.543 28.919)" fill="#0098da"/>
      <path id="Vector-6" data-name="Vector" d="M2.313,4.6a2.3,2.3,0,0,1-.879-.185,2.671,2.671,0,0,1-.763-.486A2.433,2.433,0,0,1,0,2.284a2.3,2.3,0,0,1,.185-.879A2.159,2.159,0,0,1,.671.642a2.422,2.422,0,0,1,3.285,0,2.433,2.433,0,0,1,.671,1.642,2.433,2.433,0,0,1-.671,1.642A2.433,2.433,0,0,1,2.313,4.6Z" transform="translate(17.35 37.042)" fill="#0098da"/>
      <path id="Vector-7" data-name="Vector" d="M2.313,4.6A2.433,2.433,0,0,1,.671,3.927,2.433,2.433,0,0,1,0,2.284a2.3,2.3,0,0,1,.185-.879A2.159,2.159,0,0,1,.671.642a2.422,2.422,0,0,1,3.285,0,2.159,2.159,0,0,1,.486.763,2.3,2.3,0,0,1,.185.879,2.433,2.433,0,0,1-.671,1.642A2.433,2.433,0,0,1,2.313,4.6Z" transform="translate(25.447 37.042)" fill="#0098da"/>
      <path id="Vector-8" data-name="Vector" d="M2.313,4.629A2.433,2.433,0,0,1,.671,3.958a2.159,2.159,0,0,1-.486-.763A2.3,2.3,0,0,1,0,2.315a2.3,2.3,0,0,1,.185-.879A2.159,2.159,0,0,1,.671.673,2.31,2.31,0,0,1,2.753.048a1.4,1.4,0,0,1,.44.139A1.752,1.752,0,0,1,3.609.4a3.645,3.645,0,0,1,.347.278,2.433,2.433,0,0,1,.671,1.642,2.433,2.433,0,0,1-.671,1.642A2.433,2.433,0,0,1,2.313,4.629Z" transform="translate(33.543 37.011)" fill="#0098da"/>
      <g id="Vector-9" data-name="Vector" transform="translate(7.941 19.293)" fill="#0098da" stroke-linecap="round" stroke-linejoin="round">
        <path d="M 38.03166580200195 3.220000028610229 L 1.606976866722107 3.220000028610229 C 0.8714168667793274 3.220000028610229 0.2499968707561493 2.539950132369995 0.2499968707561493 1.735000014305115 C 0.2499968707561493 0.9300500154495239 0.8714168667793274 0.25 1.606976866722107 0.25 L 38.03166580200195 0.25 C 38.76721572875977 0.25 39.38863754272461 0.9300500154495239 39.38863754272461 1.735000014305115 C 39.38863754272461 2.539950132369995 38.76721572875977 3.220000028610229 38.03166580200195 3.220000028610229 Z" stroke="none"/>
        <path d="M 38.03166580200195 2.970000028610229 C 38.63170623779297 2.970000028610229 39.13863754272461 2.404439926147461 39.13863754272461 1.735000014305115 C 39.13863754272461 1.065559983253479 38.63170623779297 0.5 38.03166580200195 0.5 L 1.606976866722107 0.5 C 1.006926894187927 0.5 0.4999968707561493 1.065559983253479 0.4999968707561493 1.735000014305115 C 0.4999968707561493 2.404439926147461 1.006926894187927 2.970000028610229 1.606976866722107 2.970000028610229 L 38.03166580200195 2.970000028610229 M 38.03166580200195 3.470000028610229 L 1.606976866722107 3.470000028610229 C 0.7284968495368958 3.470000028610229 -3.135986389679601e-06 2.683470010757446 -3.135986389679601e-06 1.735000014305115 C -3.135986389679601e-06 0.7865300178527832 0.7284968495368958 1.430511442634952e-08 1.606976866722107 1.430511442634952e-08 L 38.03166580200195 1.430511442634952e-08 C 38.91013717651367 1.430511442634952e-08 39.63863754272461 0.7865300178527832 39.63863754272461 1.735000014305115 C 39.63863754272461 2.683470010757446 38.91013717651367 3.470000028610229 38.03166580200195 3.470000028610229 Z" stroke="none" fill="#fff"/>
      </g>
      <g id="Vector-10" data-name="Vector" transform="translate(5.205 6.362)" fill="#0098da">
        <path d="M 31.80833053588867 46.01666259765625 L 13.30167007446289 46.01666259765625 C 11.24123001098633 46.01666259765625 9.371789932250977 45.7218017578125 7.745280265808105 45.14026260375977 C 6.145220279693604 44.56818389892578 4.7711501121521 43.7153434753418 3.661240339279175 42.60543441772461 C 2.551320314407349 41.49551391601562 1.698480248451233 40.12144470214844 1.126400351524353 38.52139282226562 C 0.544860303401947 36.89487457275391 0.2500002980232239 35.02544403076172 0.2500002980232239 32.96500396728516 L 0.2500002980232239 13.30166339874268 C 0.2500002980232239 11.24122333526611 0.544860303401947 9.371792793273926 1.126400351524353 7.745273113250732 C 1.698480248451233 6.145223140716553 2.551320314407349 4.771152973175049 3.661240339279175 3.661233186721802 C 4.7711501121521 2.551323175430298 6.145220279693604 1.698483228683472 7.745280265808105 1.126403212547302 C 9.371789932250977 0.544863224029541 11.24123001098633 0.2500032186508179 13.30167007446289 0.2500032186508179 L 31.80833053588867 0.2500032186508179 C 33.86877059936523 0.2500032186508179 35.73820877075195 0.544863224029541 37.36471939086914 1.126403212547302 C 38.96477890014648 1.698483228683472 40.33885192871094 2.551323175430298 41.44876098632812 3.661233186721802 C 42.55868148803711 4.771152973175049 43.41152191162109 6.145223140716553 43.98360061645508 7.745273113250732 C 44.56513977050781 9.371792793273926 44.86000061035156 11.24122333526611 44.86000061035156 13.30166339874268 L 44.86000061035156 32.96500396728516 C 44.86000061035156 35.02544403076172 44.56513977050781 36.89487457275391 43.98360061645508 38.52139282226562 C 43.41152191162109 40.12144470214844 42.55868148803711 41.49551391601562 41.44876098632812 42.60543441772461 C 40.33885192871094 43.7153434753418 38.96477890014648 44.56818389892578 37.36471939086914 45.14026260375977 C 35.73820877075195 45.7218017578125 33.86877059936523 46.01666259765625 31.80833053588867 46.01666259765625 Z M 13.30167007446289 3.220003128051758 C 9.940350532531738 3.220003128051758 7.392200469970703 4.063813209533691 5.728010177612305 5.728003025054932 C 4.063820362091064 7.39219331741333 3.220000267028809 9.940342903137207 3.220000267028809 13.30166339874268 L 3.220000267028809 32.96500396728516 C 3.220000267028809 36.32632446289062 4.063820362091064 38.87447357177734 5.728010177612305 40.53866195678711 C 7.392200469970703 42.20285415649414 9.940350532531738 43.04667282104492 13.30167007446289 43.04667282104492 L 31.80833053588867 43.04667282104492 C 35.16965103149414 43.04667282104492 37.71780014038086 42.20285415649414 39.38198852539062 40.53866195678711 C 41.04618072509766 38.87447357177734 41.88999938964844 36.32632446289062 41.88999938964844 32.96500396728516 L 41.88999938964844 13.30166339874268 C 41.88999938964844 9.940342903137207 41.04618072509766 7.39219331741333 39.38198852539062 5.728003025054932 C 37.71780014038086 4.063813209533691 35.16965103149414 3.220003128051758 31.80833053588867 3.220003128051758 L 13.30167007446289 3.220003128051758 Z" stroke="none"/>
        <path d="M 31.80833053588867 45.76666259765625 C 33.84000015258789 45.76666259765625 35.68112945556641 45.47671508789062 37.28055953979492 44.90485382080078 C 38.84552001953125 44.34532165527344 40.18843078613281 43.51221466064453 41.27199172973633 42.42865371704102 C 42.35554885864258 41.3450927734375 43.18865966796875 40.00218200683594 43.74819183349609 38.43722152709961 C 44.32004928588867 36.83779144287109 44.61000061035156 34.99667358398438 44.61000061035156 32.96500396728516 L 44.61000061035156 13.30166339874268 C 44.61000061035156 11.26999282836914 44.32004928588867 9.428873062133789 43.74819183349609 7.829442977905273 C 43.18865966796875 6.264482975006104 42.35554885864258 4.921573162078857 41.27199172973633 3.838013172149658 C 40.18843078613281 2.754453182220459 38.84552001953125 1.921343207359314 37.28055953979492 1.361813187599182 C 35.68112945556641 0.7899532318115234 33.84000015258789 0.5000032186508179 31.80833053588867 0.5000032186508179 L 13.30167007446289 0.5000032186508179 C 11.27000045776367 0.5000032186508179 9.42887020111084 0.7899532318115234 7.829440116882324 1.361813187599182 C 6.264480113983154 1.921343207359314 4.921570301055908 2.754453182220459 3.838010311126709 3.838013172149658 C 2.75445032119751 4.921573162078857 1.921340346336365 6.264482975006104 1.361810326576233 7.829442977905273 C 0.7899503111839294 9.428873062133789 0.5000002980232239 11.26999282836914 0.5000002980232239 13.30166339874268 L 0.5000002980232239 32.96500396728516 C 0.5000002980232239 34.99667358398438 0.7899503111839294 36.83779144287109 1.361810326576233 38.43722152709961 C 1.921340346336365 40.00218200683594 2.75445032119751 41.3450927734375 3.838010311126709 42.42865371704102 C 4.921570301055908 43.51221466064453 6.264480113983154 44.34532165527344 7.829440116882324 44.90485382080078 C 9.42887020111084 45.47671508789062 11.27000045776367 45.76666259765625 13.30167007446289 45.76666259765625 L 31.80833053588867 45.76666259765625 M 13.30167007446289 2.970003128051758 L 31.80833053588867 2.970003128051758 C 38.66392135620117 2.970003128051758 42.13999938964844 6.446073055267334 42.13999938964844 13.30166339874268 L 42.13999938964844 32.96500396728516 C 42.13999938964844 39.82059478759766 38.66392135620117 43.29667282104492 31.80833053588867 43.29667282104492 L 13.30167007446289 43.29667282104492 C 6.446080207824707 43.29667282104492 2.970000267028809 39.82059478759766 2.970000267028809 32.96500396728516 L 2.970000267028809 13.30166339874268 C 2.970000267028809 6.446073055267334 6.446080207824707 2.970003128051758 13.30167007446289 2.970003128051758 M 31.80833053588867 46.26666259765625 L 13.30167007446289 46.26666259765625 C 4.8580002784729 46.26666259765625 3.051757744287897e-07 41.40866470336914 3.051757744287897e-07 32.96500396728516 L 3.051757744287897e-07 13.30166339874268 C 3.051757744287897e-07 4.85800313949585 4.8580002784729 3.206176643288927e-06 13.30167007446289 3.206176643288927e-06 L 31.80833053588867 3.206176643288927e-06 C 40.25199890136719 3.206176643288927e-06 45.11000061035156 4.85800313949585 45.11000061035156 13.30166339874268 L 45.11000061035156 32.96500396728516 C 45.11000061035156 41.40866470336914 40.25199890136719 46.26666259765625 31.80833053588867 46.26666259765625 Z M 13.30167007446289 3.470003128051758 C 6.685530185699463 3.470003128051758 3.470000267028809 6.685533046722412 3.470000267028809 13.30166339874268 L 3.470000267028809 32.96500396728516 C 3.470000267028809 39.58114242553711 6.685530185699463 42.79667282104492 13.30167007446289 42.79667282104492 L 31.80833053588867 42.79667282104492 C 38.42446899414062 42.79667282104492 41.63999938964844 39.58114242553711 41.63999938964844 32.96500396728516 L 41.63999938964844 13.30166339874268 C 41.63999938964844 6.685533046722412 38.42446899414062 3.470003128051758 31.80833053588867 3.470003128051758 L 13.30167007446289 3.470003128051758 Z" stroke="none" fill="#fff"/>
      </g>
      <path id="Vector-11" data-name="Vector" d="M0,0H55.52V55.52H0Z" fill="none" opacity="0"/>
    </g>
  </g>
</svg>
