<svg xmlns="http://www.w3.org/2000/svg" width="42.948" height="42.99" viewBox="0 0 42.948 42.99">
  <g id="certificate-manuscript" transform="translate(-16.999 -16.5)">
    <path id="Path_14589" data-name="Path 14589" d="M45.457,52.646l-2.58,4.3H20.934c-2.977,0-2.934-4.3-2.934-4.3Zm3.047,4.3a3.446,3.446,0,0,0,2.115-.828A2.779,2.779,0,0,1,48.5,56.944ZM51.447,54a2.779,2.779,0,0,1-.828,2.115A3.447,3.447,0,0,0,51.447,54ZM20.934,52.646V19.733A2.187,2.187,0,0,1,23.166,17.5H54.425s2.977,0,2.977,3.721H51.448s0-3.721,2.977-3.721H23.166a2.187,2.187,0,0,0-2.233,2.233C20.934,21.965,20.934,52.646,20.934,52.646Z" transform="translate(0)" fill="none" stroke="#9b2bd6" stroke-linecap="round" stroke-linejoin="round" stroke-width="2"/>
    <path id="Path_14590" data-name="Path 14590" d="M334.837,288.034c-.076-.008-.151-.015-.227-.019-.142-.01-.285-.015-.429-.015a6.181,6.181,0,1,0,0,12.361c.144,0,.288-.005.429-.015.076,0,.151-.011.227-.02l.106-.012a6.181,6.181,0,0,0-.106-12.28Zm1.615,9.272-1.615-.849-.227-.119-.429-.226-2.271,1.194.434-2.529-1.837-1.791,2.538-.368,1.136-2.3.429.87.227.459.48.972,2.538.368-1.837,1.791Z" transform="translate(-283.389 -247.279)" fill="none" stroke="#9b2bd6" stroke-linecap="round" stroke-linejoin="round" stroke-width="2"/>
    <path id="Path_14591" data-name="Path 14591" d="M304.419,411.6l-1.239,5.573-1.545-1.545L297,417.178l.927-1.545,1.786-2.977,1.671-2.786A6.163,6.163,0,0,0,304.419,411.6ZM314,417.178l-4.636-1.545-1.545,1.545-1.212-5.455a6.148,6.148,0,0,0,3.257-1.438Z" transform="translate(-255.05 -358.688)" fill="none" stroke="#9b2bd6" stroke-linecap="round" stroke-linejoin="round" stroke-width="2"/>
    <path id="Path_14592" data-name="Path 14592" d="M362.711,319.46l.434,2.529-1.615-.849-.227-.119-.429-.226-2.271,1.194.434-2.529-1.837-1.791,2.538-.368,1.136-2.3.429.87.227.459.48.972,2.538.368Z" transform="translate(-310.082 -271.962)" fill="none" stroke="#9b2bd6" stroke-linecap="round" stroke-linejoin="round" stroke-width="2"/>
    <line id="Line_17" data-name="Line 17" y1="0.015" transform="translate(51.221 53.067)" fill="none" stroke="#9b2bd6" stroke-linecap="round" stroke-linejoin="round" stroke-width="2"/>
    <line id="Line_18" data-name="Line 18" y1="19.534" transform="translate(51.448 21.221)" fill="none" stroke="#9b2bd6" stroke-linecap="round" stroke-linejoin="round" stroke-width="2"/>
  </g>
</svg>
