<svg xmlns="http://www.w3.org/2000/svg" width="48.669" height="35.976" viewBox="0 0 48.669 35.976">
  <path id="performance" d="M24.335,8.346A24.339,24.339,0,0,0,2.76,43.943a.707.707,0,0,0,.626.379h6.941a.706.706,0,0,0,.578-1.112A18.242,18.242,0,0,1,7.589,32.682,16.584,16.584,0,0,1,24.335,15.935a17.139,17.139,0,0,1,5.708.975l.469-1.333a18.548,18.548,0,0,0-6.177-1.055A18.286,18.286,0,0,0,11.71,19.5a17.532,17.532,0,0,0-1.383,1.473L6.44,18.383a22.881,22.881,0,0,1,35.825.043l-3.751,2.752a17.7,17.7,0,0,0-3.846-3.514l-.789,1.172a16.382,16.382,0,0,1,7.2,13.846A18.239,18.239,0,0,1,37.763,43.21a.706.706,0,0,0,.578,1.112h6.941a.707.707,0,0,0,.626-.379,24.339,24.339,0,0,0-21.574-35.6ZM9.462,22.09A18.189,18.189,0,0,0,6.176,32.681,19.645,19.645,0,0,0,9.023,42.908h-5.2A22.888,22.888,0,0,1,5.589,19.513Zm35.39,20.818H39.646a19.647,19.647,0,0,0,2.848-10.227,18.209,18.209,0,0,0-3.132-10.376l3.748-2.75a22.891,22.891,0,0,1,1.741,23.353Zm-11.538-28a.706.706,0,0,0-.865.234c-.466.654-11.427,16.039-12.314,18.016a4.549,4.549,0,1,0,8.3,3.726c.887-1.977,5.1-20.392,5.279-21.175a.706.706,0,0,0-.4-.8Zm-6.168,21.4a3.135,3.135,0,0,1-5.721-2.568c.569-1.267,6.335-9.524,10.109-14.862C30.051,25.243,27.714,35.04,27.145,36.307Z" transform="translate(0 -8.346)" fill="#d62bb5"/>
</svg>
