<svg xmlns="http://www.w3.org/2000/svg" width="28.157" height="28.102" viewBox="0 0 28.157 28.102">
  <g id="society" transform="translate(-2.595 -2.82)">
    <path id="Path_16236" data-name="Path 16236" d="M18.222,54.589a4.62,4.62,0,0,1,2.588,2.892,5.346,5.346,0,0,1,.221,1.32c.035.78.013,1.561.011,2.343,0,.387-.17.562-.546.565-.585,0-1.169,0-1.775,0v-.935h1.392c-.067-1.218.175-2.425-.4-3.563a3.749,3.749,0,0,0-7.1,1.6c-.009.643,0,1.285,0,1.96H14V61.7c-.649,0-1.3.022-1.947-.018a.536.536,0,0,1-.36-.383,14.7,14.7,0,0,1,.131-3.558,4.644,4.644,0,0,1,2.673-3.154A3.3,3.3,0,0,1,13.1,51.461a3.14,3.14,0,0,1,1.237-2.181,3.282,3.282,0,0,1,4.509.452,3.325,3.325,0,0,1-.625,4.858Zm.475-2.7a2.343,2.343,0,1,0-2.341,2.325A2.346,2.346,0,0,0,18.7,51.884Z" transform="translate(-9.052 -42.954)" fill="#c32bd6"/>
    <path id="Path_16237" data-name="Path 16237" d="M254.221,54.613a3.3,3.3,0,1,1,3.765,0c.079.044.149.084.22.122a4.618,4.618,0,0,1,2.587,4.124c.031.77.009,1.543.005,2.314,0,.4-.171.566-.574.567-.575,0-1.151,0-1.747,0V60.81h1.391c-.067-1.218.176-2.425-.4-3.562a3.75,3.75,0,0,0-7.1,1.593c-.009.643,0,1.285,0,1.96h1.39v.942H252.3c-.822,0-.887-.059-.88-.877a24.02,24.02,0,0,1,.055-2.515,4.51,4.51,0,0,1,2.577-3.634c.052-.027.1-.054.154-.082.005,0,.007-.015.01-.022Zm4.234-2.695a2.343,2.343,0,1,0-2.342,2.324,2.346,2.346,0,0,0,2.342-2.324Z" transform="translate(-230.058 -42.987)" fill="#c32bd6"/>
    <path id="Path_16238" data-name="Path 16238" d="M138.022,156.419a4.62,4.62,0,0,1,2.588,2.892,5.346,5.346,0,0,1,.221,1.32c.035.78.013,1.561.011,2.343,0,.387-.17.562-.546.565-.585,0-1.169,0-1.775,0v-.935h1.392c-.067-1.218.175-2.425-.4-3.563a3.749,3.749,0,0,0-7.1,1.6c-.009.643,0,1.285,0,1.96H133.8v.932c-.649,0-1.3.022-1.947-.018a.536.536,0,0,1-.36-.383,14.7,14.7,0,0,1,.131-3.558,4.644,4.644,0,0,1,2.673-3.154,3.3,3.3,0,0,1-1.391-3.128,3.14,3.14,0,0,1,1.237-2.181,3.282,3.282,0,0,1,4.509.452,3.325,3.325,0,0,1-.625,4.858Zm-4.211-2.736a2.343,2.343,0,1,0,2.332-2.332A2.347,2.347,0,0,0,133.811,153.683Z" transform="translate(-119.476 -136.814)" fill="#c32bd6"/>
    <path id="Path_16239" data-name="Path 16239" d="M138.246,18.656a4.756,4.756,0,0,1,2.811,4.289,1.417,1.417,0,0,1-.146.019c-.253,0-.506,0-.786,0a3.791,3.791,0,0,0-1.592-3.054,3.606,3.606,0,0,0-2.487-.684,3.773,3.773,0,0,0-3.446,3.715h-.888c-.277-1.4.92-3.263,2.785-4.294a3.284,3.284,0,0,1-1.4-2.985,3.15,3.15,0,0,1,1.1-2.194,3.3,3.3,0,0,1,4.532.184,3.34,3.34,0,0,1-.482,5Zm-4.228-2.723a2.343,2.343,0,1,0,2.32-2.344A2.348,2.348,0,0,0,134.018,15.933Z" transform="translate(-119.683 -9.835)" fill="#c32bd6"/>
    <path id="Path_16240" data-name="Path 16240" d="M17.231,219.613h5.135v.927H12.09v-.909h4.189c.006-.124.014-.218.015-.313,0-1.7,0-3.4,0-5.1a.339.339,0,0,0-.243-.387,1.836,1.836,0,0,1-1.134-2.054,1.872,1.872,0,0,1,3.682-.011,1.841,1.841,0,0,1-1.12,2.063.338.338,0,0,0-.255.378c.009,1.7,0,3.4,0,5.1v.305Zm-.481-8.431a.937.937,0,1,0,.948.917.939.939,0,0,0-.948-.917Z" transform="translate(-9.46 -191.956)" fill="#c32bd6"/>
    <path id="Path_16241" data-name="Path 16241" d="M245.828,219.636h4.193v.909H239.74v-.908h5.138v-.3c0-1.709,0-3.417,0-5.127a.321.321,0,0,0-.235-.362,1.867,1.867,0,0,1,.712-3.6,1.871,1.871,0,0,1,.691,3.6c-.145.059-.243.1-.241.3.01,1.767.005,3.535.006,5.3,0,.047.005.095.011.183Zm.456-7.5a.936.936,0,1,0-.939.926A.942.942,0,0,0,246.283,212.138Z" transform="translate(-219.293 -191.965)" fill="#c32bd6"/>
    <path id="Path_16242" data-name="Path 16242" d="M158.268,306.027a2.175,2.175,0,0,0-.027-.874c-.1-.21-.467-.275-.654-.464a9.006,9.006,0,0,1-.607-.808.424.424,0,0,0-.247-.167c-.252-.023-.506-.008-.784-.008v-.938c.25,0,.51-.007.769,0a.237.237,0,0,0,.276-.185,1.89,1.89,0,0,1,1.1-1.109.342.342,0,0,0,.167-.243c.023-.252.008-.506.008-.784h.938c0,.25.007.51,0,.769a.237.237,0,0,0,.185.275,1.877,1.877,0,0,1,1.108,1.1.342.342,0,0,0,.244.167c.252.023.506.008.784.008v.938c-.25,0-.51.006-.769,0a.237.237,0,0,0-.276.185,1.878,1.878,0,0,1-1.1,1.109.342.342,0,0,0-.167.243c-.023.252-.008.506-.008.785h-.939Zm.452-1.853a.936.936,0,1,0-.919-.946A.942.942,0,0,0,158.721,304.175Z" transform="translate(-142.061 -275.105)" fill="#c32bd6"/>
  </g>
</svg>
