<svg xmlns="http://www.w3.org/2000/svg" xmlns:xlink="http://www.w3.org/1999/xlink" width="132" height="62" viewBox="0 0 132 62">
  <defs>
    <clipPath id="clip-path">
      <rect id="Rectangle_8754" data-name="Rectangle 8754" width="132" height="62" fill="#7b7b7b"/>
    </clipPath>
  </defs>
  <g id="cobis" clip-path="url(#clip-path)">
    <path id="Path_15342" data-name="Path 15342" d="M147.229,52.782H48.4v1.024h98.826Z" transform="translate(-15.69 -17.11)" fill="#7b7b7b"/>
    <path id="Path_15343" data-name="Path 15343" d="M145.043,85.862a2.737,2.737,0,0,0,1.595-.413,1.258,1.258,0,0,0,.591-1.083,1.083,1.083,0,0,0-.256-.787,1.621,1.621,0,0,0-.63-.394c-.256-.079-.571-.138-.945-.217a3.4,3.4,0,0,1-.847-.217.4.4,0,0,1-.276-.374.439.439,0,0,1,.256-.394,1.512,1.512,0,0,1,.748-.157,2.713,2.713,0,0,1,1.379.354l.433-.846a2.563,2.563,0,0,0-.807-.3,4.34,4.34,0,0,0-.985-.118,2.539,2.539,0,0,0-1.536.413,1.294,1.294,0,0,0-.571,1.1,1.144,1.144,0,0,0,.275.807,1.422,1.422,0,0,0,.65.413c.256.079.571.138.965.217a3.629,3.629,0,0,1,.827.2.339.339,0,0,1,.256.354q0,.532-1,.532a2.982,2.982,0,0,1-.906-.138,2.411,2.411,0,0,1-.788-.354l-.433.847a2.663,2.663,0,0,0,.887.394A4.177,4.177,0,0,0,145.043,85.862Zm-4.235-.059h1.123V79.109h-1.123Zm-3.722-.906a1.38,1.38,0,0,1-1.024-.413,1.441,1.441,0,0,1-.394-1.083,1.522,1.522,0,0,1,.394-1.083,1.475,1.475,0,0,1,2.048,0,1.624,1.624,0,0,1,0,2.166A1.38,1.38,0,0,1,137.087,84.9Zm0,.965a2.667,2.667,0,0,0,1.319-.315,2.309,2.309,0,0,0,.906-.886,2.615,2.615,0,0,0,0-2.559,2.256,2.256,0,0,0-.906-.866,2.922,2.922,0,0,0-2.639,0,2.265,2.265,0,0,0-.906.866,2.475,2.475,0,0,0-.335,1.28,2.526,2.526,0,0,0,.335,1.28,2.449,2.449,0,0,0,.906.886A2.67,2.67,0,0,0,137.087,85.862Zm-5.948-.965a1.38,1.38,0,0,1-1.024-.413,1.441,1.441,0,0,1-.394-1.083,1.522,1.522,0,0,1,.394-1.083,1.475,1.475,0,0,1,2.048,0,1.624,1.624,0,0,1,0,2.166A1.351,1.351,0,0,1,131.139,84.9Zm0,.965a2.67,2.67,0,0,0,1.32-.315,2.3,2.3,0,0,0,.906-.886,2.61,2.61,0,0,0,0-2.559,2.25,2.25,0,0,0-.906-.866,2.84,2.84,0,0,0-1.32-.315,2.67,2.67,0,0,0-1.319.315,2.256,2.256,0,0,0-.906.866,2.475,2.475,0,0,0-.335,1.28,2.527,2.527,0,0,0,.335,1.28,2.439,2.439,0,0,0,.906.886A2.721,2.721,0,0,0,131.139,85.862Zm-5.672-4.922a2.57,2.57,0,0,0-.906.157,1.684,1.684,0,0,0-.689.453V79.109h-1.123V85.8h1.123V83.362a1.525,1.525,0,0,1,.354-1.083,1.278,1.278,0,0,1,.985-.374,1.072,1.072,0,0,1,.847.315,1.357,1.357,0,0,1,.3.945V85.8h1.123V83.047a2.074,2.074,0,0,0-.551-1.575A1.979,1.979,0,0,0,125.467,80.94Zm-5.81,4.922a2.513,2.513,0,0,0,1.241-.3,1.922,1.922,0,0,0,.808-.827l-.866-.512a1.352,1.352,0,0,1-.512.492,1.367,1.367,0,0,1-.689.157,1.394,1.394,0,0,1-1.044-.413,1.469,1.469,0,0,1-.414-1.1,1.5,1.5,0,0,1,.414-1.1,1.425,1.425,0,0,1,1.044-.413,1.609,1.609,0,0,1,.689.158,1.361,1.361,0,0,1,.512.492l.866-.512a1.922,1.922,0,0,0-.808-.827,2.513,2.513,0,0,0-1.241-.3,2.694,2.694,0,0,0-1.339.315,2.315,2.315,0,0,0-.926.866,2.481,2.481,0,0,0-.335,1.28,2.533,2.533,0,0,0,.335,1.28,2.361,2.361,0,0,0,.926.886A2.223,2.223,0,0,0,119.657,85.862Zm-5.987.02a3.289,3.289,0,0,0,1.4-.256,2.18,2.18,0,0,0,.866-.669,1.571,1.571,0,0,0,.276-.945,1.359,1.359,0,0,0-.315-.965,2.08,2.08,0,0,0-.768-.532,7.112,7.112,0,0,0-1.162-.335c-.335-.079-.611-.157-.808-.217a1.329,1.329,0,0,1-.492-.276.532.532,0,0,1-.2-.433.759.759,0,0,1,.335-.63,1.791,1.791,0,0,1,1.025-.236,3.394,3.394,0,0,1,.866.118,3.723,3.723,0,0,1,.866.374l.374-.906a3.32,3.32,0,0,0-.965-.413,4.429,4.429,0,0,0-1.142-.138,3.285,3.285,0,0,0-1.4.256,1.874,1.874,0,0,0-.847.689,1.649,1.649,0,0,0-.276.945,1.411,1.411,0,0,0,.315.984,2.074,2.074,0,0,0,.768.532,7.093,7.093,0,0,0,1.162.335c.335.079.61.157.808.217a1.335,1.335,0,0,1,.492.276.545.545,0,0,1,.2.453.649.649,0,0,1-.355.591,1.919,1.919,0,0,1-1.044.217,3.212,3.212,0,0,1-1.123-.2,3.549,3.549,0,0,1-.946-.492l-.414.906a2.794,2.794,0,0,0,1.083.551A5.026,5.026,0,0,0,113.67,85.881Zm-7.425-.079h1.123V79.109h-1.123Zm-3.8-.768a1.084,1.084,0,0,1-.67-.177.573.573,0,0,1-.237-.492c0-.433.315-.63.965-.63h1.162v.551a1,1,0,0,1-.472.551A1.375,1.375,0,0,1,102.444,85.035Zm.157-4.095a4.177,4.177,0,0,0-1.123.157,2.977,2.977,0,0,0-.906.433l.433.827a1.676,1.676,0,0,1,.67-.354,2.763,2.763,0,0,1,.808-.118,1.38,1.38,0,0,1,.906.276.978.978,0,0,1,.3.768v.079h-1.24a2.413,2.413,0,0,0-1.517.394,1.28,1.28,0,0,0-.473,1.043,1.332,1.332,0,0,0,.847,1.26,2.384,2.384,0,0,0,.945.177,2.6,2.6,0,0,0,.926-.157,1.432,1.432,0,0,0,.591-.472v.591h1.064V83.027a1.96,1.96,0,0,0-.572-1.536A2.248,2.248,0,0,0,102.6,80.94Zm-5.337,0a2.551,2.551,0,0,0-.965.177,1.821,1.821,0,0,0-.709.512V81H94.527v4.8H95.65V83.362A1.525,1.525,0,0,1,96,82.279a1.277,1.277,0,0,1,.985-.374,1.073,1.073,0,0,1,.847.315,1.36,1.36,0,0,1,.3.945V85.8h1.123V83.047a2.076,2.076,0,0,0-.551-1.575A1.9,1.9,0,0,0,97.265,80.94ZM90.825,84.9a1.382,1.382,0,0,1-1.025-.413,1.441,1.441,0,0,1-.394-1.083,1.522,1.522,0,0,1,.394-1.083,1.475,1.475,0,0,1,2.048,0,1.624,1.624,0,0,1,0,2.166A1.381,1.381,0,0,1,90.825,84.9Zm0,.965a2.669,2.669,0,0,0,1.319-.315,2.3,2.3,0,0,0,.906-.886,2.61,2.61,0,0,0,0-2.559,2.25,2.25,0,0,0-.906-.866,2.922,2.922,0,0,0-2.639,0,2.256,2.256,0,0,0-.906.866,2.475,2.475,0,0,0-.335,1.28,2.527,2.527,0,0,0,.335,1.28,2.439,2.439,0,0,0,.906.886A2.67,2.67,0,0,0,90.825,85.862Zm-4.254-5.67a.668.668,0,0,0,.512-.2.653.653,0,0,0,.2-.492.661.661,0,0,0-.216-.472.773.773,0,0,0-.512-.177.7.7,0,0,0-.512.2.661.661,0,0,0-.216.472.6.6,0,0,0,.216.472A.777.777,0,0,0,86.57,80.192ZM86,85.8h1.123V81H86ZM84.758,84.74a.964.964,0,0,1-.63.2.656.656,0,0,1-.493-.177.721.721,0,0,1-.177-.532V81.944h1.28v-.906h-1.28v-1.1H82.336v1.1h-.788v.906h.788v2.323a1.549,1.549,0,0,0,.433,1.2,1.7,1.7,0,0,0,1.221.413,1.867,1.867,0,0,0,.591-.079,1.33,1.33,0,0,0,.472-.236Zm-6.341.3a1.085,1.085,0,0,1-.67-.177.572.572,0,0,1-.236-.492c0-.433.315-.63.965-.63h1.162v.551a1,1,0,0,1-.473.551A1.373,1.373,0,0,1,78.417,85.035Zm.138-4.095a4.18,4.18,0,0,0-1.123.157,2.977,2.977,0,0,0-.906.433l.433.827a1.672,1.672,0,0,1,.67-.354,2.762,2.762,0,0,1,.807-.118,1.382,1.382,0,0,1,.906.276.979.979,0,0,1,.3.768v.079H78.4a2.412,2.412,0,0,0-1.516.394,1.282,1.282,0,0,0-.473,1.043,1.331,1.331,0,0,0,.847,1.26,2.382,2.382,0,0,0,.945.177,2.6,2.6,0,0,0,.926-.157,1.433,1.433,0,0,0,.591-.472v.591H80.78V83.027a1.961,1.961,0,0,0-.571-1.536A2.22,2.22,0,0,0,78.555,80.94Zm-5.318,0a2.553,2.553,0,0,0-.965.177,1.823,1.823,0,0,0-.709.512V81H70.5v4.8h1.123V83.362a1.526,1.526,0,0,1,.354-1.083,1.277,1.277,0,0,1,.985-.374,1.072,1.072,0,0,1,.847.315,1.359,1.359,0,0,1,.3.945V85.8h1.123V83.047a2.074,2.074,0,0,0-.551-1.575A1.9,1.9,0,0,0,73.237,80.94Zm-5.416.748v-.709H66.758V85.8H67.88V83.46a1.5,1.5,0,0,1,.374-1.1,1.368,1.368,0,0,1,1.024-.374,1.209,1.209,0,0,1,.256.02V80.94A1.881,1.881,0,0,0,67.821,81.688Zm-4.648.138a1.355,1.355,0,0,1,.926.315,1.31,1.31,0,0,1,.433.846H61.795a1.331,1.331,0,0,1,.453-.846A1.5,1.5,0,0,1,63.173,81.826Zm2.442,1.595a2.542,2.542,0,0,0-.315-1.3,2.159,2.159,0,0,0-.867-.866,2.448,2.448,0,0,0-1.26-.315,2.52,2.52,0,0,0-1.28.315,2.392,2.392,0,0,0-.886.886,2.445,2.445,0,0,0-.315,1.26,2.53,2.53,0,0,0,.335,1.28,2.36,2.36,0,0,0,.926.886,2.875,2.875,0,0,0,1.4.315,2.923,2.923,0,0,0,1.123-.2,2.12,2.12,0,0,0,.827-.591L64.69,84.4a1.737,1.737,0,0,1-1.3.532,1.646,1.646,0,0,1-1.044-.315,1.319,1.319,0,0,1-.512-.847h3.781A2.074,2.074,0,0,1,65.616,83.421ZM59.924,84.74a.965.965,0,0,1-.63.2.656.656,0,0,1-.492-.177.722.722,0,0,1-.177-.532V81.944H59.9v-.906h-1.28v-1.1H57.5v1.1h-.788v.906H57.5v2.323a1.548,1.548,0,0,0,.433,1.2,1.7,1.7,0,0,0,1.221.413,1.867,1.867,0,0,0,.591-.079,1.329,1.329,0,0,0,.473-.236Zm-6.007-3.8a2.552,2.552,0,0,0-.965.177,1.823,1.823,0,0,0-.709.512V81H51.179v4.8H52.3V83.362a1.526,1.526,0,0,1,.355-1.083,1.277,1.277,0,0,1,.985-.374,1.072,1.072,0,0,1,.847.315,1.359,1.359,0,0,1,.3.945V85.8h1.123V83.047a2.075,2.075,0,0,0-.551-1.575A1.9,1.9,0,0,0,53.917,80.94ZM48.4,85.8h1.162V79.5H48.4Z" transform="translate(-15.69 -25.561)" fill="#7b7b7b"/>
    <path id="Path_15344" data-name="Path 15344" d="M139.6,64.278a2.563,2.563,0,0,0-.906.157,1.687,1.687,0,0,0-.689.453V62.447h-1.123v6.694h1.123V66.7a1.525,1.525,0,0,1,.354-1.083,1.278,1.278,0,0,1,.985-.374,1.071,1.071,0,0,1,.847.315,1.357,1.357,0,0,1,.3.945v2.618h1.123V66.365a1.854,1.854,0,0,0-2.009-2.087ZM133.594,69.2a2.734,2.734,0,0,0,1.595-.413,1.258,1.258,0,0,0,.591-1.083,1.093,1.093,0,0,0-.276-.787,1.628,1.628,0,0,0-.631-.394c-.256-.079-.571-.138-.946-.217a3.421,3.421,0,0,1-.847-.217.4.4,0,0,1-.276-.374.439.439,0,0,1,.256-.394,1.515,1.515,0,0,1,.749-.157,2.71,2.71,0,0,1,1.378.354l.434-.846a2.574,2.574,0,0,0-.808-.3,4.34,4.34,0,0,0-.985-.118,2.539,2.539,0,0,0-1.536.413,1.294,1.294,0,0,0-.571,1.1,1.141,1.141,0,0,0,.276.807,1.42,1.42,0,0,0,.649.413c.256.079.571.138.965.217a3.63,3.63,0,0,1,.827.2.34.34,0,0,1,.256.354q0,.532-1,.532a2.988,2.988,0,0,1-.906-.138A2.4,2.4,0,0,1,132,67.8l-.433.847a2.652,2.652,0,0,0,.886.394A4.443,4.443,0,0,0,133.594,69.2Zm-3.663-5.67a.669.669,0,0,0,.512-.2.653.653,0,0,0,.2-.492.662.662,0,0,0-.217-.472.771.771,0,0,0-.512-.177.7.7,0,0,0-.512.2.661.661,0,0,0-.216.472.544.544,0,0,0,.216.472A.777.777,0,0,0,129.931,63.53Zm-.571,5.611h1.123v-4.8H129.36Zm-1.241-1.063a.965.965,0,0,1-.63.2A.656.656,0,0,1,127,68.1a.721.721,0,0,1-.177-.532V65.282h1.28v-.906h-1.28v-1.1H125.7v1.1h-.788v.906h.788v2.323a1.549,1.549,0,0,0,.433,1.2,1.7,1.7,0,0,0,1.221.413,1.869,1.869,0,0,0,.591-.079,1.33,1.33,0,0,0,.472-.236Zm-4.667-4.548a.668.668,0,0,0,.512-.2.653.653,0,0,0,.2-.492.662.662,0,0,0-.217-.472.771.771,0,0,0-.512-.177.7.7,0,0,0-.512.2.662.662,0,0,0-.217.472.6.6,0,0,0,.217.472A.776.776,0,0,0,123.452,63.53Zm-.571,5.611H124v-4.8h-1.123ZM120.2,65.026v-.709h-1.063v4.8h1.123V66.778a1.5,1.5,0,0,1,.374-1.1,1.367,1.367,0,0,1,1.024-.374,1.217,1.217,0,0,1,.256.02V64.258A1.937,1.937,0,0,0,120.2,65.026Zm-4.884,3.189h-1.891V66.4h1.891c.906,0,1.358.3,1.358.906S116.224,68.215,115.318,68.215Zm-.237-4.469a1.767,1.767,0,0,1,.946.217.745.745,0,0,1,.335.65.769.769,0,0,1-.335.65,1.767,1.767,0,0,1-.946.217h-1.654V63.746Zm1.654,2.106a1.453,1.453,0,0,0,.591-.551,1.615,1.615,0,0,0,.216-.827,1.383,1.383,0,0,0-.61-1.2,2.864,2.864,0,0,0-1.713-.433h-2.954v6.3H115.4a3.138,3.138,0,0,0,1.832-.453,1.48,1.48,0,0,0,.631-1.26,1.567,1.567,0,0,0-.316-1A1.637,1.637,0,0,0,116.736,65.853Zm-8.7-2.559a1.082,1.082,0,0,1,.63.2l.315-.847a1.755,1.755,0,0,0-1.024-.256,1.78,1.78,0,0,0-1.28.453,1.665,1.665,0,0,0-.453,1.221v.315h-.788v.906h.788V69.16h1.123V65.282h1.28v-.906H107.3v-.315C107.322,63.55,107.558,63.294,108.031,63.294Zm-5.672,4.941a1.38,1.38,0,0,1-1.024-.413,1.442,1.442,0,0,1-.394-1.083,1.522,1.522,0,0,1,.394-1.083,1.475,1.475,0,0,1,2.048,0,1.624,1.624,0,0,1,0,2.166A1.32,1.32,0,0,1,102.359,68.235Zm0,.965a2.665,2.665,0,0,0,1.319-.315,2.309,2.309,0,0,0,.906-.886,2.615,2.615,0,0,0,0-2.559,2.256,2.256,0,0,0-.906-.866,2.92,2.92,0,0,0-2.638,0,2.262,2.262,0,0,0-.906.866,2.481,2.481,0,0,0-.335,1.28,2.533,2.533,0,0,0,.335,1.28,2.446,2.446,0,0,0,.906.886A2.72,2.72,0,0,0,102.359,69.2Zm-7.523-.059h1.123V62.447H94.835ZM92.788,63.53a.668.668,0,0,0,.512-.2.653.653,0,0,0,.2-.492.662.662,0,0,0-.217-.472.771.771,0,0,0-.512-.177.7.7,0,0,0-.512.2.662.662,0,0,0-.217.472.6.6,0,0,0,.217.472A.776.776,0,0,0,92.788,63.53Zm-.571,5.611h1.123v-4.8H92.217Zm-3.072.059a2.516,2.516,0,0,0,1.241-.3,1.924,1.924,0,0,0,.807-.827l-.866-.512a1.352,1.352,0,0,1-.512.492,1.543,1.543,0,0,1-.689.157A1.4,1.4,0,0,1,88.08,67.8a1.469,1.469,0,0,1-.414-1.1,1.5,1.5,0,0,1,.414-1.1,1.427,1.427,0,0,1,1.044-.413,1.676,1.676,0,0,1,.689.158,1.361,1.361,0,0,1,.512.492l.866-.512a1.924,1.924,0,0,0-.807-.827,2.516,2.516,0,0,0-1.241-.3,2.7,2.7,0,0,0-1.34.315,2.313,2.313,0,0,0-.926.866,2.477,2.477,0,0,0-.335,1.28,2.529,2.529,0,0,0,.335,1.28,2.36,2.36,0,0,0,.926.886A2.263,2.263,0,0,0,89.144,69.2Zm-5.731-4.922a2.553,2.553,0,0,0-.965.177,1.824,1.824,0,0,0-.709.512v-.63H80.675v4.8H81.8V66.7a1.526,1.526,0,0,1,.354-1.083,1.277,1.277,0,0,1,.985-.374,1.072,1.072,0,0,1,.847.315,1.359,1.359,0,0,1,.3.945v2.618H85.4V66.365a2.075,2.075,0,0,0-.551-1.575A1.971,1.971,0,0,0,83.413,64.278Zm-5.337.039v2.441a1.526,1.526,0,0,1-.354,1.083,1.233,1.233,0,0,1-.965.374,1.056,1.056,0,0,1-.827-.315,1.38,1.38,0,0,1-.3-.965v-2.6H74.511v2.756a1.892,1.892,0,0,0,2.068,2.126,2.066,2.066,0,0,0,.867-.177,1.7,1.7,0,0,0,.67-.492v.61h1.064v-4.8h-1.1Zm-7.228,3.918a1.381,1.381,0,0,1-1.024-.413,1.441,1.441,0,0,1-.394-1.083,1.522,1.522,0,0,1,.394-1.083,1.475,1.475,0,0,1,2.048,0,1.624,1.624,0,0,1,0,2.166A1.381,1.381,0,0,1,70.848,68.235Zm0,.965a2.669,2.669,0,0,0,1.32-.315A2.307,2.307,0,0,0,73.073,68a2.613,2.613,0,0,0,0-2.559,2.255,2.255,0,0,0-.906-.866,2.921,2.921,0,0,0-2.639,0,2.26,2.26,0,0,0-.906.866,2.478,2.478,0,0,0-.335,1.28A2.53,2.53,0,0,0,68.622,68a2.444,2.444,0,0,0,.906.886A2.669,2.669,0,0,0,70.848,69.2Zm-5.711.02a3.714,3.714,0,0,0,1.418-.276,2.706,2.706,0,0,0,1.083-.787l-.748-.728a2.226,2.226,0,0,1-1.694.748,2.471,2.471,0,0,1-1.162-.276,2.275,2.275,0,0,1-.807-3.071,2.071,2.071,0,0,1,.807-.787,2.4,2.4,0,0,1,2.856.472l.748-.709a2.907,2.907,0,0,0-1.083-.787,3.714,3.714,0,0,0-1.418-.276,3.635,3.635,0,0,0-1.733.413,3.1,3.1,0,0,0-1.654,2.835,3.214,3.214,0,0,0,.433,1.673,3.1,3.1,0,0,0,1.2,1.162A4.016,4.016,0,0,0,65.136,69.219Z" transform="translate(-20.017 -20.16)" fill="#7b7b7b"/>
    <path id="Path_15345" data-name="Path 15345" d="M138.633,33.826a12.712,12.712,0,0,0,5.1-.906,7.086,7.086,0,0,0,3.151-2.461,6.005,6.005,0,0,0,1.044-3.425,4.969,4.969,0,0,0-1.142-3.465,6.879,6.879,0,0,0-2.737-1.87,35.5,35.5,0,0,0-4.1-1.181,17.707,17.707,0,0,1-3.584-1.083,1.785,1.785,0,0,1-1.182-1.673,2.075,2.075,0,0,1,1.025-1.811,5.749,5.749,0,0,1,3.151-.689,12.239,12.239,0,0,1,6.066,1.713l1.556-3.839a12.008,12.008,0,0,0-3.506-1.437,16.782,16.782,0,0,0-4.1-.492,12.547,12.547,0,0,0-5.081.906,6.963,6.963,0,0,0-3.112,2.461,6.051,6.051,0,0,0-1.025,3.445,5.142,5.142,0,0,0,1.143,3.5,6.771,6.771,0,0,0,2.737,1.91,35.478,35.478,0,0,0,4.1,1.181c1.083.256,1.95.472,2.58.689a4.833,4.833,0,0,1,1.556.827,1.585,1.585,0,0,1,.61,1.3,1.945,1.945,0,0,1-1.024,1.713,6.136,6.136,0,0,1-3.191.65,12.7,12.7,0,0,1-3.88-.63,11.566,11.566,0,0,1-3.348-1.654l-1.713,3.819a11.986,11.986,0,0,0,3.9,1.831A19.048,19.048,0,0,0,138.633,33.826Zm-17.725-.374h5.061V11.58h-5.061Zm-13.156-3.8h-5.908V24.238h5.908c2.7,0,4.037.906,4.037,2.717a2.208,2.208,0,0,1-1.024,2.028A5.6,5.6,0,0,1,107.752,29.652ZM106.866,15.4a5.076,5.076,0,0,1,2.836.65,2.144,2.144,0,0,1,.965,1.929,2.166,2.166,0,0,1-.965,1.929,5.12,5.12,0,0,1-2.836.65h-5.042V15.4Zm6.007,6.674A5.329,5.329,0,0,0,115.02,20.1a5.271,5.271,0,0,0,.768-2.835,4.823,4.823,0,0,0-2.147-4.154A10.448,10.448,0,0,0,107.5,11.58H96.8V33.452h11.324c2.855,0,5.022-.512,6.519-1.555a5.039,5.039,0,0,0,2.245-4.43,5.466,5.466,0,0,0-1.064-3.426A6.088,6.088,0,0,0,112.873,22.073ZM81.992,29.514a6.975,6.975,0,0,1-3.506-.886,6.477,6.477,0,0,1-2.462-2.481,7.312,7.312,0,0,1-.886-3.622,7.312,7.312,0,0,1,.886-3.622,6.344,6.344,0,0,1,2.462-2.481,7.379,7.379,0,0,1,7.011,0A6.474,6.474,0,0,1,87.96,18.9a7.314,7.314,0,0,1,.886,3.622,7.314,7.314,0,0,1-.886,3.622A6.342,6.342,0,0,1,85.5,28.628,7.027,7.027,0,0,1,81.992,29.514Zm0,4.311a12.639,12.639,0,0,0,6.125-1.477,10.961,10.961,0,0,0,5.83-9.843,10.9,10.9,0,0,0-1.556-5.788,11.147,11.147,0,0,0-4.274-4.055,12.639,12.639,0,0,0-6.125-1.477,12.771,12.771,0,0,0-6.145,1.477,10.739,10.739,0,0,0-4.274,4.055,11.074,11.074,0,0,0-1.556,5.788,10.893,10.893,0,0,0,1.556,5.788,11.007,11.007,0,0,0,4.274,4.055A12.661,12.661,0,0,0,81.992,33.826Zm-22.491,0a12.833,12.833,0,0,0,5.16-1,10.161,10.161,0,0,0,3.88-2.914l-3.25-2.992a6.938,6.938,0,0,1-5.495,2.6,7.319,7.319,0,0,1-3.624-.886,6.265,6.265,0,0,1-2.481-2.481,7.312,7.312,0,0,1-.886-3.622,7.312,7.312,0,0,1,.886-3.622,6.265,6.265,0,0,1,2.481-2.481,7.319,7.319,0,0,1,3.624-.886A6.96,6.96,0,0,1,65.291,18.1l3.25-2.992a10.408,10.408,0,0,0-3.86-2.874,13.538,13.538,0,0,0-11.226.453A10.634,10.634,0,0,0,49.2,16.718a11.164,11.164,0,0,0-1.556,5.827A10.983,10.983,0,0,0,49.2,28.372a10.767,10.767,0,0,0,4.254,4.036A12.857,12.857,0,0,0,59.5,33.826Z" transform="translate(-15.445 -3.626)" fill="#7b7b7b"/>
    <path id="Path_15346" data-name="Path 15346" d="M21.816,24.018S31.21,14.549,20.634,0c0,0,4.215,8.308-.807,15.434C16.853,19.667,21.816,24.018,21.816,24.018Z" transform="translate(-6.119)" fill="#7b7b7b"/>
    <path id="Path_15347" data-name="Path 15347" d="M1.836,78.882s1.93,1.26,3.25.965c0,0-1.851,1.811-2.147,1.752A6.207,6.207,0,0,1,1.836,78.882Z" transform="translate(-0.595 -25.57)" fill="#7b7b7b"/>
    <path id="Path_15348" data-name="Path 15348" d="M6.774,82.727a10.21,10.21,0,0,0,1.891,4.449A9.219,9.219,0,0,1,5.041,84.46Z" transform="translate(-1.634 -26.817)" fill="#7b7b7b"/>
    <path id="Path_15349" data-name="Path 15349" d="M3.759,82.976A12.4,12.4,0,0,0,5.63,81.795a5.461,5.461,0,0,1-1.142,1.89A1.177,1.177,0,0,1,3.759,82.976Z" transform="translate(-1.219 -26.515)" fill="#7b7b7b"/>
    <path id="Path_15350" data-name="Path 15350" d="M24.87,85.487c.374-.2.748-.433,1.1-.65.158-.118.3-.256.453-.394a15.491,15.491,0,0,1-8.744-5.611c-.492-.61,1.5,5.433,5.337,7.461A13.887,13.887,0,0,0,24.87,85.487Z" transform="translate(-5.708 -25.54)" fill="#7b7b7b"/>
    <path id="Path_15351" data-name="Path 15351" d="M29.561,84.142a10.8,10.8,0,0,0,1.221-1.477,12.358,12.358,0,0,0-2.541-.157A13.7,13.7,0,0,1,22.9,81.445,11.187,11.187,0,0,0,29.561,84.142Z" transform="translate(-7.425 -26.401)" fill="#7b7b7b"/>
    <path id="Path_15352" data-name="Path 15352" d="M29.894,55.7s-2.7-4.292,3.171-12.678a38.713,38.713,0,0,0-7.129,12.462A4.351,4.351,0,0,1,29.894,55.7Z" transform="translate(-8.407 -13.947)" fill="#7b7b7b"/>
    <path id="Path_15353" data-name="Path 15353" d="M1.878,68.244a3.225,3.225,0,0,0,1.359-.118c-1.28-1.142-1.516-3.386-1.457-5.178a7.751,7.751,0,0,0-1.2,4.095C.578,67.063,1.13,68.146,1.878,68.244Z" transform="translate(-0.184 -20.405)" fill="#7b7b7b"/>
    <path id="Path_15354" data-name="Path 15354" d="M3.784,62.818c-.532,0-1.044-3.209,1.516-7.56,0,0-1.851,4.233-1.576,6.871A5.674,5.674,0,0,0,3.784,62.818Z" transform="translate(-1.086 -17.913)" fill="#7b7b7b"/>
    <path id="Path_15355" data-name="Path 15355" d="M8.724,47.432C4.273,53.042,4.549,58.358,4.667,59.519a4.161,4.161,0,0,0,.571,1.555c.335-.118.315-.827.315-.827C5.1,52.826,9.493,47.53,13.51,42.471l-.059.039Z" transform="translate(-1.496 -13.767)" fill="#7b7b7b"/>
    <path id="Path_15356" data-name="Path 15356" d="M18.376,6.554C26.785,23.8,13.945,27.422,7.78,38.525A19.966,19.966,0,0,0,5.574,50.278a6.051,6.051,0,0,1-3.013.669C.434,50.81.218,48.861.04,49.629c-.315,4.39,1.339,5.689,5.731,6.162,0,0,.768,5.237,2.816,7.146a13.611,13.611,0,0,0,6.893.433,11.293,11.293,0,0,1-3.624-4.548,9.586,9.586,0,0,1-.965-4.213c7.878-2.658,12.033-2.481,14.318-1.516a10.119,10.119,0,0,0-.768-4.469c-2.3-2.028-6.184-1.87-8.35-1.614a22.233,22.233,0,0,0-5.928,1.614s-1.674-6.713,7.6-16.557C28.814,20.354,21.763,10.117,18.376,6.554Z" transform="translate(-0.001 -2.125)" fill="#7b7b7b"/>
    <path id="Path_15357" data-name="Path 15357" d="M30.437,79.558a10.066,10.066,0,0,0,.945-2.973c-3.447-1.358-10.064-.079-11.974.61a1.036,1.036,0,0,0,.453.374A16.674,16.674,0,0,0,30.437,79.558Z" transform="translate(-6.291 -24.631)" fill="#7b7b7b"/>
    <path id="Path_15358" data-name="Path 15358" d="M29.3,52.968c-.217-.315-.433-.591-.65-.886a1.412,1.412,0,0,0-.256-.276,6.981,6.981,0,0,0-2.915-1.1,14.313,14.313,0,0,0-3.919.472s1.083-4.843,6.578-11.773a14.479,14.479,0,0,0,2.344-13.741,17.332,17.332,0,0,1-5.692,13.19c-7.149,7.087-6.7,12.3-6.6,13.958C23.451,51.59,27.114,51.866,29.3,52.968Z" transform="translate(-5.884 -8.319)" fill="#7b7b7b"/>
  </g>
</svg>
