<svg xmlns="http://www.w3.org/2000/svg" width="55.35" height="53.373" viewBox="0 0 55.35 53.373">
  <g id="computer-setting" transform="translate(-4 -5)">
    <path id="Path_14625" data-name="Path 14625" d="M19.652,21.02a1.751,1.751,0,0,1,1.279,3.088.989.989,0,0,0,.106,1.273l3.106,3.106a.987.987,0,0,0,1.273.106l.46-.329a1.64,1.64,0,0,1,2.535,1.05c.06.658.264,1.378,1.068,1.384h4.393c.8-.01,1.009-.714,1.068-1.384a1.64,1.64,0,0,1,2.535-1.049c.5.421,1.172.787,1.734.223l3.106-3.106c.555-.559.207-1.229-.224-1.734a1.64,1.64,0,0,1,1.05-2.535c.658-.06,1.378-.264,1.384-1.068V15.653c-.01-.8-.714-1.009-1.384-1.068a1.631,1.631,0,0,1-1.049-2.535c.421-.5.786-1.172.223-1.734L39.208,7.21A.988.988,0,0,0,37.934,7.1a1.886,1.886,0,0,1-2.034.487,1.58,1.58,0,0,1-.961-1.208c-.06-.658-.264-1.378-1.068-1.384H29.479c-.8.01-1.009.714-1.068,1.384a1.64,1.64,0,0,1-2.535,1.049c-.5-.421-1.172-.787-1.734-.223l-3.106,3.106a.989.989,0,0,0-.106,1.273,1.886,1.886,0,0,1,.487,2.034,1.58,1.58,0,0,1-1.208.961c-.658.06-1.378.264-1.384,1.068v4.393a.988.988,0,0,0,.826.975ZM20.8,16.479a3.633,3.633,0,0,0,2.216-5.35l1.937-1.937a3.633,3.633,0,0,0,5.35-2.216h2.739a3.612,3.612,0,0,0,5.35,2.216l1.937,1.937a3.611,3.611,0,0,0,2.216,5.35v2.739a3.633,3.633,0,0,0-2.216,5.35l-1.937,1.937a3.633,3.633,0,0,0-5.35,2.216H30.305a3.633,3.633,0,0,0-5.35-2.216l-1.937-1.937a3.633,3.633,0,0,0-2.216-5.35Zm-15.814.381c2.136-.113-.159-3.84,1.977-3.954h9.617a.988.988,0,1,0,0-1.977H6.965A2.968,2.968,0,0,0,4,13.9v1.977A.988.988,0,0,0,4.988,16.861Z" fill="#c32bd6"/>
    <path id="Path_14626" data-name="Path 14626" d="M56.385,11H46.768a.988.988,0,1,0,0,1.977h9.617a.99.99,0,0,1,.988.988V40.652H5.977V20.884a.988.988,0,0,0-1.977,0V47.57a2.968,2.968,0,0,0,2.965,2.965H25.745v5.93h-.988a.988.988,0,1,0,0,1.977H38.594a.988.988,0,1,0,0-1.977h-.988V49.547a.988.988,0,0,0-.988-.988H6.965a.99.99,0,0,1-.988-.988V42.628h51.4V47.57a.99.99,0,0,1-.988.988H41.559a.988.988,0,0,0,0,1.977H56.385A2.968,2.968,0,0,0,59.35,47.57V13.965A2.968,2.968,0,0,0,56.385,11ZM35.628,50.536v5.93H27.721v-5.93Z" transform="translate(0 -0.07)" fill="#c32bd6"/>
    <path id="Path_14627" data-name="Path 14627" d="M31.937,23.372c7.184-.228,7.182-10.645,0-10.872C24.753,12.728,24.754,23.145,31.937,23.372Zm0-8.9a3.459,3.459,0,1,1-3.46,3.459,3.459,3.459,0,0,1,3.46-3.459Z" transform="translate(-0.262 -0.087)" fill="#c32bd6"/>
  </g>
</svg>
