<svg xmlns="http://www.w3.org/2000/svg" width="53.18" height="53.18" viewBox="0 0 53.18 53.18">
  <g id="configure" transform="translate(-5 -5)">
    <path id="Path_14617" data-name="Path 14617" d="M21.705,47.607a8.318,8.318,0,1,0-8.317-8.318A8.327,8.327,0,0,0,21.705,47.607Zm0-14.508a6.191,6.191,0,1,1-6.19,6.191A6.2,6.2,0,0,1,21.705,33.1Z" transform="translate(0.533 1.652)" fill="#0098da"/>
    <path id="Path_14618" data-name="Path 14618" d="M5.947,43.71l3.262.364a13.345,13.345,0,0,0,1.328,3.193L8.482,49.835a1.064,1.064,0,0,0,.08,1.417l2.975,2.975a1.064,1.064,0,0,0,1.417.079l2.568-2.053a13.38,13.38,0,0,0,3.194,1.327l.364,3.263a1.064,1.064,0,0,0,1.056.946h4.208a1.064,1.064,0,0,0,1.057-.947l.364-3.262a13.359,13.359,0,0,0,3.193-1.328l2.569,2.054a1.064,1.064,0,0,0,1.417-.079l2.975-2.975A1.064,1.064,0,0,0,36,49.835l-2.054-2.569a13.3,13.3,0,0,0,1.327-3.193l3.263-.364a1.064,1.064,0,0,0,.947-1.056V38.445a1.064,1.064,0,0,0-.947-1.056l-3.263-.364a13.322,13.322,0,0,0-1.327-3.193L36,31.264a1.064,1.064,0,0,0-.079-1.417l-2.975-2.975a1.063,1.063,0,0,0-1.417-.079l-2.569,2.053a13.334,13.334,0,0,0-3.193-1.327L25.4,24.256a1.064,1.064,0,0,0-1.057-.946H20.135a1.064,1.064,0,0,0-1.056.947l-.364,3.262a13.334,13.334,0,0,0-3.193,1.328l-2.569-2.054a1.064,1.064,0,0,0-1.417.079L8.562,29.847a1.064,1.064,0,0,0-.08,1.417l2.055,2.569a13.379,13.379,0,0,0-1.329,3.193l-3.262.364A1.064,1.064,0,0,0,5,38.445v4.209a1.064,1.064,0,0,0,.947,1.056ZM7.127,39.4l3.059-.34a1.064,1.064,0,0,0,.923-.84,11.258,11.258,0,0,1,1.615-3.882,1.064,1.064,0,0,0-.058-1.247l-1.926-2.41,1.628-1.628,2.409,1.925a1.064,1.064,0,0,0,1.248.06,11.262,11.262,0,0,1,3.882-1.613,1.064,1.064,0,0,0,.84-.924l.34-3.059h2.3l.34,3.059a1.064,1.064,0,0,0,.84.924,11.256,11.256,0,0,1,3.882,1.613,1.064,1.064,0,0,0,1.247-.058l2.409-1.926,1.629,1.628-1.926,2.41a1.064,1.064,0,0,0-.06,1.247,11.258,11.258,0,0,1,1.615,3.882,1.064,1.064,0,0,0,.923.84l3.06.34v2.3l-3.06.34a1.064,1.064,0,0,0-.923.84,11.258,11.258,0,0,1-1.615,3.882,1.064,1.064,0,0,0,.06,1.247l1.926,2.409L32.11,52.049,29.7,50.123a1.064,1.064,0,0,0-1.247-.059,11.265,11.265,0,0,1-3.882,1.613,1.064,1.064,0,0,0-.84.924l-.34,3.059h-2.3l-.34-3.059a1.064,1.064,0,0,0-.84-.924,11.265,11.265,0,0,1-3.882-1.613,1.064,1.064,0,0,0-1.248.058l-2.409,1.926L10.739,50.42l1.925-2.409a1.064,1.064,0,0,0,.06-1.247,11.279,11.279,0,0,1-1.615-3.882,1.064,1.064,0,0,0-.923-.84L7.127,41.7ZM45.254,11.15a6.384,6.384,0,1,0,6.384,6.384,6.391,6.391,0,0,0-6.384-6.384Zm0,10.64a4.257,4.257,0,1,1,4.257-4.257A4.262,4.262,0,0,1,45.254,21.79Z" transform="translate(0 0.391)" fill="#0098da"/>
    <path id="Path_14619" data-name="Path 14619" d="M55.6,15.325l-2.2-.245a10.07,10.07,0,0,0-.855-2.054l1.387-1.734a1.064,1.064,0,0,0-.079-1.417L51.669,7.7a1.063,1.063,0,0,0-1.417-.08L48.519,9a10.063,10.063,0,0,0-2.053-.854l-.246-2.2A1.064,1.064,0,0,0,45.163,5H42.077a1.064,1.064,0,0,0-1.056.947l-.246,2.2A10.063,10.063,0,0,0,38.722,9L36.988,7.615a1.064,1.064,0,0,0-1.417.08L33.389,9.877a1.064,1.064,0,0,0-.079,1.417L34.7,13.027a10.083,10.083,0,0,0-.855,2.053l-2.2.246a1.064,1.064,0,0,0-.947,1.057v3.085a1.064,1.064,0,0,0,.947,1.057l2.2.245a10.083,10.083,0,0,0,.855,2.054L33.31,24.557a1.064,1.064,0,0,0,.079,1.417l2.182,2.181a1.064,1.064,0,0,0,1.416.08l1.734-1.387a10.1,10.1,0,0,0,2.053.854l.247,2.2a1.064,1.064,0,0,0,1.056.947h3.087a1.064,1.064,0,0,0,1.057-.947l.245-2.2a10.087,10.087,0,0,0,2.054-.855l1.734,1.387a1.066,1.066,0,0,0,1.417-.08l2.18-2.18a1.064,1.064,0,0,0,.08-1.417l-1.387-1.734a10.063,10.063,0,0,0,.855-2.054l2.2-.246a1.064,1.064,0,0,0,.947-1.057V16.384A1.064,1.064,0,0,0,55.6,15.325Zm-1.181,3.191-1.991.222a1.064,1.064,0,0,0-.923.84,7.975,7.975,0,0,1-1.143,2.749,1.064,1.064,0,0,0,.058,1.247l1.254,1.569-.836.836L49.27,24.724a1.065,1.065,0,0,0-1.247-.058,7.98,7.98,0,0,1-2.749,1.143,1.064,1.064,0,0,0-.84.923l-.223,1.991H43.03l-.223-1.991a1.064,1.064,0,0,0-.84-.923,7.98,7.98,0,0,1-2.748-1.143,1.066,1.066,0,0,0-1.247.058L36.4,25.979l-.836-.836,1.255-1.569a1.064,1.064,0,0,0,.058-1.247,7.975,7.975,0,0,1-1.143-2.749,1.064,1.064,0,0,0-.924-.84l-1.991-.222V17.336l1.991-.223a1.064,1.064,0,0,0,.924-.84,7.975,7.975,0,0,1,1.143-2.748,1.064,1.064,0,0,0-.058-1.248l-1.255-1.569.836-.835,1.569,1.254a1.064,1.064,0,0,0,1.247.058,7.966,7.966,0,0,1,2.748-1.143,1.064,1.064,0,0,0,.84-.923l.224-1.991h1.181l.223,1.991a1.064,1.064,0,0,0,.84.923,7.966,7.966,0,0,1,2.748,1.143,1.064,1.064,0,0,0,1.248-.058l1.568-1.255.836.836-1.255,1.569a1.064,1.064,0,0,0-.057,1.248,7.975,7.975,0,0,1,1.143,2.749,1.064,1.064,0,0,0,.923.84l1.991.221v1.182Z" transform="translate(1.634 0)" fill="#0098da"/>
  </g>
</svg>
