<svg xmlns="http://www.w3.org/2000/svg" width="21.735" height="26.559" viewBox="0 0 21.735 26.559">
  <g id="daily-report" transform="translate(-34.925 -0.69)">
    <path id="Path_16250" data-name="Path 16250" d="M35.825,27.248l-.2-.1a1.132,1.132,0,0,1-.691-.987c-.008-.1-.006-.207-.006-.311V8.188a2.786,2.786,0,0,1,.007-.285.38.38,0,0,1,.755-.029,1.937,1.937,0,0,1,.015.336q0,8.792,0,17.584c0,.1,0,.208.006.311a.371.371,0,0,0,.369.362,2.183,2.183,0,0,0,.233,0H53.639c.53,0,.617-.087.617-.615,0-.311,0-.622,0-.933a.551.551,0,0,0-.028-.094h-.308q-7.626,0-15.253,0a1.275,1.275,0,0,1-1.009-.375,1.179,1.179,0,0,1-.316-.827q0-6.03,0-12.06a1.158,1.158,0,0,1,1.211-1.211q6.433-.007,12.866,0a1.16,1.16,0,0,1,1.208,1.215c.008.924,0,1.849,0,2.793h1.618c0-.072.012-.139.012-.206,0-1.348.008-2.7,0-4.046A2.926,2.926,0,0,0,51.7,7.152a13.85,13.85,0,0,0-1.813-.037,1.246,1.246,0,0,1-.957-.382,1.2,1.2,0,0,1-.312-.854c0-.588.021-1.179-.034-1.761a2.926,2.926,0,0,0-2.881-2.641c-3.182-.017-6.364-.007-9.545-.006-.326,0-.457.141-.457.488,0,1.314,0,2.628,0,3.942,0,.427-.117.606-.395.6s-.383-.173-.383-.61q0-1.946,0-3.89A1.178,1.178,0,0,1,36.238.691q4.994,0,9.987,0a6.761,6.761,0,0,1,4.935,2c.83.819,1.677,1.63,2.426,2.52A6.185,6.185,0,0,1,55.026,9.2c.021,1.625.008,3.25.01,4.876v.29c.116.025.217.046.317.069a1.635,1.635,0,0,1,1.282,1.508c.026.751.012,1.5.013,2.256,0,1.547-.03,3.1.011,4.642a1.8,1.8,0,0,1-1.623,2.011c0,.285-.021.579,0,.867a1.339,1.339,0,0,1-.9,1.531H35.825ZM55.869,19.6c0-1.141,0-2.282,0-3.423a.916.916,0,0,0-1.03-1.019q-3.41,0-6.82,0A.927.927,0,0,0,46.98,16.2V23a.923.923,0,0,0,1.046,1.053q3.4,0,6.794,0A.919.919,0,0,0,55.868,23q0-1.7,0-3.4ZM48.393,1.855a3.717,3.717,0,0,1,.942,1.961A14.8,14.8,0,0,1,49.4,5.472c.009.862,0,.859.87.863a15.158,15.158,0,0,1,1.528.037,3.655,3.655,0,0,1,2.1,1.018c-.044-.143-.059-.216-.087-.284a5.661,5.661,0,0,0-1.148-1.8q-1.1-1.134-2.238-2.237a5.221,5.221,0,0,0-2.035-1.211Zm.218,9.278v.836c.28,0,.539,0,.8,0a.848.848,0,0,1,.256.029.353.353,0,0,1,.257.4.357.357,0,0,1-.364.339c-.317.009-.635,0-.955,0v1.622h3.226V12.746c-.155,0-.292.006-.428,0-.274-.013-.427-.153-.429-.384s.152-.377.423-.39c.143-.007.286,0,.423,0,.1-.687-.03-.836-.671-.836H48.612Zm-4.03,1.628v1.6H47.8v-1.6Zm-.811.016H40.56v1.591h3.209Zm-3.211,2.4V16.79h3.208V15.175Zm3.209,6.45V20.012H40.558v1.614ZM40.557,17.6v1.6h3.206V17.6H40.557Zm0,4.834v1.6h3.212v-1.6Zm4.03-7.255V16.79H46.2a2.867,2.867,0,0,1,.258-1.614Zm-6.448,4.83v1.612h1.6V20.006Zm0-7.242v1.6h1.614v-1.6Zm0,2.408v1.614h1.609V15.171Zm8.055,6.455V20.012H44.582v1.614Zm.272,2.412a2.92,2.92,0,0,1-.263-1.606H44.584v1.606Zm1.339-12.9c-1.049,0-2.073,0-3.1.006a.193.193,0,0,0-.133.134c-.015.221-.006.443-.006.678H47.8v-.819Zm-7.247.818h3.209v-.8H40.552ZM39.741,19.2V17.6H38.13v1.6Zm6.446,0v-1.6H44.58v1.6ZM38.12,22.433c0,.434-.021.856.013,1.273a.439.439,0,0,0,.278.315c.441.035.885.015,1.334.015v-1.6H38.119Zm1.627-11.3c-.431,0-.834-.009-1.237,0a.381.381,0,0,0-.392.4c-.009.134,0,.27,0,.416h1.631Z" fill="#ea8713"/>
    <path id="Path_16251" data-name="Path 16251" d="M73.095,37.645c-.579,0-1.161.046-1.734-.011a1.883,1.883,0,0,1-1.594-1.309.731.731,0,0,1,.344-.932.3.3,0,0,0,.173-.3,6.177,6.177,0,0,1,.078-1.106,2.413,2.413,0,0,1,1.369-1.69.556.556,0,0,0,.231-.149.742.742,0,0,1,.73-.346c.311.01.624-.02.932.012a1.272,1.272,0,0,1,.484.2c.157.093.283.238.441.328a2.487,2.487,0,0,1,1.337,2.137,2.637,2.637,0,0,1,0,.362.56.56,0,0,0,.287.635.7.7,0,0,1,.23.858,1.993,1.993,0,0,1-1.858,1.337c-.484.011-.968,0-1.452,0v-.028Zm2.541-1.568H70.547a1.121,1.121,0,0,0,1.077.815c.976,0,1.951.012,2.926,0A1.114,1.114,0,0,0,75.636,36.077Zm-2.151-.806V32.6h-.8v2.67Zm.811-2.135v2.135h.779A1.9,1.9,0,0,0,74.3,33.136Zm-2.421,2.135V33.138a1.92,1.92,0,0,0-.787,2.133Z" transform="translate(-32.376 -28.951)" fill="#ea8713"/>
    <path id="Path_16252" data-name="Path 16252" d="M188.161,105.4c.51,0,1.02,0,1.53,0,.291,0,.459.139.466.371s-.175.4-.468.4q-1.53.005-3.06,0c-.3,0-.471-.161-.463-.406s.17-.369.465-.37c.51,0,1.02,0,1.53,0Z" transform="translate(-140.762 -97.454)" fill="#ea8713"/>
    <path id="Path_16253" data-name="Path 16253" d="M187.36,82.142c.259,0,.518-.006.777,0a.384.384,0,1,1,.025.767q-.815.021-1.63,0a.384.384,0,1,1,.026-.767c.267-.007.535,0,.8,0Z" transform="translate(-140.755 -75.806)" fill="#ea8713"/>
    <path id="Path_16279" data-name="Path 16279" d="M224.854,228.23c0-.412,0-.79,0-1.168a1.154,1.154,0,0,1,1.228-1.236c.379,0,.758,0,1.158,0v-.818H221.6c0,.148.006.285,0,.42a.386.386,0,1,1-.771.006c-.009-.588-.024-1.176.006-1.763a1.138,1.138,0,0,1,1.109-1.064c.153-.008.308,0,.468,0,.062-.338-.09-.821.443-.8.472.021.326.46.371.773h.8c.054-.31-.093-.777.416-.773s.345.458.394.774h.8c.052-.31-.09-.762.4-.775.518-.012.36.459.422.8.165,0,.327-.008.488,0a1.119,1.119,0,0,1,1.093,1.1q.021,2.1,0,4.2a1.1,1.1,0,0,1-1.095,1.1q-2.5.019-5,0a1.134,1.134,0,0,1-1.108-1.064,5.9,5.9,0,0,1,0-.673.388.388,0,1,1,.774.021c.006.182,0,.363,0,.545.011.227.125.391.362.394.95.009,1.9,0,2.892,0ZM221.6,224.2h5.638c.1-.723-.071-.835-.658-.822-.82.019-1.642,0-2.462,0-.682,0-1.366,0-2.048,0-.334,0-.465.142-.47.477,0,.1,0,.206,0,.338Zm5.068,2.414a3.868,3.868,0,0,0-.71.012.442.442,0,0,0-.3.269,4,4,0,0,0-.014.743Zm.593.628-.994.983a3.042,3.042,0,0,0,.7-.015.506.506,0,0,0,.285-.334A2.8,2.8,0,0,0,227.259,227.239Z" transform="translate(-173.007 -205.796)" fill="#ea8713"/>
  </g>
</svg>
