<svg xmlns="http://www.w3.org/2000/svg" width="1526.287" height="483.5" viewBox="0 0 1526.287 483.5">
  <g id="Group_17087" data-name="Group 17087" transform="translate(0 -368.002)" opacity="0.679">
    <g id="Group_9573" data-name="Group 9573" transform="translate(0 368.002)" opacity="0.5">
      <path id="Path_14649" data-name="Path 14649" d="M295.422,296.136l-78.183-78.391L234.3,200.626l61.118,61.3L503.711,52.977,704.188,254.067l-17.066,17.119L503.711,87.213Z" transform="translate(72.911 10.741)" fill="#fff"/>
      <path id="Path_14650" data-name="Path 14650" d="M208.71,443.656l-17.066-17.118L509.925,107.317,641.356,239.149l-81.711,81.99,40.584,40.677,46.7-46.847,78.636,78.875L708.5,410.963l-61.569-61.788-46.7,46.877-74.686-74.913,81.711-81.99-97.33-97.627Z" transform="translate(67.721 21.758)" fill="#fff"/>
      <path id="Path_14651" data-name="Path 14651" d="M300.863,233.459,198.588,130.9l17.066-17.119,85.209,85.468L452.133,47.521,469.2,64.639Z" transform="translate(69.129 9.635)" fill="#fff"/>
      <path id="Path_14652" data-name="Path 14652" d="M184.861,454.93,167.8,437.813,295.669,309.549,197.585,211.2l34.1-34.2-61.027-61.214L-6.934,293.883-24,276.8,170.659,81.543l95.129,95.449-34.1,34.2,98.084,98.352Z" transform="translate(24 16.533)" fill="#fff"/>
      <path id="Path_14653" data-name="Path 14653" d="M7.907,222.147-9.159,205.03,167.62,27.681l73.119,73.341L223.673,118.14,167.62,61.917Z" transform="translate(27.009 5.612)" fill="#fff"/>
      <path id="Path_14654" data-name="Path 14654" d="M135.058,438.872l-105.41-105.7,76.917-77.151,85.057,82.292,39.65-39.77L113.047,182.98l51.016-51.172,29.489,29.579L176.487,178.5l-12.423-12.46L147.39,182.768,265.585,298.3l-73.661,73.915-85.058-82.292L63.779,333.171l88.344,88.614Z" transform="translate(34.877 26.724)" fill="#fff"/>
      <path id="Path_14655" data-name="Path 14655" d="M96.893,285.114,79.836,302.222l62.7,62.9L159.6,348.008Z" transform="translate(45.053 57.806)" fill="#fff"/>
      <path id="Path_14656" data-name="Path 14656" d="M-5.806,338.391l-17.066-17.119L114.982,183.03l104.686,105L202.6,305.123l-87.621-87.888Z" transform="translate(24.229 37.109)" fill="#fff"/>
      <path id="Path_14657" data-name="Path 14657" d="M87.888,402.59,29.575,344.1,3.916,369.837-13.12,352.718l42.695-42.855,75.379,75.609Z" transform="translate(26.206 62.824)" fill="#fff"/>
      <path id="Path_14658" data-name="Path 14658" d="M657.032,451.255l-47.067-47.21-43.6,43.732-191.191-191.8,96.636-96.931,72.033,72.282L475.79,299.583l-17.066-17.119,51.017-51.142L471.81,193.276l-62.534,62.7,157.09,157.57,43.6-43.733L674.1,434.137Z" transform="translate(104.932 32.245)" fill="#fff"/>
      <path id="Path_14659" data-name="Path 14659" d="M646.275,321.9l-58.8-58.976-51.468,51.627-17.066-17.119,68.534-68.743,75.862,76.123Z" transform="translate(134.081 46.367)" fill="#fff"/>
      <path id="Path_14660" data-name="Path 14660" d="M428.44,421.127,411.375,404.01l46.343-46.454-69.65-69.863L259.048,417.135l-17.066-17.118L388.068,253.487,491.819,357.556Z" transform="translate(77.927 51.394)" fill="#fff"/>
      <path id="Path_14661" data-name="Path 14661" d="M462.065,346.059l-17.056,17.108,34.476,34.581,17.056-17.109Z" transform="translate(119.091 70.163)" fill="#fff"/>
      <path id="Path_14662" data-name="Path 14662" d="M362.361,407.007l-17.036-17.087L389.408,345.7,378.4,334.664l-68.415,68.653L292.922,386.2l85.481-85.74L423.509,345.7Z" transform="translate(88.255 60.917)" fill="#fff"/>
      <path id="Path_14663" data-name="Path 14663" d="M502.291,47.066,485.235,64.174,635.8,215.2l17.057-17.108Z" transform="translate(127.246 9.542)" fill="#fff"/>
      <path id="Path_14664" data-name="Path 14664" d="M487.367,59.187l-24.785-24.86-23.94,24.013L421.577,41.253,462.582.122,504.433,42.07Z" transform="translate(114.34 0.025)" fill="#fff"/>
      <path id="Path_14665" data-name="Path 14665" d="M98.181,35.017-10.639,144.169,6.417,161.277,115.237,52.125Z" transform="translate(26.709 7.1)" fill="#fff"/>
      <path id="Path_14666" data-name="Path 14666" d="M531,21.118,513.94,38.226,631.693,156.338,648.75,139.23Z" transform="translate(133.066 4.282)" fill="#fff"/>
      <path id="Path_14667" data-name="Path 14667" d="M203.17,36.843,186.114,53.951,304.7,172.9l17.056-17.108Z" transform="translate(66.6 7.47)" fill="#fff"/>
      <path id="Path_14668" data-name="Path 14668" d="M324.036,138.7l-93.711-94L247.391,27.58l76.645,76.91,85.149-85.408L426.22,36.2Z" transform="translate(75.564 3.869)" fill="#fff"/>
      <path id="Path_14669" data-name="Path 14669" d="M164.761,0,147.705,17.108l25.329,25.406L190.09,25.406Z" transform="translate(58.813 0)" fill="#fff"/>
      <path id="Path_14670" data-name="Path 14670" d="M324.779,21.151l-31.235,31.33L310.6,69.589l31.234-31.33Z" transform="translate(88.382 4.288)" fill="#fff"/>
      <path id="Path_14671" data-name="Path 14671" d="M588.944,29.113,571.887,46.222l38.421,38.537L627.364,67.65Z" transform="translate(144.815 5.903)" fill="#fff"/>
      <path id="Path_14672" data-name="Path 14672" d="M49.452,21.119-9.276,80.047,7.783,97.152,66.511,38.225Z" transform="translate(26.985 4.282)" fill="#fff"/>
      <path id="Path_14673" data-name="Path 14673" d="M116.224,2.549,93.944,24.9,111,42.005l22.28-22.348Z" transform="translate(47.913 0.517)" fill="#fff"/>
      <path id="Path_14674" data-name="Path 14674" d="M460.766,204.229l-40.339,40.46L437.483,261.8l40.339-40.462Z" transform="translate(114.107 41.407)" fill="#fff"/>
    </g>
    <g id="Group_9574" data-name="Group 9574" transform="translate(728.865 368.002)" opacity="0.5">
      <path id="Path_14649-2" data-name="Path 14649" d="M295.422,296.136l-78.183-78.391L234.3,200.626l61.118,61.3L503.711,52.977,704.188,254.067l-17.066,17.119L503.711,87.213Z" transform="translate(72.911 10.741)" fill="#fff"/>
      <path id="Path_14650-2" data-name="Path 14650" d="M208.71,443.656l-17.066-17.118L509.925,107.317,641.356,239.149l-81.711,81.99,40.584,40.677,46.7-46.847,78.636,78.875L708.5,410.963l-61.569-61.788-46.7,46.877-74.686-74.913,81.711-81.99-97.33-97.627Z" transform="translate(67.721 21.758)" fill="#fff"/>
      <path id="Path_14651-2" data-name="Path 14651" d="M300.863,233.459,198.588,130.9l17.066-17.119,85.209,85.468L452.133,47.521,469.2,64.639Z" transform="translate(69.129 9.635)" fill="#fff"/>
      <path id="Path_14652-2" data-name="Path 14652" d="M184.861,454.93,167.8,437.813,295.669,309.549,197.585,211.2l34.1-34.2-61.027-61.214L-6.934,293.883-24,276.8,170.659,81.543l95.129,95.449-34.1,34.2,98.084,98.352Z" transform="translate(24 16.533)" fill="#fff"/>
      <path id="Path_14653-2" data-name="Path 14653" d="M7.907,222.147-9.159,205.03,167.62,27.681l73.119,73.341L223.673,118.14,167.62,61.917Z" transform="translate(27.009 5.612)" fill="#fff"/>
      <path id="Path_14654-2" data-name="Path 14654" d="M135.058,438.872l-105.41-105.7,76.917-77.151,85.057,82.292,39.65-39.77L113.047,182.98l51.016-51.172,29.489,29.579L176.487,178.5l-12.423-12.46L147.39,182.768,265.585,298.3l-73.661,73.915-85.058-82.292L63.779,333.171l88.344,88.614Z" transform="translate(34.877 26.724)" fill="#fff"/>
      <path id="Path_14655-2" data-name="Path 14655" d="M96.893,285.114,79.836,302.222l62.7,62.9L159.6,348.008Z" transform="translate(45.053 57.806)" fill="#fff"/>
      <path id="Path_14656-2" data-name="Path 14656" d="M-5.806,338.391l-17.066-17.119L114.982,183.03l104.686,105L202.6,305.123l-87.621-87.888Z" transform="translate(24.229 37.109)" fill="#fff"/>
      <path id="Path_14657-2" data-name="Path 14657" d="M87.888,402.59,29.575,344.1,3.916,369.837-13.12,352.718l42.695-42.855,75.379,75.609Z" transform="translate(26.206 62.824)" fill="#fff"/>
      <path id="Path_14658-2" data-name="Path 14658" d="M657.032,451.255l-47.067-47.21-43.6,43.732-191.191-191.8,96.636-96.931,72.033,72.282L475.79,299.583l-17.066-17.119,51.017-51.142L471.81,193.276l-62.534,62.7,157.09,157.57,43.6-43.733L674.1,434.137Z" transform="translate(104.932 32.245)" fill="#fff"/>
      <path id="Path_14659-2" data-name="Path 14659" d="M646.275,321.9l-58.8-58.976-51.468,51.627-17.066-17.119,68.534-68.743,75.862,76.123Z" transform="translate(134.081 46.367)" fill="#fff"/>
      <path id="Path_14660-2" data-name="Path 14660" d="M428.44,421.127,411.375,404.01l46.343-46.454-69.65-69.863L259.048,417.135l-17.066-17.118L388.068,253.487,491.819,357.556Z" transform="translate(77.927 51.394)" fill="#fff"/>
      <path id="Path_14661-2" data-name="Path 14661" d="M462.065,346.059l-17.056,17.108,34.476,34.581,17.056-17.109Z" transform="translate(119.091 70.163)" fill="#fff"/>
      <path id="Path_14662-2" data-name="Path 14662" d="M362.361,407.007l-17.036-17.087L389.408,345.7,378.4,334.664l-68.415,68.653L292.922,386.2l85.481-85.74L423.509,345.7Z" transform="translate(88.255 60.917)" fill="#fff"/>
      <path id="Path_14663-2" data-name="Path 14663" d="M502.291,47.066,485.235,64.174,635.8,215.2l17.057-17.108Z" transform="translate(127.246 9.542)" fill="#fff"/>
      <path id="Path_14664-2" data-name="Path 14664" d="M487.367,59.187l-24.785-24.86-23.94,24.013L421.577,41.253,462.582.122,504.433,42.07Z" transform="translate(114.34 0.025)" fill="#fff"/>
      <path id="Path_14665-2" data-name="Path 14665" d="M98.181,35.017-10.639,144.169,6.417,161.277,115.237,52.125Z" transform="translate(26.709 7.1)" fill="#fff"/>
      <path id="Path_14666-2" data-name="Path 14666" d="M531,21.118,513.94,38.226,631.693,156.338,648.75,139.23Z" transform="translate(133.066 4.282)" fill="#fff"/>
      <path id="Path_14667-2" data-name="Path 14667" d="M203.17,36.843,186.114,53.951,304.7,172.9l17.056-17.108Z" transform="translate(66.6 7.47)" fill="#fff"/>
      <path id="Path_14668-2" data-name="Path 14668" d="M324.036,138.7l-93.711-94L247.391,27.58l76.645,76.91,85.149-85.408L426.22,36.2Z" transform="translate(75.564 3.869)" fill="#fff"/>
      <path id="Path_14669-2" data-name="Path 14669" d="M164.761,0,147.705,17.108l25.329,25.406L190.09,25.406Z" transform="translate(58.813 0)" fill="#fff"/>
      <path id="Path_14670-2" data-name="Path 14670" d="M324.779,21.151l-31.235,31.33L310.6,69.589l31.234-31.33Z" transform="translate(88.382 4.288)" fill="#fff"/>
      <path id="Path_14671-2" data-name="Path 14671" d="M588.944,29.113,571.887,46.222l38.421,38.537L627.364,67.65Z" transform="translate(144.815 5.903)" fill="#fff"/>
      <path id="Path_14672-2" data-name="Path 14672" d="M49.452,21.119-9.276,80.047,7.783,97.152,66.511,38.225Z" transform="translate(26.985 4.282)" fill="#fff"/>
      <path id="Path_14673-2" data-name="Path 14673" d="M116.224,2.549,93.944,24.9,111,42.005l22.28-22.348Z" transform="translate(47.913 0.517)" fill="#fff"/>
      <path id="Path_14674-2" data-name="Path 14674" d="M460.766,204.229l-40.339,40.46L437.483,261.8l40.339-40.462Z" transform="translate(114.107 41.407)" fill="#fff"/>
    </g>
  </g>
</svg>
