<svg xmlns="http://www.w3.org/2000/svg" width="39.2" height="49" viewBox="0 0 39.2 49">
  <path id="data-storage" d="M12.575,39.975A1.225,1.225,0,1,0,13.8,41.2,1.225,1.225,0,0,0,12.575,39.975Zm0-14.7A1.225,1.225,0,1,0,13.8,26.5,1.225,1.225,0,0,0,12.575,25.275ZM43.1,10.8C42.127,5.789,33.913,2,23.6,2S5.073,5.789,4.1,10.8a1.22,1.22,0,0,0-.1.48V41.841C4,46.978,12.608,51,23.6,51s19.6-4.022,19.6-9.159V11.276A1.22,1.22,0,0,0,43.1,10.8ZM40.75,41.841c0,3.173-7.044,6.709-17.15,6.709S6.45,45.014,6.45,41.841V31.633c3.313,2.8,9.677,4.667,17.15,4.667s13.837-1.862,17.15-4.667Zm0-15.865v1.165c0,3.173-7.044,6.709-17.15,6.709S6.45,30.314,6.45,27.141V16.606c3.313,3,9.677,4.994,17.15,4.994s13.837-1.993,17.15-4.994ZM23.6,19.15c-10.106,0-17.15-3.874-17.15-7.35S13.494,4.45,23.6,4.45,40.75,8.323,40.75,11.8,33.706,19.15,23.6,19.15Z" transform="translate(-4 -2)" fill="#ed2f59"/>
</svg>
