<svg xmlns="http://www.w3.org/2000/svg" width="54" height="54" viewBox="0 0 54 54">
  <g id="vuesax_linear_sms-edit" data-name="vuesax/linear/sms-edit" transform="translate(-748 -250)">
    <g id="sms-edit" transform="translate(748 250)">
      <path id="Vector" d="M22.5,38.25H11.25C4.5,38.25,0,34.875,0,27V11.25C0,3.375,4.5,0,11.25,0h22.5C40.5,0,45,3.375,45,11.25V18" transform="translate(4.5 7.875)" fill="none" stroke="#c32bd6" stroke-linecap="round" stroke-linejoin="round" stroke-width="2.5"/>
      <path id="Vector-2" data-name="Vector" d="M22.5,0,15.457,5.625a7.123,7.123,0,0,1-8.438,0L0,0" transform="translate(15.75 20.25)" fill="none" stroke="#c32bd6" stroke-linecap="round" stroke-linejoin="round" stroke-width="2.5"/>
      <g id="Group" transform="translate(34.135 31.943)">
        <path id="Vector-3" data-name="Vector" d="M9.088,1.289,1.123,9.254a2.773,2.773,0,0,0-.675,1.327L.021,13.619a1.428,1.428,0,0,0,1.71,1.71L4.768,14.9A2.676,2.676,0,0,0,6.1,14.227l7.965-7.965c1.373-1.373,2.025-2.97,0-5C12.058-.736,10.461-.083,9.088,1.289Z" transform="translate(0 0)" fill="none" stroke="#c32bd6" stroke-linecap="round" stroke-linejoin="round" stroke-width="2.5"/>
        <path id="Vector-4" data-name="Vector" d="M0,0A7.167,7.167,0,0,0,5,5" transform="translate(7.941 2.437)" fill="none" stroke="#c32bd6" stroke-linecap="round" stroke-linejoin="round" stroke-width="2.5"/>
      </g>
      <path id="Vector-5" data-name="Vector" d="M0,0H54V54H0Z" fill="none" opacity="0"/>
    </g>
  </g>
</svg>
