<svg xmlns="http://www.w3.org/2000/svg" width="83" height="83" viewBox="0 0 83 83">
  <g id="Group_10450" data-name="Group 10450" transform="translate(-148 -2283)">
    <g id="Ellipse_62" data-name="Ellipse 62" transform="translate(148 2283)" fill="none" stroke="#707070" stroke-width="1">
      <circle cx="41.5" cy="41.5" r="41.5" stroke="none"/>
      <circle cx="41.5" cy="41.5" r="41" fill="none"/>
    </g>
    <g id="vuesax_outline_health" data-name="vuesax/outline/health" transform="translate(-319 2056)">
      <g id="health" transform="translate(492 252)">
        <path id="Vector" d="M18.906,29.563h-8.25C3.19,29.563,0,26.373,0,18.906v-8.25C0,3.19,3.19,0,10.656,0h8.25c7.466,0,10.656,3.19,10.656,10.656v8.25C29.563,26.373,26.386,29.563,18.906,29.563Zm-8.25-27.5c-6.339,0-8.594,2.255-8.594,8.594v8.25c0,6.339,2.255,8.594,8.594,8.594h8.25c6.339,0,8.594-2.255,8.594-8.594v-8.25c0-6.339-2.255-8.594-8.594-8.594Z" transform="translate(1.678 1.719)" fill="#11a377"/>
        <path id="Vector-2" data-name="Vector" d="M14.039,11.3c-.33,0-1.127-.124-1.595-1.32l-1.568-3.96A1.966,1.966,0,0,0,9.281,4.938l-8.25.027a1.031,1.031,0,0,1,0-2.062l8.25-.027H9.3a4.021,4.021,0,0,1,3.52,2.392L14.066,8.43,16.9,1.253A1.751,1.751,0,0,1,18.4,0,1.725,1.725,0,0,1,20.02,1.074l1.43,2.709a2.031,2.031,0,0,0,1.526.921h5.582a1.031,1.031,0,0,1,0,2.063H22.976a4.015,4.015,0,0,1-3.341-2.021L18.563,2.71,15.675,9.984A1.837,1.837,0,0,1,14.039,11.3Z" transform="translate(1.705 13.529)" fill="#11a377"/>
        <path id="Vector-3" data-name="Vector" d="M0,0H33V33H0Z" fill="none" opacity="0"/>
      </g>
    </g>
  </g>
</svg>
