<svg xmlns="http://www.w3.org/2000/svg" width="45.503" height="50.081" viewBox="0 0 45.503 50.081">
  <g id="clipboard" transform="translate(-35.295 -20.1)">
    <path id="Path_16191" data-name="Path 16191" d="M68.844,28.788c-.924,3.082-2.273,4.239-5.441,4.323-3.688.1-7.38.041-11.07.01a5.248,5.248,0,0,1-2.986-.874,4.752,4.752,0,0,1-1.909-3.106,3.082,3.082,0,0,0-.1-.3,7.4,7.4,0,0,0-7.367,5.392,19.162,19.162,0,0,0-.74,5.544c-.019,5.261-.029,10.52.017,15.781a27.047,27.047,0,0,0,.383,3.983,6.975,6.975,0,0,0,6.207,6.211,36.432,36.432,0,0,0,5.524.469c3.67.07,7.344.019,11.017.023a1.757,1.757,0,0,1,1.9,1.379A1.7,1.7,0,0,1,62.8,69.649c-.089.009-.179.013-.267.013-4.385-.01-8.771.011-13.156-.047a19.641,19.641,0,0,1-5.934-.994,10.1,10.1,0,0,1-7-7.744,25.293,25.293,0,0,1-.64-5.832c-.014-5.064-.023-10.129,0-15.192a22.513,22.513,0,0,1,1.024-7.005,10.089,10.089,0,0,1,7.581-6.967c.809-.206,1.639-.329,2.463-.467a.5.5,0,0,0,.494-.486c.5-2.8,2.145-4.249,5-4.289q5.669-.077,11.337,0c2.86.039,4.491,1.477,5,4.288.063.349.219.4.506.464a32.129,32.129,0,0,1,3.681.869c3.628,1.25,5.7,3.921,6.649,7.558a24.146,24.146,0,0,1,.73,5.981c.023,3.993.011,7.988.01,11.983a1.722,1.722,0,1,1-3.422-.017c0-3.941.007-7.881-.01-11.822a21.63,21.63,0,0,0-.623-5.3,7.15,7.15,0,0,0-6.108-5.658c-.433-.079-.869-.136-1.294-.2ZM58.07,24.05v.007c-1.94,0-3.882-.017-5.822.007a1.3,1.3,0,0,0-1.486,1.28,14.871,14.871,0,0,0-.1,2.127c0,1.8.447,2.245,2.245,2.25q4.994.015,9.988,0a7.654,7.654,0,0,0,1.327-.119,1.26,1.26,0,0,0,1.189-1.3,20.022,20.022,0,0,0-.01-2.668c-.094-1.167-.55-1.569-1.723-1.583C61.809,24.033,59.939,24.05,58.07,24.05Z" transform="translate(0 0)" fill="#11a377" stroke="#fff" stroke-width="1"/>
    <path id="Path_16192" data-name="Path 16192" d="M233.392,247.576c.224.237.35.377.484.51q5.045,5.049,10.094,10.093a1.787,1.787,0,0,1,.586,1.877,1.691,1.691,0,0,1-2.673.854,5.209,5.209,0,0,1-.466-.44q-4.989-4.991-9.979-9.983c-.133-.133-.274-.257-.49-.459,0,.9,0,1.695,0,2.489a1.721,1.721,0,1,1-3.422-.016q0-3.208,0-6.417a1.745,1.745,0,0,1,1.916-1.933q3.262-.011,6.522,0a1.757,1.757,0,0,1,1.809,1.43,1.7,1.7,0,0,1-1.093,1.872,2.488,2.488,0,0,1-.784.113c-.783.014-1.566.006-2.5.006Z" transform="translate(-164.337 -191.607)" fill="#11a377" stroke="#fff" stroke-width="1"/>
  </g>
</svg>
