<svg xmlns="http://www.w3.org/2000/svg" width="50" height="29.573" viewBox="0 0 50 29.573">
  <g id="fast-forward" transform="translate(-31.786 -123.389)">
    <path id="Path_14611" data-name="Path 14611" d="M326.591,137.58l-13.942-13.944a.844.844,0,0,0-1.192,0l-3.62,3.62a.844.844,0,0,0,0,1.192l9.729,9.729-9.729,9.727a.844.844,0,0,0,0,1.192l3.62,3.62a.844.844,0,0,0,1.192,0l13.942-13.942A.844.844,0,0,0,326.591,137.58Zm-14.539,13.348-2.43-2.43,9.729-9.727a.844.844,0,0,0,0-1.192l-9.729-9.729,2.43-2.43L324.8,138.176Z" transform="translate(-245.052 0)" fill="#0b2ff7"/>
    <path id="Path_14612" data-name="Path 14612" d="M188.7,137.58l-13.942-13.944a.844.844,0,0,0-1.192,0l-3.62,3.62a.843.843,0,0,0,0,1.192l9.729,9.729-9.729,9.727a.843.843,0,0,0,0,1.192l3.62,3.62a.844.844,0,0,0,1.192,0L188.7,138.772a.844.844,0,0,0,0-1.192Zm-14.539,13.348-2.43-2.43,9.729-9.727a.844.844,0,0,0,0-1.192l-9.729-9.729,2.43-2.43,12.752,12.754Z" transform="translate(-122.534 0)" fill="#0b2ff7"/>
    <path id="Path_14613" data-name="Path 14613" d="M50.787,137.58,36.844,123.636a.844.844,0,0,0-1.192,0l-3.62,3.62a.844.844,0,0,0,0,1.192l9.729,9.729L32.032,147.9a.844.844,0,0,0,0,1.192l3.62,3.62a.844.844,0,0,0,1.192,0l13.942-13.942A.844.844,0,0,0,50.787,137.58ZM36.248,150.928l-2.43-2.43,9.729-9.727a.844.844,0,0,0,0-1.192l-9.729-9.729,2.43-2.43L49,138.176Z" transform="translate(0 0)" fill="#0b2ff7"/>
  </g>
</svg>
