<svg id="Group_17731" data-name="Group 17731" xmlns="http://www.w3.org/2000/svg" width="40" height="40" viewBox="0 0 40 40">
  <g id="Rectangle_9033" data-name="Rectangle 9033" fill="none" stroke="#d1d1d1" stroke-width="1">
    <rect width="40" height="40" rx="20" stroke="none"/>
    <rect x="0.5" y="0.5" width="39" height="39" rx="19.5" fill="none"/>
  </g>
  <g id="vuesax_bold_facebook" data-name="vuesax/bold/facebook" transform="translate(10 10)">
    <g id="facebook">
      <path id="BG_111" data-name="BG 111" d="M0,0H20V20H0Z" fill="none" opacity="0.58"/>
      <path id="Vector" d="M16,11.352A4.269,4.269,0,0,1,11.352,16H10.4a.8.8,0,0,1-.8-.8V10.584a.4.4,0,0,1,.392-.4L11.4,10.16a.255.255,0,0,0,.232-.2l.28-1.528a.242.242,0,0,0-.24-.28l-1.7.024a.407.407,0,0,1-.408-.392l-.032-1.96a.241.241,0,0,1,.24-.24l1.92-.032a.236.236,0,0,0,.24-.24L11.9,3.392a.236.236,0,0,0-.24-.24L9.5,3.184a2.4,2.4,0,0,0-2.36,2.44l.04,2.2a.4.4,0,0,1-.392.408l-.96.016a.236.236,0,0,0-.24.24l.024,1.52a.236.236,0,0,0,.24.24l.96-.016a.407.407,0,0,1,.408.392l.072,4.56a.8.8,0,0,1-.8.816H4.648A4.272,4.272,0,0,1,0,11.344v-6.7A4.269,4.269,0,0,1,4.648,0h6.7A4.269,4.269,0,0,1,16,4.648v6.7Z" transform="translate(2 2)" fill="#878788"/>
      <path id="Vector-2" data-name="Vector" d="M0,0H20V20H0Z" fill="none" opacity="0"/>
    </g>
  </g>
</svg>
