<svg xmlns="http://www.w3.org/2000/svg" width="83" height="83" viewBox="0 0 83 83">
  <g id="Group_10454" data-name="Group 10454" transform="translate(-142 -1621)">
    <circle id="Ellipse_61" data-name="Ellipse 61" cx="41.5" cy="41.5" r="41.5" transform="translate(142 1621)" fill="#ebf8f4"/>
    <g id="vuesax_outline_graph" data-name="vuesax/outline/graph" transform="translate(-133.535 1457.466)">
      <g id="graph" transform="translate(300 188)">
        <path id="Vector" d="M10.036,15.454H5.323c-3.535,0-5.323-2-5.323-5.962V5.418C0,3.971.17,1.9,1.675.762,2.938-.174,4.755-.245,7.438.535a11.222,11.222,0,0,1,7.481,7.481c.781,2.669.71,4.5-.227,5.749C13.556,15.284,11.484,15.454,10.036,15.454ZM4.3,2.125a2.2,2.2,0,0,0-1.334.341c-.554.412-.823,1.377-.823,2.953V9.506c0,3.18,1.221,3.833,3.194,3.833H10.05c1.561,0,2.527-.27,2.953-.823.5-.653.454-1.959-.1-3.875A9.189,9.189,0,0,0,6.87,2.608,9.013,9.013,0,0,0,4.3,2.125Z" transform="translate(15.969 2.644)" fill="#11a377"/>
        <path id="Vector-2" data-name="Vector" d="M13.94,27.672A13.967,13.967,0,0,1,11.158.021a1.079,1.079,0,0,1,1.263.823A1.079,1.079,0,0,1,11.6,2.107a11.844,11.844,0,1,0,14,13.939,1.063,1.063,0,1,1,2.087.412A13.984,13.984,0,0,1,13.94,27.672Z" transform="translate(1.774 4.621)" fill="#292d32"/>
        <path id="Vector-3" data-name="Vector" d="M0,0H34.068V34.068H0Z" fill="none" opacity="0"/>
      </g>
    </g>
  </g>
</svg>
