<svg id="flutterwave-logo-vector" xmlns="http://www.w3.org/2000/svg" width="216.737" height="42.786" viewBox="0 0 216.737 42.786">
  <path id="Path_9997" data-name="Path 9997" d="M33.029,244.4H33.1a.684.684,0,0,1,.686.759v19.473a.686.686,0,1,1-1.373,0V245.086A.65.65,0,0,1,33.029,244.4Zm-18.534,1.012H27.248a.747.747,0,0,1,.686.759.685.685,0,0,1-.686.686H15.181v8.129H26.092a.686.686,0,0,1,0,1.373H15.29v8.382a.883.883,0,0,1-.831.759.741.741,0,0,1-.759-.759V246.206h.072A.723.723,0,0,1,14.495,245.412Zm37.032,6.034a.686.686,0,0,0-1.373,0v8.129a4.877,4.877,0,0,1-5.058,4.877c-2.963,0-4.661-1.915-4.661-4.95v-8.057a.664.664,0,0,0-.686-.686.738.738,0,0,0-.686.686v8.31c0,3.432,2.2,5.961,5.817,5.961a5.752,5.752,0,0,0,5.311-3.035v2.1a.686.686,0,1,0,1.373,0h-.072V251.445Zm12.826.108a.647.647,0,0,1-.686.578H59.006v9.321c0,2.1,1.192,2.854,2.963,2.854a5.222,5.222,0,0,0,1.7-.253.571.571,0,0,1,.578.578.618.618,0,0,1-.434.578,6.175,6.175,0,0,1-2.1.325,3.722,3.722,0,0,1-4.046-3.938v-9.466h-1.59a.738.738,0,0,1-.686-.686.647.647,0,0,1,.686-.578h1.59v-4.01a.671.671,0,0,1,.578-.686h.072a.738.738,0,0,1,.686.686v4.01h4.661A.711.711,0,0,1,64.353,251.554Zm10.839.578a.671.671,0,0,0,.686-.578.738.738,0,0,0-.686-.686H70.531v-4.01a.738.738,0,0,0-.686-.686h-.072a.647.647,0,0,0-.578.686v4.01H67.6a.671.671,0,0,0-.686.578.738.738,0,0,0,.686.686h1.59V261.6a3.722,3.722,0,0,0,4.046,3.938,5.916,5.916,0,0,0,2.1-.325.618.618,0,0,0,.434-.578.571.571,0,0,0-.578-.578,5.077,5.077,0,0,1-1.7.253c-1.77,0-2.963-.759-2.963-2.854v-9.321h4.661Zm3.215,5.961c0-4.263,2.963-7.623,6.937-7.623,4.155,0,6.756,3.36,6.756,7.623a.738.738,0,0,1-.686.686H79.924a5.782,5.782,0,0,0,5.744,5.708,6.614,6.614,0,0,0,4.733-2.023.69.69,0,0,1,.434-.181.738.738,0,0,1,.686.686.683.683,0,0,1-.253.506,7.324,7.324,0,0,1-5.672,2.348c-3.9,0-7.19-3.035-7.19-7.623Zm19.184-3.035a6.851,6.851,0,0,1,5.817-4.372.761.761,0,0,1,.759.831.747.747,0,0,1-.686.759h-.072c-3.143.325-5.817,2.6-5.817,7.3v5.383a.724.724,0,0,1-.759.686.738.738,0,0,1-.686-.686v-13.44a.724.724,0,0,1,.759-.686.738.738,0,0,1,.686.686Zm28.867-5.13a2.161,2.161,0,0,0-2.1,1.662l-2.457,7.8-2.457-7.8a2.363,2.363,0,0,0-2.276-1.77h-.253a2.285,2.285,0,0,0-2.276,1.77l-2.457,7.732-2.348-7.8a2.2,2.2,0,0,0-2.1-1.662h-.072a2.005,2.005,0,0,0-1.951,2.023,3.318,3.318,0,0,0,.181,1.012h0l3.794,10.839a2.513,2.513,0,0,0,2.348,1.915h.181a2.5,2.5,0,0,0,2.348-1.843l2.457-7.732,2.457,7.732a2.431,2.431,0,0,0,2.348,1.843h.181a2.451,2.451,0,0,0,2.457-1.915l3.794-10.911a3.427,3.427,0,0,0,.181-.831v-.072A1.981,1.981,0,0,0,126.458,249.928Zm5.925.759a14.127,14.127,0,0,1,4.914-.759,7.817,7.817,0,0,1,5.311,1.77,6.9,6.9,0,0,1,1.7,4.877v6.865a2.074,2.074,0,0,1-2.1,2.1,2.029,2.029,0,0,1-2.1-1.843,5.96,5.96,0,0,1-4.661,1.915c-2.782,0-5.239-1.662-5.239-4.7,0-3.36,2.529-4.95,6.178-4.95a11.782,11.782,0,0,1,3.721.578v-.253c0-1.843-1.084-2.782-3.288-2.782a8.825,8.825,0,0,0-3.035.434,1.913,1.913,0,0,1-2.421-1.59A1.581,1.581,0,0,1,132.383,250.686Zm24.929.686a2.1,2.1,0,0,1,4.119.506v.072a2.1,2.1,0,0,1-.253,1.012L156.626,263.8a2.943,2.943,0,0,1-2.529,1.843h-.253a2.716,2.716,0,0,1-2.457-1.915l-4.733-10.839a2.049,2.049,0,0,1,1.843-3.035,2.178,2.178,0,0,1,2.1,1.59l3.288,8.815Zm5.853,7.045a7.591,7.591,0,0,0,8.021,7.226A8.131,8.131,0,0,0,176.5,263.8a1.461,1.461,0,0,0,.578-1.265v-.072a1.666,1.666,0,0,0-1.7-1.662,1.481,1.481,0,0,0-1.012.325,4.819,4.819,0,0,1-3.143,1.012A3.555,3.555,0,0,1,167.5,259.1h8.707a1.953,1.953,0,0,0,1.843-2.1v-.325a7.042,7.042,0,0,0-7.334-6.864,7.663,7.663,0,0,0-7.623,7.984v.614Z" transform="translate(38.678 -234.418)" fill="#707070"/>
  <path id="Path_9998" data-name="Path 9998" d="M196.7,270.436c.253-3.179,2.529-5.636,5.419-5.636,3.288,0,5.058,2.674,5.239,5.636Zm60.335,2.529c0,1.662-1.445,2.674-3.468,2.6-1.337,0-2.348-.686-2.348-1.843v-.072c0-1.265,1.192-2.1,3.035-2.1a7.969,7.969,0,0,1,2.782.578Zm30.6-6.648c-1.77,0-2.963,1.265-3.288,3.288h6.5C290.6,267.654,289.406,266.317,287.636,266.317Z" transform="translate(-78.206 -247.448)" fill="#fff"/>
  <path id="Path_9999" data-name="Path 9999" d="M-100.72,217.108c19-2.854,6.828,13.332.939,17.884,4.046,3.107,8.2,7.479,9.972,12.428,3.288,9.068-4.805,10.405-10.911,8.129a33.953,33.953,0,0,1-16.475-13.259,12.481,12.481,0,0,1-3.4-.506c2.2,6.214,3.143,12.573,2.529,17.775,0-10.477-4.986-20.882-12.175-29.553-2.529-3.035.072-5.275,2.348-2.348a63.933,63.933,0,0,1,4.227,6.612C-121.168,225.742-109.029,218.3-100.72,217.108Zm-2.71,15.427c3.721-2.276,15.03-14.415,4.48-13.332-6.07.686-13.44,6.286-16.475,9.9C-111.2,228.6-106.9,230.439-103.429,232.535Zm-10.477,9.43c3.4,3.794,8.021,7.479,13.006,8.815,2.89.759,6.07.434,4.914-3.685-1.192-3.794-4.227-7.117-7.19-9.646a15.656,15.656,0,0,1-2.71,1.59A26.157,26.157,0,0,1-113.907,241.964Z" transform="translate(131.276 -216.772)" fill="#707070"/>
  <path id="Path_10000" data-name="Path 10000" d="M-91.965,258.251c2.89-.253,6,1.265,8.382,2.782a19.875,19.875,0,0,1-7.443,1.915C-94.891,262.984-95.686,258.612-91.965,258.251Z" transform="translate(107.708 -243.247)" fill="#fff"/>
</svg>
