<svg xmlns="http://www.w3.org/2000/svg" width="207.648" height="32.782" viewBox="0 0 207.648 32.782">
  <g id="Flutterwave_Logo" data-name="Flutterwave Logo" transform="translate(0 -40.172)">
    <rect id="Rectangle_8818" data-name="Rectangle 8818" width="3.649" height="18.776" transform="translate(63.55 47.833)" fill="#2a3362"/>
    <path id="Path_15983" data-name="Path 15983" d="M368.86,113.18c0,2.591-1.667,3.756-3.887,3.756s-3.7-1.164-3.7-3.624V106.62H357.62v7.539c0,3.753,2.354,5.948,6.268,5.948a5.919,5.919,0,0,0,4.757-1.93h.213l.317,1.667h3.357V106.62H368.86Z" transform="translate(-287.537 -53.233)" fill="#2a3362"/>
    <path id="Path_15984" data-name="Path 15984" d="M537.757,116.321c-2.671,0-4.177-1.216-4.415-2.988h11.582a7.646,7.646,0,0,0,.079-1.112c-.025-4.757-3.624-6.771-7.475-6.771-4.469,0-7.829,2.673-7.829,6.984,0,4.1,3.228,6.768,8.066,6.768,4.048,0,6.743-1.8,7.3-4.549h-3.606C541.01,115.739,539.714,116.321,537.757,116.321Zm-.227-7.987c2.329,0,3.676,1.031,3.889,2.492h-8c.342-1.4,1.692-2.492,4.1-2.492Z" transform="translate(-420.638 -52.328)" fill="#2a3362"/>
    <path id="Path_15985" data-name="Path 15985" d="M611.357,108.5h-.227l-.344-1.905H607.47v13.231h3.649v-5.686c0-2.566,1.479-3.994,4.231-3.994a7.362,7.362,0,0,1,1.491.131V106.6h-.51C613.9,106.6,612.388,107.1,611.357,108.5Z" transform="translate(-480.791 -53.21)" fill="#2a3362"/>
    <path id="Path_15986" data-name="Path 15986" d="M670.146,115.717h-.211l-3.122-8.277h-3.756l-3.067,8.252h-.238l-2.909-9.072H653.22l4.469,13.224h3.969l3.174-8.438h.211l3.121,8.438h3.994l4.469-13.224H673Z" transform="translate(-516.178 -53.233)" fill="#2a3362"/>
    <path id="Path_15987" data-name="Path 15987" d="M771.631,115.1V110.67c0-3.6-3.042-5.21-6.825-5.21-4.019,0-6.531,1.905-6.875,4.757h3.649c.265-1.244,1.323-1.93,3.226-1.93s3.171.714,3.171,2.168v.338l-5.951.453c-2.75.213-4.757,1.429-4.757,4.021,0,2.671,2.3,3.939,5.686,3.939,2.732,0,4.4-.761,5.416-1.91h.181a2.939,2.939,0,0,0,3,1.647h1.534v-2.693h-.344C771.973,116.249,771.631,115.88,771.631,115.1Zm-3.651-1.4c0,2.091-2.492,2.777-4.628,2.777-1.454,0-2.406-.369-2.406-1.375,0-.906.82-1.348,2.039-1.454l5-.369Z" transform="translate(-596.659 -52.336)" fill="#2a3362"/>
    <path id="Path_15988" data-name="Path 15988" d="M836.7,106.62l-4.259,9.575H832.2l-4.311-9.575H823.95l6.161,13.224h4.365l6.134-13.224Z" transform="translate(-648.234 -53.233)" fill="#2a3362"/>
    <path id="Path_15989" data-name="Path 15989" d="M908.849,114.653c-.453,1.085-1.747,1.667-3.7,1.667-2.671,0-4.177-1.216-4.415-2.988h11.582a7.655,7.655,0,0,0,.079-1.112c-.025-4.757-3.624-6.771-7.475-6.771-4.469,0-7.826,2.673-7.826,6.984,0,4.1,3.226,6.768,8.064,6.768,4.048,0,6.744-1.8,7.3-4.549Zm-3.941-6.32c2.329,0,3.676,1.031,3.889,2.492h-8c.347-1.4,1.692-2.492,4.1-2.492Z" transform="translate(-704.807 -52.328)" fill="#2a3362"/>
    <path id="Path_15990" data-name="Path 15990" d="M279.3,86.7c0-1.164.82-1.665,1.878-1.665a5.475,5.475,0,0,1,1.454.211l.609-2.646a8.315,8.315,0,0,0-2.75-.476c-2.7,0-4.866,1.429-4.866,4.39v1.16H272.48v2.9h3.149v10.327H279.3V90.565h4.114V87.67H279.3Z" transform="translate(-221.683 -34.283)" fill="#2a3362"/>
    <path id="Path_15991" data-name="Path 15991" d="M436.94,90.16h-3.4l-.19,3.729H430.48v2.9h2.8V103.3c0,2.22,1.133,4.077,4.53,4.077a11.969,11.969,0,0,0,2.619-.29v-2.784a7.768,7.768,0,0,1-1.509.186c-1.823,0-1.982-1.031-1.982-1.826V96.779h3.624v-2.89H436.94Z" transform="translate(-343.893 -40.501)" fill="#2a3362"/>
    <path id="Path_15992" data-name="Path 15992" d="M487.546,90.16h-3.386l-.19,3.729H481.09v2.9h2.8V103.3c0,2.22,1.133,4.077,4.53,4.077a11.969,11.969,0,0,0,2.612-.3v-2.777a7.767,7.767,0,0,1-1.509.186c-1.823,0-1.982-1.031-1.982-1.826V96.779h3.636v-2.89h-3.636Z" transform="translate(-383.039 -40.501)" fill="#2a3362"/>
    <path id="Path_15993" data-name="Path 15993" d="M48.23,62.007a7.163,7.163,0,0,1,1.923-5.237l2.265,2.265C49.9,61.547,52.1,69.358,59.277,76.543s14.993,9.385,17.512,6.868l2.265,2.265c-4.249,4.249-13.929,1.235-22.031-6.87C51.4,73.184,48.23,66.8,48.23,62.007Z" transform="translate(-48.23 -14.675)" fill="#009a46"/>
    <path id="Path_15994" data-name="Path 15994" d="M93.4,87.722A7.172,7.172,0,0,1,88.16,85.8l2.265-2.265c2.517,2.517,10.327.315,17.512-6.868s9.382-14.993,6.866-17.51l2.265-2.265c4.252,4.25,1.235,13.929-6.87,22.031C104.576,84.55,98.2,87.722,93.4,87.722Z" transform="translate(-79.115 -14.768)" fill="#ff5805"/>
    <path id="Path_15995" data-name="Path 15995" d="M86.094,69.126a32.919,32.919,0,0,0-7.91-11.915c-8.1-8.1-17.782-11.122-22.031-6.87h0c-.3.3-.041,1.053.584,1.679s1.375.883,1.676.582c2.519-2.517,10.329-.315,17.512,6.87a29.719,29.719,0,0,1,7.151,10.7c1.069,3.078.965,5.561-.281,6.807h0c-.3.3-.041,1.053.582,1.676s1.375.886,1.679.582C87.233,77.064,87.6,73.467,86.094,69.126Z" transform="translate(-54.261 -8.214)" fill="#f5afcb"/>
    <path id="Path_15996" data-name="Path 15996" d="M110.5,50.235c-2.181-2.181-5.774-2.551-10.119-1.04A32.93,32.93,0,0,0,88.466,57.1c-8.1,8.1-11.12,17.782-6.87,22.034h0c.3.3,1.053.041,1.679-.582s.886-1.375.582-1.679c-2.523-2.517-.315-10.327,6.87-17.512a29.719,29.719,0,0,1,10.7-7.151c3.078-1.067,5.561-.965,6.809.281h0c.3.3,1.053.041,1.676-.584S110.8,50.536,110.5,50.235Z" transform="translate(-72.551 -8.108)" fill="#ff9b00"/>
  </g>
</svg>
