<svg xmlns="http://www.w3.org/2000/svg" width="19" height="19" viewBox="0 0 19 19">
  <g id="vuesax_linear_courthouse" data-name="vuesax/linear/courthouse" transform="translate(-172 -188)">
    <g id="courthouse" transform="translate(172 188)">
      <path id="Vector" d="M0,0H15.833" transform="translate(1.583 17.417)" fill="none" stroke="#161617" stroke-linecap="round" stroke-linejoin="round" stroke-width="1.5"/>
      <path id="Vector-2" data-name="Vector" d="M0,0A5.344,5.344,0,0,0,3.958,0V2.375A5.344,5.344,0,0,1,0,2.375Z" transform="translate(9.5 1.583)" fill="none" stroke="#161617" stroke-linecap="round" stroke-linejoin="round" stroke-width="1.5"/>
      <path id="Vector-3" data-name="Vector" d="M0,0V2.375" transform="translate(9.5 3.958)" fill="none" stroke="#161617" stroke-linecap="round" stroke-linejoin="round" stroke-width="1.5"/>
      <path id="Vector-4" data-name="Vector" d="M10.292,0H2.375A2.1,2.1,0,0,0,0,2.375v8.708H12.667V2.375A2.1,2.1,0,0,0,10.292,0Z" transform="translate(3.167 6.333)" fill="none" stroke="#161617" stroke-linecap="round" stroke-linejoin="round" stroke-width="1.5"/>
      <path id="Vector-5" data-name="Vector" d="M0,0H11.748" transform="translate(3.626 9.5)" fill="none" stroke="#161617" stroke-linecap="round" stroke-linejoin="round" stroke-width="1.5"/>
      <path id="Vector-6" data-name="Vector" d="M0,0V7.917" transform="translate(6.325 9.5)" fill="none" stroke="#161617" stroke-linejoin="round" stroke-width="1.5"/>
      <path id="Vector-7" data-name="Vector" d="M0,0V7.917" transform="translate(9.492 9.5)" fill="none" stroke="#161617" stroke-linejoin="round" stroke-width="1.5"/>
      <path id="Vector-8" data-name="Vector" d="M0,0V7.917" transform="translate(12.659 9.5)" fill="none" stroke="#161617" stroke-linejoin="round" stroke-width="1.5"/>
      <path id="Vector-9" data-name="Vector" d="M0,0H19V19H0Z" fill="none" opacity="0"/>
    </g>
  </g>
</svg>
