<svg xmlns="http://www.w3.org/2000/svg" width="41.962" height="41.962" viewBox="0 0 41.962 41.962">
  <path id="insights" d="M40.6,39.232H39.232V11.923a4.1,4.1,0,0,0-4.1-4.1H29.674a4.1,4.1,0,0,0-1.365.246V5.1a4.1,4.1,0,0,0-4.1-4.1H18.75a4.1,4.1,0,0,0-4.1,4.1v9.8a4.1,4.1,0,0,0-1.365-.246H7.827a4.1,4.1,0,0,0-4.1,4.1V39.232H2.365a1.365,1.365,0,1,0,0,2.731H40.6a1.365,1.365,0,1,0,0-2.731ZM6.462,18.75a1.365,1.365,0,0,1,1.365-1.365h5.462a1.365,1.365,0,0,1,1.365,1.365V39.232H6.462Zm10.923,0V5.1A1.365,1.365,0,0,1,18.75,3.731h5.462A1.365,1.365,0,0,1,25.577,5.1V39.232H17.385ZM28.308,39.232V11.923a1.365,1.365,0,0,1,1.365-1.365h5.462A1.365,1.365,0,0,1,36.5,11.923V39.232Z" transform="translate(-0.5 -0.5)" fill="#d52e2e" stroke="#fff" stroke-width="1"/>
</svg>
