<svg xmlns="http://www.w3.org/2000/svg" width="32.411" height="40.684" viewBox="0 0 32.411 40.684">
  <g id="inventory" transform="translate(-165.256 -76.43)">
    <path id="Path_14507" data-name="Path 14507" d="M280.023,382.382H277.1l.7.7v-2.923l-.7.7h2.923l-.7-.7v2.923a.7.7,0,1,0,1.4,0v-2.923a.712.712,0,0,0-.7-.7H277.1a.712.712,0,0,0-.7.7v2.923a.712.712,0,0,0,.7.7h2.923a.7.7,0,1,0,0-1.4Zm4.03-.056h13.639a.7.7,0,0,0,0-1.4H284.053a.7.7,0,1,0,0,1.4Zm-4.03,8.62H277.1l.7.7v-2.923l-.7.7h2.923l-.7-.7v2.923a.7.7,0,0,0,1.4,0v-2.923a.712.712,0,0,0-.7-.7H277.1a.712.712,0,0,0-.7.7v2.923a.712.712,0,0,0,.7.7h2.923a.7.7,0,1,0,0-1.4Zm4.03-.061h13.639a.7.7,0,0,0,0-1.4H284.053a.7.7,0,1,0,0,1.4Zm-4.03-17.062H277.1l.7.7V371.6l-.7.7h2.923l-.7-.7v2.923a.7.7,0,1,0,1.4,0V371.6a.712.712,0,0,0-.7-.7H277.1a.712.712,0,0,0-.7.7v2.923a.712.712,0,0,0,.7.7h2.923a.7.7,0,1,0,0-1.4Zm4.03-.061h13.639a.7.7,0,0,0,0-1.4H284.053a.7.7,0,1,0,0,1.4Z" transform="translate(-105.955 -280.72)" fill="#ff0089"/>
    <path id="Path_14508" data-name="Path 14508" d="M189.478,202.8h6.35c.028,0,.14.009,0-.009.023,0,.224.061.149.033-.093-.037.079.047.079.042.154.075-.047-.051.023.014a1.111,1.111,0,0,1,.1.107c-.089-.1-.009,0,.009.028s.056.154.019.023c.014.047.023.1.037.149.033.089,0-.14,0,.033v30.9c0,.089,0,.177,0,.271v.019c0,.028-.009.14.009,0,0,.023-.061.224-.033.149.037-.093-.047.079-.042.079-.075.154.051-.047-.014.023a1.118,1.118,0,0,1-.107.1c.1-.089,0-.009-.028.009s-.154.056-.023.019c-.047.014-.1.023-.149.037-.089.033.145,0-.033,0-.238-.014-.481,0-.714,0H169.558c-.831,0-1.662-.023-2.493,0-.131,0-.037,0,0,.009a1.1,1.1,0,0,1-.177-.047c.163.051-.177-.135-.051-.028-.028-.028-.056-.056-.084-.079-.117-.1.033.1-.033-.047a1.185,1.185,0,0,1-.056-.107c.065.14-.014-.084-.019-.121.019.112.009.014.009-.037V206.1c0-.953-.009-1.905,0-2.858v-.042c0-.131,0-.037-.009,0a1.1,1.1,0,0,1,.047-.177c-.051.163.135-.177.028-.051.028-.028.056-.056.079-.084.1-.117-.1.033.047-.033a1.18,1.18,0,0,1,.107-.056c-.14.065.084-.014.121-.019-.107.014-.019.009.033.009h6.322a.7.7,0,1,0,0-1.4H167.55a2.893,2.893,0,0,0-1.163.145,1.847,1.847,0,0,0-1.13,1.7c0,.289,0,.574,0,.864v30.3a1.842,1.842,0,0,0,1.508,1.8,5.892,5.892,0,0,0,.953.033h27.526a3.861,3.861,0,0,0,1.088-.07,1.852,1.852,0,0,0,1.326-1.774V205.937c0-.9.019-1.8,0-2.7a1.849,1.849,0,0,0-1.387-1.784,4.349,4.349,0,0,0-.985-.051h-5.8a.709.709,0,0,0-.7.7A.7.7,0,0,0,189.478,202.8Z" transform="translate(0 -119.128)" fill="#ff0089"/>
    <path id="Path_14509" data-name="Path 14509" d="M341.006,81.645c0,.817-.037,1.639,0,2.456,0,.042-.009.145.009.019,0,.047-.075.257-.019.131a.982.982,0,0,1-.075.135c-.051.093.112-.1-.019.028l-.089.089c-.1.1.061-.014-.056.037,0,0-.177.079-.084.042s-.1.023-.093.019c-.163.047.1.009-.07,0h-.028c-.154,0-.308,0-.462,0H328.114c-.42,0-.845-.009-1.27,0-.154,0,.056.033-.079,0-.042-.009-.079-.023-.121-.033.126.037,0,0-.033-.019s-.145-.093-.037-.009a1.667,1.667,0,0,1-.131-.126c-.093-.093-.019-.028,0,0a1.252,1.252,0,0,1-.075-.135c-.042-.089.019.14,0-.037,0-.042-.023-.084-.028-.126.019.14.009-.042.009-.075,0-.486,0-.976,0-1.462V81.64c0-.019.009-.145-.009-.009a1.3,1.3,0,0,1,.047-.182c-.042.154.089-.149.047-.089-.056.079.065-.07.065-.07.028-.028.061-.056.089-.084-.107.084,0,0,.037-.009s.159-.051.033-.019c.042-.009.079-.023.121-.033.168-.042-.107-.009.07,0,.089,0,.173,0,.261,0h3.311a.712.712,0,0,0,.7-.7,3.844,3.844,0,0,1,.019-.4c.009-.112-.019.107,0,0a.661.661,0,0,1,.019-.093c.019-.093.042-.182.065-.271.019-.07.042-.14.065-.205.014-.037.028-.075.042-.117-.051.121-.009.023,0,0a3.832,3.832,0,0,1,.243-.425c.023-.037.159-.205.07-.1.047-.056.089-.107.14-.159s.1-.1.149-.149c.028-.028.061-.056.089-.079s.14-.117.07-.061a1.532,1.532,0,0,0,.126-.089,1.861,1.861,0,0,1,.205-.126c.061-.037.126-.065.187-.1.019-.009.135-.061.056-.028s.07-.028.089-.033a3.525,3.525,0,0,1,.448-.126c.042-.009.233-.037.093-.019.1-.009.191-.019.29-.019.14,0,.28,0,.42.014.028,0,.135.023,0,0l.093.014c.093.019.182.037.275.065.07.019.14.042.205.065l.117.042c.1.037-.093-.047,0,0a3.8,3.8,0,0,1,.425.238c.061.037.117.079.173.121-.117-.089.07.065.089.084a3.348,3.348,0,0,1,.332.35c-.089-.1.047.065.07.1.051.075.1.154.145.233a2.428,2.428,0,0,1,.121.247c-.061-.126.028.079.042.117a3.593,3.593,0,0,1,.135.546c-.023-.14,0,.084.009.131,0,.079,0,.159,0,.243a.712.712,0,0,0,.7.7c1.177,0,2.353-.009,3.53,0h.1c-.121,0,.042.014.1.023.075.019-.009-.009-.023-.014.047.019.089.051.135.075.065.033,0-.009-.019-.019a.5.5,0,0,1,.089.084c.028.028.056.061.084.089-.047-.056-.028-.042,0,.009l.042.084c.047.089-.023-.093,0,0a1.138,1.138,0,0,1,.028.121c.028.107,0-.163,0,.037a.7.7,0,0,0,1.4,0,1.937,1.937,0,0,0-1.363-1.821,3.1,3.1,0,0,0-.906-.075h-3.2l.7.7A4.032,4.032,0,0,0,335,76.662a3.977,3.977,0,0,0-4.38,1.2,4.107,4.107,0,0,0-.915,2.587l.7-.7h-2.8a4.854,4.854,0,0,0-1.275.07,1.945,1.945,0,0,0-1.392,1.933V83.33a3.685,3.685,0,0,0,.2,1.625,1.927,1.927,0,0,0,1.732,1.051h12.846a2.817,2.817,0,0,0,2.031-.472,1.905,1.905,0,0,0,.644-1.424c0-.126,0-.257,0-.383V81.649a.7.7,0,1,0-1.391,0Z" transform="translate(-152.229)" fill="#ff0089"/>
  </g>
</svg>
