<svg xmlns="http://www.w3.org/2000/svg" width="58.1" height="48.63" viewBox="0 0 58.1 48.63">
  <g id="Layer_2" data-name="Layer 2" transform="translate(-2.95 -7.68)">
    <path id="Path_14682" data-name="Path 14682" d="M18.46,46.4a5.54,5.54,0,1,0-5.54-5.54A5.54,5.54,0,0,0,18.46,46.4Zm0-9.09a3.54,3.54,0,1,1-3.54,3.54,3.54,3.54,0,0,1,3.54-3.54Z" fill="#ed2f59"/>
    <path id="Path_14683" data-name="Path 14683" d="M3.88,43.83l3.78.47a11.36,11.36,0,0,0,.73,1.77L6,49.07a1,1,0,0,0,.08,1.32l2.79,2.79a1,1,0,0,0,1.32.08l3-2.34a11.249,11.249,0,0,0,1.77.73l.47,3.78a1,1,0,0,0,1,.88h4a1,1,0,0,0,1-.88l.47-3.78a11.35,11.35,0,0,0,1.77-.73l3,2.34A1,1,0,0,0,28,53.19l2.79-2.79a1,1,0,0,0,.08-1.32l-2.34-3a11.3,11.3,0,0,0,.73-1.77L33,43.83a1,1,0,0,0,.88-1v-4a1,1,0,0,0-.88-1l-3.78-.47a11.3,11.3,0,0,0-.73-1.77l2.34-3a1,1,0,0,0-.08-1.32L28,28.53a1,1,0,0,0-1.32-.08l-3,2.34A11.35,11.35,0,0,0,21.9,30l-.47-3.78a1,1,0,0,0-1-.88h-4a1,1,0,0,0-1,.88L15,30a11.25,11.25,0,0,0-1.77.73l-3-2.34a1,1,0,0,0-1.32.08L6.13,31.32A1,1,0,0,0,6,32.64l2.34,3a11.36,11.36,0,0,0-.73,1.77l-3.78.47a1,1,0,0,0-.88,1v4a1,1,0,0,0,.93.95ZM5,39.76l3.56-.45a1,1,0,0,0,.85-.75,9.3,9.3,0,0,1,1-2.5,1,1,0,0,0-.07-1.13L8.14,32.1l1.55-1.55,2.83,2.2a1,1,0,0,0,1.13.07,9.31,9.31,0,0,1,2.5-1,1,1,0,0,0,.75-.85l.45-3.56h2.19L20,31a1,1,0,0,0,.75.85,9.31,9.31,0,0,1,2.5,1,1,1,0,0,0,1.13-.07l2.83-2.2,1.55,1.55-2.2,2.83a1,1,0,0,0-.07,1.13,9.28,9.28,0,0,1,1,2.5,1,1,0,0,0,.85.75l3.56.45V42l-3.56.45a1,1,0,0,0-.85.75,9.28,9.28,0,0,1-1,2.5,1,1,0,0,0,.07,1.13l2.2,2.83-1.55,1.55-2.83-2.2a1,1,0,0,0-1.13-.07,9.31,9.31,0,0,1-2.5,1,1,1,0,0,0-.75.85l-.45,3.56H17.37l-.45-3.56a1,1,0,0,0-.75-.85,9.31,9.31,0,0,1-2.5-1,1,1,0,0,0-1.13.07l-2.83,2.2L8.17,49.6l2.2-2.83a1,1,0,0,0,.07-1.13,9.3,9.3,0,0,1-1-2.5,1,1,0,0,0-.85-.75L5,42ZM45.54,17.6a5.54,5.54,0,1,0,5.54,5.54,5.54,5.54,0,0,0-5.54-5.54Zm0,9.09a3.54,3.54,0,1,1,3.54-3.54A3.54,3.54,0,0,1,45.54,26.69Z" fill="#ed2f59"/>
    <path id="Path_14684" data-name="Path 14684" d="M60.12,20.17l-3.78-.47a11.38,11.38,0,0,0-.73-1.77l2.34-3a1,1,0,0,0-.08-1.32l-2.79-2.79a1,1,0,0,0-1.32-.08l-3,2.34A11.35,11.35,0,0,0,49,12.33l-.5-3.77a1,1,0,0,0-1-.88h-4a1,1,0,0,0-1,.88l-.47,3.78a11.35,11.35,0,0,0-1.77.73l-3-2.34a1,1,0,0,0-1.32.08L33.15,13.6a1,1,0,0,0-.08,1.32l2.34,3a11.18,11.18,0,0,0-.73,1.77L31,20.17a1,1,0,0,0-.88,1v4a1,1,0,0,0,.88,1l3.78.47a11.18,11.18,0,0,0,.73,1.77l-2.34,3a1,1,0,0,0,.08,1.32L36,35.47a1,1,0,0,0,1.32.08l3-2.34A11.35,11.35,0,0,0,42.1,34l.47,3.78a1,1,0,0,0,1,.88h4a1,1,0,0,0,1-.88L49,34a11.31,11.31,0,0,0,1.77-.73l3,2.34a1,1,0,0,0,1.32-.08l2.79-2.79A1,1,0,0,0,58,31.36l-2.34-3a11.36,11.36,0,0,0,.73-1.77l3.78-.47a1,1,0,0,0,.88-1v-4A1,1,0,0,0,60.12,20.17ZM59,24.24l-3.56.44a1,1,0,0,0-.85.75,9.3,9.3,0,0,1-1,2.5,1,1,0,0,0,.07,1.13l2.2,2.83-1.55,1.55-2.83-2.2a1,1,0,0,0-1.13-.07,9.3,9.3,0,0,1-2.5,1,1,1,0,0,0-.75.85l-.45,3.56H44.44L44,33a1,1,0,0,0-.75-.85,9.31,9.31,0,0,1-2.5-1,1,1,0,0,0-1.13.07l-2.83,2.2-1.55-1.55,2.2-2.83a1,1,0,0,0,.07-1.13,9.25,9.25,0,0,1-1-2.5,1,1,0,0,0-.85-.75l-3.56-.44V22l3.56-.44a1,1,0,0,0,.85-.75,9.23,9.23,0,0,1,1-2.5,1,1,0,0,0-.07-1.13l-2.2-2.83,1.55-1.55L39.62,15a1,1,0,0,0,1.13.07,9.31,9.31,0,0,1,2.5-1,1,1,0,0,0,.75-.85l.45-3.56h2.19l.45,3.56a1,1,0,0,0,.75.85,9.31,9.31,0,0,1,2.5,1A1,1,0,0,0,51.47,15l2.83-2.2,1.55,1.55-2.2,2.83a1,1,0,0,0-.07,1.13,9.29,9.29,0,0,1,1,2.5,1,1,0,0,0,.85.75L59,22Z" fill="#ed2f59"/>
  </g>
</svg>
