<svg xmlns="http://www.w3.org/2000/svg" width="42.636" height="48.362" viewBox="0 0 42.636 48.362">
  <g id="list" transform="translate(-15.25 -15.25)">
    <path id="Path_14614" data-name="Path 14614" d="M53.022,62.862H20.114A4.429,4.429,0,0,1,16,58.176V20.686A4.429,4.429,0,0,1,20.114,16H53.022a4.429,4.429,0,0,1,4.114,4.686v37.49A4.429,4.429,0,0,1,53.022,62.862ZM20.114,19.124a1.48,1.48,0,0,0-1.371,1.562v37.49a1.48,1.48,0,0,0,1.371,1.562H53.022a1.48,1.48,0,0,0,1.371-1.562V20.686a1.48,1.48,0,0,0-1.371-1.562Z" fill="#18cc96" stroke="#fff" stroke-linejoin="round" stroke-width="1.5"/>
    <path id="Path_14615" data-name="Path 14615" d="M81.457,131.124h-.086a1.575,1.575,0,0,1,0-3.124h.086a1.575,1.575,0,0,1,0,3.124Zm0,21.869h-.086a1.575,1.575,0,0,1,0-3.124h.086a1.575,1.575,0,0,1,0,3.124Zm0-10.935h-.086a1.575,1.575,0,0,1,0-3.124h.086a1.575,1.575,0,0,1,0,3.124Z" transform="translate(-58.515 -101.065)" fill="#18cc96" stroke="#fff" stroke-linejoin="round" stroke-width="1.5"/>
    <g id="Group_9568" data-name="Group 9568" transform="translate(26.97 26.935)">
      <path id="Path_14616" data-name="Path 14616" d="M167.31,131.124H145.371a1.575,1.575,0,0,1,0-3.124H167.31a1.575,1.575,0,0,1,0,3.124Zm0,21.869H145.371a1.575,1.575,0,0,1,0-3.124H167.31a1.575,1.575,0,0,1,0,3.124Zm0-10.935H145.371a1.575,1.575,0,0,1,0-3.124H167.31a1.575,1.575,0,0,1,0,3.124Z" transform="translate(-144 -128)" fill="#18cc96" stroke="#fff" stroke-linejoin="round" stroke-width="1.5"/>
    </g>
  </g>
</svg>
