<svg xmlns="http://www.w3.org/2000/svg" width="43.473" height="39.315" viewBox="0 0 43.473 39.315">
  <g id="logout" transform="translate(-1 -2)">
    <path id="Path_14639" data-name="Path 14639" d="M28.95,25.8a2.073,2.073,0,0,0-2.073,2.073V34.1A2.073,2.073,0,0,1,24.8,36.169H8.219A2.073,2.073,0,0,1,6.146,34.1V9.219A2.073,2.073,0,0,1,8.219,7.146H24.8a2.073,2.073,0,0,1,2.073,2.073v6.219a2.073,2.073,0,1,0,4.146,0V9.219A6.219,6.219,0,0,0,24.8,3H8.219A6.219,6.219,0,0,0,2,9.219V34.1a6.219,6.219,0,0,0,6.219,6.219H24.8A6.219,6.219,0,0,0,31.023,34.1V27.877A2.073,2.073,0,0,0,28.95,25.8Z" transform="translate(0 0)" fill="#c32bd6" stroke="#fff" stroke-width="2"/>
    <path id="Path_14640" data-name="Path 14640" d="M38.031,14.825,31.812,8.606a2.082,2.082,0,0,0-2.944,2.944l2.695,2.674H8.573a2.073,2.073,0,0,0,0,4.146h22.99l-2.695,2.674a2.082,2.082,0,1,0,2.944,2.944l6.219-6.219a2.073,2.073,0,0,0,0-2.944Z" transform="translate(4.829 5.361)" fill="#c32bd6" stroke="#fff" stroke-width="2"/>
  </g>
</svg>
