<svg xmlns="http://www.w3.org/2000/svg" width="45.474" height="45.479" viewBox="0 0 45.474 45.479">
  <path id="meeting-points" d="M56.76,13.583,43.042,27.258l.391-10.94-2.6-.087-.564,15.628L55.892,31.3l-.087-2.6-10.94.391L58.583,15.363a1.259,1.259,0,0,0,0-1.823A1.3,1.3,0,0,0,56.76,13.583ZM15.3,58.167a1.249,1.249,0,0,0,.912-.391L30.236,43.754l-.391,10.94,2.6.087.564-15.628-15.628.564.087,2.6,10.94-.391L14.391,55.953a1.259,1.259,0,0,0,0,1.823,1.182,1.182,0,0,0,.912.391ZM44.865,42.235l10.94.391.087-2.6-15.628-.564.564,15.628,2.6-.087-.391-10.94L56.76,57.776a1.324,1.324,0,0,0,.912.391,1.3,1.3,0,0,0,.912-2.214ZM28.412,29.428l-10.94-.391-.087,2.6,15.628.564L32.45,16.579l-2.6.087.391,10.94L16.214,13.583a1.289,1.289,0,0,0-1.823,1.823L28.412,29.428Z" transform="translate(-13.75 -12.937)" fill="#ed2f59" stroke="#fff" stroke-width="0.5"/>
</svg>
