<svg xmlns="http://www.w3.org/2000/svg" width="44.545" height="44.705" viewBox="0 0 44.545 44.705">
  <g id="report" transform="translate(-0.089 -0.08)">
    <path id="Path_16200" data-name="Path 16200" d="M1.442,45.524A1.181,1.181,0,0,1,.92,44.408q.009-21.23,0-42.459c0-.873.248-1.122,1.108-1.122Q13.946.828,25.858.82a1.5,1.5,0,0,1,1.156.483q3.666,3.709,7.358,7.391a1.515,1.515,0,0,1,.477,1.16c-.012,2.313,0,4.625,0,6.938v.595c.183-.173.293-.272.4-.376q2.26-2.245,4.519-4.49c.617-.612.959-.608,1.582.015q1.851,1.851,3.7,3.706c.564.567.565.912,0,1.479q-4.919,4.924-9.847,9.839a1.122,1.122,0,0,0-.356.879q.015,7.964.009,15.927c0,.49-.063.934-.579,1.159H1.442ZM2.514,2.4V43.936H33.253V29.6c-.73.708-1.425,1.411-2.153,2.077a2.705,2.705,0,0,1-.906.565c-1.687.584-3.388,1.131-5.083,1.693-.141.047-.277.109-.415.164a7.9,7.9,0,0,0,1.237.067c.756,0,1.513-.01,2.269.009a.759.759,0,0,1,.085,1.513,2.481,2.481,0,0,1-.433.03q-9.995,0-19.989,0a2.2,2.2,0,0,1-.561-.055.756.756,0,0,1,.057-1.47,2.88,2.88,0,0,1,.566-.024H23.58c-.711-.874.162-1.561.115-2.342H7.89a2.712,2.712,0,0,1-.479-.017.725.725,0,0,1-.66-.7.711.711,0,0,1,.588-.794,2.8,2.8,0,0,1,.605-.049q7.965,0,15.931,0c.305,0,.457-.071.551-.386.258-.862.541-1.718.855-2.562a2.5,2.5,0,0,1,.535-.874c2.385-2.409,4.789-4.8,7.174-7.207a1.058,1.058,0,0,0,.286-.669c.019-2.618.013-5.237.012-7.856,0-.141-.013-.282-.021-.46H26.524c-.794,0-1-.212-1.006-1.009q0-3.187,0-6.373V2.405h-23ZM40.05,20.47l-2.993-2.976-9.683,9.75,2.915,2.923,9.761-9.7Zm3.468-3.457-2.935-2.932-2.226,2.244,2.914,2.918ZM32.071,8.666,27.1,3.7V8.666ZM28.777,31.1,26.43,28.809c-.366,1.1-.748,2.239-1.157,3.462Z" transform="translate(-0.831 -0.74)" fill="#0b2ff7"/>
    <path id="Path_16206" data-name="Path 16206" d="M72.017,385.3H62.027a2.445,2.445,0,0,1-.478-.019.713.713,0,0,1-.637-.717.689.689,0,0,1,.57-.764,2.669,2.669,0,0,1,.6-.055q9.926,0,19.851,0a2.522,2.522,0,0,1,.646.064.687.687,0,0,1,.535.748.709.709,0,0,1-.589.713,2.21,2.21,0,0,1-.521.03H72.017Z" transform="translate(-54.991 -346.443)" fill="#0b2ff7"/>
    <path id="Path_16207" data-name="Path 16207" d="M67.2,263.9h5.1a2.526,2.526,0,0,1,.478.022.712.712,0,0,1,.63.723.7.7,0,0,1-.582.757,2.585,2.585,0,0,1-.563.046q-5.1,0-10.2,0a2.72,2.72,0,0,1-.563-.044.69.69,0,0,1-.585-.752.7.7,0,0,1,.62-.728,2.443,2.443,0,0,1,.478-.023H67.2Z" transform="translate(-54.998 -238.253)" fill="#0b2ff7"/>
  </g>
</svg>
