<svg xmlns="http://www.w3.org/2000/svg" width="153.469" height="32.783" viewBox="0 0 153.469 32.783">
  <g id="Microsoft_logo__2012_" data-name="Microsoft_logo_(2012)" style="mix-blend-mode: luminosity;isolation: isolate">
    <path id="Path_9929" data-name="Path 9929" d="M179.188,33.874l-.915,2.592H178.2a18.4,18.4,0,0,0-.889-2.541L172.4,21.6h-4.8V41.244h3.177V29.122c0-.762,0-1.626-.025-2.694-.025-.534-.076-.94-.1-1.245h.076a11.866,11.866,0,0,0,.457,1.677l5.9,14.333h2.236l5.845-14.46a15.4,15.4,0,0,0,.381-1.55h.076c-.076,1.449-.127,2.745-.152,3.532V41.167h3.38V21.549H184.22Zm12.859-6.785h3.3V41.167h-3.3Zm1.677-5.947a1.979,1.979,0,0,0-1.4.559,1.873,1.873,0,0,0,0,2.719,1.959,1.959,0,0,0,1.4.534,2.027,2.027,0,0,0,1.4-.534,1.788,1.788,0,0,0,.584-1.347,1.884,1.884,0,0,0-.584-1.372,1.854,1.854,0,0,0-1.4-.559m13.342,5.82a9.215,9.215,0,0,0-1.855-.2,7.973,7.973,0,0,0-4.015.991,6.637,6.637,0,0,0-2.643,2.719,8.643,8.643,0,0,0-.915,4.066,7.542,7.542,0,0,0,.889,3.634,6.091,6.091,0,0,0,2.49,2.516,7.332,7.332,0,0,0,3.634.889,7.987,7.987,0,0,0,3.99-.94l.025-.025v-3.05l-.127.1a5.679,5.679,0,0,1-1.6.839,4.9,4.9,0,0,1-1.576.3,3.9,3.9,0,0,1-3.1-1.22,4.687,4.687,0,0,1-1.144-3.329,4.8,4.8,0,0,1,1.169-3.431,4.079,4.079,0,0,1,3.1-1.271,5.408,5.408,0,0,1,3.151,1.067l.127.1V27.5l-.025-.025a7.662,7.662,0,0,0-1.576-.508m10.9-.1a3.486,3.486,0,0,0-2.236.788,4.742,4.742,0,0,0-1.271,1.906h-.025V27.089h-3.3V41.167h3.3V33.976A4.849,4.849,0,0,1,215.249,31a2.547,2.547,0,0,1,2.135-1.144,8.149,8.149,0,0,1,.991.127,2.607,2.607,0,0,1,.788.33l.127.1v-3.3l-.076-.025a2.511,2.511,0,0,0-1.245-.229m9-.076a7.285,7.285,0,0,0-5.464,2.033,7.57,7.57,0,0,0-1.957,5.54,7.245,7.245,0,0,0,1.931,5.261A7.935,7.935,0,0,0,232,39.49a7.544,7.544,0,0,0,1.957-5.464,7.354,7.354,0,0,0-1.855-5.311,6.688,6.688,0,0,0-5.133-1.931m2.643,10.826a3.331,3.331,0,0,1-2.77,1.169,3.471,3.471,0,0,1-2.846-1.22,5.02,5.02,0,0,1-1.017-3.38,5.336,5.336,0,0,1,1.017-3.456,3.5,3.5,0,0,1,2.821-1.22,3.379,3.379,0,0,1,2.745,1.169,5.212,5.212,0,0,1,1.017,3.431,5.88,5.88,0,0,1-.966,3.507m11.715-4.676a7.915,7.915,0,0,1-2.008-1.042,1.443,1.443,0,0,1-.381-1.067,1.181,1.181,0,0,1,.534-1.017,2.448,2.448,0,0,1,1.449-.381,6.579,6.579,0,0,1,1.7.254,4.383,4.383,0,0,1,1.474.686l.127.1v-3.1l-.076-.025a9.17,9.17,0,0,0-1.5-.432,10.187,10.187,0,0,0-1.626-.152,5.888,5.888,0,0,0-3.888,1.22,3.757,3.757,0,0,0-1.5,3.1,4.035,4.035,0,0,0,.33,1.728,3.851,3.851,0,0,0,1.017,1.321,8.856,8.856,0,0,0,2.033,1.144c.762.33,1.347.584,1.7.788a3.449,3.449,0,0,1,.762.61,1.445,1.445,0,0,1,.2.788c0,.94-.712,1.4-2.16,1.4a5.7,5.7,0,0,1-1.83-.33,7.07,7.07,0,0,1-1.855-.94l-.127-.1V40.71l.076.025a9.857,9.857,0,0,0,1.779.559,11.346,11.346,0,0,0,1.906.229,6.189,6.189,0,0,0,4.092-1.22,3.891,3.891,0,0,0,1.55-3.2,3.563,3.563,0,0,0-.813-2.414,10.3,10.3,0,0,0-2.973-1.754m12.5-6.15a7.285,7.285,0,0,0-5.464,2.033,7.676,7.676,0,0,0-1.957,5.54,7.244,7.244,0,0,0,1.931,5.261,7.935,7.935,0,0,0,10.521-.127,7.544,7.544,0,0,0,1.957-5.464,7.354,7.354,0,0,0-1.855-5.311,6.688,6.688,0,0,0-5.133-1.931m2.617,10.826a3.331,3.331,0,0,1-2.77,1.169,3.438,3.438,0,0,1-2.846-1.22,5.02,5.02,0,0,1-1.017-3.38,5.336,5.336,0,0,1,1.017-3.456,3.5,3.5,0,0,1,2.821-1.22,3.413,3.413,0,0,1,2.745,1.169A5.212,5.212,0,0,1,257.41,34.1a5.544,5.544,0,0,1-.966,3.507m22.033-7.8V27.089h-3.329V22.921l-.1.025-3.151.94-.076.025v3.177h-4.981V25.31a2.787,2.787,0,0,1,.559-1.855,1.973,1.973,0,0,1,1.55-.61,3.709,3.709,0,0,1,1.474.33l.127.076V20.38l-.076-.025a6.355,6.355,0,0,0-4.5.356,4.408,4.408,0,0,0-1.8,1.8,5.2,5.2,0,0,0-.661,2.618v1.957H261.2v2.694h2.313V41.167h3.329V29.808h4.981v7.243c0,2.973,1.4,4.473,4.193,4.473a8.708,8.708,0,0,0,1.4-.152,4.573,4.573,0,0,0,1.042-.33l.025-.025V38.3l-.127.1a2.148,2.148,0,0,1-.686.3,2.326,2.326,0,0,1-.661.1,1.76,1.76,0,0,1-1.449-.534,2.752,2.752,0,0,1-.457-1.8V29.808Z" transform="translate(-125.008 -14.992)" fill="#737373"/>
    <path id="Path_9930" data-name="Path 9930" d="M0,0H15.578V15.578H0Z" transform="translate(0)" fill="#f25022"/>
    <path id="Path_9931" data-name="Path 9931" d="M67.7,0H83.278V15.578H67.7Z" transform="translate(-50.495)" fill="#7b7b7b"/>
    <path id="Path_9932" data-name="Path 9932" d="M0,67.7H15.578V83.278H0Z" transform="translate(0 -50.495)" fill="#00a4ef"/>
    <path id="Path_9933" data-name="Path 9933" d="M67.7,67.7H83.278V83.278H67.7Z" transform="translate(-50.495 -50.495)" fill="#7b7b7b"/>
  </g>
</svg>
