<svg xmlns="http://www.w3.org/2000/svg" width="189.786" height="33.813" viewBox="0 0 189.786 33.813">
  <g id="paystack-logo-vector" transform="translate(0)">
    <path id="Path_10001" data-name="Path 10001" d="M-104.188,232.2h-25.431a1.614,1.614,0,0,0-1.581,1.613v2.878a1.614,1.614,0,0,0,1.581,1.613h25.431a1.641,1.641,0,0,0,1.613-1.613v-2.847a1.627,1.627,0,0,0-1.613-1.645Zm0,15.973h-25.431a1.484,1.484,0,0,0-1.107.474,1.553,1.553,0,0,0-.474,1.139v2.878a1.614,1.614,0,0,0,1.581,1.613h25.431a1.62,1.62,0,0,0,1.613-1.613v-2.878a1.62,1.62,0,0,0-1.613-1.613Zm-11.1,7.971h-14.329a1.484,1.484,0,0,0-1.107.474,1.687,1.687,0,0,0-.474,1.139v2.878a1.614,1.614,0,0,0,1.581,1.613h14.3a1.586,1.586,0,0,0,1.582-1.582v-2.878a1.521,1.521,0,0,0-1.55-1.645Zm12.715-15.973h-27.044a1.484,1.484,0,0,0-1.107.474,1.687,1.687,0,0,0-.474,1.139v2.878a1.614,1.614,0,0,0,1.581,1.613h27.012a1.593,1.593,0,0,0,1.582-1.613v-2.878a1.587,1.587,0,0,0-1.55-1.613Zm0,0" transform="translate(131.2 -228.974)" fill="#737373" style="mix-blend-mode: luminosity;isolation: isolate"/>
    <path id="Path_10002" data-name="Path 10002" d="M17.372,231.679a8.252,8.252,0,0,0-2.752-1.9,8.375,8.375,0,0,0-3.29-.664,7.02,7.02,0,0,0-3.195.7,5.955,5.955,0,0,0-1.771,1.3V230.6a1.105,1.105,0,0,0-.253-.7.906.906,0,0,0-.7-.316H1.9a.8.8,0,0,0-.664.316.838.838,0,0,0-.253.7v23.66a1.105,1.105,0,0,0,.253.7.91.91,0,0,0,.664.285H5.51a.91.91,0,0,0,.664-.285.792.792,0,0,0,.285-.7v-8.1a4.5,4.5,0,0,0,1.9,1.234,8.482,8.482,0,0,0,6.263-.127,8.379,8.379,0,0,0,2.783-1.9,9.179,9.179,0,0,0,1.9-2.973,9.638,9.638,0,0,0,.7-3.891,10.479,10.479,0,0,0-.7-3.922,10.365,10.365,0,0,0-1.929-2.91Zm-3.226,8.572a4.11,4.11,0,0,1-.854,1.36,3.876,3.876,0,0,1-2.847,1.234,3.489,3.489,0,0,1-1.582-.348,4.5,4.5,0,0,1-1.3-.886,3.814,3.814,0,0,1-.854-1.36,4.625,4.625,0,0,1,0-3.321,4.165,4.165,0,0,1,.854-1.329,4.607,4.607,0,0,1,1.3-.917,3.96,3.96,0,0,1,1.582-.348,3.621,3.621,0,0,1,1.613.348,3.971,3.971,0,0,1,1.265.886,4.165,4.165,0,0,1,.854,1.328,5.077,5.077,0,0,1-.032,3.353Zm25.178-10.628H35.749a.861.861,0,0,0-.664.285,1,1,0,0,0-.285.727v.443a4.683,4.683,0,0,0-1.613-1.234,7.181,7.181,0,0,0-3.131-.7,8.745,8.745,0,0,0-6.136,2.53,8.853,8.853,0,0,0-1.961,2.973,9.716,9.716,0,0,0-.727,3.922,9.919,9.919,0,0,0,.727,3.922,9.355,9.355,0,0,0,1.961,2.973,8.57,8.57,0,0,0,6.1,2.562,6.761,6.761,0,0,0,3.131-.7A5.758,5.758,0,0,0,34.8,246.1v.474a.981.981,0,0,0,.285.7,1.054,1.054,0,0,0,.664.285h3.574a.861.861,0,0,0,.664-.285.981.981,0,0,0,.285-.7v-15.91a1.105,1.105,0,0,0-.253-.7.933.933,0,0,0-.7-.348Zm-4.839,10.628a4.11,4.11,0,0,1-.854,1.36,4.464,4.464,0,0,1-1.265.917,3.763,3.763,0,0,1-3.195,0,4.607,4.607,0,0,1-1.3-.917,3.814,3.814,0,0,1-.854-1.36,4.986,4.986,0,0,1,0-3.321,3.981,3.981,0,0,1,.854-1.329,4.2,4.2,0,0,1,1.3-.917,3.692,3.692,0,0,1,3.163,0,3.971,3.971,0,0,1,1.265.886,4.787,4.787,0,0,1,.854,1.328,4.55,4.55,0,0,1,.032,3.353ZM74.939,238.1a6.16,6.16,0,0,0-1.74-1.075,12.205,12.205,0,0,0-2.088-.633l-2.72-.538a3.242,3.242,0,0,1-1.455-.538.869.869,0,0,1-.38-.7.906.906,0,0,1,.506-.759,2.828,2.828,0,0,1,1.518-.348,5.507,5.507,0,0,1,2.024.411,12.221,12.221,0,0,1,1.8.949,1.375,1.375,0,0,0,1.961-.158l1.3-1.487a1.444,1.444,0,0,0,.411-.917,1.416,1.416,0,0,0-.506-.949,10.224,10.224,0,0,0-2.594-1.487,11.183,11.183,0,0,0-4.4-.759,9.5,9.5,0,0,0-3.131.443,8.655,8.655,0,0,0-2.4,1.234A5.332,5.332,0,0,0,60.958,235a4.846,4.846,0,0,0,1.328,3.574,6.636,6.636,0,0,0,3.511,1.771l2.847.633a6.291,6.291,0,0,1,1.8.569.834.834,0,0,1,.506.791,1.045,1.045,0,0,1-.506.854,2.894,2.894,0,0,1-1.676.411,5.066,5.066,0,0,1-2.246-.506,8.735,8.735,0,0,1-1.835-1.2,3.494,3.494,0,0,0-.822-.474,1.248,1.248,0,0,0-1.139.348l-1.55,1.17a1.3,1.3,0,0,0-.538,1.36,2.9,2.9,0,0,0,1.3,1.645,11.386,11.386,0,0,0,6.674,1.961,11.253,11.253,0,0,0,3.258-.443A8.261,8.261,0,0,0,74.4,246.2a5.214,5.214,0,0,0,1.645-1.961,5.4,5.4,0,0,0,.569-2.436,4.873,4.873,0,0,0-.443-2.214,6.7,6.7,0,0,0-1.234-1.487Zm15.625,4.333a1.105,1.105,0,0,0-.791-.538,1.575,1.575,0,0,0-.917.285,3.05,3.05,0,0,1-1.455.474,2.768,2.768,0,0,1-.506-.063.87.87,0,0,1-.474-.253,2.078,2.078,0,0,1-.38-.538,2.006,2.006,0,0,1-.158-.949v-6.484H90.5a1.03,1.03,0,0,0,.727-.316.958.958,0,0,0,.316-.7V230.6a.814.814,0,0,0-.316-.7.981.981,0,0,0-.7-.285h-4.65v-4.428a.93.93,0,0,0-.285-.7,1.259,1.259,0,0,0-.664-.285H81.328a.981.981,0,0,0-.7.285,1.016,1.016,0,0,0-.316.7v4.428H78.26a.9.9,0,0,0-.7.316,1.105,1.105,0,0,0-.253.7v2.752a1.105,1.105,0,0,0,.253.7.814.814,0,0,0,.7.316h2.056v7.718a5.886,5.886,0,0,0,.538,2.657,5.527,5.527,0,0,0,1.392,1.8,5.048,5.048,0,0,0,1.961,1.012,7.738,7.738,0,0,0,2.246.348,9.386,9.386,0,0,0,2.942-.474,5.53,5.53,0,0,0,2.309-1.455,1.241,1.241,0,0,0,.127-1.55Zm19.548-12.81h-3.574a.91.91,0,0,0-.664.285,1,1,0,0,0-.285.727v.443a4.406,4.406,0,0,0-1.613-1.234,7.181,7.181,0,0,0-3.131-.7,8.745,8.745,0,0,0-6.136,2.53,8.854,8.854,0,0,0-1.961,2.973,9.666,9.666,0,0,0-.727,3.891,9.92,9.92,0,0,0,.727,3.922,9.356,9.356,0,0,0,1.961,2.973,8.516,8.516,0,0,0,6.1,2.562,7.15,7.15,0,0,0,3.131-.664,5.352,5.352,0,0,0,1.645-1.234v.474a.861.861,0,0,0,.285.664.91.91,0,0,0,.664.285h3.574a.932.932,0,0,0,.949-.949v-15.91a1.105,1.105,0,0,0-.253-.7.84.84,0,0,0-.7-.348ZM105.3,240.251a4.11,4.11,0,0,1-.854,1.36,4.464,4.464,0,0,1-1.265.917,3.993,3.993,0,0,1-1.613.348,3.846,3.846,0,0,1-1.582-.348,4.607,4.607,0,0,1-1.3-.917,3.351,3.351,0,0,1-.822-1.36,4.986,4.986,0,0,1,0-3.321,4.084,4.084,0,0,1,.822-1.329,4.607,4.607,0,0,1,1.3-.917,3.96,3.96,0,0,1,1.582-.348,3.714,3.714,0,0,1,1.613.348,4.356,4.356,0,0,1,1.265.886,3.688,3.688,0,0,1,.854,1.328,4.711,4.711,0,0,1,0,3.353Zm24.419,1.929-2.056-1.582a1.067,1.067,0,0,0-1.075-.285,2.552,2.552,0,0,0-.759.538,8.29,8.29,0,0,1-1.55,1.423,3.45,3.45,0,0,1-1.993.474,3.779,3.779,0,0,1-2.246-.7,3.714,3.714,0,0,1-1.423-1.9,4.819,4.819,0,0,1-.285-1.613,5.185,5.185,0,0,1,.285-1.676,3.612,3.612,0,0,1,.822-1.328,3.826,3.826,0,0,1,1.265-.886,3.994,3.994,0,0,1,1.613-.348,3.674,3.674,0,0,1,1.993.506,6.027,6.027,0,0,1,1.55,1.423,2.081,2.081,0,0,0,.728.538,1.067,1.067,0,0,0,1.075-.285l2.056-1.55a1.311,1.311,0,0,0,.538-.7,1.013,1.013,0,0,0-.095-.949A8.915,8.915,0,0,0,127,230.319a9.709,9.709,0,0,0-4.776-1.17,10.177,10.177,0,0,0-3.732.728,9.271,9.271,0,0,0-5.029,5,9.679,9.679,0,0,0,0,7.4,8.717,8.717,0,0,0,2.024,2.973,9.549,9.549,0,0,0,6.737,2.72A9.709,9.709,0,0,0,127,246.8a8.822,8.822,0,0,0,3.195-3,1.173,1.173,0,0,0,.095-.917,1.978,1.978,0,0,0-.569-.7Zm19.041,3.7-5.662-8.287,4.839-6.389a1.127,1.127,0,0,0,.19-1.044c-.095-.253-.316-.506-.917-.506h-3.827a1.44,1.44,0,0,0-.633.158,1.34,1.34,0,0,0-.569.538l-3.859,5.409h-.917V222.981a.981.981,0,0,0-.285-.7.91.91,0,0,0-.664-.285h-3.574a.981.981,0,0,0-.7.285.93.93,0,0,0-.285.7v23.565a.93.93,0,0,0,.285.7.981.981,0,0,0,.7.285h3.574a.861.861,0,0,0,.664-.285.981.981,0,0,0,.285-.7v-6.231h1.012l4.207,6.453a1.4,1.4,0,0,0,1.234.759h4.017a.981.981,0,0,0,.981-.538,1.144,1.144,0,0,0-.095-1.107ZM59.63,229.623H55.613a1.12,1.12,0,0,0-.822.316,1.408,1.408,0,0,0-.38.664l-2.973,11.007H50.71L47.547,230.6a2.118,2.118,0,0,0-.316-.664.946.946,0,0,0-.728-.348h-4.08c-.538,0-.854.158-1.012.538a1.725,1.725,0,0,0,0,.981l5.061,15.5a1.614,1.614,0,0,0,.38.633,1.077,1.077,0,0,0,.759.285h2.151l-.19.506-.474,1.423a2.318,2.318,0,0,1-.791,1.107,1.821,1.821,0,0,1-1.2.38,3.109,3.109,0,0,1-1.075-.221,4.721,4.721,0,0,1-.949-.569,1.507,1.507,0,0,0-.917-.285h-.032a1.122,1.122,0,0,0-.917.569L41.948,252.3a1.143,1.143,0,0,0,.095,1.613,6.44,6.44,0,0,0,2.372,1.392,8.95,8.95,0,0,0,3,.506,6.832,6.832,0,0,0,4.523-1.487,8.56,8.56,0,0,0,2.562-4.049l5.883-19.168a1.4,1.4,0,0,0,.032-1.012c-.032-.221-.253-.474-.791-.474Zm0,0" transform="translate(40.828 -222)" fill="#737373" style="mix-blend-mode: luminosity;isolation: isolate"/>
  </g>
</svg>
