<svg xmlns="http://www.w3.org/2000/svg" width="24" height="24" viewBox="0 0 24 24">
  <g id="Group_17212" data-name="Group 17212" transform="translate(-1339.5 -18)">
    <path id="Path_15491" data-name="Path 15491" d="M1351.5,41.25A11.25,11.25,0,1,0,1340.25,30,11.252,11.252,0,0,0,1351.5,41.25Z" fill="#9d9ea1" stroke="#9d9ea1" stroke-linecap="round" stroke-linejoin="round" stroke-width="1.5"/>
    <path id="Path_15492" data-name="Path 15492" d="M1351.63,30.878a1.088,1.088,0,0,0-.27,0,3.695,3.695,0,1,1,.27,0Z" fill="#57585a" stroke="#57585a" stroke-linecap="round" stroke-linejoin="round" stroke-width="1.5"/>
    <path id="Path_15493" data-name="Path 15493" d="M1359.08,38.3a11.22,11.22,0,0,1-15.16,0,4.14,4.14,0,0,1,1.99-2.9,10.942,10.942,0,0,1,11.18,0A4.11,4.11,0,0,1,1359.08,38.3Z" fill="#57585a" stroke="#57585a" stroke-linecap="round" stroke-linejoin="round" stroke-width="1.5"/>
  </g>
</svg>
