<svg id="Group_10416" data-name="Group 10416" xmlns="http://www.w3.org/2000/svg" xmlns:xlink="http://www.w3.org/1999/xlink" width="1240" height="249" viewBox="0 0 1240 249">
  <defs>
    <clipPath id="clip-path">
      <rect id="Rectangle_8722" data-name="Rectangle 8722" width="1240" height="249" rx="20" fill="#0098da"/>
    </clipPath>
  </defs>
  <path id="Path_15248" data-name="Path 15248" d="M20,0H1220c11.046,0,20,10.122,20,22.608V226.08c0,12.486-8.954,22.608-20,22.608H20c-11.046,0-20-10.122-20-22.608V22.608C0,10.122,8.954,0,20,0Z" fill="none"/>
  <g id="Mask_Group_31" data-name="Mask Group 31" clip-path="url(#clip-path)">
    <g id="Whangaehu" transform="translate(-473.129 -1310.734)" opacity="0.087">
      <path id="Shape" d="M1386.2,1126.263c.125,36.9,49.917,78.4,71.187,99.8,42.055,42.318,85.8,81.4,129.129,121.1s86.786,79.3,128.108,122.887c26.83,28.294,58.357,60.162,76.553,100.564,38.764,86.1-83.455,73.314-115.114,75.2-80.539,4.811-172.916,2.613-248.408,47.452-45.066,26.766-63.036,71.657-53.357,137.081,3.121,21.277,12.355,45.762,4.531,66.49-8.353,22.138-27.571,34.914-43.521,43.481-58.177,31.211-125.066,34.828-186.62,38.745-66.375,4.306-133.373,3.046-199.279,3.379-27.946.14-57.132,13.991-83.744,25.25-34.887,14.755-69.358,31.33-103.96,47.355-76.116,35.172-154.553,72.217-235.078,81.146-50.432,5.6-105.552-1.969-144.728-50.648-19.67-24.436-29.966-60.776-41.338-93.052-13.766-38.992-26.986-78.362-41.642-116.741C251.707,1752.143,184.3,1631.354,74.9,1625.285c-16.551-.915-32.805,2.066-49.278,2.626-10.49.345-19.826-3.153-23.726-18.294-9.8-37.981,21.012-97.939,33.647-128.074,27.665-65.964,58.863-128.972,88.085-193.607,19.335-42.749,52.8-101.168,53.154-153.107.312-46.278-44.3-79.729-68.59-102.523-22.759-21.342-64-51.209-66.491-94.624-1.209-21.051,8.852-38.5,19.359-52.037,18.415-23.678,39.629-40.377,56.2-67.395,27.165-44.32,49.863-105.3,46.173-165.021-2.558-41.382-19.67-68.482-41.439-94.387-9.148-10.891-16.574-18.6-17.058-36.281-.78-28.08,7.191-57.794,13.756-83.829,23.493-93.168,56.859-183.263,93.98-267.384C231.214,129.31,251.25,87.4,275.842,51.54,291.952,27.994,313.674-.033,338.237,0c28.445,0,58.543,14.163,86.193,24.754C476.076,44.546,527.093,67.426,577.907,90.9q176.269,81.461,349.225,176.118c81.216,44.525,164.157,89.117,240.515,148.311a288.531,288.531,0,0,1,41.977,40.478c13.923,16.072,31.2,23.259,48.716,28.617,108.726,33.267,227.842,7.728,337.019-8.287,27.712-4.057,55.423-8.137,83.214-10.976,23.891-2.444,52.492-9.45,75.71,1.077,45.752,20.718,5.756,97.078-11.153,128.188-59.533,109.552-136.345,202.238-207.538,296.862-33.85,45.063-67.957,90.007-99.967,137.62C1418.954,1053.658,1386.089,1093.91,1386.2,1126.263Z" transform="translate(2188.253 2137.77) rotate(180)" fill="none" stroke="#5be7c3" stroke-width="5"/>
      <path id="Shape-2" data-name="Shape" d="M1305.586,1065.835c18.248,39.051,50.264,67.914,76.84,95.077,38.244,39.1,77.69,76.036,116.543,114.032,36.738,35.934,73.553,72.27,107.575,113.074,20.745,24.882,46.775,54.638,56.6,91.441,21.315,79.769-93.354,67.667-121.662,69.753-70.377,5.164-150.161,6.347-215.274,48.348-40.656,26.227-57.358,69.721-48.687,130.1,3,20.892,8.4,38.728,1.561,59.511-7.907,24.054-26.092,39.051-42.763,49.636-52.222,33.166-113.951,40.213-170.56,46.076-58.482,6.057-119.412,10.323-176.016,5.9-22.634-1.764-48.687,8.251-71.092,15.933-34.466,11.834-68.581,25.481-102.881,38.179-69.7,25.818-141.206,50.69-213.714,53.52-52.347,2.044-106.927-9.036-150.479-51.863-44.136-43.428-63.719-110.751-88.2-174.748C221.1,1659.162,164.011,1524.637,66.216,1501.26c-14.829-3.55-29.081-1.624-43.895-2.5-7.618-.442-16.289-1.84-20.152-12.2-10.029-26.895,17.455-76.069,26.7-96.669,25.553-56.929,54.283-111.07,81.061-166.906,21.27-44.333,48.226-93.593,56.453-146.143C176.369,1013.079,111.144,967.7,88.2,922.8c-39.765-77.864,35.575-122.229,72.719-159.354,42.655-42.622,77.862-120.379,39.626-186.323-14.627-25.219-32.625-40.247-39.157-73.152-10.216-51.465-2.49-110.277,5.8-161.151,12.484-76.476,32.252-152.126,59.114-221.244C245.552,72.087,277.482-5.509,324.241.309c31.477,3.884,63.477,18.073,94.127,30.616,45.892,18.772,91.206,40.169,136.281,62.4,104.058,51.158,206.958,107.571,307.834,169.621,68.833,42.353,260.833,215.437,275.281,221.61,43.075,18.4,92.051,15.158,136.461,12.307,59.07-3.789,117.854-13.6,176.586-22.688,27.957-4.3,56.055-9.564,84.155-11.683,20-1.507,46.275-2.8,63.8,13.242,34.2,31.294-3.9,102.9-19.661,133.191-48.273,92.872-109.339,173.3-166.6,255.528-28.1,40.377-56.624,80.683-82.13,124.3C1320.094,1006.355,1294.307,1041.716,1305.586,1065.835Z" transform="translate(2128.156 2071.121) rotate(180)" fill="none" stroke="#5acef2" stroke-width="5"/>
      <path id="Shape-3" data-name="Shape" d="M1239.81,959.086c49.835,78.141,114.539,137.057,173.9,202.32,29.8,32.767,48.882,78.737,74.581,117.762,13.368,20.294,30.055,45.96,32.635,74.25,6.883,75.68-96.47,65.446-127.4,68.32-59.808,5.574-127.373,9.8-181.632,48.423-33.151,23.61-49.476,62.359-43.28,113.292,2.747,22.6,7.024,41.8,0,63.983-7.117,22.475-21.944,38.34-36.959,50.231-43.147,34.2-96.766,45.131-145.345,53.277a853.844,853.844,0,0,1-171.784,11.083c-50.256-1.819-100.27,18.637-149.34,32.121-65,17.852-131.189,33.444-197.708,31.088-52.535-1.873-105.484-16.582-150.392-55.676-45.637-39.815-73.075-99.408-97.812-163.713-37.4-97.219-84-227.482-166.04-264.4-11.932-5.38-23.052-5.972-35.359-6.909-5.978-.452-13.7-.592-16.661-9.19-7.136-20.706,19.233-60.844,26.592-74.826,23.489-44.663,48.95-87.308,73.027-131.374,22.474-41.138,46.956-84.01,60.92-132.218,22.218-76.778-48.812-121.671-46.817-194.83,1.24-45.421,32.775-77.993,57.748-100.528,30.749-27.709,75.023-45.927,90.406-96.491,11.464-37.663-6.524-59.586-20.375-88.162-23.473-48.424-25.073-114.064-22.63-170.116,3.293-75.745,16.162-152.609,38.066-222.23C268.068,83,280.225,50.178,298.123,25.66,314.9,2.686,330.77-3.2,353.182,1.5c68.61,14.42,137.884,54.611,203.682,90.509,82.665,45.109,164.191,94.91,243.282,150.942,53.932,38.212,109.081,78.639,156.418,131.431,12.338,13.763,24.969,28.72,33.994,46.874,6.82,13.645,9.71,24.911,21.211,32.7,34.071,23.082,81.464,17.045,117.969,14.646,58.377-3.82,116.463-13.99,174.476-23.147,33.853-5.38,97.625-22.307,124.658,18.294,23.333,35.059-4.823,94.834-19.205,125.718-36.381,78.1-83.18,146.648-126.6,217.227-19.9,32.346-25.6,51.839-42.042,87.8-1.961,4.281-4.473,9.213-6.835,14.677-2.431,5.618-4.629,11.842-5.245,17.778C1227.643,939.713,1233.691,949.45,1239.81,959.086Z" transform="translate(2072.654 1957.445) rotate(180)" fill="none" stroke="#5be7c3" stroke-width="5"/>
      <path id="Shape-4" data-name="Shape" d="M1144.256,859.911c46.049,69.095,101.527,125.858,150.963,190.518,22.166,28.99,44.55,59.4,61.44,94.768,9.085,19.018,18.727,42.958,16.226,66.6-7.188,67.846-92.192,61.717-126.534,65.691-51.027,5.833-109.65,11.713-154.773,48.3-29.557,23.961-40.641,59.348-35.122,104.987,5.924,48.956-7.321,84.494-37.464,111.8-37.791,34.214-85.5,48.159-129.374,58.066a650.18,650.18,0,0,1-159.952,15.727c-52.082-1.379-102.542,10.661-154.279,18.49-68.6,10.37-139.4,15.486-207.221-5.772-59.052-18.512-112.39-59.3-152.376-122.39-41.764-65.842-62.44-148.8-96.351-221.637-21.154-45.434-50.647-105.536-90.166-123.2C16.1,1155.973-7.932,1163.92,2.6,1134.946c6.018-16.573,17.281-31.111,26.178-44.659C43.152,1068.392,58,1047.1,72.623,1025.51c31.157-46.027,64.523-93.038,87.876-147.535,29.424-68.62-14.314-121.432-8.983-191.01,2.864-37.444,21.732-67.328,41.7-90.8,12.917-15.206,27.05-28.376,41.483-40.663,15.065-12.841,32.9-22.622,46.042-39.217,18.727-23.616,10.6-51.573,7.087-82.1a908.45,908.45,0,0,1-4.046-162.268c4.277-66.326,14.306-134.548,35.434-194.822,8.219-23.466,18.631-48.348,34.092-64.076s31.454-14.656,49.17-9.918c52.55,14,104.992,46.576,154.842,77.451,62.392,38.65,123.559,81.844,181.972,130.984,40.32,33.922,80.774,70.57,114.506,116.558,9.811,13.386,19.145,27.719,26.693,43.722,5.182,10.976,7.961,25.134,15.469,33.384,23.493,25.749,70.658,18.06,98.209,16.563,54.986-2.983,109.105-17.166,164.021-20.612,29.971-1.884,76.909-6.622,98.92,28.582,20.7,33.094,1.951,85.216-10.42,117.1-24.312,62.7-56.976,118.556-86.252,176.838-12.035,23.983-25.226,49.075-33.023,76.461C1120.49,824.532,1132.456,842.2,1144.256,859.911Z" transform="translate(1996.357 1863.361) rotate(180)" fill="none" stroke="#5acef2" stroke-width="5"/>
      <path id="Shape-5" data-name="Shape" d="M1065.891,739.868c36.654,60.8,80.84,114.773,117.759,176.564,21.61,36.185,58.825,97.019,42.113,148.034-18.335,56.058-82.244,57.585-119.186,62.1-43.969,5.377-95.6,12.722-133.231,47.725-11.9,11.065-22.039,25.712-26.337,45-4.6,20.646.429,38.712,1.084,59.382,1.372,43.358-17.39,78.167-42.222,102.074-35.094,33.8-78.977,49.778-120.427,60.919a538.887,538.887,0,0,1-142.531,18.5c-45.715-.216-90.947,1.182-136.71,2.8-59.847,2.151-120.535-1.322-178.588-23.249-57.187-21.614-109.18-62.123-150.022-121.709-39.843-58.148-66.725-129.215-90.269-201.608-13.36-41.089-35.929-102.493-67.793-123.247-14.177-9.241-28.084-8.606-13.015-32.63C25.49,930.271,51.062,906,73.039,880.127c31.7-37.337,64.2-75.4,90.807-119.8,16.993-28.346,24.566-55.854,23.4-92.557-.905-27.964-5.007-55.628-2.933-83.7,4.855-65.876,42.472-111.052,75.724-153.12,21.391-27.057,40.927-47.695,51.939-86.18,13.023-45.488,18.5-94.975,27.194-142.2,9.561-51.865,20.6-105.816,41.473-151.5,18.578-40.67,41.176-58.908,74.984-47.944C508.366,20.211,560.355,62.278,607.172,101.2c47.657,39.593,94.5,84.114,133.989,138.538,21.322,29.389,35.873,63.9,54.809,95.471,23.813,39.638,77.7,24.626,109.719,21.271,53.155-5.571,220.412-47.252,204.979,87.749-6.442,56.349-31.81,108.353-50.363,158.078-7.689,20.635-18.818,45.4-20.557,69.049C1037.854,697.1,1054.871,721.561,1065.891,739.868Z" transform="translate(1929.317 1744.449) rotate(180)" fill="none" stroke="#ff8062" stroke-width="5"/>
      <path id="Shape-6" data-name="Shape" d="M992.206,632.784c28.01,55.1,61.531,107.15,85.565,166.66,15.592,38.54,30.9,90.032,10.789,130.81-22.7,46.017-72.757,56.744-109.537,62.608-37.9,6.036-83.133,11.115-114.106,46.007-9.853,11.114-17.977,26.1-19.49,44.048-1.458,17.215,2.659,34.429,1.295,51.956a155.386,155.386,0,0,1-42.655,95.3c-65.975,69.58-164.169,85.051-243.771,86.87-39.844.9-80.849-3.842-120.95-7.24-52.036-4.411-104.153-13.88-153.778-36.7C180.052,1224.6,109.33,1117.034,59.936,983.179,44.389,941.046,32.5,895.46,8.134,861.6c-12.558-17.484-9.814-30.04,3.025-45.984C31.232,790.7,55.719,771.654,78,750.857c31.69-29.577,64.057-59.6,92.082-95.025,19.317-24.424,33.031-47.956,37.193-84.578,2.97-26.112,2.276-52.72,4.062-78.994,3.4-49.916,15.038-99.447,35.642-140.849,16.371-32.815,35.861-62.64,56-91.077A701.726,701.726,0,0,0,371.2,141.756C397.568,83.591,434.613-23.7,496.713,4.694c68.492,31.331,132.69,110.939,176.632,188.07,14.757,25.9,26.872,57.658,46.774,76.756,29.8,28.544,60.027,27.544,95.466,27.425,53.059-.162,168.512-16.053,169.759,93.6.491,43.445-13.135,84.524-19.661,126.313C958.327,563.667,973.076,595.235,992.206,632.784Z" transform="translate(1874.985 1642.528) rotate(180)" fill="none" stroke="#f1b170" stroke-width="5"/>
      <path id="Shape-7" data-name="Shape" d="M927.418,549.475c27.705,71.81,89.837,189.81,42.58,269.662-24.96,42.207-69.107,58.06-106.142,67.51-29.8,7.644-65.746,10.515-88.264,42.92-16.551,23.825-9.2,58.5-15.545,88.326a182.653,182.653,0,0,1-48.133,89.969C649.879,1171.416,563.627,1190.92,489,1195.07c-77.5,4.3-162.895-15.811-235.825-54.511-90.933-48.265-159.058-139.654-206.7-255.391C37.693,863.805,29.7,841.883,21.261,820.26c-5.67-14.5-14.079-28.535-18.549-43.792-7.441-25.439,1.326-46.233,15.381-62.811C38.312,689.79,63.147,672.8,86.2,654.889c31.52-24.514,63.741-48.587,93.061-77.348,19.7-19.354,40.326-40.2,47.377-73.778,4.812-22.9,5.811-47.156,5.639-70.874-.375-50.856,1.561-91.98,18.767-138.557,28.314-76.466,71.854-145.224,117.85-202.432C404.989,47,462.108-22.746,514.7,7.273c47.19,26.879,74.791,91.217,105.887,143.233,15.117,25.287,32.1,48.382,52.049,66.37,25.155,22.675,48.836,32.191,78.64,35.9,50.162,6.247,125.8,7.87,141.3,90.874,5.726,30.632,2.456,62.36,5.46,93.389C901.967,478.073,913.44,513.252,927.418,549.475Z" transform="translate(1831.059 1564.131) rotate(180)" fill="none" stroke="#5be7c3" stroke-width="5"/>
      <path id="Shape-8" data-name="Shape" d="M858.151,490.62c19.729,78.575,45.647,177.6-2,247.434C833.066,771.884,800.6,790.8,769.185,804.93c-22.5,10.128-58.236,13.11-72.033,44.249-10.133,22.916-11.537,54.529-20.7,79.081-12.065,32.137-30.576,60.662-54.072,83.321-58.321,56.711-134.284,78.628-203.556,84.9C268.3,1110.1,115.147,1001.656,34.6,823.238,10.585,770.055-20.415,713.448,18.4,659.115,60.769,599.841,124.6,572.07,175.174,529.951c19.323-16.08,43.948-35.412,54.728-64.528,6.485-17.5,6.93-39.463,7.226-58.726.779-49.071,3.734-93.2,18.033-138.991,22.091-70.761,57.317-136.041,97.233-189.516,34.812-46.629,84.458-101.425,135.017-67.81,38.764,25.832,63.347,80.663,93.468,121.081,33.523,45.013,74.972,75.346,120.494,90.163C745.658,236,794.228,245.7,817.566,306.8c8.005,20.957,16.37,48.087,19.371,71.287a941.883,941.883,0,0,0,21.21,112.534Z" transform="translate(1790.601 1507.935) rotate(180)" fill="none" stroke="#ff8062" stroke-width="5"/>
      <path id="Shape-9" data-name="Shape" d="M789.035,407.747c9.132,79.343,10.141,162.077-32.264,224.611-19.791,29.174-44.809,49.9-70.107,68.679-18.611,13.817-37.835,25.472-51.737,48.125-12.88,20.974-22.67,45.327-35.1,66.85A298.06,298.06,0,0,1,541.7,889.136c-55.387,49.814-122.764,73.113-187.223,81.195-31.2,3.928-65.052,5.973-96.046-4.736-29.933-10.331-59.532-26.667-87.052-45.714C112.869,879.428,62.163,820.187,25.4,745.288.2,693.913-13.43,643.959,19.21,591.841c36.8-58.747,94.494-91.16,142.048-129.287,32.616-26.15,69.171-51.783,75.264-107.355,4.855-44.219,8.791-86.188,21.344-127.985,18.681-61.652,46.148-117.5,80.771-164.23,31.664-42.573,71.722-78.7,117.014-55.96C491.536,25.071,519.378,65.5,550.73,94.407c34.94,32.284,73.329,50.083,113.755,64.4,36.329,12.914,70.536,32.758,94.017,74.889A219.621,219.621,0,0,1,772.061,261.3c4.728,12.283,4.36,24.471,5.289,38.246C779.767,335.9,784.9,371.836,789.035,407.747Z" transform="translate(1753.607 1425.616) rotate(180)" fill="none" stroke="#f1b170" stroke-width="5"/>
      <path id="Shape-10" data-name="Shape" d="M717.782,314.916c-.78,75.364-13.918,146.59-49.9,205.323-15.384,25.125-33.754,45.82-50.682,68.844-13.63,18.555-26.511,35.8-42.184,51.1-37.177,36.217-67.393,83.082-106.9,115.333-52.741,43.115-113.156,66.946-173.1,76.475-29.271,4.656-59.509,6.284-89.125,1.024-25.431-4.516-49.793-20.372-72.39-36.588C89.207,764.651,46.2,719.488,17.448,662.35c-63.4-125.967,61.6-217.558,125.756-271.191,29.505-24.672,74.589-53.247,86.676-102.118,8.64-34.913,13.9-70.417,25.029-104.252C284.8,93.926,345.467-12.945,426.323,1.283c34.591,6.079,66.122,30.773,98.421,47.351C558,65.707,592.32,75.224,626.884,85.669c32.3,9.755,58.052,23.637,78.917,60.856,9.973,17.771,9.092,39.051,9.981,60.856C717.237,243.2,718.134,279.222,717.782,314.916Z" transform="translate(1717.773 1326.305) rotate(180)" fill="none" stroke="#5be7c3" stroke-width="5"/>
      <path id="Shape-11" data-name="Shape" d="M647.384,231.8C634.4,345.554,586.154,469.743,515.217,535.807,431.783,613.519,341.389,678.964,241.7,697.772c-46.219,8.724-96.85,13.015-140.461-15.511-33.191-21.7-71.745-54.128-90.012-99.732-44.69-111.551,54.712-200.353,111.345-251.961,30.49-27.783,69.3-54.856,92.282-95.428,13.333-23.521,20.139-54.641,30.9-80.476C278.378,76.372,332.077,13.224,398.966,1.93,429.893-3.286,461.041,3.168,491.74,8.3c31.419,5.249,63.232,8.1,94.453,15.419,24.925,5.851,54.3,15.758,63.479,52.554C661.247,122.645,652.685,185.343,647.384,231.8Z" transform="translate(1679.627 1233.528) rotate(180)" fill="none" stroke="#5acef2" stroke-width="5"/>
      <path id="Shape-12" data-name="Shape" d="M579.919,191.271c-18.944,106.95-59.059,211.274-126.5,275.121-35.761,33.855-77.274,57.226-117.132,80.317-45.179,26.169-92.385,46.484-140.589,56.56C135.674,615.82,38.454,627.133,7.092,532.779-24.036,439.123,54.624,356.234,101.139,309c29.824-30.261,61.739-58.033,90.233-91.114,15.451-17.935,27.353-38.658,40.428-59.692C267.936,99.911,319.453,53.77,371.963,29.14,422.85,5.262,485.809-5.309,539.53,2.582c23.18,3.4,39.748,14.834,46.758,47.366C596,95.172,587.749,147.091,579.919,191.271Z" transform="translate(1643.787 1174.727) rotate(180)" fill="none" stroke="#f1b170" stroke-width="5"/>
      <path id="Shape-13" data-name="Shape" d="M506.885,171.727C488.066,265.893,447.48,351.9,388.266,408.416c-66.37,63.356-151.831,98.561-230.385,116.463-41.753,9.509-132.233,35.29-153.513-38.5s40.245-146.5,75.655-186.53c42.977-48.509,89.312-95.345,135.6-138.868,40.2-37.842,83.111-76.531,126.668-105.754a394.777,394.777,0,0,1,76.461-40.447C438.228,7.2,463-4.125,483.426,1.525,534.939,15.793,515.885,126.7,506.885,171.727Z" transform="translate(1602.179 1126.379) rotate(180)" fill="none" stroke="#ff8062" stroke-width="5"/>
      <path id="Shape-14" data-name="Shape" d="M428.79,148.965C387.5,327.043,256.675,414.618,130.713,445.152c-29.27,7.086-111.32,32.635-127.684-21.763C-12.829,370.645,37.6,308.1,61.2,278.46c73.149-91.828,163.519-159.915,249.158-227.367,26.731-21.055,74.94-66.744,108.1-45.668C454.46,28.356,437.344,112.039,428.79,148.965Z" transform="translate(1562.875 1075.418) rotate(180)" fill="none" stroke="#5acef2" stroke-width="5"/>
      <path id="Shape-15" data-name="Shape" d="M341.411,117.9C305.5,249.039,201.057,324.253,105.031,349.054c-23.519,6.067-83.254,24.958-101.068-11.639-16.485-33.853,22.856-82.905,37.569-102.4,32.767-43.4,71.6-79.162,109.963-113.532,35.471-31.8,71.323-64.393,108.65-91.285C279.8,16.044,316.672-14.162,339.013,7.7,363.07,31.205,349.383,88.778,341.411,117.9Z" transform="translate(1517.791 1010.075) rotate(180)" fill="none" stroke="#5acef2" stroke-width="5"/>
      <path id="Shape-16" data-name="Shape" d="M239.317,81.736c-27.37,85.64-100.672,141.252-165.334,159.733-17.4,4.965-55,17.834-69.682-5.037-13.512-21.063,8.265-51.942,17.93-66.2C65.069,107.019,127.8,50.556,185.274,15.878c14.45-8.718,40.428-25.831,55.294-8.232C255.817,25.715,245.6,62.068,239.317,81.736Z" transform="translate(1462.304 935.599) rotate(180)" fill="none" stroke="#5be7c3" stroke-width="5"/>
      <path id="Shape-17" data-name="Shape" d="M127.45,40.615c-15.422,42.525-55.731,74.609-89.12,84.829-23.5,7.187-51.744.977-31.266-36.039C27.41,52.66,65.158,19.113,97.152,4.239,121.561-7.1,140.694,4.086,127.45,40.615Z" transform="translate(1399.881 858.504) rotate(180)" fill="none" stroke="#f1b170" stroke-width="5"/>
      <path id="Shape-18" data-name="Shape" d="M745.771,536.635c.99,84.021,33.35,171.331,17.368,256.938-13.124,70.309-79.193,76.181-118.834,108.032-31.5,25.307-49.371,70.136-66.4,113.149-15.3,38.616-29.051,78.393-45.173,116.375-10.436,24.554-28.358,72.771-50.991,73.641-21.667.839-41.536-36.734-54.123-58.946-16.415-28.951-30.959-59.816-46.894-89.23-26.854-49.614-59.07-86.338-95.97-121.094q-62.977-59.325-128.034-114.59C124.783,793.7,92.632,766.7,61.938,736.8,42.689,718.036.2,682.843,0,648.258c-.094-16.5,11.238-34.778,18.879-47.969,12.928-22.329,27.665-42.744,42.447-62.722,27.532-37.207,56.232-72.727,84.617-108.678,36.852-46.653,72.048-92.542,104.44-145.516,33.491-54.828,65.486-111.462,98.135-167.321,22.111-37.842,44.2-80.339,76.093-103.56,39.947-29.026,72.736,1.58,113.135,1.935,34.752.312,32.189,111.429,36.606,142.327,4.432,31.273,14.2,60.386,17.983,91.731,4.72,39.132,4.782,79.167,5.943,118.718,1.409,48.377,1.965,94.433,39.441,112.881,21.325,10.482,44.389,12.686,66.468,18.964C718.487,503.126,745.46,510.092,745.771,536.635Z" transform="translate(767.565 1649.063) rotate(180)" fill="none" stroke="#ff8062" stroke-width="5"/>
      <path id="Shape-19" data-name="Shape" d="M690.539,470.564c3.642,70.431,25.163,160.566,4.812,233.263C677.965,765.951,623.589,774,586.975,806.638c-30.226,26.918-43.682,70.965-58.79,114.236-12.121,34.713-23.877,69.759-37.636,103.361-10.14,24.763-25.624,66.572-46.708,71.7-18.958,4.609-39.282-32.3-49.922-51.078-15.522-27.412-28.8-57.183-42.512-86.328-24.094-51.2-48.772-97.235-84.029-134.843-35.421-37.764-74.173-66.011-113.338-95.405-30.639-23-61.123-46.664-90.234-73.215C42.118,635.3,10.94,609.994,1.019,574.743-6.842,546.857,33,500.581,44.747,484.249c24.181-33.582,49.805-65.107,75.476-96.435,31.294-38.179,63.588-71.567,91.225-115.121C260.878,194.83,302.2,97.861,365.8,39.985c38.361-34.9,81.052-43.828,123.72-38.607,16.9,2.067,20.952,34.982,23.081,54.179,3.542,31.891,3.986,64.332,6.7,96.353,2.551,29.975,8.213,58.453,12.777,87.846,4.618,29.781,5.913,60.294,9.314,90.279,2.106,18.615,4.189,40.279,13.4,55.245,9.532,15.494,25.257,21.985,39,26.918C619.612,421.37,687.966,420.864,690.539,470.564Z" transform="translate(729.419 1568.046) rotate(180)" fill="none" stroke="#5be7c3" stroke-width="5"/>
      <path id="Shape-20" data-name="Shape" d="M610.744,385.055c6.127,64.645,14.7,145.162-10.255,204.722-20.4,48.7-63.908,59.2-94.985,90.936-25.847,26.388-35.611,68.355-48.435,107.355-10.527,31.99-21.11,64.119-33.87,94.56-9.677,23.086-22.148,54.388-41.362,62.441-16.427,6.881-34.987-23.947-44.093-39.29-15.507-26.151-28.15-55.451-40.706-84.366C276.5,774.1,257.6,723.563,228.361,685.079c-28.407-37.344-62.152-59.387-96.529-84.173-26.331-18.989-52.5-38.71-77.308-61.355-19.05-17.379-42.655-37.968-52.584-66.883-8.584-24.936,13.454-54.452,24.466-72.044,18.183-29.032,38.366-55.666,58.261-82.409,21.477-28.849,45.264-55.463,66.046-85.022,43.7-62.2,78.619-131.076,132.484-178.733C318.079,23.591,365.022-4.452,406.259.591c29.655,3.634,27.705,94.194,30.553,123.13,4.683,47.312,13.727,97.022,28.09,140.6,12.339,37.344,41.659,48.86,68.63,57.234,16.9,5.258,34.6,8.1,50.946,16.225C603.4,347.205,608.176,357.958,610.744,385.055Z" transform="translate(671.612 1453.056) rotate(180)" fill="none" stroke="#5acef2" stroke-width="5"/>
      <path id="Shape-21" data-name="Shape" d="M519.726,293.832c3.647,54.654,2.828,119.284-20.8,166.562-20.707,41.411-57.573,52.314-83.794,84.936-20.461,25.451-28.5,66.949-39.506,100.606-13.45,41.152-32.3,117.159-66.228,132.646-31.558,14.4-64.571-77.571-76-105-18.09-43.406-33.219-91.008-55.159-131.093-18.894-34.51-44.209-53.587-71.078-74.09C72.9,442.221,20.89,411.171,2.573,360.141c-13.653-38.025,30.749-94.556,45.9-120.9,15.856-27.522,27.8-60.144,44.158-86.695,25.822-41.9,67.665-75.63,102.212-101.372C228.439,26.134,272.054-1.58,310.155.07c25.042,1.078,29.806,54.439,35.148,80.5,7.655,37.054,17.832,70.259,39.695,95.462,22.252,25.656,48.481,37.744,76.054,48.325,14.153,5.391,30.3,9.6,42.959,20.49C518,256.7,518.321,272.824,519.726,293.832Z" transform="translate(601.106 1331.532) rotate(180)" fill="none" stroke="#f1b170" stroke-width="5"/>
      <path id="Shape-22" data-name="Shape" d="M426.529,216.879c-.2,47.218-8.027,97.568-31.227,133.99-19.323,30.338-49.57,40.478-68.068,71.491-14.652,24.553-22.11,59.021-31.92,87.535-12,34.941-28.962,95.98-58.8,108.107-29.118,11.8-54.872-55.427-66.036-82.03C154.133,496.964,140.9,455.616,124.4,416.715c-12.924-30.519-28.728-50.191-49.773-69.86-24.7-23.1-59.17-48.7-72.364-86.923-9.514-27.676,13.516-71.9,21.877-96.281,5.605-16.376,10.737-33.009,13.555-50.759,2.2-13.822,2.414-26.614,8.774-38.483C62.48,44.559,97.593,40.661,121.416,30.82c31.64-13.059,65.212-27.9,98.323-30.734,20.351-1.771,30.737,24.1,42.352,42.3,13.726,21.516,33.158,36.99,50.131,53.227,22.4,21.463,46.775,34.812,71.993,48.479,11.375,6.17,24.738,12.223,33.547,24.489C426.965,181.3,426.6,199.837,426.529,216.879Z" transform="translate(532.899 1223.075) rotate(180)" fill="none" stroke="#ff8062" stroke-width="5"/>
      <path id="Shape-23" data-name="Shape" d="M347.108,180.881c-4.022,39.656-16.554,77.558-37.721,105.592-16.226,21.523-37.775,33.641-50.8,59.5C246.453,370.08,238,397.49,227.978,423.263c-10.607,27.249-26.365,72.791-50.828,80.206-26.365,7.985-46.675-37.956-57.921-63.418-14.207-32.178-25-66.8-37.7-100.082a293.9,293.9,0,0,0-36.213-67.312c-15.143-20.888-35.678-40.9-43.34-69.616-6.773-25.44,5.9-56.218,8.137-82.014,2.393-27.56-1.8-56.509,11.464-80.173,27.351-48.8,96-39.754,135.251-40.8,38.725-1.077,69.86,28.787,101.2,57.2,20.7,18.758,42.255,34.641,63.478,52.118C343.132,127.2,350.645,145.981,347.108,180.881Z" transform="translate(479.725 1159.047) rotate(180)" fill="none" stroke="#5acef2" stroke-width="5"/>
      <path id="Shape-24" data-name="Shape" d="M290.356,174.837c-11.893,57.451-49.035,87.986-75.587,131.4-21.725,35.542-38.015,109.149-74.6,118.887-41.541,11.051-66.408-86.478-80.851-124.11C43.289,259.279,14.748,225.329,2.88,181.148-3.362,157.96,2,136.32,5.32,113.142,8.961,87.68,11.7,61.664,24.269,41.178,49.013.863,97.333,1.144,132.14.035c36.027-1.153,67.9,26.474,96.6,54.047C259.187,83.281,302.536,115.916,290.356,174.837Z" transform="translate(447.361 1130.299) rotate(180)" fill="none" stroke="#5acef2" stroke-width="5"/>
      <path id="Shape-25" data-name="Shape" d="M242.7,164.275c-13.4,40.931-41.559,74.208-64.41,105.621-19.074,26.189-39.589,78.908-68.665,82.666-34.177,4.43-54.89-51.862-68.338-86.386C28.047,232.263,8.976,196.449,1.647,159.222-5.995,120.443,14.357,68.21,33.766,40.769c21.648-30.6,57.065-41.9,87.455-40.68,31.819,1.241,61.016,26.526,85.114,52.762C232.1,80.891,258.279,116.759,242.7,164.275Z" transform="translate(419.618 1104.164) rotate(180)" fill="none" stroke="#ff8062" stroke-width="5"/>
      <path id="Shape-26" data-name="Shape" d="M195.311,148.462c-12.8,34.044-34.988,62.843-55.446,88.532C124.076,256.826,100.78,290.549,78,291.375c-25.058.915-46.294-27.394-56.255-56.408-9.819-28.617-20.166-64.5-21.634-95.891C-3.082,70.709,61.909-5.88,110.711.357,156.979,6.273,220.832,80.624,195.311,148.462Z" transform="translate(390.716 1080.645) rotate(180)" fill="none" stroke="#5acef2" stroke-width="5"/>
      <path id="Shape-27" data-name="Shape" d="M152.789,128.694c-17.659,44.357-60.551,107.594-100.26,109.1C6.95,239.506-4.493,169.136,1.448,118.138,7.484,66.091,60.034-9.246,101.936.933,142.833,10.867,173.717,76.088,152.789,128.694Z" transform="translate(365.287 1057.124) rotate(180)" fill="none" stroke="#5be7c3" stroke-width="5"/>
      <path id="Shape-28" data-name="Shape" d="M115.092,104.505c-14.95,37.139-46.854,83.529-80.13,84.936-39.65,1.661-38.9-57.756-29.91-94.73C14.4,56.319,55.578-9.259,90.294,1.094,124.052,11.2,129.419,68.909,115.092,104.505Z" transform="translate(345.636 1025.763) rotate(180)" fill="none" stroke="#ff8062" stroke-width="5"/>
      <path id="Shape-29" data-name="Shape" d="M79.721,74.8c-9.869,26.5-34.564,59.995-58.047,61.066-28.7,1.288-23.119-45.835-15.705-68.579C14.783,40.229,44.326-6.8,69.118.824,93.528,8.326,87.863,52.97,79.721,74.8Z" transform="translate(325.984 991.788) rotate(180)" fill="none" stroke="#5acef2" stroke-width="5"/>
      <path id="Shape-30" data-name="Shape" d="M343.4,367.829c63.523-53.169,135.333-97.057,203.051-141.667C645.41,160.986,745.828,97.552,849.81,49,905.559,22.972,977.8-14.55,1037.617,5.84c21.871,7.448,41.816,29.994,61.425,44.641,27.04,20.2,54.479,39.393,81.869,58.632,54.946,38.565,110.063,76.743,164.066,117.781,26,19.767,51.235,44.662,78.305,61.525,15.821,9.862,34.752,5.248,51.656,4.624,39.157-1.452,78.291-4.2,117.423-6.549,47.866-2.86,95.842-5.9,143.762-4.775,21.617.523,74.547-4.775,86.446,20.907,6.4,13.83-8.686,38.769-15.68,50.308-12.842,21.208-27.6,40.317-42.166,59.234-33.683,43.749-69.457,85.41-99.4,134.279-15.384,25.121-35.539,55.815-25.5,90.111,10.137,34.639,27.695,64.634,38.408,99.154,12.335,39.724,17.455,81.065,23.274,123.19,4.312,31.134,14.355,58.718,23.8,87.419,10.433,31.726,21.239,63.719,28.483,97.176,4.787,22.1,12.515,61.858-4.234,75.85-23.8,19.9-68.42,3.79-95.546-2.075-37.488-8.087-74.7-18.389-112.091-27.262-27.141-6.453-54.377-13.528-81.971-14.282-44.482-1.215-89.113,2.99-133.478,6.9-82.15,7.248-163.711,17.077-246.138,17.077-72.215,0-239.1-115.252-278.16-135.547-77.97-40.508-158.015-78.915-231.8-132.815-19.96-14.593-50.681-34.037-61.183-64.074-6.479-18.508-3.5-29.209-18.783-41.135-20.849-16.271-47.562-22.66-70.641-29.941C382.6,684.476,345.143,674.55,307.8,663.936,232.283,642.525,157.274,618.306,82.069,595c-22.736-7.044-50.244-8.6-71.92-21.014-13.972-7.971-12.523-18-1.707-30.112C27.413,522.625,54,510.828,76.413,498.709c32.83-17.756,66.2-33.6,99.592-49.212s66.946-30.747,100.349-46.388C298.409,392.8,323.57,384.423,343.4,367.829Z" transform="translate(1939.715 2798.964) rotate(180)" fill="none" stroke="#ff8062" stroke-width="5"/>
      <path id="Shape-31" data-name="Shape" d="M250.035,301.122c67.194-53.277,141.781-95.72,213.686-137.13,92.025-53.03,186.132-102.732,283.1-135.881,56.927-19.45,124.1-40.925,182.269-18.621,20.752,7.959,36.256,25.847,54.045,41.636,20.277,18.018,41.333,34.527,62.39,50.779q65.017,50.178,131.408,96.926c23.443,16.574,49.244,38.771,75.734,44.522,21.057,4.573,44.975-2.046,66.122-3.974,38.089-3.468,76.17-7.043,114.275-10.08,43.97-3.5,88.063-6.731,132.128-6.172,24.559.312,66.718-4.847,84.087,17.049,15.152,19.105-40.015,88.2-49.717,101.331-30.3,40.989-62.163,80.019-90.365,123.851-16.666,25.847-36.959,57.283-43.985,91.543-5.981,29.2,5.56,62.461,12.377,89.453,8.524,33.806,15.4,68.85,25.307,101.945,8.82,29.487,22.858,55.755,35.188,82.56,13.562,29.487,27.3,59.455,37.363,91.628,6.168,19.794,16.378,52.944,4.118,71.811-14.163,21.754-57.819,7.538-75.765,4.443-36.405-6.375-72.528-15.853-108.683-24.34-60.05-14.086-117.3-26.407-178.451-23.457-79.633,3.856-159.187,12.923-238.8,17.942-29.4,1.874-59.27,5.644-88.7,3.608-16.869-1.176-29.708-8.282-39.524-24.318-13.4-21.884-44.258-34-65.72-46.557-33.464-19.568-67.35-37.764-101.147-56.207-74.182-40.494-149.791-79.524-220.143-131.9-22.257-16.564-47.742-35.034-64.207-62.4-9.186-15.261-6.871-29.962-12.478-46.18C378.516,583.6,354.107,573.97,339.515,567c-28.162-13.484-57.477-22.52-86.566-30.985C187.128,516.864,121.15,504.274,54.26,495c-15.675-2.153-77.4-9.617-44.983-45.588C45.108,409.653,96.83,390.183,139,367.776,176.985,347.637,215,328.9,250.035,301.122Z" transform="translate(1794.078 2720.562) rotate(180)" fill="none" stroke="#5be7c3" stroke-width="5"/>
      <path id="Shape-32" data-name="Shape" d="M176.422,226.038c63.16-46.872,133.127-81.839,201.151-115.291C460.117,70.156,544.726,33.973,631.308,13.7,685.688.984,745.647-8.792,799.665,12.35c36.888,14.43,65.428,53.444,97.823,80.28s66.111,52.033,100.83,73.033c21.547,13.032,44.727,26.162,68.7,24.435,58.3-4.172,116.522-14.112,174.88-18.947,38.609-3.226,77.291-5.88,116.013-5.086,23.35.473,55.431-1.462,76.1,15.484,22.851,18.742-98.823,178.764-110.322,196.776-28.832,45.161-63.745,105.1-58.171,169.324,5.332,61.4,28.437,107.238,54.579,155.345,14.833,27.366,62.4,100.474,44.774,136.065-10.071,20.344-43.267,13.3-59.038,11.914-31.081-2.731-61.989-8.6-92.905-13.7-45.083-7.387-91.4-18.8-136.672-22.14-31.526-2.322-63.237.784-94.817.849-45.282.086-90.562-.392-135.844-.946-38.021-.473-76.361,0-114.249-5.032-23.554-3.1-41.432-10.054-58.327-29.709-14.7-17.1-36.876-27.108-55.618-37.979-30.948-17.946-62.3-34.581-93.553-51.484-65.428-35.4-131.613-70.054-194.241-114.291-28.589-20.183-76.658-48.441-83.364-97.377-2.421-17.641-4.2-25.269-16.691-35.3-17.73-14.243-38.965-20.656-58.857-26.237C124.326,404.617,76.6,406.562,30.312,393.7c-18.854-5.3-43.465-16.742-21.946-42.936,25.116-30.634,61.677-47.474,91.764-66.4,15.021-9.441,30.495-18.28,44.758-29.807C155.842,245.684,165.218,234.293,176.422,226.038Z" transform="translate(1627.603 2635.626) rotate(180)" fill="none" stroke="#5acef2" stroke-width="5"/>
      <path id="Shape-33" data-name="Shape" d="M122.649,155.738C181,117.669,244.373,89.99,306.607,65.037c69.127-27.679,139.916-50.6,211.644-60.359,49.529-6.758,102.3-8.755,150.37,11.932,30.4,13.085,51.01,40.6,77.168,63.678,39.481,34.879,82.2,62.515,129.627,55.79q79.762-11.285,160.051-16.932c32.286-2.274,64.7-3.978,97.022-2.393,20.438.992,46.768,2.662,64.548,15.435,23.79,17.1-65.57,147.266-76.709,166.235-27.628,47.042-47.876,96.413-59.708,154.7-9.65,47.564,10.063,84.956,30.4,120.536,12.643,22.1,53.5,77.669,40.7,106.366-7.016,15.823-30.135,15-42.551,15.811-23.665,1.53-47.432-.064-71.092-.766-34.944-1.078-72.141,6.327-106.789.366-76.787-13.2-153.378-24.618-230.641-33.661-42.591-4.98-85.439-9.506-127.648-19.111-15.154-3.45-30.805-7.1-45.163-14.907-9.237-5.013-14.273-13.548-22.067-20.555-37.166-33.349-85.681-50.508-127.538-71.882-55.647-28.412-111.591-56.382-165.756-89.946-28.49-17.655-68.282-37.94-87.886-73.973-5.924-10.886-3.4-19.6-7.124-30.061-4.287-12.071-17.312-15.671-25.723-19.035-19.09-7.642-98.994-19.2-62.172-64.029,17.571-21.352,39.956-35.051,59.764-51.833,7.167-6.079,14.163-12.19,20.142-20.392C99.475,172.3,109.327,164.458,122.649,155.738Z" transform="translate(1454.205 2550.691) rotate(180)" fill="none" stroke="#f1b170" stroke-width="5"/>
      <path id="Shape-34" data-name="Shape" d="M117.183,96.435C232.377,34.838,367.379-7.123,492.97,1.006c41.764,2.714,86.7,11.77,122.9,42.758,21.347,18.3,38.408,38.969,64.049,45.581,18.512,4.769,38.445-.646,57.066-2.606,26.971-2.842,53.957-5.384,80.968-7.44,33.485-2.509,67.08-4.443,100.627-3.413,23.971.744,57.074-.1,77.9,17.669,24.862,21.191-38.421,120.6-47.325,138.311-21.582,42.934-36.711,84.527-42.178,136.266-1.609,15.074-7.029,30.526-6.327,45.72.734,15.516,7.663,29.332,14.059,41.531,8.366,15.99,37.391,53.913,29.08,73.415-4.593,10.767-21.832,12.125-30.767,14.408-16.762,4.312-33.766,6.622-50.632,10.046-28.611,5.836-57.019,24.841-85.731,24.3-77.21-1.422-155.537-34.457-231.2-52.6-44.982-10.822-90.27-20.646-134.705-35.3-14.06-4.641-28.541-9.444-41.905-17.314-9.326-5.488-15.317-15.279-23.956-21.43C311.766,427.3,273.672,412.971,238.1,397.08c-46.178-20.673-92.511-40.724-138.37-62.732-28.744-13.794-65.7-25.929-90.473-51.513-18.09-18.686-5.726-24.271,3.815-41.671,4.874-8.873,3.749-17.616,5.865-27.662,3.028-14.348,11.576-24.673,19.589-33.96,11.052-12.824,25.778-23.39,34.813-39.108,3.187-5.535,3.038-12.4,5.616-17.229C86.455,109.157,106.352,102.223,117.183,96.435Z" transform="translate(1321.278 2474.901) rotate(180)" fill="none" stroke="#ff8062" stroke-width="5"/>
      <path id="Shape-35" data-name="Shape" d="M165.674,53.038C259.169,14.315,363.193-7.734,462.02,2.5,496.4,6.063,531,14.347,563.028,32.54c14.572,8.251,25.511,17.45,41.48,17.945,37.051,1.142,74.213-2.854,111.262-3.813,26.51-.69,53.152-.937,79.6,2,17.686,1.96,41.6,4.312,56.083,19.27C872.5,89.736,834.5,163.81,826.768,184.276c-12.819,33.94-25.535,71.673-20.451,110.939,1.559,12.01,4.32,22.62,4.678,34.867.347,10.524-.616,20.24,2.09,30.3,3.345,12.474,18.222,31.829,13.106,43.312-3.485,7.84-13.824,8.207-20.7,10.715a174.976,174.976,0,0,0-32.56,15.963c-11.072,6.937-20.5,17.654-31.967,23.39-18.619,9.285-39.46,10.157-59.031,10.114-78.086-.172-157.162-21.43-233.269-43.644-39.631-11.568-79.482-23.9-118-41.449-11.695-5.331-24.95-10.685-35.234-20.53-6.417-6.128-10.768-13.809-18.057-18.425C215.1,300.471,143.1,285.854,76.991,257.428c-17.208-7.4-112.572-44.787-62.71-79.956,30.286-21.37,62.3-31.087,89.935-60.32,8.421-8.886,14.035-16.244,17.325-29.8,2.167-9.027-3.048-4.443,4.233-13.884C134.61,62.129,154.784,57.552,165.674,53.038Z" transform="translate(1247.293 2409.565) rotate(180)" fill="none" stroke="#f1b170" stroke-width="5"/>
      <path id="Shape-36" data-name="Shape" d="M171.565,24.975c109.459-31.607,225.376-33.111,336.563-5.1,28.029,7.056,57.2,5.369,85.573,7.163,27.568,1.718,76.582-1.858,96.606,27.386,14.519,21.2-1.236,66.25-6.685,89.967-6.943,30.211-13.01,61.415-1.61,90.761,6.677,17.183,15.825,33.541,22.987,50.563,3.424,8.13,10.477,20.588,7.537,28.289-4.863,12.705-27.615,18.053-38.655,24.043-35.285,19.158-72.649,24.038-110.374,23.907-69.678-.247-139.716-13.392-208.067-31.22-31.442-8.2-63.33-16.958-93.658-31.22-17.162-8.065-29.824-23.628-46.208-32.853-52.767-29.728-109.459-45.612-163.133-72.794C36.906,186-21.124,159.794,8.109,128.9c28.3-29.911,69.589-26.355,99.014-54.49,3.33-3.222,7.451-7.077,9.382-12.283,1.141-3.114-.868-9.042,0-10.814C125.54,32.041,157.676,28.981,171.565,24.975Z" transform="translate(1155.973 2358.604) rotate(180)" fill="none" stroke="#5acef2" stroke-width="5"/>
      <path id="Shape-37" data-name="Shape" d="M137.287,14.5C193.442,3.877,250.833,1.242,307.934.573c31.211-.367,65.5-3.11,96.044,7.8,18.76,6.716,36.875,12.59,56.218,16.824,20.807,4.556,54.311,7.872,66.982,32.567,9.466,18.455,2.978,56.388,2.634,78.827-.368,24.609,3.291,42.86,15.884,60.469,7.918,11.09,44.242,51.346,40.045,62.953-3.994,11.057-29.305,12.752-40.249,15.626-34.589,9.114-69.639,12.283-104.822,11.792-54.49-.755-109.184-8.423-162.823-21.6-22.176-5.475-45.094-11.144-66.278-22.083-14.266-7.375-26.163-20.451-40.334-28.075-40.585-21.866-83.5-36.718-124.224-58.98C33.942,149.533-8.644,130.475,1.565,101.1c8.513-24.523,37.465-31.979,51.692-48.42C77.457,24.653,106.427,20.334,137.287,14.5Z" transform="translate(1050.778 2327.243) rotate(180)" fill="none" stroke="#5acef2" stroke-width="5"/>
      <path id="Shape-38" data-name="Shape" d="M85.965,10.3A889.335,889.335,0,0,1,221.294.04c29.171-.1,59.945-.645,88.57,8.4,14.379,4.539,26.874,15.158,40.482,22.728C364.359,38.955,383.7,47.646,389.754,65.5c5.691,16.779,3.565,41.259,8.563,61.491,4.445,17.952,13.748,29.04,23.768,41.173,6.383,7.755,39.167,41.325,35.373,48.74-4.064,7.938-23.752,7.293-34,8.389A573.634,573.634,0,0,1,338.6,228.23c-38.629-1.635-77.555-6.195-115.515-16.521-26.934-7.318-47.24-24.739-72.346-37.517-32.526-16.6-66.22-29.718-98.434-47.874C36.258,117.268,12.5,105.63,4.277,82.279c-3.16-8.948-6.228-31.71-2.71-40.657C5.795,30.867,21.529,26.306,28.955,23.541,47.561,16.647,67.033,13.292,85.965,10.3Z" transform="translate(964.08 2308.949) rotate(180)" fill="none" stroke="#ff8062" stroke-width="5"/>
      <path id="Shape-39" data-name="Shape" d="M71.054,9.181C126.739.535,189.656-6.8,245.512,10.6c22.573,7.024,45.052,27.833,54.256,56.188,4.77,14.664,5.795,32.116,12.917,46.327,5.275,10.5,11.985,19.993,18.6,28.831,3.728,4.993,27.614,32.344,23,37.228-4.862,5.155-16.793,3.469-24.941,3.6A486.926,486.926,0,0,1,270.775,180c-22.37-2.352-45.269-5.4-66.963-13.659-17.5-6.7-33.447-20.8-50.488-29.177-44.8-22.176-92.011-39.555-134.071-72.4C10.305,57.788-7.389,47.338,3.361,31.561,16.736,11.9,53.849,11.839,71.054,9.181Z" transform="translate(907.437 2290.655) rotate(180)" fill="none" stroke="#f1b170" stroke-width="5"/>
      <path id="Shape-40" data-name="Shape" d="M50.237,5.162c39.65-6.053,83.639-8.9,123.448,3.574,20.16,6.31,38.147,19.457,46.924,44.9,6.283,18.137,7.976,38.377,16.563,55.806,3.039,6.149,14.207,23.406,8.7,27.173-11.781,8.1-38.074-1.223-54.417-5.474-24.6-6.439-45.134-24.468-68.521-35.157C87.062,79.6,41.605,70.841,8.912,42.906-22.6,15.894,38.668,6.934,50.237,5.162Z" transform="translate(838.079 2271.055) rotate(180)" fill="none" stroke="#5be7c3" stroke-width="5"/>
      <path id="Shape-41" data-name="Shape" d="M28.531,2.976C62.169-2.469,122.008-5.158,141.2,38.65c3.562,8.134,13.394,53.041,3.892,57.05-7.832,3.29-20.123-2.143-28.972-7.223-16.46-9.4-31.9-19.645-48.914-27.4C52.726,54.47,37.9,48.382,23.6,40.708,17.54,37.487,6.138,33.582,2.333,26.254-7.91,6.533,18.287,4.627,28.531,2.976Z" transform="translate(771.033 2254.067) rotate(180)" fill="#01002d" stroke="#707070" stroke-width="5"/>
    </g>
  </g>
</svg>
