<svg xmlns="http://www.w3.org/2000/svg" width="50.322" height="55.421" viewBox="0 0 50.322 55.421">
  <g id="project-management" transform="translate(-2.94)">
    <path id="Path_14600" data-name="Path 14600" d="M38.4,5.74H31.166l-.26-.831a1.7,1.7,0,0,0-1.628-1.2H26.819a4.662,4.662,0,0,0-9.126,0H15.235a1.7,1.7,0,0,0-1.628,1.2l-.26.831H6.126A3.219,3.219,0,0,0,2.94,8.987V52.174a3.219,3.219,0,0,0,3.186,3.247H38.4a3.217,3.217,0,0,0,3.178-3.247V8.987A3.217,3.217,0,0,0,38.4,5.74ZM15.235,5.385h3.2a.841.841,0,0,0,.84-.814,2.98,2.98,0,0,1,5.957,0,.847.847,0,0,0,.84.814h3.2l1,3.273L14.222,8.632ZM39.9,52.166a1.537,1.537,0,0,1-1.5,1.567H6.126A1.538,1.538,0,0,1,4.62,52.166V8.987A1.538,1.538,0,0,1,6.126,7.42h6.71l-.216.719a1.7,1.7,0,0,0,.26,1.515,1.674,1.674,0,0,0,1.368.693H30.283a1.674,1.674,0,0,0,1.368-.693,1.7,1.7,0,0,0,.26-1.507l-.225-.719H38.4A1.531,1.531,0,0,1,39.9,9ZM53.2,20.555l-2.935-7.334a.839.839,0,0,0-1.558,0l-2.935,7.334a.8.8,0,0,0-.061.312V43.923h0v3.662a3.775,3.775,0,0,0,7.55,0V20.875A.811.811,0,0,0,53.2,20.555Zm-3.714-4.762,1.7,4.234H47.79Zm2.1,31.81a2.1,2.1,0,1,1-4.191,0V44.772h4.2V47.6Zm0-4.511h-4.2V21.715h4.2Z" transform="translate(0)" fill="#cb7d23"/>
    <path id="Path_14601" data-name="Path 14601" d="M35.257,32.721l-2.1-.519a10.081,10.081,0,0,0-.866-2.1l1.126-1.853a.851.851,0,0,0-.121-1.03l-2.147-2.147a.826.826,0,0,0-1.03-.121L28.262,26.08a10.28,10.28,0,0,0-2.1-.866l-.519-2.1a.85.85,0,0,0-.814-.641H21.785a.826.826,0,0,0-.814.641l-.519,2.1a10.28,10.28,0,0,0-2.1.866L16.5,24.955a.851.851,0,0,0-1.03.121l-2.147,2.147a.827.827,0,0,0-.121,1.03l1.126,1.853a10.279,10.279,0,0,0-.866,2.1l-2.1.519a.85.85,0,0,0-.641.814v3.039a.826.826,0,0,0,.641.814l2.1.519A10.279,10.279,0,0,0,14.33,40L13.2,41.856a.851.851,0,0,0,.121,1.03l2.147,2.147a.839.839,0,0,0,1.03.121l1.853-1.126a10.279,10.279,0,0,0,2.1.866l.519,2.1a.85.85,0,0,0,.814.641h3.039A.826.826,0,0,0,25.638,47l.519-2.1a10.081,10.081,0,0,0,2.1-.866l1.853,1.126a.851.851,0,0,0,1.03-.121l2.147-2.147a.827.827,0,0,0,.121-1.03L32.279,40a10.279,10.279,0,0,0,.866-2.1l2.1-.519a.85.85,0,0,0,.641-.814V33.535A.818.818,0,0,0,35.257,32.721Zm-1.039,3.186-1.948.476a.848.848,0,0,0-.615.623A8.34,8.34,0,0,1,30.6,39.553a.837.837,0,0,0-.009.874L31.63,42.15l-1.212,1.212-1.723-1.039a.818.818,0,0,0-.874.009,8.706,8.706,0,0,1-2.554,1.056.835.835,0,0,0-.623.615l-.476,1.948H22.443L21.967,44a.835.835,0,0,0-.623-.615A8.43,8.43,0,0,1,18.8,42.332a.856.856,0,0,0-.874-.009L16.2,43.362,14.988,42.15l1.039-1.723a.818.818,0,0,0-.009-.874,8.754,8.754,0,0,1-1.056-2.546.835.835,0,0,0-.615-.623L12.4,35.908V34.185l1.948-.476a.848.848,0,0,0,.615-.623,8.263,8.263,0,0,1,1.056-2.554.856.856,0,0,0,.009-.874l-1.039-1.714L16.2,26.73l1.723,1.039a.818.818,0,0,0,.874-.009A8.754,8.754,0,0,1,21.344,26.7a.835.835,0,0,0,.623-.615l.476-1.948h1.723l.476,1.948a.835.835,0,0,0,.623.615,8.13,8.13,0,0,1,2.546,1.056.856.856,0,0,0,.874.009l1.723-1.039,1.212,1.221-1.039,1.714a.818.818,0,0,0,.009.874,8.522,8.522,0,0,1,1.056,2.546.835.835,0,0,0,.615.623l1.948.476v1.723Z" transform="translate(-1.044 -3.015)" fill="#cb7d23"/>
    <path id="Path_14602" data-name="Path 14602" d="M24.183,29.05a6.883,6.883,0,1,0,6.883,6.883A6.89,6.89,0,0,0,24.183,29.05Zm0,12.1a5.2,5.2,0,1,1,5.2-5.2A5.208,5.208,0,0,1,24.183,41.146Z" transform="translate(-1.927 -3.898)" fill="#cb7d23"/>
  </g>
</svg>
