<svg xmlns="http://www.w3.org/2000/svg" width="31.706" height="26.538" viewBox="0 0 31.706 26.538">
  <g id="Layer_2" data-name="Layer 2" transform="translate(-2.95 -7.68)">
    <path id="Path_14682" data-name="Path 14682" d="M15.943,41.367a3.023,3.023,0,1,0-3.023-3.023A3.023,3.023,0,0,0,15.943,41.367Zm0-4.961a1.932,1.932,0,1,1-1.932,1.932,1.932,1.932,0,0,1,1.932-1.932Z" transform="translate(-4.529 -12.556)" fill="#4a13b2"/>
    <path id="Path_14683" data-name="Path 14683" d="M3.458,31.914l2.063.256a6.2,6.2,0,0,0,.4.966l-1.3,1.637a.546.546,0,0,0,.044.72l1.523,1.523a.546.546,0,0,0,.72.044l1.637-1.277a6.139,6.139,0,0,0,.966.4l.256,2.063a.546.546,0,0,0,.546.48h2.183a.546.546,0,0,0,.546-.48l.256-2.063a6.194,6.194,0,0,0,.966-.4l1.637,1.277a.546.546,0,0,0,.726-.038L18.143,35.5a.546.546,0,0,0,.044-.72L16.91,33.142a6.167,6.167,0,0,0,.4-.966l2.041-.262a.546.546,0,0,0,.48-.546V29.186a.546.546,0,0,0-.48-.546l-2.063-.256a6.166,6.166,0,0,0-.4-.966l1.277-1.637a.546.546,0,0,0-.044-.72l-1.5-1.5a.546.546,0,0,0-.72-.044L14.263,24.8a6.194,6.194,0,0,0-.971-.431L13.035,22.3a.546.546,0,0,0-.546-.48H10.306a.546.546,0,0,0-.546.48l-.235,2.063a6.139,6.139,0,0,0-.966.4L6.923,23.488a.546.546,0,0,0-.72.044L4.685,25.087a.546.546,0,0,0-.071.72l1.277,1.637a6.2,6.2,0,0,0-.4.966l-2.063.256a.546.546,0,0,0-.48.546V31.4a.546.546,0,0,0,.508.518Zm.611-2.221,1.943-.246a.546.546,0,0,0,.464-.409,5.075,5.075,0,0,1,.546-1.364.546.546,0,0,0-.038-.617l-1.2-1.544.846-.846,1.544,1.2a.546.546,0,0,0,.617.038,5.081,5.081,0,0,1,1.364-.546.546.546,0,0,0,.409-.464l.246-1.943H12l.251,1.959a.546.546,0,0,0,.409.464,5.081,5.081,0,0,1,1.364.546.546.546,0,0,0,.617-.038l1.544-1.2.846.846-1.2,1.544a.546.546,0,0,0-.038.617,5.064,5.064,0,0,1,.546,1.364.546.546,0,0,0,.464.409l1.943.246v1.206l-1.943.246a.546.546,0,0,0-.464.409,5.064,5.064,0,0,1-.546,1.364.546.546,0,0,0,.038.617l1.2,1.544-.846.846-1.544-1.2a.546.546,0,0,0-.617-.038,5.08,5.08,0,0,1-1.364.546.546.546,0,0,0-.409.464l-.246,1.943h-1.19l-.246-1.943a.546.546,0,0,0-.409-.464A5.081,5.081,0,0,1,8.8,34.7a.546.546,0,0,0-.617.038l-1.544,1.2-.84-.879L7,33.519a.546.546,0,0,0,.038-.617,5.075,5.075,0,0,1-.546-1.364.546.546,0,0,0-.464-.409l-1.959-.213ZM26.192,17.6a3.023,3.023,0,1,0,3.023,3.023A3.023,3.023,0,0,0,26.192,17.6Zm0,4.961a1.932,1.932,0,1,1,1.932-1.932A1.932,1.932,0,0,1,26.192,22.561Z" transform="translate(0 -4.506)" fill="#4a13b2"/>
    <path id="Path_14684" data-name="Path 14684" d="M46.492,14.5l-2.063-.256a6.21,6.21,0,0,0-.4-.966l1.277-1.637a.546.546,0,0,0-.044-.72L43.741,9.394a.546.546,0,0,0-.72-.044l-1.637,1.277a6.194,6.194,0,0,0-.96-.409L40.15,8.16a.546.546,0,0,0-.546-.48H37.422a.546.546,0,0,0-.546.48l-.256,2.063a6.194,6.194,0,0,0-.966.4L34.016,9.344a.546.546,0,0,0-.72.044l-1.523,1.523a.546.546,0,0,0-.044.72l1.277,1.637a6.1,6.1,0,0,0-.4.966L30.6,14.5a.546.546,0,0,0-.48.546v2.183a.546.546,0,0,0,.48.546l2.063.256a6.1,6.1,0,0,0,.4.966L31.784,20.63a.546.546,0,0,0,.044.72l1.5,1.5a.546.546,0,0,0,.72.044l1.637-1.277a6.194,6.194,0,0,0,.971.431l.256,2.063a.546.546,0,0,0,.546.48h2.183a.546.546,0,0,0,.546-.48l.235-2.063a6.172,6.172,0,0,0,.966-.4l1.637,1.277a.546.546,0,0,0,.72-.044l1.523-1.523a.546.546,0,0,0,.065-.753l-1.277-1.637a6.2,6.2,0,0,0,.4-.966l2.063-.256A.546.546,0,0,0,47,17.2V15.014A.546.546,0,0,0,46.492,14.5Zm-.611,2.221-1.943.24a.546.546,0,0,0-.464.409,5.075,5.075,0,0,1-.546,1.364.546.546,0,0,0,.038.617l1.2,1.544-.846.846-1.544-1.2a.546.546,0,0,0-.617-.038,5.075,5.075,0,0,1-1.364.546.546.546,0,0,0-.409.464l-.246,1.943H37.935l-.24-1.954a.546.546,0,0,0-.409-.464,5.081,5.081,0,0,1-1.364-.546.546.546,0,0,0-.617.038l-1.544,1.2-.846-.846,1.2-1.544a.546.546,0,0,0,.038-.617,5.048,5.048,0,0,1-.546-1.364.546.546,0,0,0-.464-.409l-1.943-.24V15.495l1.943-.24a.546.546,0,0,0,.464-.409,5.037,5.037,0,0,1,.546-1.364.546.546,0,0,0-.038-.617l-1.2-1.544.846-.846,1.544,1.2a.546.546,0,0,0,.617.038,5.081,5.081,0,0,1,1.364-.546.546.546,0,0,0,.409-.464l.246-1.943h1.2l.246,1.943a.546.546,0,0,0,.409.464,5.081,5.081,0,0,1,1.364.546.546.546,0,0,0,.617-.038l1.544-1.2.846.846-1.2,1.544a.546.546,0,0,0-.038.617,5.07,5.07,0,0,1,.546,1.364.546.546,0,0,0,.464.409l1.948.24Z" transform="translate(-12.343)" fill="#4a13b2"/>
  </g>
</svg>
