<svg xmlns="http://www.w3.org/2000/svg" width="53.369" height="53.374" viewBox="0 0 53.369 53.374">
  <g id="conversation" transform="translate(0 -0.133)">
    <path id="Path_16180" data-name="Path 16180" d="M0,146.074a17.7,17.7,0,0,1,1.128-2.983,6.711,6.711,0,0,1,5.837-3.446c3.577-.09,7.156-.033,10.733-.027a1.062,1.062,0,0,1,1.156,1.021c.012.62-.478,1.056-1.227,1.057q-4.977.008-9.953,0a5.26,5.26,0,0,0-5.591,5.564v15.372A5.254,5.254,0,0,0,7.6,168.17c2.068,0,4.134.007,6.2,0a1.512,1.512,0,0,1,1.209.566c.773.839,1.62,1.608,2.5,2.466,0-.608,0-1.17,0-1.732.008-.914.389-1.294,1.312-1.295q5.341,0,10.683,0a5.253,5.253,0,0,0,5.512-5.487q0-3.256,0-6.513a2.8,2.8,0,0,1,.046-.62,1.015,1.015,0,0,1,1.987-.017,2.193,2.193,0,0,1,.048.516c0,2.293.017,4.586,0,6.879a7.244,7.244,0,0,1-5.764,7.148,8.541,8.541,0,0,1-1.808.174c-3.283.016-6.564.008-9.932.008v1.4c0,.59-.029,1.183.008,1.771a1.358,1.358,0,0,1-.737,1.418h-.625c-.347-.307-.71-.6-1.039-.924-1.123-1.108-2.226-2.237-3.361-3.332a1.22,1.22,0,0,0-.756-.315c-2.028-.029-4.059.042-6.084-.039a6.825,6.825,0,0,1-5.874-3.459A17.683,17.683,0,0,1,0,163.792V146.075Z" transform="translate(0 -121.335)" fill="#c32bd6"/>
    <path id="Path_16182" data-name="Path 16182" d="M173.193.735a16.031,16.031,0,0,1,6.226.888,14.633,14.633,0,0,1,9.6,10.629c1.4,5.738-.193,10.7-4.465,14.776a1.861,1.861,0,0,0-.692,1.544c.051,1.613.01,3.229.02,4.845a1.091,1.091,0,0,1-1.975.821c-1.115-1.12-2.241-2.229-3.349-3.356a.78.78,0,0,0-.807-.258,22.871,22.871,0,0,1-10.116-.192,14.535,14.535,0,0,1-8.581-6.285,14.591,14.591,0,0,1-2.4-9.659A14.732,14.732,0,0,1,162.359,4C165.258,1.7,168.539.58,173.193.735Zm8.6,30.455c0-1.241.044-2.333-.014-3.419a1.982,1.982,0,0,1,.848-1.822,12.009,12.009,0,0,0,4.035-5.7A12.715,12.715,0,0,0,185.236,8.7a12.555,12.555,0,0,0-8.773-5.685,21.721,21.721,0,0,0-6.332-.06,13.123,13.123,0,0,0-3.781,1.059,12.474,12.474,0,0,0-7.511,9.927,12.566,12.566,0,0,0,4.767,12.141,12.222,12.222,0,0,0,7.511,2.821,21,21,0,0,0,6.823-.47,1.4,1.4,0,0,1,1.544.429c.718.753,1.463,1.479,2.306,2.326Z" transform="translate(-136.141 -0.588)" fill="#c32bd6"/>
    <path id="Path_16183" data-name="Path 16183" d="M55.262,248.307H65.786a3.622,3.622,0,0,1,.52.018,1.028,1.028,0,0,1,0,2.047,3.624,3.624,0,0,1-.52.018H44.527c-.845-.005-1.347-.394-1.347-1.043s.5-1.04,1.348-1.042q5.367,0,10.733,0Z" transform="translate(-37.544 -215.855)" fill="#c32bd6"/>
    <path id="Path_16184" data-name="Path 16184" d="M53.222,293.029q4.245,0,8.49,0a2.536,2.536,0,0,1,.718.081.925.925,0,0,1,.687.939.935.935,0,0,1-.7.982,2.593,2.593,0,0,1-.719.077q-8.541.006-17.082,0h-.157c-.8-.009-1.294-.412-1.288-1.048s.5-1.034,1.3-1.035q4.374,0,8.749,0Z" transform="translate(-37.535 -254.741)" fill="#c32bd6"/>
    <path id="Path_16185" data-name="Path 16185" d="M51.838,203.6q3.62,0,7.242,0a2.514,2.514,0,0,1,.619.059,1,1,0,0,1,.76,1,.982.982,0,0,1-.743.958,2.32,2.32,0,0,1-.617.065q-7.268.006-14.537,0a2.739,2.739,0,0,1-.518-.031,1.021,1.021,0,0,1-.017-2.015,2.856,2.856,0,0,1,.569-.035q3.62,0,7.242,0Z" transform="translate(-37.543 -176.983)" fill="#c32bd6"/>
    <path id="Path_16186" data-name="Path 16186" d="M212.669,293.089a1.033,1.033,0,1,1-1.019,1.047A1.074,1.074,0,0,1,212.669,293.089Z" transform="translate(-184.023 -254.793)" fill="#c32bd6"/>
    <path id="Path_16188" data-name="Path 16188" d="M254.743,66.613c0-.4-.01-.8,0-1.2a1.91,1.91,0,0,1,1.358-1.835c.163-.057.33-.106.492-.167a2.313,2.313,0,0,0,1.466-2.584,2.342,2.342,0,0,0-2.34-1.9,2.3,2.3,0,0,0-2.236,2.009c-.136,1-.523,1.411-1.233,1.321-.647-.082-.911-.561-.835-1.525a4.378,4.378,0,0,1,7.6-2.454,4.366,4.366,0,0,1-1.826,7.123.456.456,0,0,0-.371.516c.023.659.029,1.32,0,1.979a1.039,1.039,0,1,1-2.073-.031c-.007-.157,0-.312,0-.469v-.782h0Z" transform="translate(-218.588 -49.389)" fill="#c32bd6"/>
    <path id="Path_16189" data-name="Path 16189" d="M279.081,166.635a1.048,1.048,0,0,1-1.012,1.046,1.021,1.021,0,0,1-1.051-1,1.038,1.038,0,0,1,1-1.055A1.065,1.065,0,0,1,279.081,166.635Z" transform="translate(-240.859 -143.97)" fill="#c32bd6"/>
  </g>
</svg>
