<svg id="vuesax_outline_clock" data-name="vuesax/outline/clock" xmlns="http://www.w3.org/2000/svg" width="22" height="22" viewBox="0 0 22 22">
  <g id="clock">
    <path id="Vector" d="M9.75,19.5A9.75,9.75,0,1,1,19.5,9.75,9.758,9.758,0,0,1,9.75,19.5Zm0-18.14a8.39,8.39,0,1,0,8.39,8.39A8.4,8.4,0,0,0,9.75,1.36Z" transform="translate(1.25 1.25)" fill="#c32bd6"/>
    <path id="Vector-2" data-name="Vector" d="M0,0H22V22H0Z" fill="none" opacity="0"/>
    <path id="Vector-3" data-name="Vector" d="M2.41,6a.755.755,0,0,1-.75-.75V5.04A2.327,2.327,0,0,1,2.83,3.09c.37-.25.49-.42.49-.68a.91.91,0,1,0-1.82,0,.755.755,0,0,1-.75.75A.755.755,0,0,1,0,2.41a2.41,2.41,0,1,1,4.82,0A2.294,2.294,0,0,1,3.67,4.33c-.39.26-.51.43-.51.71v.21A.749.749,0,0,1,2.41,6Z" transform="translate(8.59 6.755)" fill="#c32bd6"/>
    <path id="Vector-4" data-name="Vector" d="M.75,1.5A.75.75,0,1,1,1.5.75.749.749,0,0,1,.75,1.5Z" transform="translate(10.25 13.745)" fill="#c32bd6"/>
  </g>
</svg>
