<svg xmlns="http://www.w3.org/2000/svg" width="36.061" height="33.074" viewBox="0 0 36.061 33.074">
  <g id="elearning" transform="translate(0 0)">
    <g id="Group_2983" data-name="Group 2983">
      <path id="Path_3865" data-name="Path 3865" d="M306.416,63.928a17.329,17.329,0,0,0-3.751-.549.528.528,0,1,0-.05,1.055,18.06,18.06,0,0,1,3.661.532.528.528,0,0,0,.14-1.038Z" transform="translate(-280.833 -60.408)" fill="#ff0089"/>
      <path id="Path_3866" data-name="Path 3866" d="M306.416,99.942a17.329,17.329,0,0,0-3.751-.549.528.528,0,1,0-.05,1.055,18.061,18.061,0,0,1,3.661.532.528.528,0,0,0,.14-1.038Z" transform="translate(-280.833 -93.885)" fill="#ff0089"/>
      <path id="Path_3867" data-name="Path 3867" d="M306.416,139.626a17.328,17.328,0,0,0-3.751-.549.528.528,0,1,0-.05,1.055,18.06,18.06,0,0,1,3.661.532.528.528,0,0,0,.14-1.038Z" transform="translate(-280.833 -130.774)" fill="#ff0089"/>
      <path id="Path_3868" data-name="Path 3868" d="M419.63,63.379a17.332,17.332,0,0,0-3.751.549.528.528,0,0,0,.14,1.038,18.3,18.3,0,0,1,3.661-.532.528.528,0,1,0-.05-1.055Z" transform="translate(-386.228 -60.408)" fill="#ff0089"/>
      <path id="Path_3869" data-name="Path 3869" d="M419.63,99.393a17.328,17.328,0,0,0-3.751.549.528.528,0,0,0,.14,1.038,18.309,18.309,0,0,1,3.661-.532.528.528,0,0,0-.05-1.055Z" transform="translate(-386.228 -93.886)" fill="#ff0089"/>
      <path id="Path_3870" data-name="Path 3870" d="M417.765,141.426a14.716,14.716,0,0,0-1.886.38.528.528,0,0,0,.14,1.038c.209,0,.547-.185,1.891-.371a.528.528,0,1,0-.145-1.046Z" transform="translate(-386.228 -132.954)" fill="#ff0089"/>
      <path id="Path_3871" data-name="Path 3871" d="M33.453,46.139a.528.528,0,0,0-.528.528V53.8H18.572V51.932a6.571,6.571,0,0,0-5.322-6.444l-.056-.011a1.65,1.65,0,0,0-.269-.378,3.864,3.864,0,0,0-1.341-.9,4.754,4.754,0,0,0,.545-.414,3.917,3.917,0,0,0,1.274-2.42,1.192,1.192,0,0,0,.939-1.17l0-1.415a1.194,1.194,0,0,0-.05-.336,1.177,1.177,0,0,0,.054-.35V35.952a1.631,1.631,0,0,0-.213-.806H17.3a.528.528,0,0,0,0-1.056H12.768a1.645,1.645,0,0,0-1.6-1.273H7.619A3.383,3.383,0,0,0,4.975,34.09h-2.3A2.68,2.68,0,0,0,0,36.767V56.02A2.68,2.68,0,0,0,2.677,58.7H13.527l-.266,2.041H12.5A2.819,2.819,0,0,0,9.68,63.554,1.521,1.521,0,0,0,11.2,65.073H22.166a1.521,1.521,0,0,0,1.519-1.519,2.819,2.819,0,0,0-2.815-2.815H20.1L19.839,58.7H31.3a2.68,2.68,0,0,0,2.677-2.677V46.668a.528.528,0,0,0-.528-.528Zm-21.688.082A1.309,1.309,0,0,0,12,45.675c.054.047.107.1.16.153a.606.606,0,0,1,.157.523l-.39,2.179a.277.277,0,0,1-.342.219l-1.411-.363ZM7.652,45.6a.25.25,0,0,1-.032-.24l.2-.528a.526.526,0,0,0,.035-.192,4.121,4.121,0,0,0,2.846,0,.525.525,0,0,0,.035.188l.2.528a.25.25,0,0,1-.032.24l-1.631,2.22Zm.74,2.791-1.411.363a.277.277,0,0,1-.342-.219l-.39-2.179a.606.606,0,0,1,.157-.523c.052-.055.106-.106.16-.153a1.307,1.307,0,0,0,.235.546Zm4.766-8.05H12.91a.528.528,0,0,0-.526.519,2.9,2.9,0,0,1-.953,2.137,3.153,3.153,0,0,1-4.265.018A2.9,2.9,0,0,1,6.2,40.883a.528.528,0,0,0-.53-.515H5.417a.122.122,0,0,1-.087-.037.137.137,0,0,1-.04-.1l0-.932.439.153A.907.907,0,0,0,6.932,38.6l0-1.335a.64.64,0,0,1,.629-.648h.014a1.314,1.314,0,0,1,.411.064,4.409,4.409,0,0,0,2.6,0A1.317,1.317,0,0,1,11,36.616h.014a.64.64,0,0,1,.629.65V38.6a.907.907,0,0,0,1.205.858l.438-.153,0,.9a.132.132,0,0,1-.127.136ZM5.287,36.206a2.335,2.335,0,0,1,2.332-2.332h3.55a.588.588,0,0,1,.587.587.906.906,0,0,0,.9.9H12.7a.588.588,0,0,1,.587.587V38.1a.124.124,0,0,1-.083.117l-.505.176V37.269a1.7,1.7,0,0,0-1.68-1.709h-.024a2.381,2.381,0,0,0-.729.114,3.375,3.375,0,0,1-1.956,0,2.369,2.369,0,0,0-.739-.114H7.555a1.7,1.7,0,0,0-1.681,1.708v1.122l-.505-.176a.125.125,0,0,1-.083-.117Zm-4.23.562a1.623,1.623,0,0,1,1.621-1.621H4.4a3.374,3.374,0,0,0-.17,1.059V38.1a1.177,1.177,0,0,0,.057.361,1.194,1.194,0,0,0-.057.367l0,1.415a1.189,1.189,0,0,0,.348.839,1.173,1.173,0,0,0,.6.324,3.917,3.917,0,0,0,1.294,2.409,4.777,4.777,0,0,0,.514.387,3.867,3.867,0,0,0-1.347.9,1.647,1.647,0,0,0-.27.379,6.565,6.565,0,0,0-4.315,2.889Zm0,15.164A5.513,5.513,0,0,1,5.22,46.593l.38,2.123a1.334,1.334,0,0,0,1.645,1.057l2.039-.525,2.039.525a1.334,1.334,0,0,0,1.645-1.057l.38-2.125a5.513,5.513,0,0,1,4.168,5.34V53.8H15.322V51.5a.528.528,0,0,0-1.056,0v2.3H4.306V51.5a.528.528,0,0,0-1.056,0v2.3H1.057ZM20.87,61.8a1.761,1.761,0,0,1,1.759,1.759.463.463,0,0,1-.463.463H11.2a.463.463,0,0,1-.463-.463A1.761,1.761,0,0,1,12.5,61.8Zm-6.544-1.056.266-2.041h4.182l.266,2.041Zm18.6-4.718A1.623,1.623,0,0,1,31.3,57.641H2.677A1.623,1.623,0,0,1,1.057,56.02V54.855H32.925Z" transform="translate(0 -31.999)" fill="#ff0089"/>
      <path id="Path_3872" data-name="Path 3872" d="M288.241,21.207c-1.4-.021-4.911.069-7.178,1.363a.144.144,0,0,1-.142,0c-2.267-1.294-5.776-1.384-7.18-1.364a1.206,1.206,0,0,0-1.182,1.2V32.64a1.2,1.2,0,0,0,1.219,1.2,15.6,15.6,0,0,1,6.311,1.062,2.038,2.038,0,0,0,1.809,0,15.654,15.654,0,0,1,6.364-1.058,1.141,1.141,0,0,0,1.161-1.142V22.408A1.206,1.206,0,0,0,288.241,21.207Zm-7.778,12.7a16.15,16.15,0,0,0-6.7-1.126.145.145,0,0,1-.148-.145V22.408a.145.145,0,0,1,.142-.145c1.317-.02,4.6.06,6.64,1.225l.066.035Zm7.9-1.211a.085.085,0,0,1-.087.086,15.46,15.46,0,0,0-6.761,1.125V23.522l.067-.035c2.041-1.164,5.323-1.243,6.638-1.224a.145.145,0,0,1,.142.145V32.7Z" transform="translate(-253.362 -21.204)" fill="#ff0089"/>
    </g>
  </g>
</svg>
