<svg xmlns="http://www.w3.org/2000/svg" width="49.489" height="49.489" viewBox="0 0 49.489 49.489">
  <g id="recruitment" transform="translate(-1 -4)">
    <path id="Path_14603" data-name="Path 14603" d="M25.982,22.684a4.124,4.124,0,1,0-6.417,0A3.3,3.3,0,0,0,17,25.892v2.474a.825.825,0,0,0,.825.825h9.9a.825.825,0,0,0,.825-.825V25.892A3.3,3.3,0,0,0,25.982,22.684Zm-3.209-5.04A2.474,2.474,0,1,1,20.3,20.119,2.474,2.474,0,0,1,22.774,17.644Zm4.124,9.9H18.65v-1.65a1.65,1.65,0,0,1,1.65-1.65h4.949a1.65,1.65,0,0,1,1.65,1.65Z" transform="translate(2.971 6.141)" fill="#27c3a5"/>
    <path id="Path_14604" data-name="Path 14604" d="M52.252,27.507H49.778a21.033,21.033,0,0,0-19.8-19.734V5.237a1.237,1.237,0,0,0-2.474,0V7.774A21.033,21.033,0,0,0,7.774,27.507H5.237a1.237,1.237,0,0,0,0,2.474H7.774a21.033,21.033,0,0,0,19.734,19.8v2.474a1.237,1.237,0,0,0,2.474,0V49.778a21.033,21.033,0,0,0,19.8-19.8h2.474a1.237,1.237,0,0,0,0-2.474ZM29.982,47.3V44.829a1.237,1.237,0,1,0-2.474,0V47.3A18.558,18.558,0,0,1,10.248,29.982h2.413a1.237,1.237,0,1,0,0-2.474H10.248A18.558,18.558,0,0,1,27.507,10.248v2.413a1.237,1.237,0,1,0,2.474,0V10.248A18.558,18.558,0,0,1,47.3,27.507H44.829a1.237,1.237,0,1,0,0,2.474H47.3A18.558,18.558,0,0,1,29.982,47.3Z" transform="translate(-3)" fill="#27c3a5"/>
  </g>
</svg>
