<svg xmlns="http://www.w3.org/2000/svg" width="24" height="24" viewBox="0 0 24 24">
  <g id="vuesax_bold_bubble" data-name="vuesax/bold/bubble" transform="translate(-172 -636)">
    <g id="bubble">
      <path id="Vector" d="M0,0H24V24H0Z" transform="translate(172 636)" fill="none" opacity="0"/>
      <path id="Vector-2" data-name="Vector" d="M0,0H24V24H0Z" transform="translate(172 636)" fill="none" opacity="0"/>
      <path id="Vector-3" data-name="Vector" d="M5.38,0a5.38,5.38,0,1,0,5.38,5.38A5.382,5.382,0,0,0,5.38,0Z" transform="translate(182.21 637.75)" fill="#ed2f59"/>
      <path id="Vector-4" data-name="Vector" d="M3.33,0A3.33,3.33,0,1,0,6.66,3.33,3.335,3.335,0,0,0,3.33,0Z" transform="translate(175.03 649.03)" fill="#ed2f59"/>
      <path id="Vector-5" data-name="Vector" d="M2.81,0A2.81,2.81,0,1,0,5.62,2.81,2.812,2.812,0,0,0,2.81,0Z" transform="translate(185.81 652.62)" fill="#ed2f59"/>
    </g>
  </g>
</svg>
