<svg xmlns="http://www.w3.org/2000/svg" width="76.747" height="58.758" viewBox="0 0 76.747 58.758">
  <g id="remark" transform="translate(0 -15.002)">
    <path id="Path_14646" data-name="Path 14646" d="M73.5,39.8A1.2,1.2,0,1,0,74.7,41,1.2,1.2,0,0,0,73.5,39.8Zm0,4.652a1.2,1.2,0,1,0,1.2,1.2A1.2,1.2,0,0,0,73.5,44.452ZM21.152,61.647a1.2,1.2,0,0,0-.336-.33,1.331,1.331,0,0,0-.2-.108,1.412,1.412,0,0,0-.228-.072,1.221,1.221,0,0,0-.468,0,1.554,1.554,0,0,0-.222.072,1.362,1.362,0,0,0-.21.108,1.283,1.283,0,0,0-.33.33,1.461,1.461,0,0,0-.18.432,1.154,1.154,0,0,0,0,.468,1.476,1.476,0,0,0,.072.228,1.344,1.344,0,0,0,.108.2,1.493,1.493,0,0,0,.15.186,1.081,1.081,0,0,0,.18.144,1.028,1.028,0,0,0,.21.114,1.252,1.252,0,0,0,.456.09,1.114,1.114,0,0,0,.666-.2A1.394,1.394,0,0,0,21,63.165a2.2,2.2,0,0,0,.15-.186,1.347,1.347,0,0,0,.108-.2.988.988,0,0,0,.066-.228,1.154,1.154,0,0,0,0-.469.941.941,0,0,0-.066-.222,1.422,1.422,0,0,0-.108-.21ZM16.98,59.078a1.2,1.2,0,0,0-.438,2.359.973.973,0,0,0,.222.024,1.2,1.2,0,0,0,.216-2.383Zm-5.42,1.47a1.2,1.2,0,0,0,1.194,1.092.661.661,0,0,0,.108-.006,1.2,1.2,0,1,0-1.3-1.086ZM45.751,35.042a1.152,1.152,0,1,0-.114,0Zm-9.142-3.229a1.2,1.2,0,1,0-.222,2.389.786.786,0,0,0,.114.006,1.2,1.2,0,0,0,.108-2.395Zm4.406,2.808a.641.641,0,0,0,.108.006,1.211,1.211,0,1,0-.108-.006ZM31.98,31.393a1.2,1.2,0,1,0-.216,2.395c.036,0,.072.006.108.006a1.2,1.2,0,0,0,.108-2.4Zm-3.538.889a1.19,1.19,0,0,0-.246-.837,6.585,6.585,0,0,1-1.019,1.925c.023,0,.047,0,.066,0a1.2,1.2,0,0,0,1.2-1.092Zm35.8,4.435a1.212,1.212,0,1,0-.108-.006A.633.633,0,0,0,64.246,36.717Zm4.629.42a1.208,1.208,0,1,0-.114-.006C68.8,37.131,68.839,37.137,68.875,37.137Zm-18.5-1.674a1.209,1.209,0,1,0-.108-.006.661.661,0,0,0,.108.006Zm4.622.42a1.212,1.212,0,1,0-.108-.006C54.924,35.876,54.96,35.882,55,35.882Zm4.731-1.98a1.2,1.2,0,1,0-.21,2.394h.1a1.2,1.2,0,0,0,.108-2.394ZM26.621,20.695l19.84,4.778,16.408,1.482L13.505,15.068A2.4,2.4,0,0,0,10.548,17.4v1.052c.118-.057.224-.12.347-.174a3.576,3.576,0,0,1,2.051-.252V17.4l7.167,1.726a11.406,11.406,0,0,1,1.573-.847,3.577,3.577,0,0,1,4.936,2.415ZM15.343,29.377a4.189,4.189,0,0,0-5.38-4.029,5.621,5.621,0,0,1,2.866-2.675,1.2,1.2,0,0,0-.968-2.2A8.511,8.511,0,0,0,6.956,29.5a4.194,4.194,0,1,0,8.388-.119Zm-4.2,1.8a1.8,1.8,0,1,1,1.8-1.8A1.8,1.8,0,0,1,11.146,31.177Z" transform="translate(-2.754 0)" fill="#c32bd6"/>
    <path id="Path_14647" data-name="Path 14647" d="M29.145,28.763a4.175,4.175,0,0,0-1.184.173,5.62,5.62,0,0,1,2.867-2.675,1.2,1.2,0,1,0-.968-2.2,8.51,8.51,0,0,0-4.905,9.019,4.195,4.195,0,1,0,4.19-4.32Zm0,6a1.8,1.8,0,1,1,1.8-1.8,1.8,1.8,0,0,1-1.8,1.8ZM41.058,63.326c.042,0,.078-.006.114-.006a1.184,1.184,0,1,0-.114.006ZM31,61.831a1.2,1.2,0,0,0,.15,2.389,1.333,1.333,0,0,0,.156-.006A1.2,1.2,0,1,0,31,61.831Zm15.018,1.044a.631.631,0,0,0,.108-.006,1.183,1.183,0,1,0-.108.006Zm-9.91.894h.108a1.257,1.257,0,1,0-.108,0Zm18.627-2.88a1.2,1.2,0,0,0,1.193,1.092.664.664,0,0,0,.108-.006,1.2,1.2,0,1,0-1.3-1.086Zm9.911-.894a1.185,1.185,0,0,0,.426.809,6.558,6.558,0,0,1,.455-2.075,1.2,1.2,0,0,0-.881,1.265Zm-13.778.036a1.2,1.2,0,0,0,.109,2.4c.036,0,.072-.006.108-.006a1.2,1.2,0,0,0-.216-2.395Zm8.826.408a1.194,1.194,0,0,0,1.193,1.092h.108a1.2,1.2,0,1,0-1.3-1.092Zm19.214,11.47-5.293-.576a11.381,11.381,0,0,1-1.714.935,3.6,3.6,0,0,1-4.635-1.625L54.96,69.3,42.832,70.4l35.815,3.9A2.369,2.369,0,0,0,81.2,72.57a3.616,3.616,0,0,1-2.293-.862Zm5.4-17.067a6.562,6.562,0,0,1,2.4,1.31v-19.5a2.388,2.388,0,0,0-2.182-2.391l-49.61-4.48a6.524,6.524,0,0,1,.79,2.482l48.6,4.39.108-1.195-.108,1.2Z" transform="translate(-9.96 -3.588)" fill="#c32bd6"/>
    <path id="Path_14648" data-name="Path 14648" d="M21.2,79.594a1.2,1.2,0,0,0,1.979-.937l-.147-7.244,33.984-3.07a6.61,6.61,0,0,1-1.49-2.276L21.7,69.123a1.2,1.2,0,0,0-1.091,1.22l.116,5.686L13.916,70.19a1.2,1.2,0,0,0-.78-.288c-.036,0-.072,0-.108,0L2.4,70.867V38.225a6.571,6.571,0,0,1-.582-2.38A11.874,11.874,0,0,1,2.51,30.3a2.383,2.383,0,0,0-1.729.617A2.407,2.407,0,0,0,0,32.685V70.867a2.4,2.4,0,0,0,2.614,2.391l10.127-.915ZM72.477,59.506a4.2,4.2,0,1,0,1.184,8.229,5.621,5.621,0,0,1-2.867,2.675,1.2,1.2,0,0,0,.968,2.2,8.511,8.511,0,0,0,4.905-9.02,4.2,4.2,0,0,0-4.19-4.082Zm0,6a1.8,1.8,0,1,1,1.8-1.8,1.8,1.8,0,0,1-1.8,1.8ZM60,70.411a1.2,1.2,0,0,0,.968,2.2,8.511,8.511,0,0,0,4.905-9.02,4.2,4.2,0,1,0-3.007,4.147A5.62,5.62,0,0,1,60,70.411Zm1.683-4.9a1.8,1.8,0,1,1,1.8-1.8,1.8,1.8,0,0,1-1.8,1.8Z" transform="translate(0 -6.123)" fill="#c32bd6"/>
  </g>
</svg>
