<svg xmlns="http://www.w3.org/2000/svg" width="32.046" height="43.355" viewBox="0 0 32.046 43.355">
  <g id="report_1_" data-name="report (1)" transform="translate(-51.428 -9.586)">
    <path id="Path_14587" data-name="Path 14587" d="M82.934,11.681H80.121a.541.541,0,1,0,0,1.081h2.272v39.1H56.111V50.037h24.01a.541.541,0,0,0,.541-.541V16.229a2.387,2.387,0,0,0-.815-1.8l-3.478-3.046a.54.54,0,1,0-.712.813l3.478,3.046a1.306,1.306,0,0,1,.446.983V48.956H52.509V10.667H73.049a.6.6,0,0,1,.6.6v4.126a.541.541,0,0,0,.541.541H77.5a.541.541,0,1,0,0-1.081H74.728V11.266a1.682,1.682,0,0,0-1.68-1.68H51.969a.541.541,0,0,0-.541.541V49.5a.541.541,0,0,0,.541.541H55.03V52.4a.541.541,0,0,0,.541.541H82.934a.541.541,0,0,0,.541-.541V12.222a.541.541,0,0,0-.541-.541Z" fill="#e06c17"/>
    <path id="Path_14588" data-name="Path 14588" d="M95.4,47.623a8.427,8.427,0,0,0-10.318,8.251,9.656,9.656,0,0,0,.386,2.534,8.441,8.441,0,0,0,4.8,5.285,9.833,9.833,0,0,0,4.077.635,8.485,8.485,0,0,0,4.284-15.268,8.241,8.241,0,0,0-2.643-1.292Q95.691,47.686,95.4,47.623ZM91.181,60.245,90.254,62.5a7.841,7.841,0,0,1-3.86-4.775l2.4-.434A5.236,5.236,0,0,0,91.181,60.245Zm9.785-4.028a7.4,7.4,0,0,1-9.714,6.694l1.123-2.726a.546.546,0,0,0-.3-.709,3.9,3.9,0,0,1,1.493-7.5,3.957,3.957,0,0,1,3.9,3.9,3.88,3.88,0,0,1-3.512,3.878A.541.541,0,0,0,94,60.832l.053,0a4.976,4.976,0,0,0,2.136-9.18l1.054-2.2a7.409,7.409,0,0,1,3.719,6.766Zm-4.693-7.235-1.054,2.2a7.144,7.144,0,0,0-1.113-.252V48.489A8.916,8.916,0,0,1,96.273,48.982Zm-3.248-.493v2.437a4.953,4.953,0,0,0-3.157,1.73A5.031,5.031,0,0,0,88.6,56.223l-2.4.434a4.639,4.639,0,0,1-.042-.783C86.553,49.62,91.642,48.489,93.026,48.489Zm10.691,19.185H89.129a.541.541,0,0,0,0,1.081h14.587a.541.541,0,1,0,0-1.081Zm.541,3.959a.541.541,0,0,0-.541-.541H84.3a.541.541,0,1,0,0,1.081h19.414a.541.541,0,0,0,.541-.541ZM84.3,74.511a.541.541,0,1,0,0,1.081H99.638a.541.541,0,1,0,0-1.081Z" transform="translate(-27.965 -32.711)" fill="#e06c17"/>
  </g>
</svg>
