<svg xmlns="http://www.w3.org/2000/svg" width="40.988" height="55.453" viewBox="0 0 40.988 55.453">
  <g id="report_1_" data-name="report (1)" transform="translate(-51.428 -9.586)">
    <path id="Path_14587" data-name="Path 14587" d="M91.725,12.266h-3.6a.691.691,0,1,0,0,1.383h2.906V63.656H57.417V61.325H88.128a.691.691,0,0,0,.691-.691V18.083a3.053,3.053,0,0,0-1.042-2.3l-4.449-3.9a.691.691,0,1,0-.911,1.04l4.449,3.9a1.671,1.671,0,0,1,.57,1.257V59.942H52.811V10.969H79.082a.767.767,0,0,1,.766.766v5.277a.691.691,0,0,0,.691.691h4.243a.691.691,0,0,0,0-1.383H81.23V11.735a2.151,2.151,0,0,0-2.149-2.149H52.119a.691.691,0,0,0-.691.691V60.633a.691.691,0,0,0,.691.691h3.915v3.023a.691.691,0,0,0,.691.691h35a.691.691,0,0,0,.691-.691V12.957a.691.691,0,0,0-.691-.691Z" fill="#1cbf9a"/>
    <path id="Path_14588" data-name="Path 14588" d="M98.643,47.683a10.778,10.778,0,0,0-13.2,10.554,12.35,12.35,0,0,0,.494,3.241,10.8,10.8,0,0,0,6.136,6.76,12.576,12.576,0,0,0,5.215.812,10.853,10.853,0,0,0,5.48-19.528,10.541,10.541,0,0,0-3.381-1.653Q99.019,47.763,98.643,47.683ZM93.251,63.827l-1.186,2.881A10.029,10.029,0,0,1,87.128,60.6l3.07-.555A6.7,6.7,0,0,0,93.251,63.827Zm12.515-5.153a9.47,9.47,0,0,1-12.425,8.562l1.437-3.487a.7.7,0,0,0-.387-.907,4.984,4.984,0,0,1,1.91-9.588,5.061,5.061,0,0,1,4.984,4.984A4.963,4.963,0,0,1,96.794,63.2a.691.691,0,0,0,.067,1.38c.022,0,.045,0,.068,0a6.365,6.365,0,0,0,2.732-11.742l1.348-2.812a9.476,9.476,0,0,1,4.757,8.654Zm-6-9.254L98.416,52.23a9.137,9.137,0,0,0-1.423-.323V48.791A11.4,11.4,0,0,1,99.764,49.421Zm-4.154-.63v3.117a6.336,6.336,0,0,0-4.037,2.212,6.435,6.435,0,0,0-1.622,4.563l-3.07.555a5.933,5.933,0,0,1-.054-1C87.332,50.237,93.841,48.791,95.611,48.791Zm13.674,24.538H90.627a.691.691,0,0,0,0,1.383h18.658a.691.691,0,1,0,0-1.383Zm.691,5.064a.691.691,0,0,0-.691-.691H84.453a.691.691,0,1,0,0,1.383h24.831A.691.691,0,0,0,109.976,78.393ZM84.453,82.074a.691.691,0,1,0,0,1.383h19.615a.691.691,0,0,0,0-1.383Z" transform="translate(-26.745 -31.285)" fill="#1cbf9a"/>
  </g>
</svg>
