<svg xmlns="http://www.w3.org/2000/svg" width="38.49" height="47.862" viewBox="0 0 38.49 47.862">
  <path id="report_2_" data-name="report (2)" d="M24.151,33.163,21.1,30.586c-.234-.469-.469-.469-.7-.469s-.7.234-.7.469l-5.858,7.029c-.469.234-.469.469-.469.7a1.107,1.107,0,0,0,1.172,1.172,1.776,1.776,0,0,0,.937-.469l5.155-6.092,3.046,2.812c.234.234.469.234.937.234.234,0,.7-.234.7-.469l6.561-8.2A1.172,1.172,0,0,0,30.009,25.9Zm17.339-16.4c0-.234-.234-.234-.234-.469L27.2,2.234A.818.818,0,0,0,26.728,2h-15.7A6.9,6.9,0,0,0,4,9.029v32.8a6.9,6.9,0,0,0,7.029,7.029H34.46a6.9,6.9,0,0,0,7.029-7.029V16.762ZM27.431,5.983,37.507,16.059H30.477a3.1,3.1,0,0,1-3.046-3.046Zm11.716,35.85a4.7,4.7,0,0,1-4.686,4.686H11.029a4.7,4.7,0,0,1-4.686-4.686V9.029a4.7,4.7,0,0,1,4.686-4.686H25.088v8.67A5.3,5.3,0,0,0,30.477,18.4h8.67ZM14.544,18.4H19.23a1.172,1.172,0,1,0,0-2.343H14.544a1.172,1.172,0,1,0,0,2.343Z" transform="translate(-3.5 -1.5)" fill="#e6510f" stroke="#fff" stroke-width="1"/>
</svg>
