<svg xmlns="http://www.w3.org/2000/svg" width="35.017" height="45.674" viewBox="0 0 35.017 45.674">
  <g id="result" transform="translate(-9 -2)">
    <path id="Path_14620" data-name="Path 14620" d="M32.6,2H20.419a.761.761,0,0,0-.761.761V5.045h-9.9A.761.761,0,0,0,9,5.806V46.913a.761.761,0,0,0,.761.761H43.256a.761.761,0,0,0,.761-.761V5.806a.761.761,0,0,0-.761-.761h-9.9V2.761A.761.761,0,0,0,32.6,2ZM21.18,5.806V3.522H31.837V8.09H21.18Zm21.315.761V46.152H10.522V6.567h9.135V8.851a.761.761,0,0,0,.761.761H32.6a.761.761,0,0,0,.761-.761V6.567Z" fill="#0098da"/>
    <path id="Path_14621" data-name="Path 14621" d="M13.761,37.641h4.567a.761.761,0,0,0,.761-.761v-9.9a.761.761,0,0,0-.761-.761H13.761a.761.761,0,0,0-.761.761v9.9A.761.761,0,0,0,13.761,37.641Zm.761-9.9h3.045v8.374H14.522Zm11.419,9.9a.761.761,0,0,0,.761-.761V23.939a.761.761,0,0,0-.761-.761H21.374a.761.761,0,0,0-.761.761V36.88a.761.761,0,0,0,.761.761ZM22.135,24.7H25.18V36.118H22.135ZM33.553,37.641a.761.761,0,0,0,.761-.761V20.894a.761.761,0,0,0-.761-.761H28.986a.761.761,0,0,0-.761.761V36.88a.761.761,0,0,0,.761.761ZM29.747,21.655h3.045V36.118H29.747ZM36.6,17.088a.761.761,0,0,0-.761.761V36.88a.761.761,0,0,0,.761.761h4.567a.761.761,0,0,0,.761-.761V17.849a.761.761,0,0,0-.761-.761ZM40.4,36.118H37.36V18.61H40.4ZM26.436,17.133l-7.567,2.284h-.076L13.464,21.7l.594,1.4,5.329-2.284L27,18.534l.091-.038,6.851-3.045,7.612-3.045-.563-1.416-7.612,3.045Z" transform="translate(-0.955 -2.146)" fill="#0098da"/>
  </g>
</svg>
