<svg xmlns="http://www.w3.org/2000/svg" width="53.936" height="53.893" viewBox="0 0 53.936 53.893">
  <g id="padlock" transform="translate(0 -0.107)">
    <path id="Path_16167" data-name="Path 16167" d="M0,55.216c.135-.987.245-1.979.409-2.962A25.911,25.911,0,0,1,4.84,41.513a.772.772,0,0,0,.069-.963A3.925,3.925,0,0,1,5.94,35.62a3.994,3.994,0,1,1,1.333,6.927c-.15-.046-.3-.1-.473-.166a23.536,23.536,0,0,0-2.917,5.273A24.807,24.807,0,0,0,16.22,79.282a24.345,24.345,0,0,0,19.609.82c.132-.048.26-.1.392-.149a1.064,1.064,0,0,1,1.43.591,1.043,1.043,0,0,1-.709,1.38,37.067,37.067,0,0,1-3.758,1.169c-1.4.315-2.832.451-4.251.668-.136.021-.271.058-.406.087H25.265c-.117-.028-.233-.068-.352-.084-1.229-.18-2.471-.3-3.689-.541A26.953,26.953,0,0,1,.42,61.648C.256,60.631.139,59.6,0,58.584V55.216ZM10.329,38.744a1.886,1.886,0,0,0-1.89-1.915,1.921,1.921,0,0,0-1.891,1.877,1.894,1.894,0,0,0,1.905,1.9,1.863,1.863,0,0,0,1.877-1.863Z" transform="translate(0 -29.847)" fill="#ed2f59"/>
    <path id="Path_16169" data-name="Path 16169" d="M118.227,95.942h-7.788a3.844,3.844,0,0,1-4.175-4.148c0-4.42.008-8.84,0-13.26a3.905,3.905,0,0,1,2.049-3.651.715.715,0,0,0,.262-.534,17.631,17.631,0,0,1,.321-4.182,9.667,9.667,0,0,1,18.958,1.263,29.258,29.258,0,0,1,.089,2.94.561.561,0,0,0,.335.565,3.713,3.713,0,0,1,1.988,3.409q.011,6.841,0,13.68a3.8,3.8,0,0,1-3.93,3.914c-2.7.013-5.4,0-8.1,0Zm.034-19.368q-3.972,0-7.943,0a1.72,1.72,0,0,0-1.949,1.931q0,6.68,0,13.361a1.754,1.754,0,0,0,1.979,1.97q7.917,0,15.833,0a1.749,1.749,0,0,0,1.977-1.972V78.557c0-1.347-.641-1.981-2.007-1.981q-3.945,0-7.89,0Zm7.535-2.136c.429-3.693-.9-6.767-3.7-8.35a7.238,7.238,0,0,0-8.26.4c-2.734,1.942-3.412,4.76-3.1,7.952H112.9c0-.247-.017-.471,0-.692a14.236,14.236,0,0,1,.3-2.8,5.252,5.252,0,0,1,5.95-3.627,5.368,5.368,0,0,1,4.48,5.206c.013.626,0,1.253,0,1.91h2.167Zm-4.281,0c0-.721.041-1.419-.008-2.111a3.26,3.26,0,0,0-2.915-2.973,3.14,3.14,0,0,0-3.374,2.188,17.492,17.492,0,0,0-.292,2.9Z" transform="translate(-91.317 -54.067)" fill="#ed2f59"/>
    <path id="Path_16170" data-name="Path 16170" d="M300.453,112.12a23.649,23.649,0,0,0,3.914-8.414,24.637,24.637,0,0,0-3.2-19.513c-.065-.1-.134-.205-.2-.311a1.074,1.074,0,0,1,.229-1.569,1.046,1.046,0,0,1,1.526.422,26.386,26.386,0,0,1,1.464,2.489c4.638,9.633,4.047,18.931-1.845,27.872-.086.131-.176.26-.262.385a4.045,4.045,0,0,1-.823,5.451,3.992,3.992,0,0,1-6.068-4.883c.924-1.889,2.689-2.541,5.262-1.932Zm-3.558,3.639a1.889,1.889,0,0,0,1.86,1.946,1.927,1.927,0,0,0,1.921-1.849,1.89,1.89,0,0,0-1.876-1.931A1.86,1.86,0,0,0,296.895,115.76Z" transform="translate(-253.329 -70.582)" fill="#ed2f59"/>
    <path id="Path_16171" data-name="Path 16171" d="M115.13,3.562a1.011,1.011,0,0,1,.755-.88A27.323,27.323,0,0,1,122.742.954a26.169,26.169,0,0,1,14.012,2.118A49.32,49.32,0,0,1,141.2,5.546a1.068,1.068,0,0,1,.446,1.565,1.083,1.083,0,0,1-1.616.173,24.418,24.418,0,0,0-9.99-4.07,24.722,24.722,0,0,0-13.026,1.291,3.241,3.241,0,0,1-.8.238,1.059,1.059,0,0,1-1.083-1.181Z" transform="translate(-98.94 -0.658)" fill="#ed2f59"/>
    <path id="Path_16172" data-name="Path 16172" d="M315.8,57.163a1.027,1.027,0,0,1,1.025-1.043,1.062,1.062,0,0,1,1.066,1.018,1.081,1.081,0,0,1-1.067,1.079,1.046,1.046,0,0,1-1.025-1.053Z" transform="translate(-271.39 -48.228)" fill="#ed2f59"/>
    <path id="Path_16178" data-name="Path 16178" d="M163.751,184.077c0-.193-.01-.387,0-.579a3.469,3.469,0,0,0-.432-1.941,3.927,3.927,0,0,1,1.166-4.987,4.022,4.022,0,0,1,5.092.2,4.076,4.076,0,0,1,.8,5.085,2.443,2.443,0,0,0-.3,1.066c-.044.84,0,1.683-.017,2.526a3.155,3.155,0,0,1-6.31-.006c-.008-.456,0-.913,0-1.368Zm2.105-.4v1.472c0,.84.409,1.351,1.065,1.342s1.038-.512,1.039-1.367.022-1.683-.007-2.524a2.423,2.423,0,0,1,.527-1.747,1.842,1.842,0,0,0-.309-2.513,1.92,1.92,0,0,0-2.545.018,1.845,1.845,0,0,0-.278,2.517,2.2,2.2,0,0,1,.513,1.644c-.027.384,0,.771,0,1.156Z" transform="translate(-139.962 -151.042)" fill="#ed2f59"/>
  </g>
</svg>
