<svg xmlns="http://www.w3.org/2000/svg" width="32.505" height="29.826" viewBox="0 0 32.505 29.826">
  <g id="elearning" transform="translate(0.075 -21.129)">
    <g id="Group_2983" data-name="Group 2983" transform="translate(0 21.204)">
      <path id="Path_3865" data-name="Path 3865" d="M305.973,63.872a15.548,15.548,0,0,0-3.365-.493.474.474,0,0,0-.045.947,16.2,16.2,0,0,1,3.285.477.474.474,0,0,0,.126-.931Z" transform="translate(-283.02 -60.713)" fill="#ff0089" stroke="#ff0089" stroke-width="0.15"/>
      <path id="Path_3866" data-name="Path 3866" d="M305.973,99.885a15.548,15.548,0,0,0-3.365-.493.474.474,0,0,0-.045.947,16.206,16.206,0,0,1,3.285.477.474.474,0,0,0,.126-.931Z" transform="translate(-283.02 -94.451)" fill="#ff0089" stroke="#ff0089" stroke-width="0.15"/>
      <path id="Path_3867" data-name="Path 3867" d="M305.973,139.569a15.547,15.547,0,0,0-3.365-.493.474.474,0,0,0-.045.947,16.206,16.206,0,0,1,3.285.477.474.474,0,0,0,.126-.931Z" transform="translate(-283.02 -131.627)" fill="#ff0089" stroke="#ff0089" stroke-width="0.15"/>
      <path id="Path_3868" data-name="Path 3868" d="M419.205,63.379a15.55,15.55,0,0,0-3.365.493.474.474,0,0,0,.126.931,16.423,16.423,0,0,1,3.285-.477.474.474,0,1,0-.045-.947Z" transform="translate(-389.235 -60.714)" fill="#ff0089" stroke="#ff0089" stroke-width="0.15"/>
      <path id="Path_3869" data-name="Path 3869" d="M419.205,99.393a15.547,15.547,0,0,0-3.365.493.474.474,0,0,0,.126.931,16.429,16.429,0,0,1,3.285-.477.474.474,0,1,0-.045-.947Z" transform="translate(-389.235 -94.452)" fill="#ff0089" stroke="#ff0089" stroke-width="0.15"/>
      <path id="Path_3870" data-name="Path 3870" d="M417.532,141.425a13.2,13.2,0,0,0-1.692.341.474.474,0,0,0,.126.931c.188,0,.49-.166,1.7-.333a.474.474,0,1,0-.13-.939Z" transform="translate(-389.235 -133.824)" fill="#ff0089" stroke="#ff0089" stroke-width="0.15"/>
      <path id="Path_3871" data-name="Path 3871" d="M30.015,44.77a.474.474,0,0,0-.474.474v6.4H16.663V49.967a5.9,5.9,0,0,0-4.775-5.781l-.05-.01a1.48,1.48,0,0,0-.242-.339,3.467,3.467,0,0,0-1.2-.805,4.266,4.266,0,0,0,.489-.371,3.514,3.514,0,0,0,1.143-2.172,1.069,1.069,0,0,0,.842-1.05l0-1.27a1.071,1.071,0,0,0-.045-.3,1.056,1.056,0,0,0,.048-.314V35.63a1.463,1.463,0,0,0-.191-.723h2.843a.474.474,0,1,0,0-.948H11.456a1.476,1.476,0,0,0-1.435-1.142H6.836a3.036,3.036,0,0,0-2.373,1.142H2.4a2.4,2.4,0,0,0-2.4,2.4V53.636a2.4,2.4,0,0,0,2.4,2.4h9.734L11.9,57.869h-.687A2.529,2.529,0,0,0,8.685,60.4a1.365,1.365,0,0,0,1.363,1.363h9.84A1.365,1.365,0,0,0,21.252,60.4a2.529,2.529,0,0,0-2.526-2.526h-.687L17.8,56.038H28.087a2.4,2.4,0,0,0,2.4-2.4V45.244a.474.474,0,0,0-.474-.474Zm-19.459.073a1.174,1.174,0,0,0,.211-.49c.048.042.1.088.143.137a.544.544,0,0,1,.141.47l-.35,1.955a.248.248,0,0,1-.307.2l-1.266-.326Zm-3.69-.561a.224.224,0,0,1-.029-.215l.184-.474a.472.472,0,0,0,.031-.172,3.7,3.7,0,0,0,2.554,0,.471.471,0,0,0,.031.168l.184.474a.224.224,0,0,1-.029.215L8.329,46.274Zm.664,2.5-1.266.326a.249.249,0,0,1-.307-.2l-.35-1.955a.544.544,0,0,1,.141-.47c.047-.049.095-.095.143-.137a1.172,1.172,0,0,0,.211.49Zm4.276-7.223h-.223a.474.474,0,0,0-.472.466,2.6,2.6,0,0,1-.855,1.918,2.829,2.829,0,0,1-3.826.016,2.6,2.6,0,0,1-.871-1.91.474.474,0,0,0-.476-.462H4.86a.109.109,0,0,1-.078-.033.123.123,0,0,1-.036-.087l0-.837.394.137A.814.814,0,0,0,6.22,38v-1.2a.574.574,0,0,1,.564-.582h.012a1.179,1.179,0,0,1,.369.057,3.956,3.956,0,0,0,2.335,0,1.181,1.181,0,0,1,.369-.057h.013a.574.574,0,0,1,.564.583V38a.814.814,0,0,0,1.081.769l.393-.137,0,.8a.118.118,0,0,1-.114.122ZM4.743,35.857a2.1,2.1,0,0,1,2.093-2.092h3.185a.527.527,0,0,1,.527.527.813.813,0,0,0,.812.812h.034a.527.527,0,0,1,.527.527v1.923a.112.112,0,0,1-.075.105l-.453.158V36.811a1.523,1.523,0,0,0-1.508-1.534H9.863a2.136,2.136,0,0,0-.654.1,3.028,3.028,0,0,1-1.755,0,2.125,2.125,0,0,0-.663-.1H6.779A1.522,1.522,0,0,0,5.271,36.81v1.007l-.454-.158a.112.112,0,0,1-.075-.105Zm-3.8.5A1.456,1.456,0,0,1,2.4,34.907H3.948a3.027,3.027,0,0,0-.153.95v1.7a1.056,1.056,0,0,0,.051.324,1.071,1.071,0,0,0-.051.329l0,1.269a1.066,1.066,0,0,0,.312.753,1.052,1.052,0,0,0,.539.291A3.514,3.514,0,0,0,5.81,42.682a4.285,4.285,0,0,0,.461.347,3.469,3.469,0,0,0-1.209.808,1.478,1.478,0,0,0-.242.34A5.891,5.891,0,0,0,.948,46.769Zm0,13.606a4.947,4.947,0,0,1,3.735-4.79l.341,1.905a1.2,1.2,0,0,0,1.476.948l1.829-.471,1.829.471a1.2,1.2,0,0,0,1.476-.948l.341-1.906a4.947,4.947,0,0,1,3.74,4.791v1.675H13.747V49.578a.474.474,0,1,0-.948,0v2.065H3.864V49.578a.474.474,0,1,0-.948,0v2.065H.948Zm17.778,8.85A1.58,1.58,0,0,1,20.3,60.4a.416.416,0,0,1-.415.415h-9.84a.416.416,0,0,1-.415-.415,1.58,1.58,0,0,1,1.578-1.578Zm-5.872-.948.238-1.831h3.752l.238,1.831Zm16.687-4.233a1.456,1.456,0,0,1-1.454,1.454H2.4A1.456,1.456,0,0,1,.948,53.636V52.59H29.541Z" transform="translate(0 -32.083)" fill="#ff0089" stroke="#ff0089" stroke-width="0.15"/>
      <path id="Path_3872" data-name="Path 3872" d="M286.629,21.206c-1.259-.019-4.406.062-6.44,1.223a.129.129,0,0,1-.128,0c-2.034-1.161-5.182-1.242-6.442-1.224a1.082,1.082,0,0,0-1.061,1.078v9.181a1.077,1.077,0,0,0,1.094,1.078,14,14,0,0,1,5.662.953,1.829,1.829,0,0,0,1.623,0,14.045,14.045,0,0,1,5.71-.95,1.024,1.024,0,0,0,1.041-1.025V22.284A1.082,1.082,0,0,0,286.629,21.206Zm-6.979,11.4a14.491,14.491,0,0,0-6.011-1.011.13.13,0,0,1-.133-.13V22.284a.13.13,0,0,1,.127-.13c1.182-.018,4.127.054,5.957,1.1l.059.031Zm7.092-1.087a.077.077,0,0,1-.078.077,13.871,13.871,0,0,0-6.066,1.009V23.284l.06-.032c1.831-1.044,4.776-1.116,5.956-1.1a.13.13,0,0,1,.127.13v9.234Z" transform="translate(-255.335 -21.204)" fill="#ff0089" stroke="#ff0089" stroke-width="0.15"/>
    </g>
  </g>
</svg>
