<svg xmlns="http://www.w3.org/2000/svg" width="24.37" height="27.297" viewBox="0 0 24.37 27.297">
  <g id="Group_17136" data-name="Group 17136" transform="translate(-113.622 -162.764)">
    <path id="Path_3875" data-name="Path 3875" d="M116.991,168.18c.292.509.561.986.839,1.459a2.262,2.262,0,0,1-1.328,3.352c-.479.139-.962.27-1.448.383-.194.045-.244.135-.242.323.009.794,0,1.588,0,2.382v.336h-.862c0-.1,0-.188,0-.281,0-.863,0-1.725,0-2.588a.88.88,0,0,1,.754-.969c.491-.135.983-.262,1.474-.4a1.4,1.4,0,0,0,.882-2.127c-.256-.452-.522-.9-.776-1.35a.9.9,0,0,1,.158-1.2q.993-1,2-2a.879.879,0,0,1,1.175-.156c.478.269.944.559,1.427.818a1.376,1.376,0,0,0,2.046-.875c.144-.5.273-1,.4-1.5a.916.916,0,0,1,.99-.776q1.4,0,2.793,0a.891.891,0,0,1,.963.729c.139.5.269,1,.405,1.5a1.394,1.394,0,0,0,2.123.891c.436-.243.865-.5,1.3-.749a.922.922,0,0,1,1.3.165q.978.976,1.95,1.958a.893.893,0,0,1,.15,1.2c-.256.452-.522.9-.777,1.349a1.391,1.391,0,0,0,.9,2.121c.5.135,1,.265,1.5.405a.894.894,0,0,1,.727.939c.008.951,0,1.9,0,2.88h-.87v-1.114c0-.52-.014-1.039.006-1.558.009-.236-.081-.324-.3-.375-.457-.108-.91-.235-1.363-.36a2.252,2.252,0,0,1-1.4-3.3c.243-.447.514-.88.756-1.327a.326.326,0,0,0,0-.3c-.654-.675-1.321-1.338-2-2.018l-1.406.81a2.257,2.257,0,0,1-3.433-1.415c-.125-.453-.253-.905-.363-1.362a.239.239,0,0,0-.281-.217c-.853.007-1.705.009-2.558,0a.259.259,0,0,0-.3.234c-.115.465-.24.928-.365,1.391a2.25,2.25,0,0,1-3.306,1.431c-.457-.245-.9-.52-1.354-.766a.293.293,0,0,0-.269.015C118.337,166.835,117.673,167.5,116.991,168.18Z" transform="translate(-0.077 0)" fill="#0b2ff7" stroke="#0b2ff7" stroke-width="0.5"/>
    <path id="Path_3876" data-name="Path 3876" d="M221.538,493.568l-.334-.821c.269-.142.53-.272.78-.417.075-.044.177-.133.178-.2a17.518,17.518,0,0,0-.028-1.907,2.494,2.494,0,0,0-1.257-1.894,12.827,12.827,0,0,0-1.667-.777.481.481,0,0,0-.33.031,5.232,5.232,0,0,1-4.143,0,.6.6,0,0,0-.361-.033,5.156,5.156,0,0,0-1.857.914,2.705,2.705,0,0,0-1.1,2.147c-.009.46-.019.921,0,1.381a.5.5,0,0,0,.2.338,8.371,8.371,0,0,0,.77.414l-.338.825c-.466-.274-.912-.527-1.344-.8a.375.375,0,0,1-.139-.276,20.707,20.707,0,0,1,.045-2.465,3.412,3.412,0,0,1,1.875-2.594,13.793,13.793,0,0,1,1.917-.793.648.648,0,0,1,.448.048,4.365,4.365,0,0,0,3.885-.006.639.639,0,0,1,.394-.055,5.988,5.988,0,0,1,2.812,1.446,3.445,3.445,0,0,1,1.086,2.489c.011.607.015,1.215-.007,1.822a.592.592,0,0,1-.2.422C222.428,493.078,222,493.3,221.538,493.568Z" transform="translate(-91 -304.552)" fill="#0b2ff7" stroke="#0b2ff7" stroke-width="0.5"/>
    <path id="Path_3877" data-name="Path 3877" d="M264.379,365.473a3.475,3.475,0,1,1-3.468-3.491A3.469,3.469,0,0,1,264.379,365.473Zm-.862.04a2.612,2.612,0,1,0-2.662,2.566A2.631,2.631,0,0,0,263.517,365.513Z" transform="translate(-135.105 -187.254)" fill="#0b2ff7" stroke="#0b2ff7" stroke-width="0.5"/>
    <path id="Path_3878" data-name="Path 3878" d="M217.95,269.63l-.794-.118a5.863,5.863,0,0,1,5.258-5,5.965,5.965,0,0,1,6.472,4.994l-.841.131a5.15,5.15,0,0,0-2.214-3.422,5.088,5.088,0,0,0-2.94-.861A5.17,5.17,0,0,0,217.95,269.63Z" transform="translate(-97.204 -95.492)" fill="#0b2ff7" stroke="#0b2ff7" stroke-width="0.5"/>
    <path id="Path_3879" data-name="Path 3879" d="M121.908,447.956l-.506.62c-.417-.189-.793-.374-1.181-.528a.592.592,0,0,0-.389.01,3.94,3.94,0,0,1-2.87-.009.45.45,0,0,0-.307-.024,7.713,7.713,0,0,0-1.17.593,1.708,1.708,0,0,0-.75,1.572,1.959,1.959,0,0,1,0,.44c-.076.408.136.591.481.734a8.652,8.652,0,0,0,2.864.581c.078,0,.157.006.235.012a.3.3,0,0,1,.068.028v.827a8.819,8.819,0,0,1-2.672-.368,14.213,14.213,0,0,1-1.527-.667.526.526,0,0,1-.311-.549c.015-.382.009-.764,0-1.146a2.49,2.49,0,0,1,1.189-2.231,9.284,9.284,0,0,1,1.593-.722.632.632,0,0,1,.445.033,3.012,3.012,0,0,0,2.613,0,.743.743,0,0,1,.448-.033A4.349,4.349,0,0,1,121.908,447.956Z" transform="translate(0 -267.362)" fill="#0b2ff7" stroke="#0b2ff7" stroke-width="0.5"/>
    <path id="Path_3880" data-name="Path 3880" d="M386.2,452.548V451.7c.6-.073,1.193-.1,1.761-.227a15.931,15.931,0,0,0,1.641-.53.326.326,0,0,0,.24-.38,4.827,4.827,0,0,1,0-.646,1.9,1.9,0,0,0-.994-1.774c-.157-.1-.329-.172-.495-.256a1.163,1.163,0,0,0-1-.054,3.475,3.475,0,0,1-2.471-.029.824.824,0,0,0-.7.005l-.994.487-.516-.629a4.384,4.384,0,0,1,1.906-.871.552.552,0,0,1,.305.077,2.99,2.99,0,0,0,2.584,0,.8.8,0,0,1,.474-.037,4.334,4.334,0,0,1,1.711.808,2.661,2.661,0,0,1,1.062,2.13c.008.382,0,.764,0,1.146a.605.605,0,0,1-.307.559,6.563,6.563,0,0,1-2.757.931C387.173,452.479,386.7,452.5,386.2,452.548Z" transform="translate(-252.967 -267.073)" fill="#0b2ff7" stroke="#0b2ff7" stroke-width="0.5"/>
    <path id="Path_3881" data-name="Path 3881" d="M149.569,364.043a2.566,2.566,0,0,1-2.549-2.633,2.583,2.583,0,1,1,5.164.127A2.566,2.566,0,0,1,149.569,364.043Zm.039-.871a1.7,1.7,0,0,0,1.71-1.689,1.716,1.716,0,1,0-3.432-.02A1.7,1.7,0,0,0,149.609,363.172Z" transform="translate(-31.197 -184.331)" fill="#0b2ff7" stroke="#0b2ff7" stroke-width="0.5"/>
    <path id="Path_3882" data-name="Path 3882" d="M400.968,364.087a2.547,2.547,0,0,1-2.54-2.631,2.579,2.579,0,1,1,2.54,2.631Zm.027-.87a1.717,1.717,0,0,0,1.725-1.711,1.721,1.721,0,1,0-3.442.022A1.716,1.716,0,0,0,401,363.218Z" transform="translate(-267.804 -184.376)" fill="#0b2ff7" stroke="#0b2ff7" stroke-width="0.5"/>
    <path id="Path_3883" data-name="Path 3883" d="M256.38,562.615h.844c0,.162.006.3,0,.446-.03.646-.067,1.291-.094,1.938a.46.46,0,0,1-.4.473,14.565,14.565,0,0,1-6.9,0,.448.448,0,0,1-.393-.417c-.045-.8-.075-1.6-.112-2.432h.858c.031.588.074,1.182.087,1.776.005.232.085.312.309.355a13.941,13.941,0,0,0,5.458-.013c.206-.041.248-.134.254-.313C256.321,563.825,256.352,563.221,256.38,562.615Z" transform="translate(-127.486 -376.076)" fill="#0b2ff7" stroke="#0b2ff7" stroke-width="0.5"/>
  </g>
</svg>
