<svg xmlns="http://www.w3.org/2000/svg" width="31" height="31" viewBox="0 0 31 31">
  <g id="vuesax_linear_book-saved" data-name="vuesax/linear/book-saved" transform="translate(0 -253)">
    <g id="book-saved" transform="translate(0 253)">
      <path id="Vector" d="M25.833,2.593v15.59a2.654,2.654,0,0,1-2.247,2.557l-.426.052a32.887,32.887,0,0,0-9.636,3.177,1.4,1.4,0,0,1-1.24,0l-.052-.026a33.186,33.186,0,0,0-9.61-3.152l-.375-.052A2.654,2.654,0,0,1,0,18.184V2.58A2.541,2.541,0,0,1,2.79.01a24.228,24.228,0,0,1,9.119,3.023l.323.194a1.431,1.431,0,0,0,1.369,0l.22-.142a19.917,19.917,0,0,1,2.971-1.46v5.27l2.583-1.718,2.583,1.718V.152a10.025,10.025,0,0,1,.995-.129h.077A2.545,2.545,0,0,1,25.833,2.593Z" transform="translate(2.583 3.439)" fill="none" stroke="#ed2f59" stroke-linecap="round" stroke-linejoin="round" stroke-width="1.5"/>
      <path id="Vector-2" data-name="Vector" d="M0,0V19.375" transform="translate(15.5 7.091)" fill="none" stroke="#ed2f59" stroke-linecap="round" stroke-linejoin="round" stroke-width="1.5"/>
      <path id="Vector-3" data-name="Vector" d="M5.167,0V6.742L2.583,5.025,0,6.742V1.472A26.106,26.106,0,0,1,5.167,0Z" transform="translate(19.375 3.591)" fill="none" stroke="#ed2f59" stroke-linecap="round" stroke-linejoin="round" stroke-width="1.5"/>
      <path id="Vector-4" data-name="Vector" d="M0,0H31V31H0Z" fill="none" opacity="0"/>
    </g>
  </g>
</svg>
