<svg xmlns="http://www.w3.org/2000/svg" width="1440" height="456.166" viewBox="0 0 1440 456.166">
  <g id="Group_9660" data-name="Group 9660" transform="translate(0 -368.002)" opacity="0.293">
    <g id="Group_9573" data-name="Group 9573" transform="translate(0 368.002)" opacity="0.5">
      <path id="Path_14649" data-name="Path 14649" d="M291,282.39l-73.763-73.96,16.1-16.151L291,250.117,487.515,52.977,676.659,242.7l-16.1,16.151L487.515,85.278Z" transform="translate(56.507 7.139)" fill="#fff"/>
      <path id="Path_14650" data-name="Path 14650" d="M207.745,424.641l-16.1-16.15L491.931,107.317l124,124.379-77.092,77.355,38.29,38.377,44.065-44.2,74.19,74.416-16.1,16.151L621.2,335.5l-44.065,44.227-70.464-70.678L583.759,231.7l-91.828-92.108Z" transform="translate(53.058 14.461)" fill="#fff"/>
      <path id="Path_14651" data-name="Path 14651" d="M295.081,222.947l-96.493-96.758,16.1-16.151,80.392,80.637L437.8,47.521l16.1,16.15Z" transform="translate(53.994 6.403)" fill="#fff"/>
      <path id="Path_14652" data-name="Path 14652" d="M173.053,433.821l-16.1-16.15L277.6,296.659l-92.539-92.792L217.231,171.6l-57.577-57.753L-7.9,281.879-24,265.758,159.654,81.543,249.4,171.6l-32.174,32.271,92.539,92.792Z" transform="translate(24 10.988)" fill="#fff"/>
      <path id="Path_14653" data-name="Path 14653" d="M6.942,211.153-9.159,195,157.626,27.681l68.985,69.195-16.1,16.15L157.626,59.981Z" transform="translate(26 3.73)" fill="#fff"/>
      <path id="Path_14654" data-name="Path 14654" d="M129.1,421.512,29.648,321.787,102.216,249l80.249,77.64,37.408-37.522L108.332,180.087l48.132-48.279,27.822,27.907-16.1,16.15-11.721-11.756-15.731,15.779,111.513,109-69.5,69.736L102.5,280.984l-40.651,40.8,83.35,83.6Z" transform="translate(31.229 17.761)" fill="#fff"/>
      <path id="Path_14655" data-name="Path 14655" d="M95.929,285.114,79.836,301.255,139,360.594l16.092-16.142Z" transform="translate(37.992 38.42)" fill="#fff"/>
      <path id="Path_14656" data-name="Path 14656" d="M-6.771,329.608l-16.1-16.151L107.188,183.03,205.956,282.1l-16.1,16.123L107.188,215.3Z" transform="translate(24.152 24.664)" fill="#fff"/>
      <path id="Path_14657" data-name="Path 14657" d="M82.178,397.348,27.161,342.164,2.952,366.446-13.12,350.3l40.281-40.432L98.279,381.2Z" transform="translate(25.466 41.755)" fill="#fff"/>
      <path id="Path_14658" data-name="Path 14658" d="M641.1,434.735l-44.406-44.541-41.135,41.26L375.174,250.492l91.173-91.451,67.96,68.2-64.205,64.4L454,275.487l48.133-48.251-35.787-35.9-59,59.151L555.556,399.153l41.135-41.261L657.2,418.585Z" transform="translate(77.789 21.431)" fill="#fff"/>
      <path id="Path_14659" data-name="Path 14659" d="M639.077,316.635,583.6,260.994,535.046,309.7l-16.1-16.151L583.6,228.694l71.573,71.82Z" transform="translate(97.163 30.817)" fill="#fff"/>
      <path id="Path_14660" data-name="Path 14660" d="M417.9,411.65,401.8,395.5l43.723-43.828-65.712-65.913L258.083,407.884l-16.1-16.15L379.809,253.487l97.886,98.186Z" transform="translate(59.842 34.158)" fill="#fff"/>
      <path id="Path_14661" data-name="Path 14661" d="M461.1,346.059,445.009,362.2l32.527,32.626,16.092-16.142Z" transform="translate(87.2 46.632)" fill="#fff"/>
      <path id="Path_14662" data-name="Path 14662" d="M358.436,400.983l-16.073-16.121,41.59-41.717L373.57,332.73,309.023,397.5l-16.1-16.15,80.648-80.893,42.557,42.686Z" transform="translate(66.706 40.487)" fill="#fff"/>
      <path id="Path_14663" data-name="Path 14663" d="M501.327,47.066,485.235,63.207,627.288,205.693l16.093-16.141Z" transform="translate(92.62 6.342)" fill="#fff"/>
      <path id="Path_14664" data-name="Path 14664" d="M483.648,55.848,460.264,32.393,437.678,55.049l-16.1-16.122L460.264.122,499.749,39.7Z" transform="translate(84.042 0.016)" fill="#fff"/>
      <path id="Path_14665" data-name="Path 14665" d="M92.029,35.017-10.639,138,5.453,154.139,108.121,51.158Z" transform="translate(25.8 4.719)" fill="#fff"/>
      <path id="Path_14666" data-name="Path 14666" d="M530.032,21.118,513.94,37.259l111.1,111.434,16.093-16.141Z" transform="translate(96.488 2.846)" fill="#fff"/>
      <path id="Path_14667" data-name="Path 14667" d="M202.206,36.843,186.114,52.984,297.995,165.205l16.092-16.141Z" transform="translate(52.313 4.965)" fill="#fff"/>
      <path id="Path_14668" data-name="Path 14668" d="M318.738,131.933,230.325,43.249l16.1-16.15,72.312,72.562,80.335-80.58,16.073,16.15Z" transform="translate(58.271 2.571)" fill="#fff"/>
      <path id="Path_14669" data-name="Path 14669" d="M163.8,0,147.705,16.141l23.9,23.97L187.694,23.97Z" transform="translate(47.138 0)" fill="#fff"/>
      <path id="Path_14670" data-name="Path 14670" d="M323.014,21.151,293.544,50.71l16.093,16.141,29.468-29.558Z" transform="translate(66.79 2.85)" fill="#fff"/>
      <path id="Path_14671" data-name="Path 14671" d="M587.98,29.113,571.887,45.254l36.248,36.358,16.092-16.141Z" transform="translate(104.297 3.923)" fill="#fff"/>
      <path id="Path_14672" data-name="Path 14672" d="M46.131,21.119l-55.408,55.6L6.819,92.854l55.408-55.6Z" transform="translate(25.984 2.846)" fill="#fff"/>
      <path id="Path_14673" data-name="Path 14673" d="M114.964,2.549,93.944,23.633l16.092,16.141,21.02-21.084Z" transform="translate(39.893 0.343)" fill="#fff"/>
      <path id="Path_14674" data-name="Path 14674" d="M458.485,204.229,420.427,242.4l16.092,16.142,38.058-38.174Z" transform="translate(83.887 27.52)" fill="#fff"/>
    </g>
    <g id="Group_9574" data-name="Group 9574" transform="translate(687.66 368.002)" opacity="0.5">
      <path id="Path_14649-2" data-name="Path 14649" d="M291,282.39l-73.763-73.96,16.1-16.151L291,250.117,487.515,52.977,676.659,242.7l-16.1,16.151L487.515,85.278Z" transform="translate(56.507 7.139)" fill="#fff"/>
      <path id="Path_14650-2" data-name="Path 14650" d="M207.745,424.641l-16.1-16.15L491.931,107.317l124,124.379-77.092,77.355,38.29,38.377,44.065-44.2,74.19,74.416-16.1,16.151L621.2,335.5l-44.065,44.227-70.464-70.678L583.759,231.7l-91.828-92.108Z" transform="translate(53.058 14.461)" fill="#fff"/>
      <path id="Path_14651-2" data-name="Path 14651" d="M295.081,222.947l-96.493-96.758,16.1-16.151,80.392,80.637L437.8,47.521l16.1,16.15Z" transform="translate(53.994 6.403)" fill="#fff"/>
      <path id="Path_14652-2" data-name="Path 14652" d="M173.053,433.821l-16.1-16.15L277.6,296.659l-92.539-92.792L217.231,171.6l-57.577-57.753L-7.9,281.879-24,265.758,159.654,81.543,249.4,171.6l-32.174,32.271,92.539,92.792Z" transform="translate(24 10.988)" fill="#fff"/>
      <path id="Path_14653-2" data-name="Path 14653" d="M6.942,211.153-9.159,195,157.626,27.681l68.985,69.195-16.1,16.15L157.626,59.981Z" transform="translate(26 3.73)" fill="#fff"/>
      <path id="Path_14654-2" data-name="Path 14654" d="M129.1,421.512,29.648,321.787,102.216,249l80.249,77.64,37.408-37.522L108.332,180.087l48.132-48.279,27.822,27.907-16.1,16.15-11.721-11.756-15.731,15.779,111.513,109-69.5,69.736L102.5,280.984l-40.651,40.8,83.35,83.6Z" transform="translate(31.229 17.761)" fill="#fff"/>
      <path id="Path_14655-2" data-name="Path 14655" d="M95.929,285.114,79.836,301.255,139,360.594l16.092-16.142Z" transform="translate(37.992 38.42)" fill="#fff"/>
      <path id="Path_14656-2" data-name="Path 14656" d="M-6.771,329.608l-16.1-16.151L107.188,183.03,205.956,282.1l-16.1,16.123L107.188,215.3Z" transform="translate(24.152 24.664)" fill="#fff"/>
      <path id="Path_14657-2" data-name="Path 14657" d="M82.178,397.348,27.161,342.164,2.952,366.446-13.12,350.3l40.281-40.432L98.279,381.2Z" transform="translate(25.466 41.755)" fill="#fff"/>
      <path id="Path_14658-2" data-name="Path 14658" d="M641.1,434.735l-44.406-44.541-41.135,41.26L375.174,250.492l91.173-91.451,67.96,68.2-64.205,64.4L454,275.487l48.133-48.251-35.787-35.9-59,59.151L555.556,399.153l41.135-41.261L657.2,418.585Z" transform="translate(77.789 21.431)" fill="#fff"/>
      <path id="Path_14659-2" data-name="Path 14659" d="M639.077,316.635,583.6,260.994,535.046,309.7l-16.1-16.151L583.6,228.694l71.573,71.82Z" transform="translate(97.163 30.817)" fill="#fff"/>
      <path id="Path_14660-2" data-name="Path 14660" d="M417.9,411.65,401.8,395.5l43.723-43.828-65.712-65.913L258.083,407.884l-16.1-16.15L379.809,253.487l97.886,98.186Z" transform="translate(59.842 34.158)" fill="#fff"/>
      <path id="Path_14661-2" data-name="Path 14661" d="M461.1,346.059,445.009,362.2l32.527,32.626,16.092-16.142Z" transform="translate(87.2 46.632)" fill="#fff"/>
      <path id="Path_14662-2" data-name="Path 14662" d="M358.436,400.983l-16.073-16.121,41.59-41.717L373.57,332.73,309.023,397.5l-16.1-16.15,80.648-80.893,42.557,42.686Z" transform="translate(66.706 40.487)" fill="#fff"/>
      <path id="Path_14663-2" data-name="Path 14663" d="M501.327,47.066,485.235,63.207,627.288,205.693l16.093-16.141Z" transform="translate(92.62 6.342)" fill="#fff"/>
      <path id="Path_14664-2" data-name="Path 14664" d="M483.648,55.848,460.264,32.393,437.678,55.049l-16.1-16.122L460.264.122,499.749,39.7Z" transform="translate(84.042 0.016)" fill="#fff"/>
      <path id="Path_14665-2" data-name="Path 14665" d="M92.029,35.017-10.639,138,5.453,154.139,108.121,51.158Z" transform="translate(25.8 4.719)" fill="#fff"/>
      <path id="Path_14666-2" data-name="Path 14666" d="M530.032,21.118,513.94,37.259l111.1,111.434,16.093-16.141Z" transform="translate(96.488 2.846)" fill="#fff"/>
      <path id="Path_14667-2" data-name="Path 14667" d="M202.206,36.843,186.114,52.984,297.995,165.205l16.092-16.141Z" transform="translate(52.313 4.965)" fill="#fff"/>
      <path id="Path_14668-2" data-name="Path 14668" d="M318.738,131.933,230.325,43.249l16.1-16.15,72.312,72.562,80.335-80.58,16.073,16.15Z" transform="translate(58.271 2.571)" fill="#fff"/>
      <path id="Path_14669-2" data-name="Path 14669" d="M163.8,0,147.705,16.141l23.9,23.97L187.694,23.97Z" transform="translate(47.138 0)" fill="#fff"/>
      <path id="Path_14670-2" data-name="Path 14670" d="M323.014,21.151,293.544,50.71l16.093,16.141,29.468-29.558Z" transform="translate(66.79 2.85)" fill="#fff"/>
      <path id="Path_14671-2" data-name="Path 14671" d="M587.98,29.113,571.887,45.254l36.248,36.358,16.092-16.141Z" transform="translate(104.297 3.923)" fill="#fff"/>
      <path id="Path_14672-2" data-name="Path 14672" d="M46.131,21.119l-55.408,55.6L6.819,92.854l55.408-55.6Z" transform="translate(25.984 2.846)" fill="#fff"/>
      <path id="Path_14673-2" data-name="Path 14673" d="M114.964,2.549,93.944,23.633l16.092,16.141,21.02-21.084Z" transform="translate(39.893 0.343)" fill="#fff"/>
      <path id="Path_14674-2" data-name="Path 14674" d="M458.485,204.229,420.427,242.4l16.092,16.142,38.058-38.174Z" transform="translate(83.887 27.52)" fill="#fff"/>
    </g>
  </g>
</svg>
