<svg id="profile-2user" xmlns="http://www.w3.org/2000/svg" width="54.138" height="54.138" viewBox="0 0 54.138 54.138">
  <path id="Vector" d="M10.376,20.009a4.1,4.1,0,0,0-.744,0,10.027,10.027,0,1,1,.744,0Z" transform="translate(10.286 4.512)" fill="none" stroke="#0098da" stroke-linecap="round" stroke-linejoin="round" stroke-width="2.5"/>
  <path id="Vector-2" data-name="Vector" d="M.293,0a7.889,7.889,0,0,1,7.9,7.9,7.906,7.906,0,0,1-7.6,7.9,2.548,2.548,0,0,0-.586,0" transform="translate(36.724 9.023)" fill="none" stroke="#0098da" stroke-linecap="round" stroke-linejoin="round" stroke-width="2.5"/>
  <path id="Vector-3" data-name="Vector" d="M4.094,3.1c-5.459,3.654-5.459,9.61,0,13.241,6.2,4.151,16.377,4.151,22.58,0,5.459-3.654,5.459-9.61,0-13.241C20.494-1.032,10.32-1.032,4.094,3.1Z" transform="translate(5.29 29.748)" fill="none" stroke="#0098da" stroke-linecap="round" stroke-linejoin="round" stroke-width="2.5"/>
  <path id="Vector-4" data-name="Vector" d="M0,13.535a10.912,10.912,0,0,0,4.421-1.963c3.519-2.639,3.519-6.993,0-9.632A11.219,11.219,0,0,0,.068,0" transform="translate(41.37 31.581)" fill="none" stroke="#0098da" stroke-linecap="round" stroke-linejoin="round" stroke-width="2.5"/>
  <path id="Vector-5" data-name="Vector" d="M0,0H54.138V54.138H0Z" transform="translate(54.138 54.138) rotate(180)" fill="none" opacity="0"/>
</svg>
