<svg xmlns="http://www.w3.org/2000/svg" width="19" height="19" viewBox="0 0 19 19">
  <g id="vuesax_outline_headphone" data-name="vuesax/outline/headphone" transform="translate(-620 -188)">
    <g id="headphone" transform="translate(620 188)">
      <path id="Vector" d="M3.421,16.942A3.468,3.468,0,0,1,0,13.522V8.645A8.437,8.437,0,0,1,8.472,0a8.56,8.56,0,0,1,8.55,8.55v4.877a3.426,3.426,0,0,1-3.42,3.42,3.468,3.468,0,0,1-3.42-3.42V11.2a2.05,2.05,0,0,1,4.1,0v2.4a.594.594,0,0,1-1.187,0V11.2a.863.863,0,0,0-1.726,0v2.225a2.233,2.233,0,0,0,4.465,0V8.55A7.369,7.369,0,0,0,8.472,1.188,7.248,7.248,0,0,0,1.189,8.629v4.892a2.261,2.261,0,0,0,2.233,2.233,2.261,2.261,0,0,0,2.233-2.233V11.3a.863.863,0,1,0-1.726,0v2.312a.594.594,0,0,1-1.188,0V11.3a2.05,2.05,0,1,1,4.1,0v2.225A3.468,3.468,0,0,1,3.421,16.942Z" transform="translate(0.988 1.029)" fill="#161617" stroke="#161617" stroke-linejoin="round" stroke-width="0.3"/>
      <path id="Vector-2" data-name="Vector" d="M0,0H19V19H0Z" fill="none" opacity="0"/>
    </g>
  </g>
</svg>
