<svg xmlns="http://www.w3.org/2000/svg" width="45.677" height="45.677" viewBox="0 0 45.677 45.677">
  <path id="support" d="M45.869,24.233v-1.2a18.03,18.03,0,1,0-36.061,0v1.2A4.808,4.808,0,0,0,5,29.041v7.212a4.808,4.808,0,0,0,4.808,4.808h.216a3.606,3.606,0,0,0,7-1.2V25.435a3.606,3.606,0,0,0-4.808-3.4,15.626,15.626,0,0,1,31.157,0,3.606,3.606,0,0,0-4.712,3.4V39.859a3.606,3.606,0,0,0,3.606,3.606h.4a8.414,8.414,0,0,1-7.609,4.808H31.445v-1.2a3.606,3.606,0,1,0-3.606,3.606h7.212A10.818,10.818,0,0,0,45.8,41.061h.072a4.808,4.808,0,0,0,4.808-4.808V29.041A4.808,4.808,0,0,0,45.869,24.233ZM7.4,36.253V29.041a2.4,2.4,0,0,1,2.4-2.4v12.02A2.4,2.4,0,0,1,7.4,36.253Zm6.01-12.02a1.2,1.2,0,0,1,1.2,1.2V39.859a1.2,1.2,0,1,1-2.4,0V25.435A1.2,1.2,0,0,1,13.414,24.233ZM27.839,48.273a1.2,1.2,0,1,1,1.2-1.2v1.2Zm14.424-7.212a1.2,1.2,0,0,1-1.2-1.2V25.435a1.2,1.2,0,1,1,2.4,0V39.859A1.2,1.2,0,0,1,42.263,41.061Zm6.01-4.808a2.4,2.4,0,0,1-2.4,2.4V26.637a2.4,2.4,0,0,1,2.4,2.4Z" transform="translate(-5 -5)" fill="#ed2f59"/>
</svg>
