<svg xmlns="http://www.w3.org/2000/svg" width="55.52" height="55.52" viewBox="0 0 55.52 55.52">
  <g id="vuesax_outline_calendar-2" data-name="vuesax/outline/calendar-2" transform="translate(0 -252)">
    <g id="calendar-2" transform="translate(0 252)">
      <g id="Vector" transform="translate(16.772 2.892)" fill="#c32bd6">
        <path d="M 1.735000014305115 10.15999984741211 C 0.9300500154495239 10.15999984741211 0.25 9.479948997497559 0.25 8.674999237060547 L 0.25 1.734999418258667 C 0.25 0.9300494194030762 0.9300500154495239 0.2499994486570358 1.735000014305115 0.2499994486570358 C 2.539950132369995 0.2499994486570358 3.220000028610229 0.9300494194030762 3.220000028610229 1.734999418258667 L 3.220000028610229 8.674999237060547 C 3.220000028610229 9.479948997497559 2.539950132369995 10.15999984741211 1.735000014305115 10.15999984741211 Z" stroke="none"/>
        <path d="M 1.735000014305115 9.909999847412109 C 2.404439926147461 9.909999847412109 2.970000028610229 9.344439506530762 2.970000028610229 8.674999237060547 L 2.970000028610229 1.734999418258667 C 2.970000028610229 1.065559506416321 2.404439926147461 0.4999994337558746 1.735000014305115 0.4999994337558746 C 1.065559983253479 0.4999994337558746 0.5 1.065559506416321 0.5 1.734999418258667 L 0.5 8.674999237060547 C 0.5 9.344439506530762 1.065559983253479 9.909999847412109 1.735000014305115 9.909999847412109 M 1.735000014305115 10.40999984741211 C 0.7865300178527832 10.40999984741211 1.430511442634952e-08 9.623469352722168 1.430511442634952e-08 8.674999237060547 L 1.430511442634952e-08 1.734999418258667 C 1.430511442634952e-08 0.7865294218063354 0.7865300178527832 -5.531310875994677e-07 1.735000014305115 -5.531310875994677e-07 C 2.683470010757446 -5.531310875994677e-07 3.470000028610229 0.7865294218063354 3.470000028610229 1.734999418258667 L 3.470000028610229 8.674999237060547 C 3.470000028610229 9.623469352722168 2.683470010757446 10.40999984741211 1.735000014305115 10.40999984741211 Z" stroke="none" fill="#fff"/>
      </g>
      <g id="Vector-2" data-name="Vector" transform="translate(35.278 2.892)" fill="#c32bd6">
        <path d="M 1.735000014305115 10.15999984741211 C 0.9300500154495239 10.15999984741211 0.25 9.479948997497559 0.25 8.674999237060547 L 0.25 1.734999418258667 C 0.25 0.9300494194030762 0.9300500154495239 0.2499994486570358 1.735000014305115 0.2499994486570358 C 2.539950132369995 0.2499994486570358 3.220000028610229 0.9300494194030762 3.220000028610229 1.734999418258667 L 3.220000028610229 8.674999237060547 C 3.220000028610229 9.479948997497559 2.539950132369995 10.15999984741211 1.735000014305115 10.15999984741211 Z" stroke="none"/>
        <path d="M 1.735000014305115 9.909999847412109 C 2.404439926147461 9.909999847412109 2.970000028610229 9.344439506530762 2.970000028610229 8.674999237060547 L 2.970000028610229 1.734999418258667 C 2.970000028610229 1.065559506416321 2.404439926147461 0.4999994337558746 1.735000014305115 0.4999994337558746 C 1.065559983253479 0.4999994337558746 0.5 1.065559506416321 0.5 1.734999418258667 L 0.5 8.674999237060547 C 0.5 9.344439506530762 1.065559983253479 9.909999847412109 1.735000014305115 9.909999847412109 M 1.735000014305115 10.40999984741211 C 0.7865300178527832 10.40999984741211 1.430511442634952e-08 9.623469352722168 1.430511442634952e-08 8.674999237060547 L 1.430511442634952e-08 1.734999418258667 C 1.430511442634952e-08 0.7865294218063354 0.7865300178527832 -5.531310875994677e-07 1.735000014305115 -5.531310875994677e-07 C 2.683470010757446 -5.531310875994677e-07 3.470000028610229 0.7865294218063354 3.470000028610229 1.734999418258667 L 3.470000028610229 8.674999237060547 C 3.470000028610229 9.623469352722168 2.683470010757446 10.40999984741211 1.735000014305115 10.40999984741211 Z" stroke="none" fill="#fff"/>
      </g>
      <g id="Vector-3" data-name="Vector" transform="translate(6.362 19.293)" fill="#c32bd6">
        <path d="M 41.06166458129883 3.220000028610229 L 1.735004544258118 3.220000028610229 C 0.9300544857978821 3.220000028610229 0.2500045001506805 2.539950132369995 0.2500045001506805 1.735000014305115 C 0.2500045001506805 0.9300500154495239 0.9300544857978821 0.25 1.735004544258118 0.25 L 41.06166458129883 0.25 C 41.86662292480469 0.25 42.54667282104492 0.9300500154495239 42.54667282104492 1.735000014305115 C 42.54667282104492 2.539950132369995 41.86662292480469 3.220000028610229 41.06166458129883 3.220000028610229 Z" stroke="none"/>
        <path d="M 41.06166458129883 2.970000028610229 C 41.73110580444336 2.970000028610229 42.29667282104492 2.404439926147461 42.29667282104492 1.735000014305115 C 42.29667282104492 1.065559983253479 41.73110580444336 0.5 41.06166458129883 0.5 L 1.735004544258118 0.5 C 1.065564513206482 0.5 0.5000045299530029 1.065559983253479 0.5000045299530029 1.735000014305115 C 0.5000045299530029 2.404439926147461 1.065564513206482 2.970000028610229 1.735004544258118 2.970000028610229 L 41.06166458129883 2.970000028610229 M 41.06166458129883 3.470000028610229 L 1.735004544258118 3.470000028610229 C 0.7865344882011414 3.470000028610229 4.503173840930685e-06 2.683470010757446 4.503173840930685e-06 1.735000014305115 C 4.503173840930685e-06 0.7865300178527832 0.7865344882011414 1.430511442634952e-08 1.735004544258118 1.430511442634952e-08 L 41.06166458129883 1.430511442634952e-08 C 42.01013565063477 1.430511442634952e-08 42.79667282104492 0.7865300178527832 42.79667282104492 1.735000014305115 C 42.79667282104492 2.683470010757446 42.01013565063477 3.470000028610229 41.06166458129883 3.470000028610229 Z" stroke="none" fill="#fff"/>
      </g>
      <g id="Vector-4" data-name="Vector" transform="translate(5.205 6.362)" fill="#c32bd6">
        <path d="M 31.80833053588867 46.01667404174805 L 13.30167007446289 46.01667404174805 C 11.24123001098633 46.01667404174805 9.371789932250977 45.72181701660156 7.745280265808105 45.14027404785156 C 6.145220279693604 44.56819534301758 4.7711501121521 43.71535491943359 3.661240339279175 42.60543441772461 C 2.551320314407349 41.49551391601562 1.698480248451233 40.12144470214844 1.126400351524353 38.52138519287109 C 0.544860303401947 36.89487457275391 0.2500002980232239 35.02543640136719 0.2500002980232239 32.96499633789062 L 0.2500002980232239 13.30166530609131 C 0.2500002980232239 11.24122524261475 0.544860303401947 9.371794700622559 1.126400351524353 7.745275020599365 C 1.698480248451233 6.145225048065186 2.551320314407349 4.771154880523682 3.661240339279175 3.661235094070435 C 4.7711501121521 2.551325082778931 6.145220279693604 1.698485136032104 7.745280265808105 1.126405119895935 C 9.371789932250977 0.5448651313781738 11.24123001098633 0.2500051259994507 13.30167007446289 0.2500051259994507 L 31.80833053588867 0.2500051259994507 C 33.86877059936523 0.2500051259994507 35.73820877075195 0.5448651313781738 37.36471939086914 1.126405119895935 C 38.96477890014648 1.698485136032104 40.33885192871094 2.551325082778931 41.44876098632812 3.661235094070435 C 42.55868148803711 4.771154880523682 43.41152191162109 6.145225048065186 43.98360061645508 7.745275020599365 C 44.56513977050781 9.371794700622559 44.86000061035156 11.24122524261475 44.86000061035156 13.30166530609131 L 44.86000061035156 32.96499633789062 C 44.86000061035156 35.02543640136719 44.56513977050781 36.89487457275391 43.98360061645508 38.52138519287109 C 43.41152191162109 40.12144470214844 42.55868148803711 41.49551391601562 41.44876098632812 42.60543441772461 C 40.33885192871094 43.71535491943359 38.96477890014648 44.56819534301758 37.36471939086914 45.14027404785156 C 35.73820877075195 45.72181701660156 33.86877059936523 46.01667404174805 31.80833053588867 46.01667404174805 Z M 13.30167007446289 3.219995021820068 C 9.940350532531738 3.219995021820068 7.392200469970703 4.063815116882324 5.728010177612305 5.728004932403564 C 4.063820362091064 7.392195224761963 3.220000267028809 9.94034481048584 3.220000267028809 13.30166530609131 L 3.220000267028809 32.96499633789062 C 3.220000267028809 36.32631683349609 4.063820362091064 38.87446594238281 5.728010177612305 40.53865432739258 C 7.392200469970703 42.20284652709961 9.940350532531738 43.04666519165039 13.30167007446289 43.04666519165039 L 31.80833053588867 43.04666519165039 C 35.16965103149414 43.04666519165039 37.71780014038086 42.20284652709961 39.38198852539062 40.53865432739258 C 41.04618072509766 38.87446594238281 41.88999938964844 36.32631683349609 41.88999938964844 32.96499633789062 L 41.88999938964844 13.30166530609131 C 41.88999938964844 9.94034481048584 41.04618072509766 7.392195224761963 39.38198852539062 5.728004932403564 C 37.71780014038086 4.063815116882324 35.16965103149414 3.219995021820068 31.80833053588867 3.219995021820068 L 13.30167007446289 3.219995021820068 Z" stroke="none"/>
        <path d="M 31.80833053588867 45.76667404174805 C 33.84000015258789 45.76667404174805 35.68112945556641 45.47672653198242 37.28055953979492 44.90486526489258 C 38.84552001953125 44.3453369140625 40.18843078613281 43.51222610473633 41.27199172973633 42.42865371704102 C 42.35554885864258 41.34509658813477 43.18865966796875 40.0021858215332 43.74819183349609 38.43722534179688 C 44.32004928588867 36.83779525756836 44.61000061035156 34.99666595458984 44.61000061035156 32.96499633789062 L 44.61000061035156 13.30166530609131 C 44.61000061035156 11.26999473571777 44.32004928588867 9.428874969482422 43.74819183349609 7.829444885253906 C 43.18865966796875 6.264484882354736 42.35554885864258 4.92157506942749 41.27199172973633 3.838015079498291 C 40.18843078613281 2.754455089569092 38.84552001953125 1.921345114707947 37.28055953979492 1.361815094947815 C 35.68112945556641 0.7899551391601562 33.84000015258789 0.5000051259994507 31.80833053588867 0.5000051259994507 L 13.30167007446289 0.5000051259994507 C 11.27000045776367 0.5000051259994507 9.42887020111084 0.7899551391601562 7.829440116882324 1.361815094947815 C 6.264480113983154 1.921345114707947 4.921570301055908 2.754455089569092 3.838010311126709 3.838015079498291 C 2.75445032119751 4.92157506942749 1.921340346336365 6.264484882354736 1.361810326576233 7.829444885253906 C 0.7899503111839294 9.428874969482422 0.5000002980232239 11.26999473571777 0.5000002980232239 13.30166530609131 L 0.5000002980232239 32.96499633789062 C 0.5000002980232239 34.99666595458984 0.7899503111839294 36.83779525756836 1.361810326576233 38.43722534179688 C 1.921340346336365 40.0021858215332 2.75445032119751 41.34509658813477 3.838010311126709 42.42865371704102 C 4.921570301055908 43.51222610473633 6.264480113983154 44.3453369140625 7.829440116882324 44.90486526489258 C 9.42887020111084 45.47672653198242 11.27000045776367 45.76667404174805 13.30167007446289 45.76667404174805 L 31.80833053588867 45.76667404174805 M 13.30167007446289 2.969995021820068 L 31.80833053588867 2.969995021820068 C 38.66392135620117 2.969995021820068 42.13999938964844 6.446074962615967 42.13999938964844 13.30166530609131 L 42.13999938964844 32.96499633789062 C 42.13999938964844 39.82058334350586 38.66392135620117 43.29666519165039 31.80833053588867 43.29666519165039 L 13.30167007446289 43.29666519165039 C 6.446080207824707 43.29666519165039 2.970000267028809 39.82058334350586 2.970000267028809 32.96499633789062 L 2.970000267028809 13.30166530609131 C 2.970000267028809 6.446074962615967 6.446080207824707 2.969995021820068 13.30167007446289 2.969995021820068 M 31.80833053588867 46.26667404174805 L 13.30167007446289 46.26667404174805 C 4.8580002784729 46.26667404174805 3.051757744287897e-07 41.40866470336914 3.051757744287897e-07 32.96499633789062 L 3.051757744287897e-07 13.30166530609131 C 3.051757744287897e-07 4.858005046844482 4.8580002784729 5.113525276101427e-06 13.30167007446289 5.113525276101427e-06 L 31.80833053588867 5.113525276101427e-06 C 40.25199890136719 5.113525276101427e-06 45.11000061035156 4.858005046844482 45.11000061035156 13.30166530609131 L 45.11000061035156 32.96499633789062 C 45.11000061035156 41.40866470336914 40.25199890136719 46.26667404174805 31.80833053588867 46.26667404174805 Z M 13.30167007446289 3.469995021820068 C 6.685530185699463 3.469995021820068 3.470000267028809 6.685534954071045 3.470000267028809 13.30166530609131 L 3.470000267028809 32.96499633789062 C 3.470000267028809 39.58113479614258 6.685530185699463 42.79666519165039 13.30167007446289 42.79666519165039 L 31.80833053588867 42.79666519165039 C 38.42446899414062 42.79666519165039 41.63999938964844 39.58113479614258 41.63999938964844 32.96499633789062 L 41.63999938964844 13.30166530609131 C 41.63999938964844 6.685534954071045 38.42446899414062 3.469995021820068 31.80833053588867 3.469995021820068 L 13.30167007446289 3.469995021820068 Z" stroke="none" fill="#fff"/>
      </g>
      <g id="Vector-5" data-name="Vector" transform="translate(17.35 28.917)" fill="#c32bd6">
        <path d="M 2.31333327293396 4.376694202423096 C 2.061463356018066 4.376694202423096 1.790733218193054 4.31935453414917 1.530413269996643 4.210884094238281 C 1.284239768981934 4.108319282531738 1.05467689037323 3.962959766387939 0.8478830456733704 3.778713703155518 C 0.6637144684791565 3.571978569030762 0.5183687806129456 3.342431545257568 0.4158032834529877 3.096274375915527 C 0.3073332607746124 2.835944414138794 0.2500032782554626 2.565214395523071 0.2500032782554626 2.313364267349243 C 0.2500032782554626 1.786054730415344 0.4669373035430908 1.253296494483948 0.8455670475959778 0.8500707745552063 C 1.05295991897583 0.6648492813110352 1.283324003219604 0.5187807083129883 1.530403256416321 0.4158343076705933 L 1.533113241195679 0.414704293012619 L 1.535793304443359 0.4135142862796783 C 1.779913306236267 0.3050143122673035 2.042103290557861 0.2499942928552628 2.315063238143921 0.2499942928552628 C 2.451013326644897 0.2499942928552628 2.589603185653687 0.263934314250946 2.727003335952759 0.2914142906665802 L 2.730953216552734 0.2921943068504333 L 2.734923362731934 0.2928642928600311 C 2.848473310470581 0.3117943108081818 2.964783191680908 0.3507542908191681 3.080613374710083 0.4086742997169495 L 3.096503257751465 0.416614294052124 L 3.113363265991211 0.4222342967987061 C 3.227402210235596 0.4602407515048981 3.344418048858643 0.5185168385505676 3.461322784423828 0.5955038666725159 L 3.626113176345825 0.7273343205451965 L 3.778589963912964 0.8493156433105469 C 3.806240558624268 0.882987916469574 3.835384368896484 0.9166841506958008 3.864553213119507 0.9503443241119385 C 3.925953388214111 1.021174311637878 3.983933210372925 1.08808434009552 4.019003391265869 1.146524310112 L 4.022063255310059 1.151634335517883 L 4.025363445281982 1.1565842628479 C 4.105223178863525 1.276364326477051 4.165473461151123 1.3963942527771 4.204463481903076 1.513344287872314 L 4.210083484649658 1.530194282531738 L 4.218023300170898 1.54608428478241 C 4.275501251220703 1.661040544509888 4.314309120178223 1.776458263397217 4.333387851715088 1.889163851737976 L 4.340743064880371 1.940104246139526 C 4.360013484954834 2.072904348373413 4.376663208007812 2.187584400177002 4.376663208007812 2.313364267349243 C 4.376663208007812 2.841709852218628 4.158868312835693 3.375524044036865 3.778858184814453 3.779031276702881 C 3.375338792800903 4.158955097198486 2.841604232788086 4.376694202423096 2.31333327293396 4.376694202423096 Z" stroke="none"/>
        <path d="M 2.31333327293396 4.126694202423096 C 2.769323348999023 4.126694202423096 3.250047206878662 3.930790901184082 3.602067232131958 3.602084159851074 C 3.930773973464966 3.250074148178101 4.126663208007812 2.76936411857605 4.126663208007812 2.313364267349243 C 4.126663208007812 2.205634355545044 4.111953258514404 2.104304313659668 4.09333324432373 1.976014256477356 L 4.086417675018311 1.92811381816864 C 4.0712890625 1.840639233589172 4.040352821350098 1.74975323677063 3.994423389434814 1.657894253730774 L 3.978533267974854 1.626114249229431 L 3.967293262481689 1.592404246330261 C 3.935333251953125 1.49653434753418 3.884883165359497 1.396554350852966 3.817353248596191 1.29526424407959 L 3.804623365402222 1.275144338607788 C 3.780763387680054 1.235374331474304 3.724913358688354 1.170934319496155 3.675633192062378 1.114074349403381 C 3.651625633239746 1.086368680000305 3.62707257270813 1.058037519454956 3.602413654327393 1.0285325050354 L 3.314509868621826 0.7982102036476135 C 3.218975782394409 0.7362257838249207 3.124797821044922 0.6895630359649658 3.034323215484619 0.6594142913818359 L 3.000603199005127 0.6481742858886719 L 2.96880316734314 0.632274329662323 C 2.875283241271973 0.5855143070220947 2.782763242721558 0.5542842745780945 2.693813323974609 0.5394542813301086 L 2.67797327041626 0.5365542769432068 C 2.315412282943726 0.4640361070632935 1.955853223800659 0.5004037022590637 1.637323260307312 0.6419743299484253 L 1.626553297042847 0.6466042995452881 C 1.408588171005249 0.7374173998832703 1.204737305641174 0.8660817742347717 1.020389199256897 1.029157519340515 C 0.6942053437232971 1.380758047103882 0.5000032782554626 1.8592928647995 0.5000032782554626 2.313364267349243 C 0.5000032782554626 2.532504320144653 0.5506832599639893 2.769994258880615 0.6465732455253601 3.000124216079712 C 0.7366483807563782 3.216310501098633 0.8639041185379028 3.418553113937378 1.025023460388184 3.60164999961853 C 1.208156228065491 3.76279616355896 1.410406112670898 3.890058517456055 1.626563310623169 3.980114221572876 C 1.856693267822266 4.076004505157471 2.094173192977905 4.126694202423096 2.31333327293396 4.126694202423096 M 2.31333327293396 4.626694202423096 C 2.012603282928467 4.626694202423096 1.711853265762329 4.557324409484863 1.434253215789795 4.441654205322266 C 1.15665328502655 4.325994491577148 0.9022232890129089 4.164004325866699 0.6708832979202271 3.955804347991943 C 0.4626832604408264 3.724474191665649 0.3007032871246338 3.47003436088562 0.1850332766771317 3.192434310913086 C 0.06937327235937119 2.914834260940552 3.272934009146411e-06 2.614094257354736 3.272934009146411e-06 2.313364267349243 C 3.272934009146411e-06 1.711894273757935 0.2544832825660706 1.110444307327271 0.6708832979202271 0.6709142923355103 C 0.9022232890129089 0.4627143144607544 1.15665328502655 0.3007242977619171 1.434253215789795 0.1850643008947372 C 1.850653171539307 -5.688864803232718e-06 2.313363075256348 -0.04626571387052536 2.776033163070679 0.04626430198550224 C 2.914833307266235 0.06940429657697678 3.053613185882568 0.1156643033027649 3.192413330078125 0.1850643008947372 C 3.331213235855103 0.2313243001699448 3.469993352890015 0.3007943034172058 3.608793258666992 0.3933242857456207 C 3.724463224411011 0.485854297876358 3.840113162994385 0.5783842802047729 3.955783367156982 0.6709142923355103 C 4.048313140869141 0.7865843176841736 4.163973331451416 0.9022343158721924 4.233373165130615 1.017904281616211 C 4.325903415679932 1.156694293022156 4.395363330841064 1.295484304428101 4.441633224487305 1.434284329414368 C 4.511033058166504 1.573084354400635 4.55729341506958 1.711864352226257 4.580423355102539 1.850664258003235 C 4.603553295135498 2.012594223022461 4.626663208007812 2.151424407958984 4.626663208007812 2.313364267349243 C 4.626663208007812 2.914824247360229 4.372183322906494 3.516274213790894 3.955783367156982 3.955804347991943 C 3.51624321937561 4.372204303741455 2.914803266525269 4.626694202423096 2.31333327293396 4.626694202423096 Z" stroke="none" fill="#fff"/>
      </g>
      <g id="Vector-6" data-name="Vector" transform="translate(25.447 28.919)" fill="#c32bd6">
        <path d="M 2.31333327293396 4.374112129211426 C 1.788225293159485 4.374112129211426 1.257689118385315 4.158942699432373 0.8550527095794678 3.783248662948608 L 0.5954815149307251 3.458784580230713 C 0.5185129642486572 3.341907262802124 0.4602292478084564 3.224869966506958 0.4222032725811005 3.110801935195923 L 0.4165832698345184 3.093951940536499 L 0.4086432754993439 3.078061819076538 C 0.3511828482151031 2.963140964508057 0.3123810589313507 2.84775710105896 0.2932957708835602 2.735074758529663 L 0.2859532833099365 2.684271812438965 C 0.2666632831096649 2.551391839981079 0.2500032782554626 2.436631917953491 0.2500032782554626 2.310781955718994 C 0.2500032782554626 2.058921813964844 0.3073332607746124 1.788191914558411 0.4158032834529877 1.527851939201355 C 0.5191729068756104 1.279760718345642 0.666012704372406 1.048537850379944 0.8522740602493286 0.8405171632766724 C 1.230197906494141 0.4651357531547546 1.762019991874695 0.2500019073486328 2.31255316734314 0.2500019073486328 C 2.588733196258545 0.2500019073486328 2.850603342056274 0.3041519224643707 3.090883255004883 0.4109319150447845 L 3.096713304519653 0.4135219156742096 L 3.102663278579712 0.41582190990448 C 3.343493223190308 0.5084450244903564 3.546866178512573 0.6377801895141602 3.781110048294067 0.8474903106689453 C 4.159687042236328 1.250726699829102 4.376663208007812 1.783504724502563 4.376663208007812 2.310781955718994 C 4.376663208007812 2.436551809310913 4.360013484954834 2.551231861114502 4.340743064880371 2.684031963348389 L 4.333387851715088 2.734973907470703 C 4.314308643341064 2.847689390182495 4.275501251220703 2.96310567855835 4.218023300170898 3.078061819076538 L 4.210083484649658 3.093951940536499 L 4.204463481903076 3.110801935195923 C 4.166437149047852 3.224869966506958 4.108153343200684 3.341907262802124 4.031185150146484 3.458784580230713 L 3.773564577102661 3.780810356140137 C 3.542500257492065 3.98654580116272 3.340893745422363 4.114118576049805 3.102663278579712 4.205741882324219 L 3.099443197250366 4.206982135772705 L 3.09626317024231 4.208312034606934 C 2.835923194885254 4.316781997680664 2.565193176269531 4.374112129211426 2.31333327293396 4.374112129211426 Z" stroke="none"/>
        <path d="M 2.31333327293396 4.124112129211426 C 2.532483339309692 4.124112129211426 2.769973278045654 4.073431968688965 3.000113248825073 3.977541923522949 L 3.012913227081299 3.972411870956421 C 3.216153383255005 3.894239664077759 3.391028881072998 3.784338235855103 3.591773271560669 3.607853651046753 L 3.828502893447876 3.311933040618896 C 3.890465497970581 3.216420888900757 3.937127590179443 3.122248411178589 3.967293262481689 3.031741857528687 L 3.978533267974854 2.998031854629517 L 3.994423389434814 2.966251850128174 C 4.040352821350098 2.874392986297607 4.071288585662842 2.783509731292725 4.086417198181152 2.696025609970093 L 4.09333324432373 2.64812183380127 C 4.111953258514404 2.519831895828247 4.126663208007812 2.418501853942871 4.126663208007812 2.310781955718994 C 4.126663208007812 1.856636166572571 3.932368278503418 1.377976059913635 3.606075048446655 1.026357173919678 C 3.399291038513184 0.8424446582794189 3.220966815948486 0.7291755080223083 3.012913227081299 0.6491519212722778 L 2.989343166351318 0.6393918991088867 C 2.781243324279785 0.5469019412994385 2.553543329238892 0.5000019073486328 2.31255316734314 0.5000019073486328 C 1.830071330070496 0.5000019073486328 1.364718556404114 0.6867390871047974 1.033594250679016 1.012802243232727 C 0.8684088587760925 1.198458790779114 0.7382373809814453 1.40403163433075 0.6465732455253601 1.624001860618591 C 0.5506832599639893 1.8541419506073 0.5000032782554626 2.091631889343262 0.5000032782554626 2.310781955718994 C 0.5000032782554626 2.418581962585449 0.5147233009338379 2.519981861114502 0.5333632826805115 2.648351907730103 L 0.5402174592018127 2.695842266082764 C 0.5553349256515503 2.783381462097168 0.5862823724746704 2.874330043792725 0.632243275642395 2.966251850128174 L 0.6481332778930664 2.998031854629517 L 0.6593732833862305 3.031741857528687 C 0.6895389556884766 3.122248411178589 0.7362010478973389 3.216420888900757 0.7981637120246887 3.311933040618896 L 1.038501262664795 3.612363576889038 C 1.389199733734131 3.933305978775024 1.863317131996155 4.124112129211426 2.31333327293396 4.124112129211426 M 2.31333327293396 4.624112129211426 C 1.711863279342651 4.624112129211426 1.11042332649231 4.369631767272949 0.6708832979202271 3.953231811523438 C 0.5783532857894897 3.837561845779419 0.4858332872390747 3.721911907196045 0.3932932615280151 3.606241941452026 C 0.3007632791996002 3.46744179725647 0.2313032746315002 3.328661918640137 0.1850332766771317 3.189862012863159 C 0.1156332716345787 3.051061868667603 0.06937327235937119 2.912271976470947 0.04624327272176743 2.773471832275391 C 0.02310327254235744 2.611541986465454 3.272934009146411e-06 2.472711801528931 3.272934009146411e-06 2.310781955718994 C 3.272934009146411e-06 2.010051965713501 0.06937327235937119 1.709301948547363 0.1850332766771317 1.431701898574829 C 0.3007032871246338 1.154101967811584 0.4626832604408264 0.8996719121932983 0.6708832979202271 0.6683319211006165 C 1.318623185157776 0.02060188725590706 2.359612941741943 -0.1876480728387833 3.192413330078125 0.1824819147586823 C 3.493143320083618 0.2981519103050232 3.724443197250366 0.4601319134235382 3.955783367156982 0.6683319211006165 C 4.372183322906494 1.107871890068054 4.626663208007812 1.709311962127686 4.626663208007812 2.310781955718994 C 4.626663208007812 2.472711801528931 4.603553295135498 2.611541986465454 4.580423355102539 2.773471832275391 C 4.55729341506958 2.912271976470947 4.511033058166504 3.051061868667603 4.441633224487305 3.189862012863159 C 4.395363330841064 3.328661918640137 4.325903415679932 3.46744179725647 4.233373165130615 3.606241941452026 C 4.140833377838135 3.721911907196045 4.048313140869141 3.837561845779419 3.955783367156982 3.953231811523438 C 3.724443197250366 4.161431789398193 3.493143320083618 4.32341194152832 3.192413330078125 4.439082145690918 C 2.914813280105591 4.554741859436035 2.614063262939453 4.624112129211426 2.31333327293396 4.624112129211426 Z" stroke="none" fill="#fff"/>
      </g>
      <g id="Vector-7" data-name="Vector" transform="translate(17.35 37.016)" fill="#c32bd6">
        <path d="M 2.31333327293396 4.374112129211426 C 2.061473369598389 4.374112129211426 1.790743231773376 4.316781997680664 1.530403256416321 4.208312034606934 C 1.284219980239868 4.105737209320068 1.05463969707489 3.960352182388306 0.8478649258613586 3.776125192642212 C 0.639431893825531 3.542901992797852 0.5106764435768127 3.340110063552856 0.4183732867240906 3.100111961364746 L 0.4171332716941833 3.0968918800354 L 0.4158032834529877 3.093711853027344 C 0.3073332607746124 2.833371877670288 0.2500032782554626 2.562641859054565 0.2500032782554626 2.310781955718994 C 0.2500032782554626 1.783504724502563 0.4669355750083923 1.250773549079895 0.8455125689506531 0.847537100315094 C 1.052896022796631 0.6623184084892273 1.283289074897766 0.5162146091461182 1.530413269996643 0.4132519066333771 C 1.781983256340027 0.3044919073581696 2.048083305358887 0.2500019073486328 2.324403285980225 0.2500019073486328 C 2.866212606430054 0.2500019073486328 3.392244100570679 0.4634165167808533 3.769817590713501 0.83598792552948 C 3.800041437149048 0.8732378482818604 3.832280397415161 0.9105196595191956 3.864553213119507 0.9477618932723999 C 3.925953388214111 1.01859188079834 3.983933210372925 1.085501909255981 4.019003391265869 1.143941879272461 L 4.022063255310059 1.149041891098022 L 4.025363445281982 1.153991937637329 C 4.105223178863525 1.273791909217834 4.165483474731445 1.393831968307495 4.204463481903076 1.510761857032776 L 4.210083484649658 1.527611970901489 L 4.218023300170898 1.543501973152161 C 4.27906322479248 1.665581941604614 4.314503192901611 1.777561902999878 4.33293342590332 1.906591892242432 L 4.333343505859375 1.909471869468689 L 4.333823204040527 1.912331938743591 C 4.352213382720947 2.022691965103149 4.376663208007812 2.184062004089355 4.376663208007812 2.310781955718994 C 4.376663208007812 2.839095115661621 4.158893585205078 3.372866868972778 3.778936624526978 3.776385307312012 C 3.375418186187744 4.156342506408691 2.841646432876587 4.374112129211426 2.31333327293396 4.374112129211426 Z" stroke="none"/>
        <path d="M 2.31333327293396 4.124112129211426 C 2.769333124160767 4.124112129211426 3.250055074691772 3.928220510482788 3.602065324783325 3.599514007568359 C 3.930771827697754 3.247503519058228 4.126663208007812 2.766781806945801 4.126663208007812 2.310781955718994 C 4.126663208007812 2.202611923217773 4.104153156280518 2.055032014846802 4.087223052978516 1.953431963920593 L 4.085443496704102 1.941941857337952 C 4.070983409881592 1.840691924095154 4.042913436889648 1.752291917800903 3.994423389434814 1.655311942100525 L 3.978533267974854 1.623531937599182 L 3.967293262481689 1.589821934700012 C 3.935343265533447 1.493961930274963 3.884883165359497 1.39398193359375 3.817343235015869 1.292661905288696 L 3.804623365402222 1.27256190776825 C 3.780763387680054 1.232791900634766 3.724913358688354 1.168351888656616 3.675633192062378 1.111491918563843 C 3.645947694778442 1.077233552932739 3.615429401397705 1.042020559310913 3.584907293319702 1.004813313484192 C 3.254448890686035 0.6836885809898376 2.796505451202393 0.5000019073486328 2.324403285980225 0.5000019073486328 C 2.082413196563721 0.5000019073486328 1.849693298339844 0.5475819110870361 1.632713317871094 0.6414119005203247 L 1.626563310623169 0.6440219283103943 C 1.408578634262085 0.734854519367218 1.204718470573425 0.8635188341140747 1.020388245582581 1.026576161384583 C 0.6942044496536255 1.378176927566528 0.5000032782554626 1.856720447540283 0.5000032782554626 2.310781955718994 C 0.5000032782554626 2.529932022094727 0.5506832599639893 2.767421960830688 0.6465732455253601 2.997561931610107 L 0.6517032980918884 3.010361909866333 C 0.7311214208602905 3.216841220855713 0.8432754874229431 3.394030570983887 1.024737954139709 3.598825931549072 C 1.207926750183105 3.760069847106934 1.410286784172058 3.887421131134033 1.626553297042847 3.977541923522949 C 1.856693267822266 4.073431968688965 2.094183206558228 4.124112129211426 2.31333327293396 4.124112129211426 M 2.31333327293396 4.624112129211426 C 2.012603282928467 4.624112129211426 1.711853265762329 4.554741859436035 1.434253215789795 4.439082145690918 C 1.15665328502655 4.32341194152832 0.9022232890129089 4.161431789398193 0.6708832979202271 3.953231811523438 C 0.4626832604408264 3.7218918800354 0.3007032871246338 3.490592002868652 0.1850332766771317 3.189862012863159 C 0.06937327235937119 2.912261962890625 3.272934009146411e-06 2.611511945724487 3.272934009146411e-06 2.310781955718994 C 3.272934009146411e-06 1.709311962127686 0.2544832825660706 1.107871890068054 0.6708832979202271 0.6683319211006165 C 0.9022232890129089 0.4601319134235382 1.15665328502655 0.2981519103050232 1.434253215789795 0.1824819147586823 C 2.290193557739258 -0.1876481473445892 3.308043241500854 0.02060198970139027 3.955783367156982 0.6683319211006165 C 4.048313140869141 0.784001886844635 4.163973331451416 0.8996519446372986 4.233373165130615 1.015321969985962 C 4.325903415679932 1.154121875762939 4.395363330841064 1.292901873588562 4.441633224487305 1.431701898574829 C 4.511033058166504 1.570501923561096 4.55729341506958 1.709311962127686 4.580423355102539 1.871241927146912 C 4.603553295135498 2.010041952133179 4.626663208007812 2.171981811523438 4.626663208007812 2.310781955718994 C 4.626663208007812 2.912251949310303 4.372183322906494 3.513691902160645 3.955783367156982 3.953231811523438 C 3.51624321937561 4.369631767272949 2.914803266525269 4.624112129211426 2.31333327293396 4.624112129211426 Z" stroke="none" fill="#fff"/>
      </g>
      <g id="Vector-8" data-name="Vector" fill="none" opacity="0">
        <path d="M0,0H55.52V55.52H0Z" stroke="none"/>
        <path d="M 0.5 0.5 L 0.5 55.02000045776367 L 55.02000045776367 55.02000045776367 L 55.02000045776367 0.5 L 0.5 0.5 M 0 0 L 55.52000045776367 0 L 55.52000045776367 55.52000045776367 L 0 55.52000045776367 L 0 0 Z" stroke="none" fill="#fff"/>
      </g>
    </g>
  </g>
</svg>
