<svg xmlns="http://www.w3.org/2000/svg" width="51" height="51.071" viewBox="0 0 51 51.071">
  <path id="together" d="M51.992,41.69a2.6,2.6,0,0,0-2.066-2.5,2.543,2.543,0,0,0,.2-1.029,2.6,2.6,0,0,0-2.588-2.555L40.646,35.6l6.906-4.431,2.957,4.749a.8.8,0,0,0,1.358-.846l-3.151-5.059a2.1,2.1,0,0,0-.13-1.959l-1.2-1.923a2.05,2.05,0,0,0-2.525-.817l-.05-.077a9.272,9.272,0,0,1-1.356-5.55,10.735,10.735,0,0,0-1.592-6.513l-2.4-3.866L34.581,1.45a2.534,2.534,0,0,0-3.528-.8A2.559,2.559,0,0,0,30.3,1.4a2.535,2.535,0,0,0-3.119-.293,2.559,2.559,0,0,0-.712.682,2.534,2.534,0,0,0-3.388-.593,2.6,2.6,0,0,0-1.031,3.076,2.543,2.543,0,0,0-.98.374,2.6,2.6,0,0,0-.8,3.547l1.264,2.033-.9,1.464a2.1,2.1,0,0,0-1.7.99l-1.188,1.928a2.05,2.05,0,0,0,.394,2.624l-.047.079A9.271,9.271,0,0,1,13.733,21a10.735,10.735,0,0,0-5.119,4.33L6.225,29.206h0L1.373,37.082a2.535,2.535,0,0,0,.861,3.513,2.559,2.559,0,0,0,1,.343A2.535,2.535,0,0,0,4.366,43.86a2.558,2.558,0,0,0,.929.332,2.538,2.538,0,0,0,.1,2.427H1.793a.8.8,0,0,0,0,1.6H13.977a2.1,2.1,0,0,0,1.732.926l2.265,0h0A2.05,2.05,0,0,0,20,47.435l.092,0a9.271,9.271,0,0,1,5.428,1.783,10.735,10.735,0,0,0,6.37,2.092l4.552,0,9.251.007h0a2.534,2.534,0,0,0,2.539-2.574A2.56,2.56,0,0,0,48,47.71a2.535,2.535,0,0,0,1.9-2.493,2.559,2.559,0,0,0-.2-.965,2.534,2.534,0,0,0,2.294-2.562ZM45.746,26.769a.455.455,0,0,1,.287.206l1.2,1.923a.5.5,0,0,1-.153.676l-6.351,4.075a2.729,2.729,0,0,0-2.1-2.471L45.4,26.832A.455.455,0,0,1,45.746,26.769ZM31.905,31.1H31.9a10.536,10.536,0,0,0-4.66,1.076,10.5,10.5,0,0,0,.06-3.232l-.035-.253a8.871,8.871,0,0,1-.041-2.069A10.509,10.509,0,0,0,30.3,28.281l.242.082a8.966,8.966,0,0,1,4,2.741h-.268ZM21.933,5.991a.935.935,0,0,1,1.305.294l5.476,8.808a.8.8,0,1,0,1.359-.845L24.6,5.442h0L23.638,3.9a.994.994,0,0,1,.306-1.356.935.935,0,0,1,1.306.295l6.435,10.351a.8.8,0,0,0,1.359-.845L27.737,3.808h0a.994.994,0,0,1,.306-1.356.935.935,0,0,1,1.306.295l.9,1.452h0l4.4,7.081a.8.8,0,1,0,1.359-.845l-4.4-7.083A.994.994,0,0,1,31.917,2a.935.935,0,0,1,1.306.295l4.884,7.856,2.4,3.866a9.272,9.272,0,0,1,1.355,5.549,10.883,10.883,0,0,0,1.6,6.522l.008.012.031.048L36.3,30.77a10.582,10.582,0,0,0-5.244-3.923l-.242-.082A8.985,8.985,0,0,1,26.069,23l-1.757-2.827h0l-1.469-2.362a1.1,1.1,0,0,1,0-1.177,1.043,1.043,0,0,1,.99-.515,3.158,3.158,0,0,1,1.325.43,2.252,2.252,0,0,1,.784.77l1.866,3.059a.8.8,0,1,0,1.366-.833l-1.546-2.535a.806.806,0,0,0-.043-.079L21.627,7.347A.994.994,0,0,1,21.933,5.991Zm1.182,6.779-.929-.554.291-.472Zm-4,2.677L20.3,13.519a.5.5,0,0,1,.673-.165l2.095,1.25a2.667,2.667,0,0,0-1.588,1.2,2.732,2.732,0,0,0-.4,1.361l-1.812-1.081a.453.453,0,0,1-.155-.632ZM4.753,41.9a.934.934,0,0,1,.115-.717l5.272-8.556a.8.8,0,0,0-1.362-.839L4.4,38.889h0a.994.994,0,0,1-1.35.331.935.935,0,0,1-.318-1.3l4.853-7.876L9.976,26.17a9.272,9.272,0,0,1,4.362-3.688,10.882,10.882,0,0,0,5.125-4.338l.007-.012.029-.049,2.482,1.481a.808.808,0,0,0,.1.05l1.38,2.22h0l1.249,2.009a10.6,10.6,0,0,0,1.1,1.465,10.46,10.46,0,0,0-.13,3.6l.035.253a8.985,8.985,0,0,1-1.257,5.924L23.215,37.1h0L21.25,40.29a1.1,1.1,0,0,1-1.053.525,1.045,1.045,0,0,1-.9-.656,3.156,3.156,0,0,1-.206-1.377,2.251,2.251,0,0,1,.338-1.043l.005-.008,1.9-3.028a.8.8,0,0,0-1.355-.851L18.4,36.366a.8.8,0,0,0-.052.074l-5.919,9.605a.994.994,0,0,1-1.35.331.935.935,0,0,1-.319-1.3l5.441-8.83a.8.8,0,0,0-1.362-.839L9.4,44.237h0l-.953,1.547a.994.994,0,0,1-1.35.331.934.934,0,0,1-.318-1.3L13.17,34.439a.8.8,0,0,0-1.362-.839L6.536,42.155h0a.994.994,0,0,1-1.35.331A.934.934,0,0,1,4.753,41.9ZM18.3,47.412a.455.455,0,0,1-.326.135h0l-2.265,0a.5.5,0,0,1-.493-.484l-.023-2.453,2.526-4.1q.041.124.09.245a2.636,2.636,0,0,0,.549.848l.074,5.481A.455.455,0,0,1,18.3,47.412Zm31.821-5.025a.934.934,0,0,1-.67.278h0l-2.137,0h0l-10.048-.008h0a.8.8,0,0,0,0,1.6l10.05.008a.994.994,0,0,1,.989.977.935.935,0,0,1-.94.952h0l-10.049-.008h0a.8.8,0,0,0,0,1.6l8.338.006h0a.994.994,0,0,1,.989.977.935.935,0,0,1-.94.952h0l-9.251-.007-4.552,0a9.272,9.272,0,0,1-5.427-1.783,10.882,10.882,0,0,0-6.378-2.092h-.073L19.969,42.4c.03,0,.061.008.091.011q.12.01.239.01a2.7,2.7,0,0,0,2.313-1.29l1.459-2.368h0l1.746-2.834a10.6,10.6,0,0,0,.765-1.5.8.8,0,0,0,.091-.055A8.921,8.921,0,0,1,31.9,32.7H31.9l3.328,0h0l2.781,0a1.1,1.1,0,0,1,1,.622,1.045,1.045,0,0,1-.086,1.113,3.155,3.155,0,0,1-1.065.9A2.251,2.251,0,0,1,36.8,35.6h-.013l-3.574-.034H33.2a.8.8,0,0,0-.007,1.6l2.97.028a.811.811,0,0,0,.089.005h.537l10.746.008a.994.994,0,0,1,.989.977.935.935,0,0,1-.94.952h0l-10.368-.008h0a.8.8,0,0,0,0,1.6l12.188.009a.994.994,0,0,1,.989.976A.934.934,0,0,1,50.123,42.386Z" transform="translate(-0.992 -0.248)" fill="#ed2f59"/>
</svg>
