<svg xmlns="http://www.w3.org/2000/svg" width="53.055" height="53.18" viewBox="0 0 53.055 53.18">
  <g id="tools" transform="translate(-0.074 -0.117)">
    <path id="Path_16156" data-name="Path 16156" d="M9.808,53.858c-.7-.162-1.411-.3-2.1-.495a1.042,1.042,0,0,1-.485-1.888q1.918-1.929,3.866-3.828a1.3,1.3,0,0,0,.374-.851,2.575,2.575,0,0,0-1.114-2.674.435.435,0,0,1-.109-.109,2.617,2.617,0,0,0-2.852-1.147,1.4,1.4,0,0,0-.7.314C5.4,44.439,4.146,45.725,2.878,47c-.825.827-1.665.6-2-.527A10.379,10.379,0,0,1,13.133,33.343a.683.683,0,0,0,.543-.1c2.479-2.454,4.941-4.926,7.431-7.415-.123-.134-.232-.26-.35-.378q-6-6.018-12-12.039a1.16,1.16,0,0,0-.953-.384c-.62.027-1.243,0-1.865.008a1.068,1.068,0,0,1-.989-.55Q2.78,8.869.615,5.248A1.037,1.037,0,0,1,.791,3.875q1.394-1.427,2.82-2.822A1.013,1.013,0,0,1,5.022.892c2.4,1.429,4.8,2.872,7.2,4.309a1.164,1.164,0,0,1,.576,1.086c0,.674-.012,1.347.008,2.021a.8.8,0,0,0,.174.506c4.184,4.169,8.378,8.329,12.6,12.522.069-.062.195-.17.312-.288,2.309-2.308,4.613-4.622,6.933-6.917a.846.846,0,0,0,.248-.91A10.381,10.381,0,0,1,43.944.721a13.252,13.252,0,0,1,2.43.476,1.025,1.025,0,0,1,.475,1.833q-1.875,1.935-3.785,3.837a1.378,1.378,0,0,0-.392.9,2.643,2.643,0,0,0,1.1,2.688.973.973,0,0,1,.109.11c1.185,1.221,1.186,1.23,2.906,1.111a.978.978,0,0,0,.556-.3c1.263-1.254,2.509-2.523,3.764-3.783.883-.888,1.665-.668,2.064.511a12.559,12.559,0,0,1,.287,3.385,8.413,8.413,0,0,1-1.014,4.327A10.343,10.343,0,0,1,41.3,21.244a1.215,1.215,0,0,0-1.3.374c-1.705,1.763-3.455,3.481-5.2,5.21a3.479,3.479,0,0,1-.5.343l1.735,1.6a3.568,3.568,0,0,1,.422-.653,1.049,1.049,0,0,1,1.561-.084,1.026,1.026,0,0,1-.087,1.524,3.7,3.7,0,0,1-.587.411l4.253,3.9c3.182,2.919,6.344,5.86,9.554,8.748a6.253,6.253,0,0,1,2.335,5.21,6,6,0,0,1-3.744,5.555c-.5.205-1.045.318-1.569.474H46.61a.445.445,0,0,0-.132-.073,6.464,6.464,0,0,1-3.933-2.2q-6.193-6.76-12.409-13.5a2.3,2.3,0,0,1-.254-.457c-.335.317-.513.506-.711.67a1.024,1.024,0,0,1-1.456-1.439c.192-.238.418-.449.645-.689l-1.393-1.516c-2,2-3.966,3.961-5.912,5.946a.846.846,0,0,0-.1.652A10.344,10.344,0,0,1,15.04,52.918a21.883,21.883,0,0,1-3.365.941H9.808ZM44.1,2.824a7.544,7.544,0,0,0-3,.226,8.252,8.252,0,0,0-5.837,10.337A1.554,1.554,0,0,1,34.8,15.1q-10,9.968-19.968,19.968a1.574,1.574,0,0,1-1.72.449A8.25,8.25,0,0,0,3.1,40.383,7.741,7.741,0,0,0,2.571,44.3c1.042-1.027,2.047-2,3.025-2.989a1.623,1.623,0,0,1,1.288-.531c.794.026,1.589.021,2.383,0a1.478,1.478,0,0,1,1.153.478q1.289,1.312,2.6,2.6a1.611,1.611,0,0,1,.5,1.25c-.012.759-.014,1.52,0,2.279a1.644,1.644,0,0,1-.533,1.29c-.907.876-1.794,1.772-2.687,2.662-.1.1-.186.214-.332.385a7.51,7.51,0,0,0,2.954-.227,8.254,8.254,0,0,0,5.846-10.333,1.52,1.52,0,0,1,.415-1.674q10.038-10,20.045-20.04a1.479,1.479,0,0,1,1.626-.427,8.286,8.286,0,0,0,10.259-5.4,7.658,7.658,0,0,0,.339-3.359c-1.023,1-2.02,1.955-2.985,2.938a1.714,1.714,0,0,1-1.378.566c-.759-.03-1.52-.023-2.279,0a1.537,1.537,0,0,1-1.238-.522q-1.227-1.3-2.482-2.574a1.607,1.607,0,0,1-.484-1.208q.016-1.166,0-2.331a1.623,1.623,0,0,1,.509-1.249c.871-.863,1.724-1.744,2.583-2.62.116-.118.222-.244.4-.441ZM31.317,36.289a.97.97,0,0,0,.092.127c4.314,4.685,8.614,9.384,12.949,14.05a4.146,4.146,0,1,0,5.761-5.951q-6.845-6.288-13.7-12.568c-.147-.135-.3-.261-.408-.35l-4.7,4.692ZM24.093,22.817c-.188-.154-.347-.263-.48-.4Q17.48,16.283,11.346,10.148a1.856,1.856,0,0,1-.633-1.557c.035-.428-.029-.866.016-1.293a.827.827,0,0,0-.514-.888C8.472,5.391,6.749,4.341,5.017,3.3c-.144-.087-.295-.164-.476-.263-.459.466-.889.938-1.36,1.367a.589.589,0,0,0-.127.9C3.891,6.637,4.675,8,5.483,9.342c.319.531.533,1.265,1.006,1.525a4.009,4.009,0,0,0,1.878.093,1.92,1.92,0,0,1,1.512.631q6.131,6.175,12.28,12.331a1.891,1.891,0,0,1,.276.492l1.657-1.6Zm4.371,10.4,1.3,1.4c1.554-1.539,3.067-3.037,4.6-4.56-.469-.427-.958-.873-1.434-1.31Z" transform="translate(-0.358 -0.563)" fill="#ed2f59"/>
    <path id="Path_16162" data-name="Path 16162" d="M162.476,148.465a7.928,7.928,0,0,1-.714,1.008q-5.609,5.634-11.239,11.249c-.427.427-.853.855-1.282,1.281-.6.6-1.212.675-1.674.217s-.4-1.071.2-1.674q5.455-5.459,10.914-10.914c.61-.61,1.216-1.227,1.835-1.826a.921.921,0,0,1,1.178-.222A4.49,4.49,0,0,1,162.476,148.465Z" transform="translate(-128.128 -128.285)" fill="#ed2f59"/>
    <path id="Path_16163" data-name="Path 16163" d="M271.058,125.011a1.017,1.017,0,1,1-1.041.993,1.033,1.033,0,0,1,1.041-.993Z" transform="translate(-234.953 -108.756)" fill="#ed2f59"/>
    <path id="Path_16164" data-name="Path 16164" d="M125.617,272.455a1.016,1.016,0,1,1,1.053-.98,1.028,1.028,0,0,1-1.053.98Z" transform="translate(-108.418 -235.296)" fill="#ed2f59"/>
    <path id="Path_16165" data-name="Path 16165" d="M277.572,276.91a3.11,3.11,0,0,1,.689.435q4.56,4.519,9.1,9.061a1.062,1.062,0,0,1,.114,1.6,1.048,1.048,0,0,1-1.561-.122q-4.573-4.542-9.133-9.1a1.052,1.052,0,0,1-.311-1.263,1.087,1.087,0,0,1,1.106-.611Z" transform="translate(-240.476 -240.941)" fill="#ed2f59"/>
  </g>
</svg>
