<svg xmlns="http://www.w3.org/2000/svg" width="50.225" height="50.237" viewBox="0 0 50.225 50.237">
  <path id="track" d="M26.512,18.367a8.152,8.152,0,1,0,8.152,8.152,8.152,8.152,0,0,0-8.152-8.152Zm0,13.46a5.308,5.308,0,1,1,5.308-5.308A5.308,5.308,0,0,1,26.512,31.826Zm-7.37-21.564a1.422,1.422,0,0,1,0-2.014l5.521-6.019a2.527,2.527,0,0,1,3.744,0l5.545,6a1.422,1.422,0,1,1-2.085,1.919L26.512,4.362l-5.355,5.829a1.422,1.422,0,0,1-2.014,0ZM10.185,31.874a1.422,1.422,0,0,1-1.919,2.085L2.246,28.438a2.583,2.583,0,0,1,0-3.815l6-5.545a1.425,1.425,0,0,1,1.943,2.085L4.355,26.518Zm23.7,10.877a1.422,1.422,0,0,1,0,2.014L28.36,50.784a2.557,2.557,0,0,1-3.791.024l-5.5-6.019a1.422,1.422,0,1,1,2.085-1.919l5.355,5.806,5.355-5.829a1.422,1.422,0,0,1,2.014-.071ZM51.63,26.518a2.607,2.607,0,0,1-.829,1.9l-6,5.545a1.425,1.425,0,0,1-1.943-2.085l5.806-5.355-5.829-5.355a1.422,1.422,0,0,1,1.919-2.085L50.777,24.6a2.607,2.607,0,0,1,.853,1.919Z" transform="translate(-1.405 -1.4)" fill="#ed2f59"/>
</svg>
