<svg xmlns="http://www.w3.org/2000/svg" width="56.014" height="49.171" viewBox="0 0 56.014 49.171">
  <g id="presentation" transform="translate(0.5 -2.114)">
    <path id="Path_16146" data-name="Path 16146" d="M55.014,36.256V56.567a11.438,11.438,0,0,1-.516,1.509,4.991,4.991,0,0,1-4.763,2.893c-2.417.019-4.834,0-7.251,0h-.625c.074.24.119.408.179.573q2.163,5.889,4.328,11.777c.543,1.476,1.1,2.947,1.621,4.431a1.594,1.594,0,0,1-.846,2.066,1.567,1.567,0,0,1-2.106-.827,4.636,4.636,0,0,1-.223-.545Q41.7,69.967,38.6,61.481c-.17-.467-.416-.5-.822-.523-.432-.023-.575.17-.706.532q-3.061,8.473-6.147,16.935a4.889,4.889,0,0,1-.358.777,1.439,1.439,0,0,1-1.439.753,1.408,1.408,0,0,1-1.382-1.082,2.82,2.82,0,0,1,.122-1.447c1.89-5.265,3.812-10.519,5.724-15.777.075-.208.139-.421.222-.677-1.884,0-3.691-.009-5.5.015a.755.755,0,0,0-.48.328,4.292,4.292,0,0,1-5.345,1.6c-1.656-.715-3.246-1.578-4.866-2.375-.169-.083-.344-.149-.589-.256v.771q0,8.487,0,16.976A1.691,1.691,0,0,1,15.1,79.974q-4.861,0-9.722,0c-1.316,0-1.93-.625-1.931-1.953,0-2.7-.009-5.408.009-8.111a.7.7,0,0,0-.5-.8,3.934,3.934,0,0,1-2.021-1.7A19.4,19.4,0,0,1,0,65.164V58.609A3.94,3.94,0,0,0,.089,58.2,9.48,9.48,0,0,1,2.55,52.654c.769-.83,1.679-1.528,2.522-2.282a7.67,7.67,0,0,1,10.1-11.537,7.736,7.736,0,0,1,.636,11.15l4.913,2.438v-.668c0-4.871-.009-9.742,0-14.613a5.021,5.021,0,0,1,5.1-5.28q12.032-.048,24.064,0a4.993,4.993,0,0,1,4.019,1.93,6.486,6.486,0,0,1,1.1,2.468ZM26.1,55.1c.125-.235.228-.421.322-.61,1-2,2-4,3-6a1.679,1.679,0,0,1,1.312-1.063,1.532,1.532,0,0,1,1.544.66,1.626,1.626,0,0,1,.067,1.777Q30.5,53.53,28.666,57.2c-.081.162-.152.329-.24.521.136.015.189.026.242.026q10.584,0,21.167,0a1.85,1.85,0,0,0,1.954-2.062q0-9.269,0-18.537a1.864,1.864,0,0,0-2.054-2.072q-11.874,0-23.746,0A1.845,1.845,0,0,0,23.951,37.1c-.006,1.648,0,3.3,0,4.944q0,5.749,0,11.5c0,.306.025.531.363.675.591.251,1.156.563,1.787.877ZM13.814,76.725v-.706q0-8.918,0-17.834a7.27,7.27,0,0,1,.033-.75,1.508,1.508,0,0,1,.994-1.289,1.752,1.752,0,0,1,1.543.168q3.523,1.768,7.052,3.525a1.211,1.211,0,0,0,1.792-.453c.3-.59.049-1.093-.766-1.5C21.6,56.46,18.7,55.1,15.878,53.59a10.914,10.914,0,0,0-5.839-1.241,7.023,7.023,0,0,0-6.812,6.982c-.023,1.7-.012,3.4,0,5.1a1.82,1.82,0,0,0,1.747,1.933,1.659,1.659,0,0,1,1.694,1.915q0,3.921,0,7.843v.6H13.81Zm.83-31.812A4.41,4.41,0,1,0,10.095,49.1,4.372,4.372,0,0,0,14.643,44.912Z" transform="translate(0 -29.227)" fill="#4a13b2" stroke="#fff" stroke-width="1"/>
    <path id="Path_16152" data-name="Path 16152" d="M267.336,99.318q-4.134,0-8.269,0a3.468,3.468,0,0,1-.8-.055,1.594,1.594,0,0,1,0-3.084,3.077,3.077,0,0,1,.742-.081q8.323-.006,16.647,0c1.323,0,2.135.9,1.846,2.017a1.586,1.586,0,0,1-1.684,1.2c-2.506.006-5.011,0-7.518,0h-.967Z" transform="translate(-229.457 -86.575)" fill="#4a13b2" stroke="#fff" stroke-width="1"/>
    <path id="Path_16153" data-name="Path 16153" d="M343.317,155.651c-1.43,0-2.86.011-4.289,0a1.515,1.515,0,0,1-1.5-1.022,1.546,1.546,0,0,1,.335-1.692,1.74,1.74,0,0,1,1.367-.5q1.957,0,3.914,0c1.484,0,2.968,0,4.451.006a1.555,1.555,0,0,1,1.529.978,1.531,1.531,0,0,1-.282,1.7,1.712,1.712,0,0,1-1.4.542q-2.065,0-4.129,0v-.006Z" transform="translate(-301.158 -136.861)" fill="#4a13b2" stroke="#fff" stroke-width="1"/>
    <path id="Path_16154" data-name="Path 16154" d="M343.24,212.006c-1.395,0-2.789.022-4.184-.008a1.611,1.611,0,0,1-1.513-2.352,1.533,1.533,0,0,1,1.439-.862c2.86,0,5.722-.009,8.582,0a1.591,1.591,0,0,1,1.648,1.559A1.629,1.629,0,0,1,347.584,212c-.857.033-1.716.01-2.574.011h-1.77Z" transform="translate(-301.102 -187.156)" fill="#4a13b2" stroke="#fff" stroke-width="1"/>
  </g>
</svg>
