<svg xmlns="http://www.w3.org/2000/svg" width="51.679" height="45.055" viewBox="0 0 51.679 45.055">
  <g id="finance-manager" transform="translate(-51.666 -78.154)">
    <path id="Path_14593" data-name="Path 14593" d="M269.037,95a1.076,1.076,0,0,0,.894-1.062V90.251a1.077,1.077,0,0,0-.894-1.062l-3.15-.546a10.329,10.329,0,0,0-.455-1.113l1.839-2.608a1.077,1.077,0,0,0-.118-1.38l-2.6-2.609a1.077,1.077,0,0,0-1.385-.118l-2.58,1.826a10.341,10.341,0,0,0-1.146-.476l-.539-3.119a1.077,1.077,0,0,0-1.062-.893h-3.687a1.077,1.077,0,0,0-1.06.894l-.54,3.111a9.979,9.979,0,0,0-1.146.482l-2.58-1.826a1.077,1.077,0,0,0-1.385.118l-2.6,2.609a1.077,1.077,0,0,0-.118,1.38l1.841,2.608a10.4,10.4,0,0,0-.455,1.112l-3.159.547a1.077,1.077,0,0,0-.894,1.062v3.687A1.076,1.076,0,0,0,242.951,95l3.2.549a10.605,10.605,0,0,0,.446,1.066l-1.868,2.652a1.077,1.077,0,0,0,.118,1.381l2.6,2.6a1.078,1.078,0,0,0,1.382.118l2.668-1.884a10.794,10.794,0,0,0,1.044.43l.554,3.221a1.077,1.077,0,0,0,1.06.894h3.688a1.077,1.077,0,0,0,1.062-.894l.554-3.222a10.889,10.889,0,0,0,1.042-.43l2.67,1.885a1.077,1.077,0,0,0,1.381-.118l2.6-2.6a1.077,1.077,0,0,0,.118-1.381L265.4,96.616a10.593,10.593,0,0,0,.445-1.068L269.036,95Zm-5.772,2.319,1.723,2.446-1.318,1.32-2.462-1.738a1.077,1.077,0,0,0-1.143-.061,8.48,8.48,0,0,1-1.843.758,1.077,1.077,0,0,0-.774.855l-.513,2.976h-1.873l-.514-2.976a1.077,1.077,0,0,0-.773-.855,8.287,8.287,0,0,1-1.841-.756,1.073,1.073,0,0,0-1.147.059l-2.461,1.738-1.319-1.32,1.724-2.446a1.077,1.077,0,0,0,.057-1.152,8.4,8.4,0,0,1-.777-1.862,1.077,1.077,0,0,0-.854-.769l-2.946-.506V91.157l2.918-.506a1.077,1.077,0,0,0,.857-.783,8.067,8.067,0,0,1,.773-1.893,1.077,1.077,0,0,0-.057-1.15l-1.7-2.405,1.32-1.323,2.38,1.685a1.077,1.077,0,0,0,1.163.054,8.029,8.029,0,0,1,1.916-.806,1.077,1.077,0,0,0,.777-.855l.5-2.868h1.875l.5,2.875a1.077,1.077,0,0,0,.775.855,8.049,8.049,0,0,1,1.919.8,1.078,1.078,0,0,0,1.163-.053l2.379-1.684,1.32,1.322-1.7,2.405a1.077,1.077,0,0,0-.057,1.15,8.076,8.076,0,0,1,.774,1.893,1.077,1.077,0,0,0,.856.784l2.911.5v1.875l-2.939.506a1.077,1.077,0,0,0-.853.769,8.382,8.382,0,0,1-.777,1.862,1.077,1.077,0,0,0,.057,1.151Z" transform="translate(-166.586 0)" fill="#11a377"/>
    <path id="Path_14594" data-name="Path 14594" d="M89.408,151.993a4.7,4.7,0,1,0,4.7,4.7A4.709,4.709,0,0,0,89.408,151.993Zm0,7.257a2.552,2.552,0,1,1,2.552-2.552A2.555,2.555,0,0,1,89.408,159.25ZM64.189,187.816a12.522,12.522,0,1,0-12.522-12.524,12.537,12.537,0,0,0,12.522,12.524Zm0-22.893A10.37,10.37,0,1,1,53.82,175.293a10.382,10.382,0,0,1,10.369-10.369Z" transform="translate(0 -64.608)" fill="#11a377"/>
    <path id="Path_14595" data-name="Path 14595" d="M124.976,130.89a1.685,1.685,0,0,1-1.683-1.683,1.077,1.077,0,1,0-2.153,0,3.829,3.829,0,0,0,2.759,3.664v.517a1.077,1.077,0,1,0,2.153,0v-.517a3.826,3.826,0,0,0-1.077-7.5,1.683,1.683,0,1,1,1.683-1.683,1.077,1.077,0,0,0,2.153,0,3.83,3.83,0,0,0-2.759-3.664v-.517a1.077,1.077,0,1,0-2.153,0v.517a3.826,3.826,0,0,0,1.077,7.5,1.683,1.683,0,0,1,0,3.366Zm8.885-31.751A.977.977,0,0,0,133.77,99a1,1,0,0,0-.14-.21l-2.308-2.308a1.077,1.077,0,1,0-1.522,1.522l.474.474h-5.3a1.077,1.077,0,0,0-1.077,1.077v10.149a1.077,1.077,0,1,0,2.153,0v-9.074h4.215l-.468.468a1.077,1.077,0,1,0,1.522,1.522l2.3-2.3a1.075,1.075,0,0,0,.239-.355,1.04,1.04,0,0,0,.054-.267.9.9,0,0,0,.029-.144v0A1.073,1.073,0,0,0,133.862,99.139Zm15.932,35.569V124.556a1.077,1.077,0,1,0-2.153,0v9.075h-4.215l.468-.469a1.077,1.077,0,1,0-1.522-1.522l-2.3,2.3a1.018,1.018,0,0,0-.311.71c0,.019-.011.037-.011.057a1.079,1.079,0,0,0,.083.414,1.058,1.058,0,0,0,.153.23.867.867,0,0,0,.079.118l2.308,2.308a1.076,1.076,0,1,0,1.522-1.522l-.474-.474h5.3a1.077,1.077,0,0,0,1.077-1.077Z" transform="translate(-60.788 -15.762)" fill="#11a377"/>
  </g>
</svg>
