<svg xmlns="http://www.w3.org/2000/svg" width="44" height="31.625" viewBox="0 0 44 31.625">
  <g id="employee-wages" transform="translate(0 -61.354)">
    <path id="Path_14503" data-name="Path 14503" d="M41.938,61.354H2.063A2.065,2.065,0,0,0,0,63.416V81.979a2.065,2.065,0,0,0,2.063,2.063h5.5V82.151a7.536,7.536,0,0,1,.332-2.216,7.213,7.213,0,0,0-6.519-4.144V69.6a7.221,7.221,0,0,0,7.2-6.875H35.759a7.218,7.218,0,0,0,6.866,7.029v6.05A7.214,7.214,0,0,0,36.24,80.44a7.552,7.552,0,0,1,.2,1.711v1.891h5.5A2.065,2.065,0,0,0,44,81.979V63.416A2.065,2.065,0,0,0,41.938,61.354ZM7.2,82.666H2.063a.688.688,0,0,1-.688-.687V77.166A5.846,5.846,0,0,1,7.2,82.666ZM1.375,68.229V63.416a.688.688,0,0,1,.688-.687H7.209A5.851,5.851,0,0,1,1.375,68.229Zm41.25,13.75a.688.688,0,0,1-.687.688h-4.8a5.852,5.852,0,0,1,5.49-5.49Zm0-13.588a5.852,5.852,0,0,1-5.49-5.49h4.8a.688.688,0,0,1,.688.687Z" transform="translate(0 0)" fill="#1cbf9a"/>
    <path id="Path_14504" data-name="Path 14504" d="M150.749,106.051a7.563,7.563,0,1,0-7.562,7.562A7.562,7.562,0,0,0,150.749,106.051Zm-13.75,0a6.187,6.187,0,1,1,6.187,6.188A6.188,6.188,0,0,1,137,106.051Z" transform="translate(-121.186 -33.182)" fill="#1cbf9a"/>
    <path id="Path_14506" data-name="Path 14506" d="M42.625,212.961H35.063v-6.7a6.193,6.193,0,0,0-4.747-6.011,8.906,8.906,0,0,1-.623,1.273,4.81,4.81,0,0,1,4,4.738v6.7H10.313v-6.7a4.81,4.81,0,0,1,4-4.738,8.906,8.906,0,0,1-.623-1.273,6.193,6.193,0,0,0-4.747,6.011v6.7H1.375A1.375,1.375,0,0,0,0,214.336v1.375a1.375,1.375,0,0,0,1.375,1.375h41.25A1.375,1.375,0,0,0,44,215.711v-1.375A1.375,1.375,0,0,0,42.625,212.961Zm0,2.75H1.375v-1.375h41.25Z" transform="translate(0 -124.108)" fill="#1cbf9a"/>
  </g>
</svg>
