<svg xmlns="http://www.w3.org/2000/svg" width="24" height="24" viewBox="0 0 24 24">
  <g id="vuesax_linear_video-circle" data-name="vuesax/linear/video-circle" transform="translate(-300 -254)">
    <g id="video-circle">
      <path id="Vector" d="M0,3.617V2.137C0,.227,1.35-.543,3,.407l1.28.74,1.28.74c1.65.95,1.65,2.51,0,3.46l-1.28.74L3,6.827C1.35,7.777,0,7,0,5.1Z" transform="translate(309.1 262.383)" fill="#4a13b2"/>
      <path id="Vector-2" data-name="Vector" d="M20,10A10,10,0,1,1,10,0,10,10,0,0,1,20,10Z" transform="translate(302 256)" fill="none" stroke="#292d32" stroke-linecap="round" stroke-linejoin="round" stroke-width="1.5"/>
      <path id="Vector-3" data-name="Vector" d="M0,0H24V24H0Z" transform="translate(300 254)" fill="none" opacity="0"/>
    </g>
  </g>
</svg>
