<svg xmlns="http://www.w3.org/2000/svg" width="1536.969" height="1395.424" viewBox="0 0 1536.969 1395.424">
  <g id="Pro-int-wave" transform="translate(64.628 1070.7)" opacity="0.05">
    <path id="Path_15190" data-name="Path 15190" d="M967.93-1070.2H439.812A239.868,239.868,0,0,0,232.08-950.277L-31.988-492.9a239.83,239.83,0,0,0,0,239.859L232.085,204.309A239.9,239.9,0,0,0,439.812,324.224H967.93A239.869,239.869,0,0,0,1175.661,204.3L1439.7-253.044a239.829,239.829,0,0,0,0-239.859L1175.657-950.285A239.9,239.9,0,0,0,967.93-1070.2Z" transform="translate(0 0)" fill="none" stroke="#4a13b2" stroke-width="1"/>
    <path id="Path_15191" data-name="Path 15191" d="M1019.142-994.3H507.7A232.383,232.383,0,0,0,306.522-878.179l-255.8,443a232.347,232.347,0,0,0,0,232.318L306.471,240.131a232.318,232.318,0,0,0,201.2,116.159H1019.2a232.384,232.384,0,0,0,201.175-116.121l255.744-443.03a232.346,232.346,0,0,0,0-232.318L1220.368-878.141A232.39,232.39,0,0,0,1019.142-994.3Z" transform="translate(-59.535 -53.969)" fill="none" stroke="#4a13b2" stroke-width="1"/>
    <path id="Path_15192" data-name="Path 15192" d="M1070.311-918.4H575.423A224.785,224.785,0,0,0,380.751-806.018L133.327-377.424a224.8,224.8,0,0,0,0,224.747L380.785,275.9A224.686,224.686,0,0,0,575.452,388.269H1070.34a224.785,224.785,0,0,0,194.672-112.382l247.425-428.564a224.8,224.8,0,0,0,0-224.747L1264.978-806A224.8,224.8,0,0,0,1070.311-918.4Z" transform="translate(-118.996 -107.937)" fill="none" stroke="#4a13b2" stroke-width="1"/>
    <path id="Path_15193" data-name="Path 15193" d="M1121.4-842.5H643.153A217.28,217.28,0,0,0,455.03-733.906L215.88-319.7a217.228,217.228,0,0,0,0,217.234L455.016,311.747A217.249,217.249,0,0,0,643.153,420.364h478.273A217.281,217.281,0,0,0,1309.549,311.77L1548.67-102.437a217.228,217.228,0,0,0,0-217.234L1309.533-733.883A217.248,217.248,0,0,0,1121.4-842.5Z" transform="translate(-178.404 -161.906)" fill="none" stroke="#4a13b2" stroke-width="1"/>
    <path id="Path_15194" data-name="Path 15194" d="M1172.565-766.5H710.907A209.721,209.721,0,0,0,529.3-661.669L298.486-261.845a209.738,209.738,0,0,0,0,209.692L529.329,347.641A209.687,209.687,0,0,0,710.935,452.473h461.658A209.721,209.721,0,0,0,1354.2,347.642L1585.015-52.182a209.685,209.685,0,0,0,0-209.663L1354.143-661.668A209.675,209.675,0,0,0,1172.565-766.5Z" transform="translate(-237.865 -215.945)" fill="none" stroke="#4a13b2" stroke-width="1"/>
    <path id="Path_15195" data-name="Path 15195" d="M1223.652-690.6H778.638A202.222,202.222,0,0,0,603.573-589.572L381.04-204.12A202.058,202.058,0,0,0,381.04-2L603.562,383.434A202.162,202.162,0,0,0,778.638,484.481h445.044a202.222,202.222,0,0,0,175.065-101.028L1621.25-1.97a202.059,202.059,0,0,0,0-202.122L1398.728-589.553A202.2,202.2,0,0,0,1223.652-690.6Z" transform="translate(-297.274 -269.914)" fill="none" stroke="#4a13b2" stroke-width="1"/>
    <path id="Path_15196" data-name="Path 15196" d="M1274.844-614.7h-428.4a194.565,194.565,0,0,0-168.526,97.306L463.7-146.4a194.707,194.707,0,0,0,0,194.58L677.9,419.2a194.5,194.5,0,0,0,168.517,97.29h428.429a194.564,194.564,0,0,0,168.526-97.306L1657.561,48.213a194.707,194.707,0,0,0,0-194.58l-214.2-371.014A194.548,194.548,0,0,0,1274.844-614.7Z" transform="translate(-356.788 -323.883)" fill="none" stroke="#4a13b2" stroke-width="1"/>
    <path id="Path_15197" data-name="Path 15197" d="M1325.988-538.8H914.174a187.064,187.064,0,0,0-161.986,93.5L546.252-88.671a187.078,187.078,0,0,0,0,187.038L752.188,455.021a187.065,187.065,0,0,0,161.986,93.5h411.814a187.037,187.037,0,0,0,162-93.522L1693.853,98.4a187.08,187.08,0,0,0,0-187.039L1487.946-445.3A187.078,187.078,0,0,0,1325.988-538.8Z" transform="translate(-416.196 -377.851)" fill="none" stroke="#4a13b2" stroke-width="1"/>
    <path id="Path_15198" data-name="Path 15198" d="M1377.142-462.9h-395.2a179.559,179.559,0,0,0-155.448,89.706L628.9-30.917a179.438,179.438,0,0,0,0,179.5L826.515,490.843a179.44,179.44,0,0,0,155.456,89.72h395.2a179.56,179.56,0,0,0,155.448-89.706L1730.211,148.58a179.437,179.437,0,0,0,0-179.5L1532.6-373.152A179.532,179.532,0,0,0,1377.142-462.9Z" transform="translate(-475.671 -431.819)" fill="none" stroke="#4a13b2" stroke-width="1"/>
    <path id="Path_15199" data-name="Path 15199" d="M1428.41-387H1049.883a172,172,0,0,0-148.919,85.952L711.665,26.837a172.048,172.048,0,0,0,0,171.926L900.957,526.637A171.926,171.926,0,0,0,1049.883,612.6h378.585a172,172,0,0,0,148.919-85.951l189.3-327.856a172.047,172.047,0,0,0,0-171.926l-189.35-327.9A171.972,171.972,0,0,0,1428.41-387Z" transform="translate(-535.261 -485.788)" fill="none" stroke="#4a13b2" stroke-width="1"/>
    <path id="Path_15200" data-name="Path 15200" d="M1479.523-311h-361.97a164.449,164.449,0,0,0-142.4,82.184L794.216,84.662a164.413,164.413,0,0,0,0,164.385l181,313.484a164.349,164.349,0,0,0,142.4,82.178h361.97a164.448,164.448,0,0,0,142.4-82.184l180.938-313.477a164.416,164.416,0,0,0,0-164.385L1621.89-228.822A164.337,164.337,0,0,0,1479.523-311Z" transform="translate(-594.667 -539.828)" fill="none" stroke="#4a13b2" stroke-width="1"/>
    <path id="Path_15201" data-name="Path 15201" d="M1530.54-235.1H1185.214a156.9,156.9,0,0,0-135.867,78.423L876.671,142.387a156.844,156.844,0,0,0,0,156.872l172.678,299.065a156.852,156.852,0,0,0,135.865,78.421h345.355a156.983,156.983,0,0,0,135.866-78.421l172.648-299.065a156.842,156.842,0,0,0,0-156.872L1666.406-156.678A156.9,156.9,0,0,0,1530.54-235.1Z" transform="translate(-654.006 -593.796)" fill="none" stroke="#4a13b2" stroke-width="1"/>
    <path id="Path_15202" data-name="Path 15202" d="M1581.709-159.2H1252.968a149.449,149.449,0,0,0-129.335,74.665L959.278,200.141a149.3,149.3,0,0,0,0,149.3l164.355,284.675a149.319,149.319,0,0,0,129.335,74.665h328.741a149.45,149.45,0,0,0,129.335-74.665l164.356-284.7a149.3,149.3,0,0,0,0-149.3L1710.986-84.535A149.227,149.227,0,0,0,1581.709-159.2Z" transform="translate(-713.468 -647.765)" fill="none" stroke="#4a13b2" stroke-width="1"/>
    <path id="Path_15203" data-name="Path 15203" d="M1632.99-83.3h-312.1A141.7,141.7,0,0,0,1198.14-12.408l-156.056,270.3a141.811,141.811,0,0,0,0,141.76l156.063,270.315a141.646,141.646,0,0,0,122.746,70.851h312.126a141.737,141.737,0,0,0,122.752-70.86L1911.8,399.654a141.809,141.809,0,0,0,0-141.76L1755.737-12.42A141.7,141.7,0,0,0,1632.99-83.3Z" transform="translate(-773.071 -701.733)" fill="none" stroke="#4a13b2" stroke-width="1"/>
    <path id="Path_15204" data-name="Path 15204" d="M1684.076-7.4H1388.594a134.18,134.18,0,0,0-116.223,67.106L1124.637,315.59a134.127,134.127,0,0,0,0,134.189l147.741,255.9a134.211,134.211,0,0,0,116.217,67.094h295.482A134.182,134.182,0,0,0,1800.3,705.664L1948.034,449.78a134.128,134.128,0,0,0,0-134.189l-147.741-255.9A134.175,134.175,0,0,0,1684.076-7.4Z" transform="translate(-832.479 -755.702)" fill="none" stroke="#4a13b2" stroke-width="1"/>
    <path id="Path_15205" data-name="Path 15205" d="M1735.245,68.5H1456.378A126.668,126.668,0,0,0,1346.7,131.822L1207.243,373.373a126.693,126.693,0,0,0,0,126.677l139.448,241.535a126.676,126.676,0,0,0,109.686,63.338h278.9A126.668,126.668,0,0,0,1844.951,741.6L1984.409,500.05a126.694,126.694,0,0,0,0-126.677L1844.96,131.838A126.819,126.819,0,0,0,1735.245,68.5Z" transform="translate(-891.94 -809.671)" fill="none" stroke="#4a13b2" stroke-width="1"/>
    <path id="Path_15206" data-name="Path 15206" d="M1786.456,144.5H1524.232a119.1,119.1,0,0,0-103.165,59.568l-131.118,227.1a119.2,119.2,0,0,0,0,119.135L1421.076,777.42a119.048,119.048,0,0,0,103.156,59.553h262.281a119.1,119.1,0,0,0,103.164-59.568l131.088-227.1a119.2,119.2,0,0,0,0-119.135L1889.611,204.053A119.079,119.079,0,0,0,1786.456,144.5Z" transform="translate(-951.472 -863.71)" fill="none" stroke="#4a13b2" stroke-width="1"/>
    <path id="Path_15207" data-name="Path 15207" d="M1837.582,220.4H1591.944a111.585,111.585,0,0,0-96.618,55.783l-122.871,212.74a111.665,111.665,0,0,0,0,111.564L1495.29,813.214a111.556,111.556,0,0,0,96.626,55.8h245.638a111.584,111.584,0,0,0,96.618-55.783l122.841-212.768a111.663,111.663,0,0,0,0-111.564L1934.179,276.168a111.614,111.614,0,0,0-96.6-55.768Z" transform="translate(-1010.863 -917.679)" fill="none" stroke="#4a13b2" stroke-width="1"/>
    <path id="Path_15208" data-name="Path 15208" d="M1888.665,296.3H1659.641a104.026,104.026,0,0,0-90.1,52.019L1455.005,546.648a104.023,104.023,0,0,0,0,104.023l114.541,198.336a104,104,0,0,0,90.1,52.012h229.023a104.025,104.025,0,0,0,90.1-52.019l114.507-198.329a104.021,104.021,0,0,0,0-104.023l-114.54-198.336A103.985,103.985,0,0,0,1888.665,296.3Z" transform="translate(-1070.268 -971.647)" fill="none" stroke="#4a13b2" stroke-width="1"/>
    <path id="Path_15209" data-name="Path 15209" d="M1939.826,372.2H1727.417a96.432,96.432,0,0,0-83.547,48.246L1537.663,604.373a96.406,96.406,0,0,0,0,96.481l106.219,183.975a96.492,96.492,0,0,0,83.535,48.226h212.467a96.433,96.433,0,0,0,83.547-48.246l106.208-183.927a96.4,96.4,0,0,0,0-96.481L2023.42,420.426a96.588,96.588,0,0,0-83.594-48.226Z" transform="translate(-1129.751 -1025.615)" fill="none" stroke="#4a13b2" stroke-width="1"/>
    <path id="Path_15210" data-name="Path 15210" d="M1991.118,448.1H1795.324a88.959,88.959,0,0,0-77.005,44.47l-97.9,169.586a89.055,89.055,0,0,0,0,88.939l97.9,169.586a88.959,88.959,0,0,0,77.005,44.469h195.823a88.892,88.892,0,0,0,77.01-44.478l97.892-169.577a89.056,89.056,0,0,0,0-88.939l-97.9-169.586A88.973,88.973,0,0,0,1991.118,448.1Z" transform="translate(-1189.336 -1079.584)" fill="none" stroke="#4a13b2" stroke-width="1"/>
    <path id="Path_15211" data-name="Path 15211" d="M2042.133,524H1862.954a81.394,81.394,0,0,0-70.471,40.677l-89.608,155.175a81.372,81.372,0,0,0,0,81.368l89.6,155.167a81.4,81.4,0,0,0,70.475,40.685h179.179A81.394,81.394,0,0,0,2112.6,956.4l89.58-155.175a81.37,81.37,0,0,0,0-81.368l-89.6-155.167A81.353,81.353,0,0,0,2042.133,524Z" transform="translate(-1248.673 -1133.553)" fill="none" stroke="#4a13b2" stroke-width="1"/>
    <path id="Path_15212" data-name="Path 15212" d="M2093.219,599.9H1930.655a73.836,73.836,0,0,0-63.942,36.923l-81.286,140.812a73.744,73.744,0,0,0,0,73.827l81.282,140.806a73.8,73.8,0,0,0,63.945,36.929h162.564a73.836,73.836,0,0,0,63.942-36.923l81.285-140.812a73.742,73.742,0,0,0,0-73.827l-81.282-140.806A73.838,73.838,0,0,0,2093.22,599.9Z" transform="translate(-1308.081 -1187.522)" fill="none" stroke="#4a13b2" stroke-width="1"/>
    <path id="Path_15213" data-name="Path 15213" d="M2144.517,675.9h-145.95a66.286,66.286,0,0,0-57.422,33.154l-72.953,126.405a66.456,66.456,0,0,0,0,66.314l72.959,126.388a66.281,66.281,0,0,0,57.415,33.143h145.95a66.285,66.285,0,0,0,57.422-33.154l72.953-126.376a66.459,66.459,0,0,0,0-66.315l-72.96-126.388A66.306,66.306,0,0,0,2144.517,675.9Z" transform="translate(-1367.671 -1241.561)" fill="none" stroke="#4a13b2" stroke-width="1"/>
    <path id="Path_15214" data-name="Path 15214" d="M2195.6,751.8H2066.294a58.788,58.788,0,0,0-50.881,29.351l-64.671,112.033a58.767,58.767,0,0,0,0,58.744l64.667,112.027a58.718,58.718,0,0,0,50.885,29.357h129.364a58.789,58.789,0,0,0,50.881-29.351l64.671-112.033a58.767,58.767,0,0,0,0-58.744l-64.7-112.026A58.8,58.8,0,0,0,2195.6,751.8Z" transform="translate(-1427.076 -1295.53)" fill="none" stroke="#4a13b2" stroke-width="1"/>
    <path id="Path_15215" data-name="Path 15215" d="M2246.818,827.7H2134.1a51.174,51.174,0,0,0-44.325,25.6L2033.4,950.909a51.146,51.146,0,0,0,0,51.2l56.347,97.608a51.208,51.208,0,0,0,44.325,25.6h112.72a51.172,51.172,0,0,0,44.324-25.6l56.345-97.608a51.136,51.136,0,0,0,0-51.2L2291.113,853.3A51.16,51.16,0,0,0,2246.818,827.7Z" transform="translate(-1486.557 -1349.498)" fill="none" stroke="#4a13b2" stroke-width="1"/>
    <path id="Path_15216" data-name="Path 15216" d="M2297.883,903.6h-96.105a43.58,43.58,0,0,0-37.795,21.845l-48.082,83.218a43.6,43.6,0,0,0,0,43.632l48.082,83.218a43.648,43.648,0,0,0,37.795,21.844h96.105a43.577,43.577,0,0,0,37.794-21.844l48.025-83.218a43.6,43.6,0,0,0,0-43.632l-48.082-83.218A43.488,43.488,0,0,0,2297.883,903.6Z" transform="translate(-1545.945 -1403.466)" fill="none" stroke="#4a13b2" stroke-width="1"/>
    <path id="Path_15217" data-name="Path 15217" d="M2349.022,979.5h-79.491a36.09,36.09,0,0,0-31.265,18.061l-39.759,68.856a36.162,36.162,0,0,0,0,36.119l39.76,68.857a36.117,36.117,0,0,0,31.265,18.03h79.49a36.119,36.119,0,0,0,31.266-18.032l39.73-68.856a36.157,36.157,0,0,0,0-36.119l-39.73-68.857A36.119,36.119,0,0,0,2349.022,979.5Z" transform="translate(-1605.406 -1457.435)" fill="none" stroke="#4a13b2" stroke-width="1"/>
    <path id="Path_15218" data-name="Path 15218" d="M2400.257,1055.4h-62.875a28.564,28.564,0,0,0-24.736,14.276l-31.437,54.437a28.6,28.6,0,0,0,0,28.548l31.438,54.439a28.651,28.651,0,0,0,24.734,14.3h62.9a28.564,28.564,0,0,0,24.735-14.276l31.437-54.437a28.6,28.6,0,0,0,0-28.548l-31.467-54.438A28.651,28.651,0,0,0,2400.257,1055.4Z" transform="translate(-1664.934 -1511.404)" fill="none" stroke="#4a13b2" stroke-width="1"/>
    <path id="Path_15219" data-name="Path 15219" d="M2451.279,1131.4h-46.263a21.032,21.032,0,0,0-18.2,10.518L2363.668,1182a20.988,20.988,0,0,0,0,21.007l23.145,40.077a21.03,21.03,0,0,0,18.2,10.518h46.263a21.03,21.03,0,0,0,18.2-10.518L2492.626,1203a20.986,20.986,0,0,0,0-21.007l-23.145-40.078A21.031,21.031,0,0,0,2451.279,1131.4Z" transform="translate(-1724.277 -1565.443)" fill="none" stroke="#4a13b2" stroke-width="1"/>
    <path id="Path_15220" data-name="Path 15220" d="M2502.417,1207.3h-29.647a13.5,13.5,0,0,0-11.673,6.732l-14.824,25.659a13.5,13.5,0,0,0,0,13.466l14.824,25.659a13.469,13.469,0,0,0,11.673,6.732h29.647a13.506,13.506,0,0,0,11.674-6.732l14.823-25.659a13.5,13.5,0,0,0,0-13.466l-14.823-25.659A13.471,13.471,0,0,0,2502.417,1207.3Z" transform="translate(-1783.737 -1619.412)" fill="none" stroke="#4a13b2" stroke-width="1"/>
    <path id="Path_15221" data-name="Path 15221" d="M2553.657,1283.2h-13.031a5.947,5.947,0,0,0-5.144,2.976l-6.5,11.3a6.018,6.018,0,0,0,0,5.924l6.5,11.3a5.973,5.973,0,0,0,5.144,2.976h13.031a5.945,5.945,0,0,0,5.143-2.976l6.5-11.3a6.018,6.018,0,0,0,0-5.924l-6.5-11.3a6.007,6.007,0,0,0-5.143-2.976Z" transform="translate(-1843.271 -1673.38)" fill="none" stroke="#4a13b2" stroke-width="1"/>
  </g>
</svg>
