<svg xmlns="http://www.w3.org/2000/svg" width="41.541" height="42.587" viewBox="0 0 41.541 42.587">
  <g id="Group_9599" data-name="Group 9599" transform="translate(-1214.877 -4895)">
    <path id="Path_14643" data-name="Path 14643" d="M42.752,9.081h-1.89V6.489A2.992,2.992,0,0,0,37.874,3.5H7.189A2.992,2.992,0,0,0,4.2,6.489V43.1a2.992,2.992,0,0,0,2.989,2.989H40.878a4.868,4.868,0,0,0,4.863-4.863V12.07a2.992,2.992,0,0,0-2.989-2.989Zm1.494,32.143a3.373,3.373,0,0,1-3.37,3.369H7.189A1.5,1.5,0,0,1,5.7,43.1V6.489A1.5,1.5,0,0,1,7.189,4.994H37.874a1.5,1.5,0,0,1,1.494,1.494V38.563a2.924,2.924,0,0,0,2.921,2.921.747.747,0,0,0,0-1.494,1.429,1.429,0,0,1-1.427-1.427V10.575h1.89a1.5,1.5,0,0,1,1.494,1.494Z" transform="translate(1210.677 4891.5)" fill="#f0b530"/>
    <path id="Path_14644" data-name="Path 14644" d="M21.333,17.933V9.8a2.244,2.244,0,0,0-2.241-2.241H10.954A2.244,2.244,0,0,0,8.713,9.8v8.136a2.244,2.244,0,0,0,2.241,2.241h8.136a2.244,2.244,0,0,0,2.241-2.241Zm-11.126,0V9.8a.747.747,0,0,1,.747-.747h8.136a.747.747,0,0,1,.747.747v8.136a.747.747,0,0,1-.747.747H10.954A.747.747,0,0,1,10.207,17.933Zm26.421-5.757H24.2a.747.747,0,1,0,0,1.494H36.628a.747.747,0,1,0,0-1.494Zm0,5.775H24.2a.747.747,0,0,0,0,1.494H36.628a.747.747,0,0,0,0-1.494Zm0,5.773H12.987a.747.747,0,1,0,0,1.494H36.628a.747.747,0,0,0,0-1.494Zm0,5.775H12.987a.747.747,0,1,0,0,1.494H36.628a.747.747,0,1,0,0-1.494Zm0,5.774H12.987a.747.747,0,1,0,0,1.494H36.628a.747.747,0,1,0,0-1.494Zm0,5.775H12.987a.747.747,0,1,0,0,1.494H36.628a.747.747,0,1,0,0-1.494Z" transform="translate(1209.536 4890.475)" fill="#f0b530"/>
  </g>
</svg>
